M48
; DRILL file {KiCad 9.0.7-9.0.7~ubuntu24.04.1} date 2026-03-29T16:16:19-0400
; FORMAT={-:-/ absolute / metric / decimal}
; #@! TF.CreationDate,2026-03-29T16:16:19-04:00
; #@! TF.GenerationSoftware,Kicad,Pcbnew,9.0.7-9.0.7~ubuntu24.04.1
; #@! TF.FileFunction,Plated,1,2,PTH
FMAT,2
METRIC
; #@! TA.AperFunction,Plated,PTH,ViaDrill
T1C0.300
; #@! TA.AperFunction,Plated,PTH,ViaDrill
T2C0.406
; #@! TA.AperFunction,Plated,PTH,ComponentDrill
T3C0.762
; #@! TA.AperFunction,Plated,PTH,ComponentDrill
T4C1.000
; #@! TA.AperFunction,Plated,PTH,ComponentDrill
T5C1.200
%
G90
G05
T1
X327.75Y-330.718
X337.813Y-310.422
X338.863Y-309.372
X351.367Y-302.643
X352.409Y-299.442
X353.206Y-297.411
T2
X147.65Y-180.526
X151.892Y-223.66
X162.004Y-228.114
X163.56Y-209.871
X164.974Y-269.268
X166.035Y-225.993
X167.449Y-175.576
X180.53Y-264.318
X182.652Y-325.129
X185.834Y-198.911
X187.601Y-176.637
X189.016Y-306.745
X193.117Y-234.62
X193.117Y-227.549
X193.965Y-267.147
X197.854Y-236.387
X198.208Y-151.181
X198.915Y-289.067
X199.269Y-227.902
X199.622Y-131.382
X202.804Y-200.325
X204.925Y-227.902
X205.279Y-249.469
X205.986Y-214.821
X206.552Y-255.691
X207.754Y-117.593
X208.461Y-202.446
X210.229Y-250.176
X210.936Y-185.122
X211.113Y-207.219
X211.289Y-177.061
X211.289Y-232.145
X212.35Y-178.758
X215.178Y-161.081
X217.653Y-271.743
X217.865Y-257.954
X217.865Y-248.338
X219.598Y-177.061
X221.719Y-217.472
X221.896Y-283.056
X222.25Y-145.524
X223.947Y-238.297
X226.492Y-159.666
X226.846Y-261.136
X227.104Y-268.984
X230.558Y-160.197
X231.088Y-296.492
X231.265Y-229.493
X232.856Y-265.732
X232.856Y-160.373
X233.917Y-248.408
X234.129Y-164.758
X234.27Y-173.808
X235.331Y-131.029
X240.988Y-254.772
X241.695Y-310.634
X243.816Y-154.363
X249.12Y-266.439
X255.837Y-170.627
X256.049Y-160.373
X256.191Y-124.311
X256.766Y-138.807
X259.726Y-164.05
X260.787Y-161.434
X261.14Y-268.561
X262.06Y-192.688
X262.13Y-198.416
X262.555Y-148.353
X265.383Y-260.783
X265.737Y-149.413
X270.686Y-271.036
X270.863Y-200.537
X271.04Y-164.616
X272.101Y-283.056
X273.868Y-170.98
X275.565Y-277.753
X276.98Y-249.752
X277.757Y-152.242
X279.172Y-272.45
X279.384Y-180.597
X281.505Y-200.537
X282.354Y-277.753
X283.414Y-280.228
X283.768Y-181.763
X287.869Y-258.661
X289.708Y-205.345
X289.99Y-201.386
X290.485Y-130.321
X290.697Y-172.96
X290.839Y-157.545
X291.546Y-115.119
X291.9Y-164.97
X292.607Y-279.521
X295.789Y-141.989
X296.92Y-212.558
X296.92Y-265.025
X298.758Y-304.058
X299.821Y-170.421
X300.031Y-176.637
X300.173Y-209.305
X300.738Y-164.616
X301.092Y-156.484
X302.86Y-284.824
X303.39Y-162.672
X303.567Y-174.516
X304.557Y-317.351
X304.627Y-223.66
X306.749Y-312.26
X307.102Y-174.516
X307.102Y-172.394
X309.224Y-157.545
X310.496Y-277.895
X310.638Y-188.658
X310.991Y-288.006
X314.173Y-135.625
X314.527Y-164.97
X314.881Y-175.93
X316.86Y-182.435
X317.355Y-251.944
X317.709Y-142.696
X317.709Y-312.401
X320.396Y-287.794
X321.244Y-178.051
X321.244Y-303.155
X321.284Y-330.0
X322.234Y-294.158
X323.799Y-327.485
X325.134Y-297.764
X325.31Y-178.405
X325.406Y-170.627
X325.77Y-286.38
X326.672Y-324.612
X328.316Y-180.88
X328.774Y-331.742
X329.187Y-322.097
X330.79Y-271.743
X331.003Y-317.917
X331.498Y-323.087
X331.659Y-324.78
X331.674Y-321.531
X332.205Y-319.119
X332.711Y-325.801
X332.735Y-323.185
X333.265Y-166.03
X333.972Y-318.765
X334.538Y-294.017
X334.609Y-316.715
X334.68Y-130.675
X334.962Y-300.946
X335.74Y-318.412
X336.306Y-311.906
X337.987Y-249.752
X338.074Y-293.592
X338.933Y-314.063
X339.632Y-314.667
X341.326Y-308.442
X341.751Y-175.93
X342.281Y-312.932
X342.477Y-305.933
X343.081Y-266.355
X343.181Y-256.556
X343.196Y-259.595
X343.232Y-262.971
X343.236Y-310.068
X343.448Y-290.764
X343.518Y-277.232
X343.518Y-272.45
X343.872Y-321.24
X344.155Y-308.956
X344.402Y-316.114
X345.137Y-306.86
X345.144Y-315.351
X345.286Y-270.682
X345.286Y-275.472
X345.852Y-305.472
X346.064Y-314.452
X346.205Y-313.179
X346.607Y-309.763
X346.7Y-290.057
X346.7Y-306.391
X347.62Y-309.927
X347.761Y-273.029
X347.832Y-324.281
X349.741Y-301.724
X350.059Y-322.478
X350.236Y-270.479
X350.236Y-304.411
X350.342Y-302.608
X350.343Y-315.468
X350.589Y-124.665
X351.297Y-186.183
X351.438Y-299.886
X352.121Y-305.457
X352.176Y-268.575
X352.216Y-329.231
X352.923Y-302.643
X353.206Y-336.443
X353.688Y-267.063
X354.337Y-331.069
X354.404Y-314.88
X354.549Y-299.461
X355.256Y-296.067
X355.295Y-315.771
X355.503Y-299.708
X356.034Y-300.805
X356.193Y-316.669
X357.024Y-294.299
X357.036Y-300.817
X357.091Y-317.567
X357.731Y-336.16
X357.873Y-302.078
X358.102Y-294.37
X358.113Y-329.0
X360.348Y-308.937
X361.246Y-309.835
X362.144Y-310.733
X363.035Y-311.624
X364.201Y-299.673
X364.201Y-300.557
T3
X342.033Y-332.823
X343.829Y-331.027
X345.626Y-329.231
T4
X355.468Y-335.877
T5
X364.307Y-326.756
M30
