M48
; DRILL file {KiCad 9.0.7-9.0.7~ubuntu24.04.1} date 2026-04-09T13:44:26-0400
; FORMAT={-:-/ absolute / metric / decimal}
; #@! TF.CreationDate,2026-04-09T13:44:26-04:00
; #@! TF.GenerationSoftware,Kicad,Pcbnew,9.0.7-9.0.7~ubuntu24.04.1
; #@! TF.FileFunction,Plated,1,2,PTH
FMAT,2
METRIC
; #@! TA.AperFunction,Plated,PTH,ViaDrill
T1C0.300
; #@! TA.AperFunction,Plated,PTH,ViaDrill
T2C0.406
; #@! TA.AperFunction,Plated,PTH,ComponentDrill
T3C0.762
; #@! TA.AperFunction,Plated,PTH,ComponentDrill
T4C1.000
; #@! TA.AperFunction,Plated,PTH,ComponentDrill
T5C1.200
%
G90
G05
T1
X205.432Y-216.436
X208.02Y-213.805
X224.199Y-243.03
X226.267Y-241.05
X228.052Y-243.985
X228.059Y-249.578
X228.689Y-245.045
X228.821Y-246.159
X229.909Y-237.426
X230.793Y-241.174
X231.107Y-243.154
X231.447Y-241.934
X231.995Y-235.27
X233.245Y-240.555
X233.586Y-238.275
X234.054Y-248.201
X234.275Y-239.777
X234.823Y-233.82
X234.83Y-244.717
X235.247Y-232.052
X236.06Y-238.275
X236.131Y-235.552
X236.184Y-246.071
X236.626Y-237.603
X237.059Y-229.736
X237.121Y-241.245
X237.722Y-231.204
X238.346Y-236.116
X238.712Y-238.628
X238.942Y-241.474
X239.013Y-232.812
X239.235Y-235.735
X239.596Y-237.037
X239.844Y-244.321
X240.197Y-236.118
X240.427Y-228.358
X240.851Y-225.925
X241.161Y-234.869
X241.682Y-234.138
X241.7Y-229.949
X242.46Y-233.184
X242.664Y-230.444
X242.918Y-225.321
X243.079Y-224.133
X243.185Y-237.797
X243.344Y-232.476
X244.365Y-227.332
X244.705Y-238.54
X244.741Y-228.932
X245.023Y-230.797
X245.589Y-236.701
X245.766Y-233.838
X245.819Y-249.553
X245.96Y-222.86
X246.402Y-220.88
X246.808Y-229.012
X247.25Y-224.398
X247.374Y-239.159
X247.993Y-225.152
X248.276Y-227.544
X248.559Y-234.474
X248.647Y-218.476
X248.753Y-220.102
X249.503Y-220.856
X249.884Y-225.936
X250.044Y-221.852
X250.592Y-229.401
X251.458Y-228.393
X251.554Y-222.4
X251.829Y-234.881
X251.988Y-215.365
X252.017Y-226.678
X252.395Y-229.703
X252.448Y-223.054
X252.677Y-233.997
X252.766Y-219.059
X253.137Y-223.779
X253.332Y-233.095
X253.579Y-228.534
X253.586Y-231.417
X254.162Y-213.049
X254.189Y-220.409
X254.332Y-222.075
X254.799Y-226.572
X254.814Y-225.491
X254.816Y-229.383
X255.11Y-240.307
X255.577Y-216.319
X256.407Y-217.751
X256.534Y-227.706
X257.38Y-222.86
X257.486Y-209.849
X257.521Y-232.017
X257.663Y-237.709
X258.072Y-236.168
X258.314Y-243.638
X258.423Y-213.332
X258.458Y-221.923
X259.024Y-217.645
X259.625Y-215.029
X259.696Y-207.533
X259.741Y-221.549
X259.784Y-220.597
X259.908Y-224.327
X260.498Y-221.806
X260.827Y-216.549
X261.092Y-210.874
X261.381Y-213.462
X261.799Y-212.183
X261.994Y-222.276
X262.222Y-236.37
X263.514Y-219.625
X263.903Y-207.993
X263.974Y-218.317
X264.451Y-209.566
X265.438Y-222.482
X265.759Y-218.511
X266.979Y-216.407
X267.279Y-239.441
X268.322Y-245.293
X268.906Y-251.781
X269.21Y-217.633
T2
X53.445Y-97.499
X57.687Y-140.633
X67.799Y-145.088
X69.354Y-126.844
X70.769Y-186.241
X71.829Y-142.966
X73.244Y-92.549
X86.325Y-181.291
X88.446Y-242.103
X91.628Y-115.884
X93.396Y-93.61
X94.81Y-223.718
X98.912Y-151.593
X98.912Y-144.522
X99.76Y-184.12
X103.649Y-153.361
X104.003Y-68.154
X104.71Y-206.04
X105.063Y-144.875
X105.417Y-48.355
X108.599Y-117.298
X110.72Y-144.875
X111.074Y-166.442
X111.781Y-131.794
X112.347Y-172.665
X113.549Y-34.567
X114.256Y-119.42
X116.023Y-167.149
X116.731Y-102.095
X116.907Y-124.193
X117.084Y-94.034
X117.084Y-149.118
X118.145Y-95.731
X120.973Y-78.054
X123.448Y-188.716
X123.66Y-174.927
X123.66Y-165.311
X125.393Y-94.034
X127.514Y-134.446
X127.691Y-200.03
X128.044Y-62.497
X129.741Y-155.27
X132.287Y-76.64
X132.64Y-178.109
X132.899Y-185.957
X136.353Y-77.17
X136.883Y-213.465
X137.06Y-146.466
X138.651Y-182.706
X138.651Y-77.347
X139.712Y-165.381
X139.924Y-81.731
X140.065Y-90.782
X141.126Y-48.002
X146.783Y-171.745
X147.49Y-227.607
X149.611Y-71.336
X154.914Y-183.413
X161.632Y-87.6
X161.844Y-77.347
X161.985Y-41.284
X162.561Y-55.78
X165.521Y-81.024
X166.582Y-78.407
X166.935Y-185.534
X167.854Y-109.661
X167.925Y-115.389
X168.349Y-65.326
X171.178Y-177.756
X171.531Y-66.387
X176.481Y-188.009
X176.658Y-117.51
X176.835Y-81.589
X177.895Y-200.03
X179.663Y-87.953
X181.36Y-194.726
X182.774Y-166.725
X183.552Y-69.215
X184.966Y-189.423
X185.179Y-97.57
X187.3Y-117.51
X188.148Y-194.726
X189.209Y-197.201
X189.563Y-98.737
X193.664Y-175.635
X195.502Y-122.319
X195.785Y-118.359
X196.28Y-47.295
X196.492Y-89.933
X196.634Y-74.518
X197.341Y-32.092
X197.694Y-81.943
X198.401Y-196.494
X201.583Y-58.962
X202.715Y-129.531
X202.715Y-181.999
X204.553Y-221.031
X205.616Y-87.394
X205.826Y-93.61
X205.967Y-126.278
X206.533Y-81.589
X206.887Y-73.458
X208.654Y-201.797
X209.185Y-79.645
X209.362Y-91.489
X210.352Y-234.324
X210.422Y-140.633
X212.544Y-229.233
X212.897Y-89.368
X212.897Y-91.489
X215.018Y-74.518
X216.291Y-194.868
X216.433Y-105.631
X216.786Y-204.979
X219.968Y-52.598
X220.322Y-81.943
X220.675Y-92.903
X222.655Y-99.408
X223.15Y-168.917
X223.504Y-59.669
X226.191Y-204.767
X227.039Y-95.024
X227.45Y-220.128
X228.029Y-211.131
X230.928Y-214.03
X231.105Y-95.378
X231.201Y-87.6
X231.565Y-203.353
X234.11Y-97.853
X236.585Y-188.716
X239.06Y-83.004
X240.474Y-47.648
X243.782Y-166.725
X247.545Y-92.903
X248.875Y-183.329
X248.976Y-173.529
X248.991Y-176.568
X249.027Y-179.944
X249.313Y-189.423
X249.313Y-194.205
X251.081Y-192.445
X251.081Y-187.655
X253.556Y-190.002
X253.626Y-241.254
X256.031Y-187.452
X256.384Y-41.638
X257.091Y-103.156
X257.971Y-185.548
X258.011Y-246.204
X259.0Y-253.416
X259.483Y-184.036
X260.132Y-248.042
X263.526Y-253.133
X263.908Y-245.973
T3
X247.828Y-249.796
X249.624Y-248.0
X251.42Y-246.204
T4
X261.263Y-252.851
T5
X270.102Y-243.729
M30
