%TF.GenerationSoftware,KiCad,Pcbnew,9.0.7-9.0.7~ubuntu24.04.1*%
%TF.CreationDate,2026-03-29T16:16:15-04:00*%
%TF.ProjectId,grad-cap-pcb,67726164-2d63-4617-902d-7063622e6b69,rev?*%
%TF.SameCoordinates,Original*%
%TF.FileFunction,Soldermask,Top*%
%TF.FilePolarity,Negative*%
%FSLAX46Y46*%
G04 Gerber Fmt 4.6, Leading zero omitted, Abs format (unit mm)*
G04 Created by KiCad (PCBNEW 9.0.7-9.0.7~ubuntu24.04.1) date 2026-03-29 16:16:15*
%MOMM*%
%LPD*%
G01*
G04 APERTURE LIST*
G04 Aperture macros list*
%AMRoundRect*
0 Rectangle with rounded corners*
0 $1 Rounding radius*
0 $2 $3 $4 $5 $6 $7 $8 $9 X,Y pos of 4 corners*
0 Add a 4 corners polygon primitive as box body*
4,1,4,$2,$3,$4,$5,$6,$7,$8,$9,$2,$3,0*
0 Add four circle primitives for the rounded corners*
1,1,$1+$1,$2,$3*
1,1,$1+$1,$4,$5*
1,1,$1+$1,$6,$7*
1,1,$1+$1,$8,$9*
0 Add four rect primitives between the rounded corners*
20,1,$1+$1,$2,$3,$4,$5,0*
20,1,$1+$1,$4,$5,$6,$7,0*
20,1,$1+$1,$6,$7,$8,$9,0*
20,1,$1+$1,$8,$9,$2,$3,0*%
%AMRotRect*
0 Rectangle, with rotation*
0 The origin of the aperture is its center*
0 $1 length*
0 $2 width*
0 $3 Rotation angle, in degrees counterclockwise*
0 Add horizontal line*
21,1,$1,$2,0,0,$3*%
G04 Aperture macros list end*
%ADD10C,0.000000*%
%ADD11RoundRect,0.250000X-0.540118X0.128053X-0.291374X-0.472468X0.540118X-0.128053X0.291374X0.472468X0*%
%ADD12RoundRect,0.250000X0.128053X0.540118X-0.472468X0.291374X-0.128053X-0.540118X0.472468X-0.291374X0*%
%ADD13RoundRect,0.237500X0.140083X0.315092X-0.321857X0.123751X-0.140083X-0.315092X0.321857X-0.123751X0*%
%ADD14RoundRect,0.237500X0.008839X0.344715X-0.344715X-0.008839X-0.008839X-0.344715X0.344715X0.008839X0*%
%ADD15RoundRect,0.237500X0.250000X0.237500X-0.250000X0.237500X-0.250000X-0.237500X0.250000X-0.237500X0*%
%ADD16RoundRect,0.237500X0.315092X-0.140083X0.123751X0.321857X-0.315092X0.140083X-0.123751X-0.321857X0*%
%ADD17RoundRect,0.250000X-0.088388X0.548008X-0.548008X0.088388X0.088388X-0.548008X0.548008X-0.088388X0*%
%ADD18RoundRect,0.250000X-0.548008X-0.088388X-0.088388X-0.548008X0.548008X0.088388X0.088388X0.548008X0*%
%ADD19RoundRect,0.237500X0.344715X-0.008839X-0.008839X0.344715X-0.344715X0.008839X0.008839X-0.344715X0*%
%ADD20RoundRect,0.237500X-0.344715X0.008839X0.008839X-0.344715X0.344715X-0.008839X-0.008839X0.344715X0*%
%ADD21RotRect,0.558800X1.193800X45.000000*%
%ADD22RotRect,0.558800X1.092200X45.000000*%
%ADD23RotRect,1.828800X4.165600X45.000000*%
%ADD24RoundRect,0.237500X0.321857X0.123751X-0.140083X0.315092X-0.321857X-0.123751X0.140083X-0.315092X0*%
%ADD25RoundRect,0.250000X0.325000X0.450000X-0.325000X0.450000X-0.325000X-0.450000X0.325000X-0.450000X0*%
%ADD26RoundRect,0.237500X-0.123751X0.321857X-0.315092X-0.140083X0.123751X-0.321857X0.315092X0.140083X0*%
%ADD27RoundRect,0.237500X-0.008839X-0.344715X0.344715X0.008839X0.008839X0.344715X-0.344715X-0.008839X0*%
%ADD28RoundRect,0.237500X-0.250000X-0.237500X0.250000X-0.237500X0.250000X0.237500X-0.250000X0.237500X0*%
%ADD29RoundRect,0.250000X-0.325000X-0.450000X0.325000X-0.450000X0.325000X0.450000X-0.325000X0.450000X0*%
%ADD30RotRect,2.057400X0.431800X225.000000*%
%ADD31RoundRect,0.250000X0.548008X0.088388X0.088388X0.548008X-0.548008X-0.088388X-0.088388X-0.548008X0*%
%ADD32RoundRect,0.250000X0.450000X-0.325000X0.450000X0.325000X-0.450000X0.325000X-0.450000X-0.325000X0*%
%ADD33RoundRect,0.237500X0.237500X-0.250000X0.237500X0.250000X-0.237500X0.250000X-0.237500X-0.250000X0*%
%ADD34RoundRect,0.250000X-0.291374X0.472468X-0.540118X-0.128053X0.291374X-0.472468X0.540118X0.128053X0*%
%ADD35RoundRect,0.237500X-0.140083X-0.315092X0.321857X-0.123751X0.140083X0.315092X-0.321857X0.123751X0*%
%ADD36RoundRect,0.250000X-0.128053X-0.540118X0.472468X-0.291374X0.128053X0.540118X-0.472468X0.291374X0*%
%ADD37RoundRect,0.250000X0.540118X-0.128053X0.291374X0.472468X-0.540118X0.128053X-0.291374X-0.472468X0*%
%ADD38RoundRect,0.250000X-0.472468X-0.291374X0.128053X-0.540118X0.472468X0.291374X-0.128053X0.540118X0*%
%ADD39C,1.270000*%
%ADD40RoundRect,0.250000X0.291374X-0.472468X0.540118X0.128053X-0.291374X0.472468X-0.540118X-0.128053X0*%
%ADD41RotRect,0.977900X0.508000X135.000000*%
%ADD42RoundRect,0.250000X-0.450000X0.325000X-0.450000X-0.325000X0.450000X-0.325000X0.450000X0.325000X0*%
%ADD43RoundRect,0.237500X-0.237500X0.250000X-0.237500X-0.250000X0.237500X-0.250000X0.237500X0.250000X0*%
%ADD44RoundRect,0.250000X0.472468X0.291374X-0.128053X0.540118X-0.472468X-0.291374X0.128053X-0.540118X0*%
%ADD45C,0.900000*%
%ADD46RoundRect,0.102000X0.282843X-0.777817X0.777817X-0.282843X-0.282843X0.777817X-0.777817X0.282843X0*%
%ADD47RoundRect,0.102000X-0.070711X-0.636396X0.636396X0.070711X0.070711X0.636396X-0.636396X-0.070711X0*%
%ADD48RoundRect,0.250000X0.088388X-0.548008X0.548008X-0.088388X-0.088388X0.548008X-0.548008X0.088388X0*%
%ADD49RotRect,0.977900X0.304800X135.000000*%
%ADD50RoundRect,0.237500X0.123751X-0.321857X0.315092X0.140083X-0.123751X0.321857X-0.315092X-0.140083X0*%
%ADD51RoundRect,0.237500X-0.315092X0.140083X-0.123751X-0.321857X0.315092X-0.140083X0.123751X0.321857X0*%
%ADD52RotRect,2.184400X0.558800X135.000000*%
%ADD53RoundRect,0.237500X-0.321857X-0.123751X0.140083X-0.315092X0.321857X0.123751X-0.140083X0.315092X0*%
%ADD54RoundRect,0.237500X0.044194X0.380070X-0.380070X-0.044194X-0.044194X-0.380070X0.380070X0.044194X0*%
%ADD55R,1.700000X1.700000*%
%ADD56C,2.500000*%
%ADD57C,0.711200*%
G04 APERTURE END LIST*
D10*
%TO.C,T7*%
G36*
X354450584Y-293077385D02*
G01*
X353157427Y-294370541D01*
X350211903Y-291425018D01*
X351505060Y-290131860D01*
X354450584Y-293077385D01*
G37*
G36*
X356246635Y-291281334D02*
G01*
X354953478Y-292574490D01*
X352007954Y-289628967D01*
X353301111Y-288335809D01*
X356246635Y-291281334D01*
G37*
%TO.C,T2*%
G36*
X326460941Y-321067028D02*
G01*
X325167784Y-322360184D01*
X322222260Y-319414661D01*
X323515417Y-318121503D01*
X326460941Y-321067028D01*
G37*
G36*
X328256992Y-319270977D02*
G01*
X326963835Y-320564133D01*
X324018311Y-317618610D01*
X325311468Y-316325452D01*
X328256992Y-319270977D01*
G37*
%TO.C,T1*%
G36*
X320863013Y-326664957D02*
G01*
X319569856Y-327958113D01*
X316624332Y-325012590D01*
X317917489Y-323719432D01*
X320863013Y-326664957D01*
G37*
G36*
X322659064Y-324868906D02*
G01*
X321365907Y-326162062D01*
X318420383Y-323216539D01*
X319713540Y-321923381D01*
X322659064Y-324868906D01*
G37*
%TO.C,T4*%
G36*
X337656798Y-309871172D02*
G01*
X336363641Y-311164328D01*
X333418117Y-308218805D01*
X334711274Y-306925647D01*
X337656798Y-309871172D01*
G37*
G36*
X339452849Y-308075121D02*
G01*
X338159692Y-309368277D01*
X335214168Y-306422754D01*
X336507325Y-305129596D01*
X339452849Y-308075121D01*
G37*
%TO.C,T5*%
G36*
X343254727Y-304273242D02*
G01*
X341961570Y-305566398D01*
X339016046Y-302620875D01*
X340309203Y-301327717D01*
X343254727Y-304273242D01*
G37*
G36*
X345050778Y-302477191D02*
G01*
X343757621Y-303770347D01*
X340812097Y-300824824D01*
X342105254Y-299531666D01*
X345050778Y-302477191D01*
G37*
%TO.C,G\u002A\u002A\u002A*%
G36*
X167817619Y-115594548D02*
G01*
X167978172Y-115602612D01*
X168175527Y-115613963D01*
X168278327Y-115620033D01*
X168454955Y-115630619D01*
X168618467Y-115640719D01*
X168764201Y-115650024D01*
X168887497Y-115658221D01*
X168983692Y-115665002D01*
X169048128Y-115670054D01*
X169076141Y-115673068D01*
X169076807Y-115673266D01*
X169079275Y-115695205D01*
X169072859Y-115748121D01*
X169058898Y-115822589D01*
X169049693Y-115864160D01*
X169003396Y-116086194D01*
X168963335Y-116327764D01*
X168929281Y-116591780D01*
X168901011Y-116881154D01*
X168878298Y-117198796D01*
X168860919Y-117547614D01*
X168848648Y-117930523D01*
X168841260Y-118350430D01*
X168839271Y-118584720D01*
X168838056Y-118757200D01*
X168836494Y-118916152D01*
X168834664Y-119056856D01*
X168832646Y-119174585D01*
X168830522Y-119264616D01*
X168828370Y-119322226D01*
X168826358Y-119342642D01*
X168804182Y-119344653D01*
X168745369Y-119346300D01*
X168654959Y-119347541D01*
X168537988Y-119348337D01*
X168399494Y-119348643D01*
X168244514Y-119348424D01*
X168156166Y-119348073D01*
X167993900Y-119347034D01*
X167844966Y-119345601D01*
X167714491Y-119343859D01*
X167607604Y-119341897D01*
X167529428Y-119339800D01*
X167485096Y-119337656D01*
X167477085Y-119336535D01*
X167474798Y-119314448D01*
X167477696Y-119256809D01*
X167485239Y-119169346D01*
X167496892Y-119057790D01*
X167512114Y-118927866D01*
X167524969Y-118826276D01*
X167565848Y-118507790D01*
X167600487Y-118226569D01*
X167629204Y-117978724D01*
X167652314Y-117760366D01*
X167670133Y-117567604D01*
X167682977Y-117396549D01*
X167691160Y-117243313D01*
X167695001Y-117104005D01*
X167694814Y-116974736D01*
X167690915Y-116851615D01*
X167688748Y-116809547D01*
X167664423Y-116528543D01*
X167624842Y-116267480D01*
X167571229Y-116032507D01*
X167504807Y-115829770D01*
X167483760Y-115778882D01*
X167461728Y-115727639D01*
X167446770Y-115685627D01*
X167442190Y-115652187D01*
X167451291Y-115626657D01*
X167477375Y-115608377D01*
X167523747Y-115596685D01*
X167593710Y-115590924D01*
X167690566Y-115590431D01*
X167817619Y-115594548D01*
G37*
G36*
X189044463Y-134580015D02*
G01*
X189045048Y-134580403D01*
X189055685Y-134606503D01*
X189070027Y-134671431D01*
X189087661Y-134772546D01*
X189108174Y-134907207D01*
X189131151Y-135072774D01*
X189156180Y-135266604D01*
X189170159Y-135380075D01*
X189191716Y-135558429D01*
X189211819Y-135726035D01*
X189229871Y-135877842D01*
X189245282Y-136008801D01*
X189257454Y-136113858D01*
X189265795Y-136187964D01*
X189269711Y-136226066D01*
X189269794Y-136227128D01*
X189274899Y-136295040D01*
X189168339Y-136273097D01*
X189089988Y-136262774D01*
X188978475Y-136256075D01*
X188842150Y-136252965D01*
X188689360Y-136253407D01*
X188528458Y-136257369D01*
X188367790Y-136264811D01*
X188215708Y-136275701D01*
X188198807Y-136277204D01*
X188058142Y-136291750D01*
X187882968Y-136312701D01*
X187679795Y-136339117D01*
X187455133Y-136370052D01*
X187215492Y-136404563D01*
X186967384Y-136441706D01*
X186717319Y-136480539D01*
X186471807Y-136520116D01*
X186237358Y-136559494D01*
X186165587Y-136571925D01*
X186012835Y-136598500D01*
X185871092Y-136622975D01*
X185746255Y-136644346D01*
X185644224Y-136661610D01*
X185570899Y-136673762D01*
X185532177Y-136679799D01*
X185530566Y-136680011D01*
X185472549Y-136687346D01*
X185407031Y-136030906D01*
X185390686Y-135868037D01*
X185375355Y-135716992D01*
X185361601Y-135583175D01*
X185349985Y-135471991D01*
X185341070Y-135388843D01*
X185335416Y-135339133D01*
X185334015Y-135328661D01*
X185334626Y-135313474D01*
X185345477Y-135302159D01*
X185371597Y-135294237D01*
X185418023Y-135289228D01*
X185489786Y-135286654D01*
X185591919Y-135286038D01*
X185729456Y-135286900D01*
X185768961Y-135287279D01*
X186124480Y-135287090D01*
X186473393Y-135279634D01*
X186811539Y-135265300D01*
X187134751Y-135244478D01*
X187438868Y-135217555D01*
X187719726Y-135184919D01*
X187973163Y-135146963D01*
X188195012Y-135104073D01*
X188381114Y-135056638D01*
X188441083Y-135037674D01*
X188503846Y-135016608D01*
X188553300Y-134998565D01*
X188594923Y-134979174D01*
X188634195Y-134954065D01*
X188676594Y-134918867D01*
X188727598Y-134869207D01*
X188792687Y-134800716D01*
X188877339Y-134709022D01*
X188944168Y-134636301D01*
X188989814Y-134590875D01*
X189020127Y-134573841D01*
X189044463Y-134580015D01*
G37*
G36*
X171328497Y-125312443D02*
G01*
X171435818Y-125495802D01*
X171523438Y-125649879D01*
X171594237Y-125780418D01*
X171651092Y-125893161D01*
X171696885Y-125993855D01*
X171734493Y-126088241D01*
X171766795Y-126182063D01*
X171770945Y-126195115D01*
X171805648Y-126341154D01*
X171823005Y-126495771D01*
X171822540Y-126645350D01*
X171803777Y-126776274D01*
X171792583Y-126815826D01*
X171767197Y-126882697D01*
X171734883Y-126946814D01*
X171691867Y-127012702D01*
X171634377Y-127084888D01*
X171558642Y-127167899D01*
X171460891Y-127266260D01*
X171337353Y-127384498D01*
X171252949Y-127463456D01*
X171132150Y-127575863D01*
X171002931Y-127696184D01*
X170874756Y-127815599D01*
X170757091Y-127925291D01*
X170659400Y-128016441D01*
X170649890Y-128025321D01*
X170172596Y-128469583D01*
X169720912Y-128886966D01*
X169291467Y-129280535D01*
X168880886Y-129653355D01*
X168485795Y-130008492D01*
X168102823Y-130349008D01*
X167778190Y-130634596D01*
X167638816Y-130757909D01*
X167527110Y-130860217D01*
X167438238Y-130946602D01*
X167367371Y-131022146D01*
X167309677Y-131091932D01*
X167260325Y-131161043D01*
X167225663Y-131215847D01*
X167161162Y-131343654D01*
X167124353Y-131472787D01*
X167114590Y-131611395D01*
X167131227Y-131767629D01*
X167168925Y-131932561D01*
X167192942Y-132024467D01*
X167205273Y-132086069D01*
X167206171Y-132126992D01*
X167195880Y-132156859D01*
X167175456Y-132184360D01*
X167102776Y-132237924D01*
X167028067Y-132263855D01*
X166927638Y-132288532D01*
X166760898Y-131784401D01*
X166711482Y-131631467D01*
X166663728Y-131477190D01*
X166620242Y-131330482D01*
X166583629Y-131200254D01*
X166556495Y-131095417D01*
X166546244Y-131050316D01*
X166506256Y-130773339D01*
X166504961Y-130510975D01*
X166542436Y-130262157D01*
X166618762Y-130025823D01*
X166623326Y-130014957D01*
X166671721Y-129911421D01*
X166728728Y-129811077D01*
X166797333Y-129710788D01*
X166880517Y-129607415D01*
X166981264Y-129497820D01*
X167102555Y-129378864D01*
X167247375Y-129247413D01*
X167418707Y-129100326D01*
X167619531Y-128934466D01*
X167752979Y-128826595D01*
X168118255Y-128531765D01*
X168466143Y-128248125D01*
X168795396Y-127976773D01*
X169104762Y-127718803D01*
X169392995Y-127475317D01*
X169658841Y-127247410D01*
X169901053Y-127036179D01*
X170118382Y-126842720D01*
X170309576Y-126668130D01*
X170473390Y-126513509D01*
X170608568Y-126379951D01*
X170713865Y-126268554D01*
X170788032Y-126180415D01*
X170820640Y-126133336D01*
X170905405Y-125961574D01*
X170957117Y-125787321D01*
X170972345Y-125658827D01*
X170970710Y-125542877D01*
X170954983Y-125438886D01*
X170921637Y-125331882D01*
X170867147Y-125206897D01*
X170864729Y-125201835D01*
X170793079Y-125052235D01*
X170862526Y-124973996D01*
X170913621Y-124923245D01*
X170958814Y-124898561D01*
X171004365Y-124891091D01*
X171076759Y-124886425D01*
X171328497Y-125312443D01*
G37*
G36*
X181188162Y-135204661D02*
G01*
X181193040Y-135209161D01*
X181212326Y-135251954D01*
X181223681Y-135329728D01*
X181227380Y-135436606D01*
X181223695Y-135566710D01*
X181212903Y-135714164D01*
X181195275Y-135873090D01*
X181171089Y-136037613D01*
X181148525Y-136162593D01*
X181095979Y-136378296D01*
X181026809Y-136580572D01*
X180943923Y-136763827D01*
X180850222Y-136922469D01*
X180748616Y-137050900D01*
X180642007Y-137143528D01*
X180637586Y-137146469D01*
X180611864Y-137163498D01*
X180587955Y-137178708D01*
X180563315Y-137192489D01*
X180535406Y-137205231D01*
X180501682Y-137217323D01*
X180459603Y-137229150D01*
X180406628Y-137241105D01*
X180340213Y-137253576D01*
X180257817Y-137266953D01*
X180156898Y-137281623D01*
X180034914Y-137297974D01*
X179889323Y-137316397D01*
X179717583Y-137337281D01*
X179517153Y-137361013D01*
X179285491Y-137387985D01*
X179020054Y-137418582D01*
X178718301Y-137453197D01*
X178378144Y-137492163D01*
X178167976Y-137516218D01*
X177965513Y-137539342D01*
X177775494Y-137560996D01*
X177602655Y-137580644D01*
X177451738Y-137597748D01*
X177327479Y-137611768D01*
X177234617Y-137622168D01*
X177177893Y-137628410D01*
X177174028Y-137628823D01*
X177027459Y-137650940D01*
X176912992Y-137684308D01*
X176821815Y-137732305D01*
X176753352Y-137789812D01*
X176689863Y-137868120D01*
X176643012Y-137961715D01*
X176609686Y-138078975D01*
X176586765Y-138228275D01*
X176585320Y-138241551D01*
X176574968Y-138330667D01*
X176564037Y-138389169D01*
X176548280Y-138427953D01*
X176523452Y-138457916D01*
X176489962Y-138486252D01*
X176416922Y-138527190D01*
X176340370Y-138542341D01*
X176273201Y-138530452D01*
X176243152Y-138510207D01*
X176235361Y-138481461D01*
X176230639Y-138418940D01*
X176229195Y-138330447D01*
X176231233Y-138223782D01*
X176233918Y-138160107D01*
X176240973Y-138019904D01*
X176248648Y-137867769D01*
X176256091Y-137720622D01*
X176262445Y-137595390D01*
X176263326Y-137578063D01*
X176282856Y-137333781D01*
X176314748Y-137118560D01*
X176358266Y-136936553D01*
X176396496Y-136828134D01*
X176469565Y-136694367D01*
X176566186Y-136579274D01*
X176678095Y-136491462D01*
X176757350Y-136452238D01*
X176786750Y-136443388D01*
X176832345Y-136433335D01*
X176896129Y-136421828D01*
X176980088Y-136408622D01*
X177086216Y-136393466D01*
X177216501Y-136376113D01*
X177372934Y-136356314D01*
X177557505Y-136333822D01*
X177772205Y-136308388D01*
X178019023Y-136279763D01*
X178299951Y-136247698D01*
X178616979Y-136211948D01*
X178972099Y-136172260D01*
X179238691Y-136142639D01*
X179498703Y-136113115D01*
X179721137Y-136086100D01*
X179909948Y-136060732D01*
X180069096Y-136036156D01*
X180202536Y-136011513D01*
X180314228Y-135985944D01*
X180408129Y-135958591D01*
X180488197Y-135928595D01*
X180558389Y-135895099D01*
X180622663Y-135857244D01*
X180655227Y-135835434D01*
X180775933Y-135731214D01*
X180867972Y-135608950D01*
X180926867Y-135475981D01*
X180947722Y-135355937D01*
X180957784Y-135306804D01*
X180990137Y-135268353D01*
X181016723Y-135248675D01*
X181092851Y-135203841D01*
X181148043Y-135189607D01*
X181188162Y-135204661D01*
G37*
G36*
X178886277Y-130467587D02*
G01*
X178912725Y-130493586D01*
X178943046Y-130542207D01*
X178980660Y-130618295D01*
X179028992Y-130726692D01*
X179048090Y-130770875D01*
X179145775Y-131026204D01*
X179219616Y-131280203D01*
X179268853Y-131527299D01*
X179292728Y-131761921D01*
X179290484Y-131978493D01*
X179261360Y-132171445D01*
X179246261Y-132227228D01*
X179175819Y-132402063D01*
X179078649Y-132559157D01*
X178960520Y-132690560D01*
X178848222Y-132775941D01*
X178821846Y-132790515D01*
X178760904Y-132823200D01*
X178667739Y-132872756D01*
X178544693Y-132937949D01*
X178394113Y-133017545D01*
X178218341Y-133110306D01*
X178019722Y-133214997D01*
X177800602Y-133330383D01*
X177563322Y-133455226D01*
X177310227Y-133588290D01*
X177043663Y-133728344D01*
X176765970Y-133874148D01*
X176571370Y-133976268D01*
X176286609Y-134125690D01*
X176010819Y-134270445D01*
X175746396Y-134409272D01*
X175495737Y-134540910D01*
X175261237Y-134664101D01*
X175045292Y-134777586D01*
X174850300Y-134880103D01*
X174678653Y-134970394D01*
X174532753Y-135047199D01*
X174414990Y-135109259D01*
X174327765Y-135155314D01*
X174273470Y-135184104D01*
X174256855Y-135193027D01*
X174148181Y-135275590D01*
X174066037Y-135387086D01*
X174012193Y-135522931D01*
X173988414Y-135678541D01*
X173996466Y-135849332D01*
X173998507Y-135863314D01*
X174010731Y-135944548D01*
X174020502Y-136012104D01*
X174026007Y-136053414D01*
X174026419Y-136057222D01*
X174015342Y-136096157D01*
X173983415Y-136149856D01*
X173940473Y-136204893D01*
X173896353Y-136247837D01*
X173877796Y-136260133D01*
X173830784Y-136268742D01*
X173773571Y-136260236D01*
X173723368Y-136239345D01*
X173697386Y-136210797D01*
X173697322Y-136210546D01*
X173693040Y-136182878D01*
X173684682Y-136119543D01*
X173672956Y-136026279D01*
X173658574Y-135908818D01*
X173642246Y-135772892D01*
X173625120Y-135627960D01*
X173595907Y-135378646D01*
X173571279Y-135167203D01*
X173550982Y-134990109D01*
X173534764Y-134843843D01*
X173522370Y-134724881D01*
X173513549Y-134629704D01*
X173508047Y-134554789D01*
X173505611Y-134496615D01*
X173505989Y-134451661D01*
X173508926Y-134416404D01*
X173514172Y-134387324D01*
X173521472Y-134360899D01*
X173530573Y-134333607D01*
X173531868Y-134329833D01*
X173597064Y-134197512D01*
X173701669Y-134066830D01*
X173846498Y-133936902D01*
X173986040Y-133836750D01*
X174078660Y-133779232D01*
X174200159Y-133710090D01*
X174351449Y-133628881D01*
X174533452Y-133535160D01*
X174747079Y-133428480D01*
X174993247Y-133308396D01*
X175272874Y-133174465D01*
X175586875Y-133026239D01*
X175936167Y-132863275D01*
X176321664Y-132685125D01*
X176744284Y-132491347D01*
X176911013Y-132415249D01*
X177114739Y-132322181D01*
X177311342Y-132232004D01*
X177496763Y-132146604D01*
X177666944Y-132067866D01*
X177817824Y-131997679D01*
X177945344Y-131937925D01*
X178045447Y-131890492D01*
X178114072Y-131857267D01*
X178138301Y-131845012D01*
X178347227Y-131722689D01*
X178515395Y-131596287D01*
X178643605Y-131464913D01*
X178732650Y-131327671D01*
X178783326Y-131183669D01*
X178794645Y-131107450D01*
X178790259Y-131025639D01*
X178769027Y-130924680D01*
X178735626Y-130821107D01*
X178694741Y-130731455D01*
X178682353Y-130710733D01*
X178654775Y-130638639D01*
X178667153Y-130573241D01*
X178717985Y-130517031D01*
X178805765Y-130472498D01*
X178831306Y-130464084D01*
X178860278Y-130459368D01*
X178886277Y-130467587D01*
G37*
G36*
X175771667Y-126690114D02*
G01*
X175814666Y-126712739D01*
X175861117Y-126759145D01*
X175915433Y-126833212D01*
X175982031Y-126938823D01*
X176018257Y-126999493D01*
X176119272Y-127173584D01*
X176201076Y-127322503D01*
X176268078Y-127455406D01*
X176324687Y-127581451D01*
X176375317Y-127709798D01*
X176416716Y-127826868D01*
X176483942Y-128063577D01*
X176517369Y-128278773D01*
X176517291Y-128474912D01*
X176504390Y-128568673D01*
X176487355Y-128648644D01*
X176466188Y-128721222D01*
X176438046Y-128789439D01*
X176400091Y-128856334D01*
X176349486Y-128924938D01*
X176283388Y-128998288D01*
X176198962Y-129079416D01*
X176093365Y-129171360D01*
X175963760Y-129277153D01*
X175807307Y-129399830D01*
X175621167Y-129542425D01*
X175525339Y-129615129D01*
X175148539Y-129900297D01*
X174802060Y-130162220D01*
X174483120Y-130402966D01*
X174188933Y-130624601D01*
X173916717Y-130829193D01*
X173663688Y-131018808D01*
X173427060Y-131195514D01*
X173204052Y-131361378D01*
X172991880Y-131518466D01*
X172787758Y-131668847D01*
X172588902Y-131814586D01*
X172392529Y-131957752D01*
X172195856Y-132100409D01*
X171996099Y-132244627D01*
X171790472Y-132392471D01*
X171627333Y-132509408D01*
X171469073Y-132622834D01*
X171317908Y-132731394D01*
X171177962Y-132832113D01*
X171053355Y-132922015D01*
X170948207Y-132998127D01*
X170866640Y-133057471D01*
X170812775Y-133097071D01*
X170797385Y-133108642D01*
X170662380Y-133237563D01*
X170558476Y-133391700D01*
X170486940Y-133567175D01*
X170449037Y-133760110D01*
X170446035Y-133966626D01*
X170466414Y-134122710D01*
X170481393Y-134225406D01*
X170479852Y-134298660D01*
X170460765Y-134351709D01*
X170437846Y-134380357D01*
X170399625Y-134400415D01*
X170341622Y-134414001D01*
X170281092Y-134418964D01*
X170235288Y-134413160D01*
X170224504Y-134406907D01*
X170210927Y-134378710D01*
X170188629Y-134314875D01*
X170158992Y-134220194D01*
X170123394Y-134099459D01*
X170083219Y-133957463D01*
X170039845Y-133798998D01*
X169994652Y-133628856D01*
X169949025Y-133451829D01*
X169946632Y-133442391D01*
X169896257Y-133228137D01*
X169862995Y-133045458D01*
X169847168Y-132887785D01*
X169849099Y-132748555D01*
X169869112Y-132621199D01*
X169907526Y-132499153D01*
X169964664Y-132375847D01*
X170002283Y-132308366D01*
X170086506Y-132182225D01*
X170193312Y-132055118D01*
X170326184Y-131923748D01*
X170488609Y-131784823D01*
X170684067Y-131635047D01*
X170809966Y-131544704D01*
X170906395Y-131476516D01*
X171033149Y-131386324D01*
X171186820Y-131276583D01*
X171363994Y-131149754D01*
X171561258Y-131008290D01*
X171775204Y-130854652D01*
X172002415Y-130691295D01*
X172239485Y-130520676D01*
X172482998Y-130345254D01*
X172729544Y-130167485D01*
X172975711Y-129989828D01*
X173218088Y-129814737D01*
X173453261Y-129644673D01*
X173677820Y-129482090D01*
X173888355Y-129329449D01*
X174081449Y-129189203D01*
X174184564Y-129114180D01*
X174439052Y-128928680D01*
X174661655Y-128765972D01*
X174854351Y-128624567D01*
X175019126Y-128502980D01*
X175157961Y-128399722D01*
X175272841Y-128313309D01*
X175365745Y-128242249D01*
X175438660Y-128185058D01*
X175493565Y-128140248D01*
X175532445Y-128106331D01*
X175548195Y-128091304D01*
X175644852Y-127967614D01*
X175718472Y-127817585D01*
X175765679Y-127651618D01*
X175783097Y-127480116D01*
X175778239Y-127382397D01*
X175757189Y-127270046D01*
X175719645Y-127140348D01*
X175671618Y-127011028D01*
X175619118Y-126899817D01*
X175608056Y-126880371D01*
X175577080Y-126813567D01*
X175579279Y-126765415D01*
X175617628Y-126728300D01*
X175678358Y-126700684D01*
X175727703Y-126687390D01*
X175771667Y-126690114D01*
G37*
G36*
X188723305Y-137463429D02*
G01*
X188756733Y-137492794D01*
X188811695Y-137538276D01*
X188876785Y-137590447D01*
X188882192Y-137594709D01*
X189005852Y-137692057D01*
X189010361Y-138070625D01*
X189012130Y-138210496D01*
X189014114Y-138353144D01*
X189016127Y-138486383D01*
X189017992Y-138598024D01*
X189019032Y-138653012D01*
X189023194Y-138856830D01*
X189190300Y-138879559D01*
X189315887Y-138891444D01*
X189456769Y-138896494D01*
X189596681Y-138894703D01*
X189719359Y-138886070D01*
X189766239Y-138879682D01*
X189838818Y-138867537D01*
X189815244Y-139129162D01*
X189805447Y-139230603D01*
X189791725Y-139362550D01*
X189775263Y-139514153D01*
X189757243Y-139674557D01*
X189738848Y-139832913D01*
X189734723Y-139867616D01*
X189677776Y-140344447D01*
X189610179Y-140338223D01*
X189566177Y-140332475D01*
X189490272Y-140320818D01*
X189391572Y-140304716D01*
X189279188Y-140285637D01*
X189225502Y-140276282D01*
X189115002Y-140258209D01*
X189018807Y-140245011D01*
X188944432Y-140237523D01*
X188899390Y-140236576D01*
X188889885Y-140239100D01*
X188876612Y-140273124D01*
X188875694Y-140302423D01*
X188875755Y-140331765D01*
X188874251Y-140398000D01*
X188871353Y-140496381D01*
X188867232Y-140622162D01*
X188862064Y-140770599D01*
X188856020Y-140936945D01*
X188849274Y-141116459D01*
X188841997Y-141304388D01*
X188834363Y-141495994D01*
X188826546Y-141686526D01*
X188818717Y-141871242D01*
X188817689Y-141894981D01*
X188810884Y-141942309D01*
X188798194Y-141964259D01*
X188795117Y-141964372D01*
X188770742Y-141949265D01*
X188724164Y-141914138D01*
X188664788Y-141866130D01*
X188655548Y-141858417D01*
X188585288Y-141800271D01*
X188517232Y-141745177D01*
X188466718Y-141705530D01*
X188398121Y-141653418D01*
X188426804Y-141421593D01*
X188448626Y-141224754D01*
X188468548Y-141006465D01*
X188485366Y-140782660D01*
X188497873Y-140569274D01*
X188504568Y-140394484D01*
X188510111Y-140173742D01*
X188395195Y-140116847D01*
X188257649Y-140059646D01*
X188085103Y-140005471D01*
X187884185Y-139955438D01*
X187661529Y-139910663D01*
X187423760Y-139872267D01*
X187177509Y-139841363D01*
X186929409Y-139819072D01*
X186686085Y-139806509D01*
X186539398Y-139804094D01*
X186290742Y-139809393D01*
X186075031Y-139826623D01*
X185885034Y-139856633D01*
X185713520Y-139900273D01*
X185708806Y-139901733D01*
X185582007Y-139945873D01*
X185488348Y-139990816D01*
X185419528Y-140041789D01*
X185367255Y-140104022D01*
X185353639Y-140125531D01*
X185312398Y-140228350D01*
X185300961Y-140350141D01*
X185319712Y-140492063D01*
X185369035Y-140655275D01*
X185449311Y-140840935D01*
X185560926Y-141050201D01*
X185704260Y-141284233D01*
X185770184Y-141384472D01*
X185846975Y-141499221D01*
X185475303Y-141342777D01*
X185332028Y-141280863D01*
X185217999Y-141228188D01*
X185136072Y-141186172D01*
X185089107Y-141156230D01*
X185079821Y-141146564D01*
X185064946Y-141098021D01*
X185054837Y-141014518D01*
X185049315Y-140902472D01*
X185048197Y-140768307D01*
X185051308Y-140618439D01*
X185058462Y-140459288D01*
X185069483Y-140297272D01*
X185084189Y-140138813D01*
X185102401Y-139990327D01*
X185114470Y-139911483D01*
X185153639Y-139732352D01*
X185210804Y-139545334D01*
X185280404Y-139366227D01*
X185356879Y-139210822D01*
X185367617Y-139192199D01*
X185468872Y-139043920D01*
X185589844Y-138904960D01*
X185721333Y-138784359D01*
X185854143Y-138691154D01*
X185905462Y-138663624D01*
X186089401Y-138593291D01*
X186307464Y-138543022D01*
X186557264Y-138512798D01*
X186836409Y-138502597D01*
X187142509Y-138512401D01*
X187473176Y-138542190D01*
X187826022Y-138591943D01*
X188198653Y-138661639D01*
X188301754Y-138683744D01*
X188585778Y-138746246D01*
X188603830Y-138581443D01*
X188611010Y-138506473D01*
X188619786Y-138400221D01*
X188629372Y-138273010D01*
X188638990Y-138135160D01*
X188646738Y-138015204D01*
X188655039Y-137883247D01*
X188663072Y-137759399D01*
X188670271Y-137652092D01*
X188676072Y-137569752D01*
X188679834Y-137521633D01*
X188688077Y-137429495D01*
X188723305Y-137463429D01*
G37*
G36*
X171279518Y-116040380D02*
G01*
X171337322Y-116056611D01*
X171426306Y-116081942D01*
X171542055Y-116115095D01*
X171680156Y-116154792D01*
X171836192Y-116199753D01*
X172005750Y-116248700D01*
X172184415Y-116300352D01*
X172367771Y-116353433D01*
X172551404Y-116406661D01*
X172730900Y-116458760D01*
X172901844Y-116508450D01*
X173059822Y-116554452D01*
X173200417Y-116595486D01*
X173319218Y-116630275D01*
X173411807Y-116657539D01*
X173473771Y-116676000D01*
X173500695Y-116684377D01*
X173501290Y-116684610D01*
X173494124Y-116695293D01*
X173453965Y-116714966D01*
X173387729Y-116740614D01*
X173320592Y-116763416D01*
X172977361Y-116889111D01*
X172654580Y-117037556D01*
X172355860Y-117206362D01*
X172084820Y-117393142D01*
X171845076Y-117595511D01*
X171640239Y-117811079D01*
X171540367Y-117939110D01*
X171408965Y-118144418D01*
X171306262Y-118353507D01*
X171233570Y-118561435D01*
X171192200Y-118763258D01*
X171183460Y-118954037D01*
X171208662Y-119128826D01*
X171217093Y-119158830D01*
X171300426Y-119377033D01*
X171407214Y-119560824D01*
X171537873Y-119710520D01*
X171692823Y-119826439D01*
X171872482Y-119908897D01*
X172077267Y-119958212D01*
X172294048Y-119974638D01*
X172563788Y-119957844D01*
X172846299Y-119903871D01*
X173137896Y-119813834D01*
X173434896Y-119688844D01*
X173697438Y-119551030D01*
X173948593Y-119395016D01*
X174172080Y-119231928D01*
X174365105Y-119064398D01*
X174524871Y-118895061D01*
X174648585Y-118726551D01*
X174724653Y-118582815D01*
X174806400Y-118356832D01*
X174851439Y-118147284D01*
X174860108Y-117955157D01*
X174832744Y-117781441D01*
X174769687Y-117627123D01*
X174671276Y-117493192D01*
X174537846Y-117380636D01*
X174369740Y-117290444D01*
X174269302Y-117252897D01*
X174213487Y-117231235D01*
X174181425Y-117212000D01*
X174178376Y-117202594D01*
X174221019Y-117178578D01*
X174298491Y-117153259D01*
X174404022Y-117127815D01*
X174530841Y-117103421D01*
X174672181Y-117081256D01*
X174821268Y-117062495D01*
X174971332Y-117048317D01*
X175113605Y-117039974D01*
X175305934Y-117032733D01*
X175482153Y-117163969D01*
X175652476Y-117306515D01*
X175787791Y-117456866D01*
X175894753Y-117623694D01*
X175977862Y-117809865D01*
X176055319Y-118068417D01*
X176092323Y-118319775D01*
X176088973Y-118563032D01*
X176045362Y-118797279D01*
X175961585Y-119021607D01*
X175837740Y-119235111D01*
X175826206Y-119251552D01*
X175732777Y-119372470D01*
X175616016Y-119507408D01*
X175486038Y-119645530D01*
X175352958Y-119776001D01*
X175251371Y-119867322D01*
X175086074Y-119987143D01*
X174893407Y-120086236D01*
X174671488Y-120165101D01*
X174418450Y-120224230D01*
X174132414Y-120264120D01*
X173811507Y-120285268D01*
X173658298Y-120288768D01*
X173354029Y-120286528D01*
X173053301Y-120272355D01*
X172747507Y-120245341D01*
X172428041Y-120204574D01*
X172086295Y-120149145D01*
X171766244Y-120088704D01*
X171525930Y-120038247D01*
X171320834Y-119988811D01*
X171144653Y-119937819D01*
X170991087Y-119882701D01*
X170853834Y-119820881D01*
X170726592Y-119749789D01*
X170603063Y-119666849D01*
X170476943Y-119569489D01*
X170459171Y-119554933D01*
X170323830Y-119431414D01*
X170196086Y-119292476D01*
X170085165Y-119149179D01*
X170000287Y-119012586D01*
X169989447Y-118991503D01*
X169922901Y-118813273D01*
X169888420Y-118617055D01*
X169885284Y-118410587D01*
X169912769Y-118201606D01*
X169970151Y-117997847D01*
X170056711Y-117807048D01*
X170107772Y-117723296D01*
X170244545Y-117545369D01*
X170410136Y-117378956D01*
X170606675Y-117222682D01*
X170836296Y-117075173D01*
X171101132Y-116935054D01*
X171403315Y-116800949D01*
X171732783Y-116675791D01*
X171839224Y-116637922D01*
X171930773Y-116605005D01*
X172000707Y-116579485D01*
X172042301Y-116563807D01*
X172050931Y-116560082D01*
X172032553Y-116555558D01*
X171978324Y-116545215D01*
X171893516Y-116529984D01*
X171783401Y-116510797D01*
X171653253Y-116488584D01*
X171508342Y-116464275D01*
X171507974Y-116464213D01*
X171325945Y-116433076D01*
X171183125Y-116406672D01*
X171077376Y-116384523D01*
X171006563Y-116366154D01*
X170968547Y-116351084D01*
X170960272Y-116341684D01*
X170974021Y-116318127D01*
X171010071Y-116274440D01*
X171060619Y-116218689D01*
X171117860Y-116158943D01*
X171173994Y-116103270D01*
X171221218Y-116059738D01*
X171251728Y-116036416D01*
X171257308Y-116034530D01*
X171279518Y-116040380D01*
G37*
G36*
X158764985Y-141444786D02*
G01*
X159094293Y-141521137D01*
X159418256Y-141636137D01*
X159419599Y-141636700D01*
X159717562Y-141781471D01*
X159998359Y-141958690D01*
X160262744Y-142169290D01*
X160511467Y-142414205D01*
X160745286Y-142694364D01*
X160964953Y-143010704D01*
X161171221Y-143364154D01*
X161364844Y-143755648D01*
X161546573Y-144186118D01*
X161606281Y-144342853D01*
X161650131Y-144454502D01*
X161706894Y-144589587D01*
X161770603Y-144734395D01*
X161835288Y-144875212D01*
X161866553Y-144940713D01*
X161970027Y-145155490D01*
X162060695Y-145346458D01*
X162137616Y-145511535D01*
X162199855Y-145648637D01*
X162246470Y-145755684D01*
X162276525Y-145830590D01*
X162289079Y-145871277D01*
X162288913Y-145877649D01*
X162266400Y-145895663D01*
X162217489Y-145925505D01*
X162157774Y-145958057D01*
X162036711Y-146020934D01*
X161963871Y-145801346D01*
X161918945Y-145674881D01*
X161859203Y-145520024D01*
X161788422Y-145345684D01*
X161710377Y-145160767D01*
X161628847Y-144974178D01*
X161547609Y-144794823D01*
X161470440Y-144631609D01*
X161450414Y-144590696D01*
X161305117Y-144310986D01*
X161159534Y-144061163D01*
X161007044Y-143829925D01*
X160992675Y-143809528D01*
X160912530Y-143705472D01*
X160811036Y-143587392D01*
X160696267Y-143463527D01*
X160576299Y-143342114D01*
X160459205Y-143231395D01*
X160353061Y-143139605D01*
X160285880Y-143088410D01*
X160049577Y-142943881D01*
X159783231Y-142817558D01*
X159495447Y-142712068D01*
X159194829Y-142630029D01*
X158889984Y-142574063D01*
X158589515Y-142546793D01*
X158500972Y-142544595D01*
X158158235Y-142560558D01*
X157828842Y-142613874D01*
X157515256Y-142703782D01*
X157219947Y-142829524D01*
X156945382Y-142990340D01*
X156863499Y-143048202D01*
X156744167Y-143140078D01*
X156643651Y-143227510D01*
X156550245Y-143321885D01*
X156452248Y-143434589D01*
X156398516Y-143500565D01*
X156171039Y-143816003D01*
X155981045Y-144148903D01*
X155827027Y-144502022D01*
X155784002Y-144622971D01*
X155706782Y-144852155D01*
X155768318Y-145026956D01*
X155799710Y-145115786D01*
X155840029Y-145229397D01*
X155884143Y-145353343D01*
X155926915Y-145473174D01*
X155928001Y-145476210D01*
X155975219Y-145610591D01*
X156009698Y-145717879D01*
X156033607Y-145809889D01*
X156049112Y-145898444D01*
X156058385Y-145995364D01*
X156063592Y-146112468D01*
X156066319Y-146230195D01*
X156079365Y-146461280D01*
X156110598Y-146709954D01*
X156161016Y-146982882D01*
X156213255Y-147212603D01*
X156230597Y-147292436D01*
X156240629Y-147356386D01*
X156241879Y-147394136D01*
X156239879Y-147399343D01*
X156210322Y-147413918D01*
X156154348Y-147432486D01*
X156086475Y-147451206D01*
X156021214Y-147466241D01*
X155973083Y-147473753D01*
X155959718Y-147473429D01*
X155944892Y-147451221D01*
X155931308Y-147399346D01*
X155923107Y-147339989D01*
X155880361Y-147051196D01*
X155805673Y-146754378D01*
X155768156Y-146638340D01*
X155731961Y-146536329D01*
X155702226Y-146463476D01*
X155673102Y-146409120D01*
X155638746Y-146362605D01*
X155593311Y-146313268D01*
X155585510Y-146305302D01*
X155530379Y-146250618D01*
X155495192Y-146221653D01*
X155471369Y-146213743D01*
X155450333Y-146222219D01*
X155442772Y-146227644D01*
X155412803Y-146273396D01*
X155392064Y-146356410D01*
X155380497Y-146473321D01*
X155378047Y-146620763D01*
X155384659Y-146795373D01*
X155400276Y-146993786D01*
X155424843Y-147212636D01*
X155458305Y-147448559D01*
X155463618Y-147482266D01*
X155475567Y-147557188D01*
X155376267Y-147571722D01*
X155316542Y-147580467D01*
X155276555Y-147586330D01*
X155268215Y-147587557D01*
X155261049Y-147568859D01*
X155247484Y-147516685D01*
X155229296Y-147438428D01*
X155208259Y-147341476D01*
X155202185Y-147312401D01*
X155138798Y-147029540D01*
X155072294Y-146776779D01*
X155004003Y-146559045D01*
X154979999Y-146492213D01*
X154947273Y-146389827D01*
X154928076Y-146289134D01*
X154923318Y-146184928D01*
X154933910Y-146072007D01*
X154960763Y-145945167D01*
X155004790Y-145799204D01*
X155066901Y-145628914D01*
X155148006Y-145429095D01*
X155179009Y-145355990D01*
X155232853Y-145228117D01*
X155271895Y-145129133D01*
X155298792Y-145050087D01*
X155316206Y-144982029D01*
X155326793Y-144916011D01*
X155333216Y-144843082D01*
X155333715Y-144835315D01*
X155379514Y-144411258D01*
X155463232Y-143999374D01*
X155585689Y-143597213D01*
X155747707Y-143202321D01*
X155950101Y-142812248D01*
X156083247Y-142592066D01*
X156266108Y-142342384D01*
X156481590Y-142114714D01*
X156724880Y-141912746D01*
X156991170Y-141740176D01*
X157275647Y-141600695D01*
X157467067Y-141529839D01*
X157781371Y-141449608D01*
X158104884Y-141408822D01*
X158433969Y-141407280D01*
X158764985Y-141444786D01*
G37*
G36*
X146706315Y-128537692D02*
G01*
X146759223Y-128564284D01*
X146838309Y-128605268D01*
X146938342Y-128657918D01*
X147054088Y-128719507D01*
X147136505Y-128763704D01*
X147502874Y-128956712D01*
X147841548Y-129126184D01*
X148157756Y-129274125D01*
X148456732Y-129402546D01*
X148743707Y-129513450D01*
X149023911Y-129608850D01*
X149302576Y-129690748D01*
X149584933Y-129761154D01*
X149876214Y-129822076D01*
X149912309Y-129828900D01*
X150014419Y-129849183D01*
X150081238Y-129865895D01*
X150118763Y-129881140D01*
X150132985Y-129897019D01*
X150133137Y-129906351D01*
X150104217Y-130029900D01*
X150059782Y-130189143D01*
X150000623Y-130381431D01*
X149927530Y-130604107D01*
X149906720Y-130665543D01*
X149768035Y-131072592D01*
X149518452Y-131075615D01*
X149268869Y-131078636D01*
X149279331Y-131438218D01*
X149282808Y-131710168D01*
X149275473Y-131951540D01*
X149256042Y-132172328D01*
X149223230Y-132382525D01*
X149175753Y-132592124D01*
X149112326Y-132811118D01*
X149096539Y-132860219D01*
X149059096Y-132977492D01*
X149014949Y-133119829D01*
X148968693Y-133272183D01*
X148924927Y-133419508D01*
X148908743Y-133475053D01*
X148822445Y-133750891D01*
X148733337Y-133989000D01*
X148639153Y-134193317D01*
X148537630Y-134367781D01*
X148426502Y-134516329D01*
X148303504Y-134642903D01*
X148180555Y-134741448D01*
X147980205Y-134859819D01*
X147756418Y-134948039D01*
X147516351Y-135004250D01*
X147267162Y-135026596D01*
X147100014Y-135021801D01*
X146917353Y-134992162D01*
X146727712Y-134933789D01*
X146542892Y-134851960D01*
X146374695Y-134751961D01*
X146234917Y-134639070D01*
X146226603Y-134630920D01*
X146085008Y-134466018D01*
X145954807Y-134266345D01*
X145838574Y-134037862D01*
X145738885Y-133786530D01*
X145658314Y-133518304D01*
X145599435Y-133239150D01*
X145585344Y-133146651D01*
X145573513Y-133076793D01*
X145561110Y-133029102D01*
X145550557Y-133012524D01*
X145549269Y-133013288D01*
X145524989Y-133053231D01*
X145492271Y-133132228D01*
X145451676Y-133248644D01*
X145403766Y-133400844D01*
X145349106Y-133587192D01*
X145337411Y-133628426D01*
X145302404Y-133749430D01*
X145269590Y-133857211D01*
X145241140Y-133945077D01*
X145219223Y-134006333D01*
X145206010Y-134034286D01*
X145205755Y-134034555D01*
X145189946Y-134041927D01*
X145166585Y-134032832D01*
X145129337Y-134002891D01*
X145071870Y-133947724D01*
X145053297Y-133929174D01*
X144989388Y-133860831D01*
X144939314Y-133799208D01*
X144910742Y-133753918D01*
X144908122Y-133747165D01*
X144909556Y-133710228D01*
X144924270Y-133637990D01*
X144951028Y-133534211D01*
X144988599Y-133402653D01*
X145035747Y-133247081D01*
X145091239Y-133071255D01*
X145153842Y-132878938D01*
X145222321Y-132673890D01*
X145295443Y-132459877D01*
X145371974Y-132240659D01*
X145450679Y-132020000D01*
X145530327Y-131801659D01*
X145609681Y-131589402D01*
X145652698Y-131476762D01*
X145702054Y-131353324D01*
X145742218Y-131266260D01*
X145776246Y-131212111D01*
X145807199Y-131187420D01*
X145838138Y-131188728D01*
X145872119Y-131212578D01*
X145879847Y-131220044D01*
X145905885Y-131257350D01*
X145926551Y-131315550D01*
X145944170Y-131402564D01*
X145954627Y-131474788D01*
X146010899Y-131787952D01*
X146095859Y-132099787D01*
X146206566Y-132404097D01*
X146340077Y-132694688D01*
X146493447Y-132965364D01*
X146663732Y-133209927D01*
X146847988Y-133422185D01*
X146907659Y-133480621D01*
X146983533Y-133550503D01*
X147041115Y-133598226D01*
X147091657Y-133631016D01*
X147146419Y-133656103D01*
X147216654Y-133680711D01*
X147222007Y-133682462D01*
X147394192Y-133722105D01*
X147588861Y-133739093D01*
X147793952Y-133734080D01*
X147997406Y-133707720D01*
X148187158Y-133660668D01*
X148284509Y-133624862D01*
X148474395Y-133525864D01*
X148629831Y-133403570D01*
X148751032Y-133257648D01*
X148838210Y-133087769D01*
X148891582Y-132893601D01*
X148911362Y-132674813D01*
X148911491Y-132659511D01*
X148893783Y-132348650D01*
X148837937Y-132048161D01*
X148743356Y-131756733D01*
X148609446Y-131473056D01*
X148435610Y-131195818D01*
X148221249Y-130923710D01*
X148027670Y-130716322D01*
X147899161Y-130593534D01*
X147770866Y-130484707D01*
X147636920Y-130386431D01*
X147491463Y-130295298D01*
X147328635Y-130207902D01*
X147142571Y-130120832D01*
X146927410Y-130030682D01*
X146690872Y-129939142D01*
X146573464Y-129894700D01*
X146469878Y-129854883D01*
X146386282Y-129822109D01*
X146328848Y-129798801D01*
X146303743Y-129787380D01*
X146303276Y-129787015D01*
X146303733Y-129763224D01*
X146316069Y-129713328D01*
X146329114Y-129672881D01*
X146344909Y-129624445D01*
X146370308Y-129542737D01*
X146403269Y-129434499D01*
X146441751Y-129306473D01*
X146483715Y-129165401D01*
X146518127Y-129048670D01*
X146559638Y-128909023D01*
X146597921Y-128783534D01*
X146631290Y-128677463D01*
X146658064Y-128596068D01*
X146676554Y-128544608D01*
X146684818Y-128528222D01*
X146706315Y-128537692D01*
G37*
G36*
X158161709Y-117466400D02*
G01*
X158189016Y-117516668D01*
X158228066Y-117593605D01*
X158276035Y-117691607D01*
X158330093Y-117805075D01*
X158344734Y-117836286D01*
X158496782Y-118153178D01*
X158655951Y-118469504D01*
X158819732Y-118780973D01*
X158985613Y-119083291D01*
X159151087Y-119372165D01*
X159313644Y-119643301D01*
X159470774Y-119892406D01*
X159619968Y-120115186D01*
X159758717Y-120307348D01*
X159873079Y-120451151D01*
X159920298Y-120509431D01*
X159953848Y-120555354D01*
X159967249Y-120579969D01*
X159967186Y-120581094D01*
X159948063Y-120600180D01*
X159907810Y-120627169D01*
X159907404Y-120627408D01*
X159874977Y-120646526D01*
X159812008Y-120683676D01*
X159723841Y-120735706D01*
X159615824Y-120799459D01*
X159493295Y-120871783D01*
X159365369Y-120947301D01*
X158878981Y-121234438D01*
X158697539Y-121052996D01*
X158627734Y-120984376D01*
X158569075Y-120928947D01*
X158527422Y-120892091D01*
X158508639Y-120879186D01*
X158508309Y-120879340D01*
X158494471Y-120898708D01*
X158462297Y-120945982D01*
X158416419Y-121014297D01*
X158361471Y-121096787D01*
X158354986Y-121106561D01*
X158215131Y-121306823D01*
X158075027Y-121483694D01*
X157927510Y-121644154D01*
X157765411Y-121795185D01*
X157581564Y-121943766D01*
X157368800Y-122096877D01*
X157269132Y-122164190D01*
X156905205Y-122397701D01*
X156565766Y-122597926D01*
X156250401Y-122764988D01*
X155958695Y-122899014D01*
X155690230Y-123000129D01*
X155444594Y-123068459D01*
X155221371Y-123104131D01*
X155020144Y-123107270D01*
X154840499Y-123078002D01*
X154682022Y-123016452D01*
X154606523Y-122970823D01*
X154516913Y-122900840D01*
X154414805Y-122808317D01*
X154310688Y-122703962D01*
X154215052Y-122598489D01*
X154138389Y-122502606D01*
X154115414Y-122469383D01*
X154008878Y-122272632D01*
X153925881Y-122050553D01*
X153869325Y-121814020D01*
X153842116Y-121573912D01*
X153840811Y-121440911D01*
X153868469Y-121193597D01*
X153935774Y-120940517D01*
X154041536Y-120684224D01*
X154184566Y-120427266D01*
X154363675Y-120172195D01*
X154519113Y-119985746D01*
X154585827Y-119909222D01*
X154624652Y-119860266D01*
X154637024Y-119836837D01*
X154624383Y-119836894D01*
X154623852Y-119837136D01*
X154564613Y-119869545D01*
X154479182Y-119923286D01*
X154374038Y-119993816D01*
X154255654Y-120076588D01*
X154130507Y-120167060D01*
X154005076Y-120260690D01*
X153885833Y-120352934D01*
X153864377Y-120369956D01*
X153771095Y-120443650D01*
X153688954Y-120507324D01*
X153623507Y-120556773D01*
X153580308Y-120587791D01*
X153565295Y-120596522D01*
X153550486Y-120577742D01*
X153531212Y-120528424D01*
X153510080Y-120459095D01*
X153489690Y-120380287D01*
X153472652Y-120302532D01*
X153461565Y-120236358D01*
X153459035Y-120192295D01*
X153462533Y-120181006D01*
X153488797Y-120162598D01*
X153546526Y-120125854D01*
X153632139Y-120072895D01*
X153742049Y-120005846D01*
X153872676Y-119926828D01*
X154020437Y-119837965D01*
X154181750Y-119741374D01*
X154353031Y-119639185D01*
X154530698Y-119533515D01*
X154711168Y-119426490D01*
X154890859Y-119320229D01*
X155066188Y-119216856D01*
X155233572Y-119118494D01*
X155389429Y-119027264D01*
X155530176Y-118945291D01*
X155652230Y-118874693D01*
X155752009Y-118817596D01*
X155825929Y-118776122D01*
X155870410Y-118752391D01*
X155882302Y-118747518D01*
X155901837Y-118764666D01*
X155908209Y-118792134D01*
X155899742Y-118834062D01*
X155874759Y-118894586D01*
X155831584Y-118977842D01*
X155768541Y-119087968D01*
X155693664Y-119213090D01*
X155530452Y-119491049D01*
X155394243Y-119742482D01*
X155283585Y-119971317D01*
X155197025Y-120181478D01*
X155133113Y-120376889D01*
X155090398Y-120561474D01*
X155067428Y-120739160D01*
X155062753Y-120913869D01*
X155062878Y-120919028D01*
X155087413Y-121142691D01*
X155150026Y-121360840D01*
X155251744Y-121575936D01*
X155393594Y-121790445D01*
X155462351Y-121877300D01*
X155595573Y-122022031D01*
X155726510Y-122130162D01*
X155860804Y-122206005D01*
X155926266Y-122231581D01*
X156119054Y-122275773D01*
X156316724Y-122280523D01*
X156516031Y-122247262D01*
X156713727Y-122177422D01*
X156906565Y-122072433D01*
X157091299Y-121933725D01*
X157264682Y-121762730D01*
X157412431Y-121576638D01*
X157555552Y-121348433D01*
X157664096Y-121115290D01*
X157739890Y-120870896D01*
X157784765Y-120608932D01*
X157800547Y-120323087D01*
X157800015Y-120238594D01*
X157772748Y-119857948D01*
X157705364Y-119472850D01*
X157598738Y-119086355D01*
X157453747Y-118701516D01*
X157271264Y-118321386D01*
X157227457Y-118241000D01*
X157185041Y-118164384D01*
X157151412Y-118102863D01*
X157130948Y-118064488D01*
X157126781Y-118055787D01*
X157143634Y-118043785D01*
X157190956Y-118014009D01*
X157263246Y-117969730D01*
X157355002Y-117914216D01*
X157460723Y-117850735D01*
X157574910Y-117782559D01*
X157692057Y-117712955D01*
X157806666Y-117645192D01*
X157913233Y-117582539D01*
X158006260Y-117528265D01*
X158080241Y-117485639D01*
X158129677Y-117457931D01*
X158148972Y-117448399D01*
X158161709Y-117466400D01*
G37*
G36*
X150464705Y-147830120D02*
G01*
X150503270Y-147872397D01*
X150560987Y-147937360D01*
X150633941Y-148020475D01*
X150718214Y-148117209D01*
X150809887Y-148223026D01*
X150905047Y-148333391D01*
X150999773Y-148443773D01*
X151090150Y-148549635D01*
X151172261Y-148646443D01*
X151242188Y-148729664D01*
X151296014Y-148794763D01*
X151303456Y-148803916D01*
X151377780Y-148895651D01*
X151297204Y-148995473D01*
X151241317Y-149065168D01*
X151185438Y-149135573D01*
X151157429Y-149171251D01*
X151098232Y-149247207D01*
X151263945Y-149329561D01*
X151410464Y-149408277D01*
X151558865Y-149500428D01*
X151711962Y-149608452D01*
X151872568Y-149734787D01*
X152043493Y-149881872D01*
X152227549Y-150052147D01*
X152427552Y-150248047D01*
X152646312Y-150472014D01*
X152886642Y-150726485D01*
X152934834Y-150778332D01*
X153075411Y-150930063D01*
X153190591Y-151054928D01*
X153283405Y-151156536D01*
X153356885Y-151238493D01*
X153414061Y-151304406D01*
X153457966Y-151357883D01*
X153491629Y-151402530D01*
X153518084Y-151441954D01*
X153540360Y-151479762D01*
X153561489Y-151519561D01*
X153567269Y-151530877D01*
X153663565Y-151760993D01*
X153723388Y-151997525D01*
X153746666Y-152235387D01*
X153733328Y-152469489D01*
X153683302Y-152694743D01*
X153596515Y-152906058D01*
X153586900Y-152924216D01*
X153522516Y-153023256D01*
X153432898Y-153133915D01*
X153328041Y-153245553D01*
X153217942Y-153347533D01*
X153112599Y-153429215D01*
X153112019Y-153429610D01*
X152871105Y-153569002D01*
X152614186Y-153671114D01*
X152344170Y-153735797D01*
X152063959Y-153762907D01*
X151776460Y-153752298D01*
X151484578Y-153703824D01*
X151191217Y-153617341D01*
X150990460Y-153535884D01*
X150783039Y-153442112D01*
X150844588Y-153522385D01*
X150904081Y-153596466D01*
X150985013Y-153692358D01*
X151080017Y-153801763D01*
X151181721Y-153916377D01*
X151282759Y-154027899D01*
X151375760Y-154128031D01*
X151453358Y-154208469D01*
X151455840Y-154210962D01*
X151607346Y-154362905D01*
X151382179Y-154431961D01*
X151274952Y-154462937D01*
X151200638Y-154479422D01*
X151153427Y-154482329D01*
X151127512Y-154472572D01*
X151127002Y-154472092D01*
X151101432Y-154443801D01*
X151053692Y-154387363D01*
X150986464Y-154306135D01*
X150902429Y-154203469D01*
X150804266Y-154082717D01*
X150694655Y-153947235D01*
X150576276Y-153800374D01*
X150451812Y-153645489D01*
X150323941Y-153485932D01*
X150195344Y-153325058D01*
X150068701Y-153166219D01*
X149946693Y-153012766D01*
X149832000Y-152868057D01*
X149727302Y-152735442D01*
X149635280Y-152618277D01*
X149558613Y-152519914D01*
X149499984Y-152443705D01*
X149462071Y-152393005D01*
X149447554Y-152371167D01*
X149447489Y-152370880D01*
X149459462Y-152334228D01*
X149492855Y-152296045D01*
X149518903Y-152277771D01*
X149546309Y-152269410D01*
X149581660Y-152272804D01*
X149631540Y-152289795D01*
X149702533Y-152322225D01*
X149801227Y-152371937D01*
X149845176Y-152394611D01*
X150108457Y-152514944D01*
X150381153Y-152609899D01*
X150658189Y-152679142D01*
X150934488Y-152722344D01*
X151204978Y-152739171D01*
X151464581Y-152729292D01*
X151708221Y-152692374D01*
X151930825Y-152628088D01*
X152115357Y-152542974D01*
X152208558Y-152480878D01*
X152315914Y-152394748D01*
X152427150Y-152294260D01*
X152531987Y-152189092D01*
X152620153Y-152088919D01*
X152671656Y-152019067D01*
X152771719Y-151830890D01*
X152830272Y-151639498D01*
X152847303Y-151445443D01*
X152822802Y-151249273D01*
X152756762Y-151051543D01*
X152690109Y-150919922D01*
X152632004Y-150834584D01*
X152550044Y-150734763D01*
X152453615Y-150630125D01*
X152352103Y-150530339D01*
X152254896Y-150445075D01*
X152171380Y-150384002D01*
X152167551Y-150381646D01*
X152098056Y-150346682D01*
X151996837Y-150305287D01*
X151872799Y-150260304D01*
X151734846Y-150214575D01*
X151591882Y-150170945D01*
X151452813Y-150132256D01*
X151326540Y-150101349D01*
X151230223Y-150082380D01*
X150901797Y-150049843D01*
X150571359Y-150058132D01*
X150242366Y-150106758D01*
X149918275Y-150195236D01*
X149636638Y-150307156D01*
X149426407Y-150413350D01*
X149210486Y-150539975D01*
X148999338Y-150679933D01*
X148803423Y-150826131D01*
X148633205Y-150971472D01*
X148575672Y-151026764D01*
X148464207Y-151138229D01*
X148381054Y-151037209D01*
X148216525Y-150837110D01*
X148068679Y-150656851D01*
X147938887Y-150498124D01*
X147828524Y-150362621D01*
X147738963Y-150252035D01*
X147671581Y-150168060D01*
X147627751Y-150112387D01*
X147608845Y-150086709D01*
X147608167Y-150085235D01*
X147625177Y-150071670D01*
X147670796Y-150043331D01*
X147736911Y-150005135D01*
X147776710Y-149983006D01*
X148007398Y-149848775D01*
X148246370Y-149694524D01*
X148495939Y-149518414D01*
X148758423Y-149318611D01*
X149036138Y-149093276D01*
X149331399Y-148840578D01*
X149646522Y-148558675D01*
X149983823Y-148245734D01*
X150067201Y-148166877D01*
X150170056Y-148069691D01*
X150262878Y-147982783D01*
X150341427Y-147910058D01*
X150401464Y-147855419D01*
X150438751Y-147822771D01*
X150449210Y-147815064D01*
X150464705Y-147830120D01*
G37*
G36*
X164947900Y-115840491D02*
G01*
X165157369Y-115875243D01*
X165382235Y-115943241D01*
X165397968Y-115948974D01*
X165587092Y-116033812D01*
X165769832Y-116144424D01*
X165937673Y-116274122D01*
X166082107Y-116416220D01*
X166194622Y-116564032D01*
X166207414Y-116584921D01*
X166298502Y-116778557D01*
X166354066Y-116989558D01*
X166373964Y-117213273D01*
X166358058Y-117445046D01*
X166306203Y-117680227D01*
X166245970Y-117850409D01*
X166171054Y-118015804D01*
X166082037Y-118186171D01*
X165987431Y-118346141D01*
X165901007Y-118473303D01*
X165861007Y-118523922D01*
X165815948Y-118573204D01*
X165761285Y-118624869D01*
X165692472Y-118682636D01*
X165604963Y-118750223D01*
X165494216Y-118831351D01*
X165355681Y-118929736D01*
X165268314Y-118990932D01*
X165193063Y-119046302D01*
X165131995Y-119096585D01*
X165093436Y-119134693D01*
X165085282Y-119146776D01*
X165079485Y-119169087D01*
X165092601Y-119179908D01*
X165132737Y-119181755D01*
X165187800Y-119178601D01*
X165251591Y-119170184D01*
X165349108Y-119152219D01*
X165473883Y-119126179D01*
X165619448Y-119093537D01*
X165779340Y-119055767D01*
X165947092Y-119014342D01*
X166116237Y-118970736D01*
X166210829Y-118945461D01*
X166396036Y-118895277D01*
X166268263Y-119120765D01*
X166217433Y-119209110D01*
X166172362Y-119284940D01*
X166137817Y-119340407D01*
X166118562Y-119367662D01*
X166118132Y-119368096D01*
X166094245Y-119374850D01*
X166032552Y-119387212D01*
X165936469Y-119404615D01*
X165809404Y-119426496D01*
X165654771Y-119452289D01*
X165475980Y-119481431D01*
X165276441Y-119513355D01*
X165059566Y-119547498D01*
X164828766Y-119583295D01*
X164689728Y-119604612D01*
X164452026Y-119640710D01*
X164225903Y-119674676D01*
X164014809Y-119706014D01*
X163822200Y-119734228D01*
X163651527Y-119758825D01*
X163506243Y-119779311D01*
X163389804Y-119795189D01*
X163305662Y-119805963D01*
X163257269Y-119811140D01*
X163246984Y-119811392D01*
X163210145Y-119793756D01*
X163213006Y-119765720D01*
X163255078Y-119727907D01*
X163335874Y-119680945D01*
X163356864Y-119670397D01*
X163469963Y-119611279D01*
X163601572Y-119537008D01*
X163741687Y-119453740D01*
X163880295Y-119367634D01*
X164007391Y-119284845D01*
X164112963Y-119211529D01*
X164158482Y-119177276D01*
X164368877Y-118994758D01*
X164554406Y-118798629D01*
X164709114Y-118595702D01*
X164803070Y-118439889D01*
X164906659Y-118204653D01*
X164980594Y-117949113D01*
X165022639Y-117684350D01*
X165030556Y-117421449D01*
X165025436Y-117338588D01*
X164988364Y-117094347D01*
X164921734Y-116879073D01*
X164825767Y-116693045D01*
X164700681Y-116536547D01*
X164546693Y-116409855D01*
X164364020Y-116313252D01*
X164182426Y-116254022D01*
X163968977Y-116221057D01*
X163741564Y-116222016D01*
X163506668Y-116254508D01*
X163270773Y-116316146D01*
X163040362Y-116404540D01*
X162821919Y-116517300D01*
X162621925Y-116652040D01*
X162446862Y-116806367D01*
X162334767Y-116934911D01*
X162218996Y-117112021D01*
X162114523Y-117323791D01*
X162022278Y-117564520D01*
X161943187Y-117828506D01*
X161878176Y-118110049D01*
X161828172Y-118403447D01*
X161794103Y-118702997D01*
X161776896Y-119002998D01*
X161777476Y-119297750D01*
X161796773Y-119581550D01*
X161835712Y-119848700D01*
X161849824Y-119917742D01*
X161863024Y-119994122D01*
X161866224Y-120051271D01*
X161858935Y-120079175D01*
X161857709Y-120079928D01*
X161830086Y-120087213D01*
X161768661Y-120100395D01*
X161679546Y-120118342D01*
X161568848Y-120139926D01*
X161442680Y-120164015D01*
X161307149Y-120189480D01*
X161168368Y-120215190D01*
X161032445Y-120240017D01*
X160905490Y-120262828D01*
X160793613Y-120282493D01*
X160702924Y-120297885D01*
X160639535Y-120307871D01*
X160609552Y-120311321D01*
X160608028Y-120311075D01*
X160605224Y-120288961D01*
X160601736Y-120231162D01*
X160597816Y-120143660D01*
X160593718Y-120032434D01*
X160589693Y-119903464D01*
X160587690Y-119830463D01*
X160572457Y-119402644D01*
X160549898Y-118996993D01*
X160520326Y-118615771D01*
X160484058Y-118261237D01*
X160441407Y-117935653D01*
X160392690Y-117641279D01*
X160338219Y-117380378D01*
X160278310Y-117155209D01*
X160213278Y-116968034D01*
X160178054Y-116887541D01*
X160146196Y-116812364D01*
X160132765Y-116760761D01*
X160137573Y-116739920D01*
X160167499Y-116729605D01*
X160231891Y-116712283D01*
X160324407Y-116689362D01*
X160438698Y-116662248D01*
X160568418Y-116632352D01*
X160707218Y-116601079D01*
X160848754Y-116569836D01*
X160986680Y-116540033D01*
X161114646Y-116513075D01*
X161226309Y-116490371D01*
X161315319Y-116473328D01*
X161375331Y-116463355D01*
X161393418Y-116461404D01*
X161412790Y-116477763D01*
X161447324Y-116522851D01*
X161491610Y-116589166D01*
X161526801Y-116646357D01*
X161573199Y-116723913D01*
X161611219Y-116786803D01*
X161636149Y-116827273D01*
X161643377Y-116838203D01*
X161658923Y-116826614D01*
X161695329Y-116790751D01*
X161745747Y-116737465D01*
X161764871Y-116716589D01*
X161881901Y-116605882D01*
X162024872Y-116503701D01*
X162195709Y-116409389D01*
X162396344Y-116322280D01*
X162628700Y-116241717D01*
X162894708Y-116167036D01*
X163196294Y-116097577D01*
X163535387Y-116032678D01*
X163913917Y-115971678D01*
X163953517Y-115965840D01*
X164094694Y-115944581D01*
X164233729Y-115922560D01*
X164360922Y-115901390D01*
X164466573Y-115882689D01*
X164540985Y-115868069D01*
X164542875Y-115867659D01*
X164745757Y-115838218D01*
X164947900Y-115840491D01*
G37*
G36*
X159481391Y-153358778D02*
G01*
X159530960Y-153394526D01*
X159602713Y-153448110D01*
X159691428Y-153515493D01*
X159791879Y-153592632D01*
X159898842Y-153675486D01*
X160007093Y-153760018D01*
X160111408Y-153842185D01*
X160206563Y-153917947D01*
X160287334Y-153983265D01*
X160327334Y-154016275D01*
X160385966Y-154067600D01*
X160415294Y-154100499D01*
X160419957Y-154120727D01*
X160416109Y-154126408D01*
X160384144Y-154163732D01*
X160331294Y-154231944D01*
X160260082Y-154327455D01*
X160173027Y-154446671D01*
X160072649Y-154586006D01*
X159961470Y-154741864D01*
X159842010Y-154910658D01*
X159716791Y-155088795D01*
X159588333Y-155272684D01*
X159459157Y-155458735D01*
X159331783Y-155643356D01*
X159208733Y-155822956D01*
X159092528Y-155993947D01*
X158985688Y-156152734D01*
X158890733Y-156295727D01*
X158854852Y-156350443D01*
X158716785Y-156564113D01*
X158563722Y-156804828D01*
X158400152Y-157065284D01*
X158230562Y-157338178D01*
X158059433Y-157616205D01*
X157891254Y-157892065D01*
X157730507Y-158158450D01*
X157581681Y-158408061D01*
X157449259Y-158633594D01*
X157394637Y-158728026D01*
X157363861Y-158758303D01*
X157343057Y-158757219D01*
X157314952Y-158741668D01*
X157257662Y-158708008D01*
X157176576Y-158659533D01*
X157077083Y-158599536D01*
X156964574Y-158531313D01*
X156844434Y-158458158D01*
X156722059Y-158383363D01*
X156602834Y-158310225D01*
X156492150Y-158242037D01*
X156395396Y-158182093D01*
X156317963Y-158133688D01*
X156265239Y-158100114D01*
X156242613Y-158084668D01*
X156242432Y-158084496D01*
X156240488Y-158057342D01*
X156252474Y-158002290D01*
X156275916Y-157929753D01*
X156284889Y-157905945D01*
X156311961Y-157831020D01*
X156329539Y-157771510D01*
X156334806Y-157737402D01*
X156333501Y-157733550D01*
X156295508Y-157709937D01*
X156225752Y-157679547D01*
X156132963Y-157645447D01*
X156025869Y-157610708D01*
X155913202Y-157578397D01*
X155838351Y-157559495D01*
X155730439Y-157532050D01*
X155642645Y-157503840D01*
X155560783Y-157468947D01*
X155470670Y-157421449D01*
X155377781Y-157367211D01*
X155284228Y-157312239D01*
X155164724Y-157243466D01*
X155029949Y-157166961D01*
X154890584Y-157088787D01*
X154765126Y-157019305D01*
X154570003Y-156910701D01*
X154567665Y-156909399D01*
X154401461Y-156813593D01*
X154260234Y-156727886D01*
X154137702Y-156648276D01*
X154027583Y-156570764D01*
X153923599Y-156491349D01*
X153875806Y-156452841D01*
X153724142Y-156315307D01*
X153590083Y-156167213D01*
X153482950Y-156019196D01*
X153456030Y-155973855D01*
X153395228Y-155838679D01*
X153375955Y-155775181D01*
X154432627Y-155775181D01*
X154446790Y-156034492D01*
X154488116Y-156263978D01*
X154557354Y-156466048D01*
X154655255Y-156643109D01*
X154734689Y-156746014D01*
X154880294Y-156882299D01*
X155049661Y-156986418D01*
X155240139Y-157058440D01*
X155449077Y-157098432D01*
X155673829Y-157106465D01*
X155911741Y-157082606D01*
X156160166Y-157026926D01*
X156416450Y-156939493D01*
X156677945Y-156820374D01*
X156910144Y-156689473D01*
X157040300Y-156600963D01*
X157180744Y-156491038D01*
X157323020Y-156367552D01*
X157458669Y-156238354D01*
X157579233Y-156111295D01*
X157676256Y-155994227D01*
X157709832Y-155947123D01*
X157789112Y-155804141D01*
X157832525Y-155661433D01*
X157843786Y-155506242D01*
X157843268Y-155489033D01*
X157825958Y-155313497D01*
X157785585Y-155146688D01*
X157718111Y-154973310D01*
X157692856Y-154919531D01*
X157655655Y-154846547D01*
X157619266Y-154786414D01*
X157575977Y-154728957D01*
X157518079Y-154664005D01*
X157437862Y-154581382D01*
X157432414Y-154575886D01*
X157347340Y-154491884D01*
X157280829Y-154431486D01*
X157223553Y-154387331D01*
X157166185Y-154352058D01*
X157116353Y-154326452D01*
X156920907Y-154253356D01*
X156705156Y-154211521D01*
X156474362Y-154199302D01*
X156233789Y-154215054D01*
X155988702Y-154257127D01*
X155744364Y-154323878D01*
X155506039Y-154413661D01*
X155278989Y-154524830D01*
X155068482Y-154655737D01*
X154879777Y-154804741D01*
X154718139Y-154970191D01*
X154614858Y-155108651D01*
X154531340Y-155256275D01*
X154475311Y-155404618D01*
X154443508Y-155565610D01*
X154432675Y-155751173D01*
X154432627Y-155775181D01*
X153375955Y-155775181D01*
X153345978Y-155676421D01*
X153311673Y-155500861D01*
X153295705Y-155325785D01*
X153295586Y-155322048D01*
X153306763Y-155070565D01*
X153356398Y-154829186D01*
X153445100Y-154596616D01*
X153573485Y-154371566D01*
X153742163Y-154152744D01*
X153950184Y-153940295D01*
X154144201Y-153782368D01*
X154348318Y-153658544D01*
X154567039Y-153567283D01*
X154804873Y-153507045D01*
X155066325Y-153476291D01*
X155319495Y-153472393D01*
X155570146Y-153489963D01*
X155826586Y-153531389D01*
X156097405Y-153598380D01*
X156343251Y-153675986D01*
X156548775Y-153750848D01*
X156735485Y-153829326D01*
X156911228Y-153915929D01*
X157083856Y-154015170D01*
X157261218Y-154131557D01*
X157451164Y-154269600D01*
X157660176Y-154432716D01*
X157833052Y-154570671D01*
X157978665Y-154685835D01*
X158095966Y-154777396D01*
X158183908Y-154844541D01*
X158241446Y-154886457D01*
X158261683Y-154899588D01*
X158301791Y-154898753D01*
X158360200Y-154862759D01*
X158435630Y-154793229D01*
X158526798Y-154691789D01*
X158632421Y-154560063D01*
X158751217Y-154399676D01*
X158881903Y-154212253D01*
X159023195Y-153999419D01*
X159173813Y-153762796D01*
X159228022Y-153675427D01*
X159307061Y-153549556D01*
X159371579Y-153451673D01*
X159419937Y-153384129D01*
X159450489Y-153349270D01*
X159459231Y-153344907D01*
X159481391Y-153358778D01*
G37*
G36*
X150620023Y-123209083D02*
G01*
X150736239Y-123257820D01*
X150855027Y-123346756D01*
X150961134Y-123468348D01*
X151050071Y-123614392D01*
X151117351Y-123776681D01*
X151158484Y-123947012D01*
X151168684Y-124048260D01*
X151169622Y-124171141D01*
X151159749Y-124291183D01*
X151137282Y-124418984D01*
X151100437Y-124565138D01*
X151057620Y-124708105D01*
X151032282Y-124788211D01*
X151013675Y-124849119D01*
X151003810Y-124889134D01*
X151004703Y-124906563D01*
X151018369Y-124899714D01*
X151046820Y-124866892D01*
X151092071Y-124806402D01*
X151156137Y-124716551D01*
X151241032Y-124595647D01*
X151312327Y-124493911D01*
X151392685Y-124380603D01*
X151472909Y-124269723D01*
X151546945Y-124169478D01*
X151608742Y-124088075D01*
X151648373Y-124038326D01*
X151752282Y-123913709D01*
X151776959Y-123959703D01*
X151800493Y-124013388D01*
X151826260Y-124087127D01*
X151850976Y-124169180D01*
X151871355Y-124247809D01*
X151884114Y-124311276D01*
X151885969Y-124347839D01*
X151885759Y-124348609D01*
X151872292Y-124376135D01*
X151841681Y-124424886D01*
X151792932Y-124496217D01*
X151725055Y-124591483D01*
X151637052Y-124712037D01*
X151527933Y-124859233D01*
X151396701Y-125034426D01*
X151242364Y-125238970D01*
X151063930Y-125474219D01*
X150950449Y-125623370D01*
X150721998Y-125923915D01*
X150512767Y-126200354D01*
X150323782Y-126451316D01*
X150156063Y-126675434D01*
X150010633Y-126871340D01*
X149888516Y-127037665D01*
X149790732Y-127173042D01*
X149762516Y-127212760D01*
X149680168Y-127329318D01*
X149742585Y-127391735D01*
X149801231Y-127436105D01*
X149889066Y-127478905D01*
X149989759Y-127515918D01*
X150082507Y-127543843D01*
X150170074Y-127562071D01*
X150265753Y-127572332D01*
X150382833Y-127576353D01*
X150455581Y-127576558D01*
X150690215Y-127565257D01*
X150893666Y-127532097D01*
X151071336Y-127475176D01*
X151228631Y-127392588D01*
X151370953Y-127282435D01*
X151417516Y-127237732D01*
X151564368Y-127065641D01*
X151694903Y-126861641D01*
X151809515Y-126624579D01*
X151908597Y-126353309D01*
X151992545Y-126046678D01*
X152061751Y-125703538D01*
X152116609Y-125322736D01*
X152136849Y-125137482D01*
X152164165Y-124862756D01*
X152218421Y-124917011D01*
X152260079Y-124973445D01*
X152309794Y-125065755D01*
X152365588Y-125189371D01*
X152425481Y-125339716D01*
X152487501Y-125512223D01*
X152526595Y-125629667D01*
X152618102Y-125912757D01*
X152564126Y-126010130D01*
X152499932Y-126123450D01*
X152431340Y-126239221D01*
X152356021Y-126360902D01*
X152271641Y-126491953D01*
X152175869Y-126635833D01*
X152066371Y-126796001D01*
X151940817Y-126975918D01*
X151796873Y-127179041D01*
X151632206Y-127408831D01*
X151464853Y-127640621D01*
X151391566Y-127742990D01*
X151320598Y-127844153D01*
X151258565Y-127934537D01*
X151212087Y-128004571D01*
X151199849Y-128023906D01*
X151100348Y-128158336D01*
X150972754Y-128290414D01*
X150829443Y-128407836D01*
X150778740Y-128442623D01*
X150560976Y-128561822D01*
X150324285Y-128650771D01*
X150076210Y-128708348D01*
X149824293Y-128733442D01*
X149576076Y-128724937D01*
X149339101Y-128681718D01*
X149279363Y-128664374D01*
X149141726Y-128617530D01*
X149025987Y-128568602D01*
X148922830Y-128511621D01*
X148822936Y-128440620D01*
X148716987Y-128349635D01*
X148595666Y-128232700D01*
X148578748Y-128215751D01*
X148481240Y-128116532D01*
X148432701Y-128064754D01*
X148407675Y-128038059D01*
X148351604Y-127972557D01*
X148306581Y-127912256D01*
X148266163Y-127849383D01*
X148244786Y-127813023D01*
X148107415Y-127550664D01*
X148006361Y-127302883D01*
X147940630Y-127065684D01*
X147909231Y-126835072D01*
X147911173Y-126607052D01*
X147921749Y-126510696D01*
X147956767Y-126318043D01*
X148009164Y-126126003D01*
X148081026Y-125930241D01*
X148174446Y-125726420D01*
X148211039Y-125658836D01*
X148818799Y-125658836D01*
X148831508Y-125893253D01*
X148862821Y-126130832D01*
X148880736Y-126225620D01*
X148934092Y-126440423D01*
X149000824Y-126623717D01*
X149085606Y-126784752D01*
X149193111Y-126932777D01*
X149294180Y-127043571D01*
X149373775Y-127123679D01*
X149430597Y-127175851D01*
X149471866Y-127201088D01*
X149504803Y-127200387D01*
X149536626Y-127174748D01*
X149574554Y-127125169D01*
X149601967Y-127086164D01*
X149662022Y-126997498D01*
X149728044Y-126894962D01*
X149784737Y-126802424D01*
X149919716Y-126555449D01*
X150038170Y-126301478D01*
X150137853Y-126047202D01*
X150216521Y-125799317D01*
X150271929Y-125564516D01*
X150301832Y-125349491D01*
X150306566Y-125246508D01*
X150293869Y-125042431D01*
X150254395Y-124862005D01*
X150191164Y-124707039D01*
X150107197Y-124579343D01*
X150005514Y-124480721D01*
X149889135Y-124412983D01*
X149761081Y-124377937D01*
X149624371Y-124377390D01*
X149482026Y-124413152D01*
X149337068Y-124487026D01*
X149206422Y-124587999D01*
X149079123Y-124718068D01*
X148984054Y-124851380D01*
X148912834Y-125000508D01*
X148891492Y-125060264D01*
X148848868Y-125233770D01*
X148824611Y-125436151D01*
X148818799Y-125658836D01*
X148211039Y-125658836D01*
X148291513Y-125510207D01*
X148434315Y-125277268D01*
X148604945Y-125023266D01*
X148711267Y-124873216D01*
X148794951Y-124756851D01*
X148894635Y-124618049D01*
X149002089Y-124468279D01*
X149109084Y-124319011D01*
X149207393Y-124181715D01*
X149210198Y-124177794D01*
X149330189Y-124011344D01*
X149430886Y-123874854D01*
X149516168Y-123763652D01*
X149589914Y-123673064D01*
X149656004Y-123598413D01*
X149718316Y-123535026D01*
X149780728Y-123478230D01*
X149814003Y-123450166D01*
X149979174Y-123332505D01*
X150146339Y-123248736D01*
X150311520Y-123199691D01*
X150470738Y-123186196D01*
X150620023Y-123209083D01*
G37*
G36*
X187047341Y-129102175D02*
G01*
X187215100Y-129182942D01*
X187317313Y-129250393D01*
X187454668Y-129369463D01*
X187592771Y-129527653D01*
X187730347Y-129722462D01*
X187866121Y-129951385D01*
X187998819Y-130211919D01*
X188127165Y-130501560D01*
X188249884Y-130817805D01*
X188365703Y-131158150D01*
X188473344Y-131520093D01*
X188473473Y-131520554D01*
X188545676Y-131804989D01*
X188599768Y-132070691D01*
X188635440Y-132314420D01*
X188652384Y-132532930D01*
X188650290Y-132722981D01*
X188628852Y-132881331D01*
X188609562Y-132951231D01*
X188586890Y-133013715D01*
X188563272Y-133064403D01*
X188532321Y-133112676D01*
X188487651Y-133167916D01*
X188422876Y-133239507D01*
X188387649Y-133277228D01*
X188308143Y-133360396D01*
X188249061Y-133417604D01*
X188203703Y-133454523D01*
X188165364Y-133476834D01*
X188140945Y-133486220D01*
X188090126Y-133498260D01*
X188058011Y-133498060D01*
X188055378Y-133496422D01*
X188045497Y-133473963D01*
X188024251Y-133417240D01*
X187993495Y-133331506D01*
X187955092Y-133222012D01*
X187910904Y-133094016D01*
X187862788Y-132952769D01*
X187861485Y-132948918D01*
X187812986Y-132806945D01*
X187767964Y-132677716D01*
X187728348Y-132566575D01*
X187696071Y-132478862D01*
X187673063Y-132419917D01*
X187661257Y-132395083D01*
X187661167Y-132394988D01*
X187658440Y-132372795D01*
X187678098Y-132360352D01*
X187792253Y-132310230D01*
X187877301Y-132265330D01*
X187943999Y-132218711D01*
X188003096Y-132163425D01*
X188031725Y-132131993D01*
X188126817Y-132001146D01*
X188185593Y-131864105D01*
X188208649Y-131716512D01*
X188196576Y-131554010D01*
X188149970Y-131372243D01*
X188139454Y-131341382D01*
X188058051Y-131143651D01*
X187966019Y-130984701D01*
X187862287Y-130862753D01*
X187840057Y-130842659D01*
X187722451Y-130759245D01*
X187587469Y-130692872D01*
X187446228Y-130647122D01*
X187309854Y-130625578D01*
X187189462Y-130631824D01*
X187187153Y-130632287D01*
X187076999Y-130674288D01*
X186976670Y-130748648D01*
X186896508Y-130846053D01*
X186854817Y-130931517D01*
X186829968Y-131030585D01*
X186819240Y-131148304D01*
X186823060Y-131287201D01*
X186841860Y-131449799D01*
X186876064Y-131638623D01*
X186926108Y-131856197D01*
X186992415Y-132105046D01*
X187075418Y-132387694D01*
X187134817Y-132579010D01*
X187182437Y-132731736D01*
X187218206Y-132852382D01*
X187243755Y-132948303D01*
X187260711Y-133026857D01*
X187270701Y-133095398D01*
X187275355Y-133161279D01*
X187276329Y-133218391D01*
X187264675Y-133402965D01*
X187227469Y-133564666D01*
X187161639Y-133715709D01*
X187142886Y-133748932D01*
X187026337Y-133908114D01*
X186882642Y-134037716D01*
X186715293Y-134136404D01*
X186527780Y-134202849D01*
X186323597Y-134235715D01*
X186106234Y-134233674D01*
X185937753Y-134208657D01*
X185786760Y-134170499D01*
X185665948Y-134122021D01*
X185564024Y-134056940D01*
X185469692Y-133968975D01*
X185433474Y-133928226D01*
X185326224Y-133789446D01*
X185211600Y-133617568D01*
X185093230Y-133419690D01*
X184974742Y-133202910D01*
X184859768Y-132974325D01*
X184751933Y-132741031D01*
X184654868Y-132510127D01*
X184572201Y-132288710D01*
X184530847Y-132162805D01*
X184447893Y-131865110D01*
X184383539Y-131571582D01*
X184338006Y-131286585D01*
X184311510Y-131014478D01*
X184304272Y-130759627D01*
X184316509Y-130526393D01*
X184348442Y-130319139D01*
X184400287Y-130142228D01*
X184426487Y-130081277D01*
X184466842Y-130007484D01*
X184515911Y-129942954D01*
X184585133Y-129873249D01*
X184607564Y-129852749D01*
X184678210Y-129791984D01*
X184735031Y-129752940D01*
X184792961Y-129727176D01*
X184866636Y-129706324D01*
X184934935Y-129691660D01*
X184984896Y-129684876D01*
X185005338Y-129687274D01*
X185015673Y-129713702D01*
X185037993Y-129772368D01*
X185070121Y-129857459D01*
X185109884Y-129963161D01*
X185155106Y-130083658D01*
X185203613Y-130213133D01*
X185253230Y-130345777D01*
X185301784Y-130475768D01*
X185347097Y-130597296D01*
X185386995Y-130704545D01*
X185419306Y-130791700D01*
X185441852Y-130852946D01*
X185452460Y-130882468D01*
X185452992Y-130884216D01*
X185435687Y-130895946D01*
X185388649Y-130917345D01*
X185321424Y-130944133D01*
X185309159Y-130948735D01*
X185168505Y-131007458D01*
X185056893Y-131070503D01*
X184961867Y-131145988D01*
X184886363Y-131224247D01*
X184804226Y-131336263D01*
X184755554Y-131452298D01*
X184736609Y-131583866D01*
X184738278Y-131680294D01*
X184764332Y-131838417D01*
X184820807Y-132010145D01*
X184903483Y-132185928D01*
X185008135Y-132356210D01*
X185078769Y-132450588D01*
X185141826Y-132521342D01*
X185207045Y-132574674D01*
X185292898Y-132625618D01*
X185295530Y-132627025D01*
X185425942Y-132685294D01*
X185570534Y-132731538D01*
X185711994Y-132760921D01*
X185803734Y-132768952D01*
X185951742Y-132752772D01*
X186083519Y-132700749D01*
X186196803Y-132616304D01*
X186289332Y-132502854D01*
X186358841Y-132363826D01*
X186403069Y-132202634D01*
X186419753Y-132022701D01*
X186409983Y-131852626D01*
X186397912Y-131776535D01*
X186377079Y-131668459D01*
X186349284Y-131536728D01*
X186316321Y-131389673D01*
X186279988Y-131235621D01*
X186255157Y-131134656D01*
X186197093Y-130899131D01*
X186149718Y-130698205D01*
X186112086Y-130526455D01*
X186083243Y-130378466D01*
X186062242Y-130248818D01*
X186048131Y-130132094D01*
X186039960Y-130022875D01*
X186036779Y-129915741D01*
X186036653Y-129888597D01*
X186045102Y-129703500D01*
X186072317Y-129551240D01*
X186120986Y-129426206D01*
X186193795Y-129322786D01*
X186293433Y-129235372D01*
X186373988Y-129184405D01*
X186548393Y-129103452D01*
X186716847Y-129062629D01*
X186882210Y-129062136D01*
X187047341Y-129102175D01*
G37*
G36*
X178363704Y-118863806D02*
G01*
X178680776Y-118922988D01*
X179004682Y-119020090D01*
X179333070Y-119154050D01*
X179663584Y-119323808D01*
X179993873Y-119528302D01*
X180321584Y-119766470D01*
X180585257Y-119984859D01*
X180708733Y-120097568D01*
X180836937Y-120222769D01*
X180964022Y-120354051D01*
X181084142Y-120485004D01*
X181191448Y-120609218D01*
X181280094Y-120720284D01*
X181344234Y-120811791D01*
X181353631Y-120827221D01*
X181437724Y-120999524D01*
X181491224Y-121175070D01*
X181514180Y-121348178D01*
X181506645Y-121513164D01*
X181468673Y-121664349D01*
X181400314Y-121796052D01*
X181344077Y-121864029D01*
X181264988Y-121929915D01*
X181173585Y-121976734D01*
X181066504Y-122004397D01*
X180940385Y-122012814D01*
X180791866Y-122001896D01*
X180617588Y-121971552D01*
X180414189Y-121921692D01*
X180178304Y-121852228D01*
X180111610Y-121831063D01*
X179953759Y-121781548D01*
X179833585Y-121746687D01*
X179749838Y-121726267D01*
X179701263Y-121720072D01*
X179686608Y-121727889D01*
X179704619Y-121749506D01*
X179725038Y-121765105D01*
X179768329Y-121796031D01*
X179834200Y-121843145D01*
X179911359Y-121898369D01*
X179947322Y-121924120D01*
X180012525Y-121969773D01*
X180105148Y-122033183D01*
X180217723Y-122109312D01*
X180342783Y-122193122D01*
X180472859Y-122279576D01*
X180536461Y-122321571D01*
X180654367Y-122399292D01*
X180760078Y-122469076D01*
X180848823Y-122527764D01*
X180915833Y-122572201D01*
X180956340Y-122599231D01*
X180966449Y-122606171D01*
X180959487Y-122622951D01*
X180924300Y-122647270D01*
X180871863Y-122672523D01*
X180832776Y-122686606D01*
X180762873Y-122701646D01*
X180675547Y-122711817D01*
X180622219Y-122714292D01*
X180563885Y-122713988D01*
X180519552Y-122708349D01*
X180478589Y-122692730D01*
X180430358Y-122662488D01*
X180364227Y-122612976D01*
X180330621Y-122586920D01*
X180240864Y-122518757D01*
X180120688Y-122429946D01*
X179974099Y-122323325D01*
X179805109Y-122201730D01*
X179617724Y-122067996D01*
X179415950Y-121924960D01*
X179203797Y-121775459D01*
X178985273Y-121622327D01*
X178764385Y-121468402D01*
X178545143Y-121316520D01*
X178331553Y-121169518D01*
X178212592Y-121088123D01*
X178055379Y-120980744D01*
X177908965Y-120880615D01*
X177776905Y-120790176D01*
X177662752Y-120711866D01*
X177570059Y-120648125D01*
X177502382Y-120601393D01*
X177463273Y-120574108D01*
X177454852Y-120567955D01*
X177434916Y-120574015D01*
X177400436Y-120607635D01*
X177357708Y-120660296D01*
X177313029Y-120723473D01*
X177272698Y-120788640D01*
X177243009Y-120847273D01*
X177236850Y-120863076D01*
X177200013Y-121021963D01*
X177190056Y-121203255D01*
X177205210Y-121399094D01*
X177243711Y-121601621D01*
X177303785Y-121802979D01*
X177383667Y-121995306D01*
X177481589Y-122170747D01*
X177553791Y-122271649D01*
X177669879Y-122390031D01*
X177825174Y-122503562D01*
X178017402Y-122611394D01*
X178244289Y-122712680D01*
X178503563Y-122806572D01*
X178792947Y-122892226D01*
X179110172Y-122968792D01*
X179452960Y-123035422D01*
X179715381Y-123076923D01*
X179827835Y-123095060D01*
X179903877Y-123111741D01*
X179941611Y-123126482D01*
X179943931Y-123135682D01*
X179903415Y-123164073D01*
X179831931Y-123202030D01*
X179736502Y-123246802D01*
X179624148Y-123295644D01*
X179501893Y-123345804D01*
X179376757Y-123394537D01*
X179255761Y-123439092D01*
X179145929Y-123476721D01*
X179054280Y-123504675D01*
X178987838Y-123520208D01*
X178957449Y-123521822D01*
X178921309Y-123508323D01*
X178855588Y-123477854D01*
X178767002Y-123433920D01*
X178662264Y-123380028D01*
X178548088Y-123319688D01*
X178431191Y-123256406D01*
X178318286Y-123193689D01*
X178216087Y-123135044D01*
X178208815Y-123130774D01*
X177864607Y-122917540D01*
X177538731Y-122694176D01*
X177234229Y-122463424D01*
X176954141Y-122228027D01*
X176701511Y-121990730D01*
X176479383Y-121754272D01*
X176377787Y-121628819D01*
X176290796Y-121521399D01*
X176138794Y-121294853D01*
X176102653Y-121231929D01*
X176016388Y-121038102D01*
X175964709Y-120829634D01*
X175946188Y-120600547D01*
X175946102Y-120576966D01*
X175961214Y-120338841D01*
X177611654Y-120338841D01*
X177613779Y-120355018D01*
X177630198Y-120376408D01*
X177665489Y-120406703D01*
X177724231Y-120449591D01*
X177811007Y-120508766D01*
X177876915Y-120552621D01*
X177994159Y-120628028D01*
X178121989Y-120706639D01*
X178246388Y-120780039D01*
X178353338Y-120839815D01*
X178371390Y-120849389D01*
X178560176Y-120940167D01*
X178758755Y-121020920D01*
X178960970Y-121090190D01*
X179160661Y-121146512D01*
X179351670Y-121188424D01*
X179527838Y-121214466D01*
X179683007Y-121223174D01*
X179811017Y-121213086D01*
X179857523Y-121202205D01*
X180033457Y-121133731D01*
X180187306Y-121042329D01*
X180314110Y-120932173D01*
X180408912Y-120807436D01*
X180459849Y-120695475D01*
X180487173Y-120548965D01*
X180474918Y-120406023D01*
X180425155Y-120268800D01*
X180339953Y-120139448D01*
X180221384Y-120020117D01*
X180071518Y-119912960D01*
X179892426Y-119820126D01*
X179686177Y-119743768D01*
X179496578Y-119694601D01*
X179202895Y-119649591D01*
X178919978Y-119642155D01*
X178650008Y-119671840D01*
X178395161Y-119738195D01*
X178157615Y-119840770D01*
X177939548Y-119979113D01*
X177874698Y-120030478D01*
X177795784Y-120101979D01*
X177722537Y-120178487D01*
X177662357Y-120251328D01*
X177622641Y-120311828D01*
X177611654Y-120338841D01*
X175961214Y-120338841D01*
X175961317Y-120337224D01*
X176006964Y-120121922D01*
X176085103Y-119924978D01*
X176197789Y-119740312D01*
X176253869Y-119667454D01*
X176454611Y-119453882D01*
X176682994Y-119269372D01*
X176935181Y-119115679D01*
X177207337Y-118994555D01*
X177495622Y-118907760D01*
X177796199Y-118857042D01*
X178055818Y-118843608D01*
X178363704Y-118863806D01*
G37*
G36*
X183330076Y-122532222D02*
G01*
X183369020Y-122575236D01*
X183426286Y-122641114D01*
X183497909Y-122725101D01*
X183579929Y-122822445D01*
X183668388Y-122928388D01*
X183759322Y-123038180D01*
X183848770Y-123147064D01*
X183932772Y-123250285D01*
X184007368Y-123343090D01*
X184068595Y-123420723D01*
X184094221Y-123454028D01*
X184146964Y-123523449D01*
X184043648Y-123637752D01*
X183982262Y-123708402D01*
X183947157Y-123761575D01*
X183940431Y-123804145D01*
X183964185Y-123842985D01*
X184020517Y-123884971D01*
X184111527Y-123936979D01*
X184139634Y-123952186D01*
X184295292Y-124046048D01*
X184456897Y-124163826D01*
X184628089Y-124308599D01*
X184812503Y-124483443D01*
X185013779Y-124691438D01*
X185016006Y-124693821D01*
X185291001Y-125000999D01*
X185528402Y-125293550D01*
X185728171Y-125571283D01*
X185890267Y-125834009D01*
X186014650Y-126081540D01*
X186101282Y-126313687D01*
X186150120Y-126530260D01*
X186161125Y-126731070D01*
X186134256Y-126915929D01*
X186069474Y-127084647D01*
X185966739Y-127237036D01*
X185826012Y-127372906D01*
X185647250Y-127492068D01*
X185613520Y-127510416D01*
X185425505Y-127595803D01*
X185244864Y-127647456D01*
X185061169Y-127668669D01*
X184874176Y-127663190D01*
X184688834Y-127630982D01*
X184500795Y-127570263D01*
X184305720Y-127479247D01*
X184099261Y-127356150D01*
X183877074Y-127199187D01*
X183829085Y-127162583D01*
X183745260Y-127098168D01*
X183668117Y-127039345D01*
X183606668Y-126992960D01*
X183571902Y-126967267D01*
X183514331Y-126925950D01*
X183509998Y-127133338D01*
X183507604Y-127212084D01*
X183503165Y-127324045D01*
X183497062Y-127460832D01*
X183489684Y-127614059D01*
X183481419Y-127775337D01*
X183474723Y-127899137D01*
X183464410Y-128110260D01*
X183456310Y-128327911D01*
X183450455Y-128546185D01*
X183446875Y-128759172D01*
X183445606Y-128960962D01*
X183446679Y-129145651D01*
X183450124Y-129307328D01*
X183455978Y-129440088D01*
X183464269Y-129538022D01*
X183465691Y-129549098D01*
X183481775Y-129629092D01*
X183509961Y-129732913D01*
X183546013Y-129846046D01*
X183578728Y-129936245D01*
X183636062Y-130094258D01*
X183672067Y-130216920D01*
X183686837Y-130304635D01*
X183680455Y-130357804D01*
X183673325Y-130368242D01*
X183643576Y-130372525D01*
X183616664Y-130354285D01*
X183597301Y-130329882D01*
X183556905Y-130275109D01*
X183498227Y-130193818D01*
X183424010Y-130089863D01*
X183337004Y-129967096D01*
X183239954Y-129829372D01*
X183135608Y-129680543D01*
X183098500Y-129627442D01*
X182990119Y-129472259D01*
X182886403Y-129323830D01*
X182790415Y-129186533D01*
X182705218Y-129064746D01*
X182633876Y-128962847D01*
X182579451Y-128885214D01*
X182545007Y-128836225D01*
X182539649Y-128828644D01*
X182500479Y-128769160D01*
X182477511Y-128717946D01*
X182466392Y-128659560D01*
X182462772Y-128578562D01*
X182462541Y-128555036D01*
X182463759Y-128485368D01*
X182467790Y-128382711D01*
X182474183Y-128255617D01*
X182482494Y-128112643D01*
X182492274Y-127962345D01*
X182497085Y-127893928D01*
X182517653Y-127577718D01*
X182530849Y-127297493D01*
X182536526Y-127048199D01*
X182534541Y-126824780D01*
X182524745Y-126622180D01*
X182506995Y-126435341D01*
X182481144Y-126259210D01*
X182447045Y-126088730D01*
X182444753Y-126078656D01*
X182367700Y-125808557D01*
X182302363Y-125654117D01*
X182267324Y-125571292D01*
X182142411Y-125364368D01*
X182027448Y-125222737D01*
X181929023Y-125115795D01*
X181798692Y-125177005D01*
X181653476Y-125251264D01*
X181489274Y-125345476D01*
X181318499Y-125452186D01*
X181153556Y-125563938D01*
X181148319Y-125567651D01*
X181073005Y-125619801D01*
X181009127Y-125661548D01*
X180964937Y-125687639D01*
X180950195Y-125693771D01*
X180933078Y-125677520D01*
X180896874Y-125631218D01*
X180844953Y-125559908D01*
X180780689Y-125468639D01*
X180707455Y-125362460D01*
X180628625Y-125246419D01*
X180547572Y-125125563D01*
X180467667Y-125004939D01*
X180433124Y-124952085D01*
X182220577Y-124952085D01*
X182226984Y-124991105D01*
X182242889Y-125034110D01*
X182305293Y-125155369D01*
X182401323Y-125288779D01*
X182526224Y-125430256D01*
X182675244Y-125575713D01*
X182843628Y-125721064D01*
X183026621Y-125862223D01*
X183219472Y-125995105D01*
X183417424Y-126115622D01*
X183615725Y-126219691D01*
X183630457Y-126226709D01*
X183827125Y-126309451D01*
X184026882Y-126374551D01*
X184222242Y-126420559D01*
X184405719Y-126446023D01*
X184569826Y-126449490D01*
X184693775Y-126432841D01*
X184859131Y-126373524D01*
X185003693Y-126280662D01*
X185122660Y-126158559D01*
X185211231Y-126011513D01*
X185237381Y-125945780D01*
X185275446Y-125772138D01*
X185274377Y-125590931D01*
X185234834Y-125406973D01*
X185157474Y-125225076D01*
X185132763Y-125181264D01*
X185005092Y-125002076D01*
X184851672Y-124854095D01*
X184709354Y-124756231D01*
X184476053Y-124640352D01*
X184223485Y-124555336D01*
X183957453Y-124500870D01*
X183683765Y-124476644D01*
X183408219Y-124482345D01*
X183136622Y-124517663D01*
X182874775Y-124582283D01*
X182628484Y-124675895D01*
X182403549Y-124798188D01*
X182279255Y-124886777D01*
X182236612Y-124922939D01*
X182220577Y-124952085D01*
X180433124Y-124952085D01*
X180392285Y-124889598D01*
X180324798Y-124784585D01*
X180268579Y-124694948D01*
X180227003Y-124625735D01*
X180203439Y-124581997D01*
X180199351Y-124570083D01*
X180216879Y-124556153D01*
X180265176Y-124527079D01*
X180337811Y-124486506D01*
X180428356Y-124438074D01*
X180478273Y-124412082D01*
X180828667Y-124222283D01*
X181198857Y-124005056D01*
X181581930Y-123764967D01*
X181970978Y-123506583D01*
X182359088Y-123234468D01*
X182739350Y-122953187D01*
X183035637Y-122722741D01*
X183124868Y-122652606D01*
X183203250Y-122592726D01*
X183264806Y-122547533D01*
X183303560Y-122521457D01*
X183313413Y-122516828D01*
X183330076Y-122532222D01*
G37*
G36*
X186319197Y-142485224D02*
G01*
X186543432Y-142557587D01*
X186749630Y-142664278D01*
X186755587Y-142668076D01*
X186845171Y-142733134D01*
X186949191Y-142820800D01*
X187059851Y-142923250D01*
X187169352Y-143032661D01*
X187269894Y-143141209D01*
X187353679Y-143241071D01*
X187412911Y-143324422D01*
X187417543Y-143332163D01*
X187509350Y-143518579D01*
X187579366Y-143727833D01*
X187628233Y-143963253D01*
X187656590Y-144228168D01*
X187665076Y-144525901D01*
X187664014Y-144613853D01*
X187662268Y-144730963D01*
X187661908Y-144831215D01*
X187662864Y-144908215D01*
X187665063Y-144955578D01*
X187667973Y-144967659D01*
X187680759Y-144940234D01*
X187702933Y-144875669D01*
X187733550Y-144777197D01*
X187771667Y-144648053D01*
X187816340Y-144491468D01*
X187866627Y-144310674D01*
X187921584Y-144108909D01*
X187955860Y-143981173D01*
X187994541Y-143838033D01*
X188030307Y-143709057D01*
X188061639Y-143599447D01*
X188087022Y-143514407D01*
X188104937Y-143459140D01*
X188113868Y-143438851D01*
X188113968Y-143438836D01*
X188139515Y-143452626D01*
X188185036Y-143488609D01*
X188241862Y-143538710D01*
X188301327Y-143594852D01*
X188354762Y-143648956D01*
X188393500Y-143692946D01*
X188405994Y-143710964D01*
X188413518Y-143729735D01*
X188416094Y-143753933D01*
X188412461Y-143788012D01*
X188401351Y-143836429D01*
X188381497Y-143903641D01*
X188351638Y-143994102D01*
X188310505Y-144112270D01*
X188256833Y-144262601D01*
X188221507Y-144360617D01*
X188156993Y-144540763D01*
X188083520Y-144748436D01*
X188005282Y-144971621D01*
X187926473Y-145198302D01*
X187851286Y-145416464D01*
X187783916Y-145614091D01*
X187781443Y-145621398D01*
X187726743Y-145781164D01*
X187674798Y-145929217D01*
X187627419Y-146060672D01*
X187586415Y-146170648D01*
X187553597Y-146254263D01*
X187530775Y-146306634D01*
X187521678Y-146322128D01*
X187474197Y-146348389D01*
X187436002Y-146353915D01*
X187385625Y-146343188D01*
X187350556Y-146312988D01*
X187328097Y-146257469D01*
X187315551Y-146170780D01*
X187311062Y-146083060D01*
X187285483Y-145761437D01*
X187228883Y-145447039D01*
X187143205Y-145145944D01*
X187030390Y-144864229D01*
X186892382Y-144607973D01*
X186793001Y-144461836D01*
X186705750Y-144355353D01*
X186601746Y-144245030D01*
X186489457Y-144138520D01*
X186377350Y-144043476D01*
X186273896Y-143967548D01*
X186195873Y-143922213D01*
X185962426Y-143830988D01*
X185722235Y-143774330D01*
X185481882Y-143752858D01*
X185247949Y-143767190D01*
X185040216Y-143813725D01*
X184983325Y-143832377D01*
X184938590Y-143851083D01*
X184897805Y-143875715D01*
X184852765Y-143912151D01*
X184795263Y-143966268D01*
X184717095Y-144043943D01*
X184713009Y-144048036D01*
X184631871Y-144130426D01*
X184574440Y-144192581D01*
X184534257Y-144243013D01*
X184504862Y-144290238D01*
X184479793Y-144342771D01*
X184467937Y-144371063D01*
X184405170Y-144546740D01*
X184365975Y-144715735D01*
X184346839Y-144895970D01*
X184343597Y-145006396D01*
X184358646Y-145289699D01*
X184409187Y-145569872D01*
X184496395Y-145850861D01*
X184621441Y-146136606D01*
X184749803Y-146371771D01*
X184854618Y-146540865D01*
X184959539Y-146691179D01*
X185068812Y-146825972D01*
X185186675Y-146948502D01*
X185317376Y-147062028D01*
X185465153Y-147169810D01*
X185634251Y-147275105D01*
X185828911Y-147381170D01*
X186053378Y-147491266D01*
X186311891Y-147608652D01*
X186423839Y-147657536D01*
X186554094Y-147714686D01*
X186670965Y-147767456D01*
X186769196Y-147813348D01*
X186843519Y-147849866D01*
X186888676Y-147874509D01*
X186900237Y-147883698D01*
X186897224Y-147921520D01*
X186880122Y-147992682D01*
X186850573Y-148091938D01*
X186810219Y-148214039D01*
X186760705Y-148353735D01*
X186713649Y-148479754D01*
X186665240Y-148605740D01*
X186628373Y-148698390D01*
X186600062Y-148763422D01*
X186577317Y-148806560D01*
X186557152Y-148833524D01*
X186536582Y-148850035D01*
X186514596Y-148860968D01*
X186477755Y-148871211D01*
X186433808Y-148870047D01*
X186375782Y-148855590D01*
X186296702Y-148825952D01*
X186189594Y-148779243D01*
X186155615Y-148763757D01*
X186092682Y-148735995D01*
X185996300Y-148694927D01*
X185871712Y-148642722D01*
X185724163Y-148581548D01*
X185558894Y-148513575D01*
X185381153Y-148440973D01*
X185196180Y-148365910D01*
X185102979Y-148328279D01*
X184778561Y-148196692D01*
X184489537Y-148077578D01*
X184232128Y-147969205D01*
X184002552Y-147869840D01*
X183797028Y-147777752D01*
X183611772Y-147691206D01*
X183443007Y-147608469D01*
X183286948Y-147527809D01*
X183139815Y-147447492D01*
X182997825Y-147365787D01*
X182981202Y-147355956D01*
X182825997Y-147252033D01*
X182701541Y-147139640D01*
X182601333Y-147010459D01*
X182518863Y-146856176D01*
X182450656Y-146677667D01*
X182393606Y-146448248D01*
X182364298Y-146192779D01*
X182361923Y-145915568D01*
X182385670Y-145620919D01*
X182434729Y-145313139D01*
X182508291Y-144996533D01*
X182605544Y-144675405D01*
X182725676Y-144354065D01*
X182867880Y-144036814D01*
X182993015Y-143796023D01*
X183136429Y-143551443D01*
X183282231Y-143334973D01*
X183440095Y-143133692D01*
X183619695Y-142934678D01*
X183697193Y-142855413D01*
X183791954Y-142760632D01*
X183863189Y-142690864D01*
X183916693Y-142641512D01*
X183958258Y-142607972D01*
X183993678Y-142585645D01*
X184028747Y-142569929D01*
X184069256Y-142556226D01*
X184077017Y-142553792D01*
X184159338Y-142534659D01*
X184220802Y-142533497D01*
X184254825Y-142549750D01*
X184259137Y-142569166D01*
X184237930Y-142694667D01*
X184209573Y-142832684D01*
X184175878Y-142976951D01*
X184138655Y-143121206D01*
X184099713Y-143259180D01*
X184060861Y-143384607D01*
X184023911Y-143491224D01*
X183990671Y-143572764D01*
X183962951Y-143622960D01*
X183951389Y-143634555D01*
X183908007Y-143645184D01*
X183842062Y-143645373D01*
X183797683Y-143639964D01*
X183721742Y-143631063D01*
X183652822Y-143629957D01*
X183625246Y-143633080D01*
X183546725Y-143666953D01*
X183457688Y-143735357D01*
X183361529Y-143833540D01*
X183261644Y-143956751D01*
X183161435Y-144100238D01*
X183064291Y-144259250D01*
X182973613Y-144429033D01*
X182892796Y-144604839D01*
X182845990Y-144723268D01*
X182786708Y-144910569D01*
X182742474Y-145105231D01*
X182714055Y-145298943D01*
X182702221Y-145483389D01*
X182707740Y-145650252D01*
X182731380Y-145791220D01*
X182743566Y-145831435D01*
X182817785Y-145982724D01*
X182929268Y-146120681D01*
X183074831Y-146242028D01*
X183231112Y-146333723D01*
X183309901Y-146368727D01*
X183406962Y-146405897D01*
X183514770Y-146443038D01*
X183625804Y-146477958D01*
X183732540Y-146508465D01*
X183827453Y-146532366D01*
X183903021Y-146547466D01*
X183951720Y-146551576D01*
X183965114Y-146547646D01*
X183968793Y-146519973D01*
X183963158Y-146463059D01*
X183949441Y-146387982D01*
X183945136Y-146368718D01*
X183898271Y-146078589D01*
X183886876Y-145767003D01*
X183910911Y-145434320D01*
X183970339Y-145080900D01*
X184065123Y-144707106D01*
X184145737Y-144453195D01*
X184206783Y-144280405D01*
X184274357Y-144099673D01*
X184345826Y-143917225D01*
X184418556Y-143739287D01*
X184489914Y-143572078D01*
X184557268Y-143421830D01*
X184617981Y-143294763D01*
X184669422Y-143197104D01*
X184695085Y-143154691D01*
X184843388Y-142964996D01*
X185020534Y-142799068D01*
X185220405Y-142660637D01*
X185436886Y-142553435D01*
X185663857Y-142481193D01*
X185848500Y-142451114D01*
X186084896Y-142449098D01*
X186319197Y-142485224D01*
G37*
G36*
X146723251Y-135477023D02*
G01*
X146991679Y-135553159D01*
X147260644Y-135669025D01*
X147308120Y-135693638D01*
X147379656Y-135733106D01*
X147439645Y-135770786D01*
X147496728Y-135813518D01*
X147559548Y-135868146D01*
X147636748Y-135941508D01*
X147700462Y-136004193D01*
X147801950Y-136106894D01*
X147878738Y-136190256D01*
X147937599Y-136262258D01*
X147985310Y-136330873D01*
X148004932Y-136362746D01*
X148136442Y-136612880D01*
X148245419Y-136884521D01*
X148332506Y-137180515D01*
X148398345Y-137503701D01*
X148443578Y-137856928D01*
X148468847Y-138243035D01*
X148474060Y-138439903D01*
X148471712Y-138774158D01*
X148453555Y-139099671D01*
X148418386Y-139427047D01*
X148365005Y-139766889D01*
X148292211Y-140129797D01*
X148272985Y-140215930D01*
X148209926Y-140493750D01*
X148270635Y-140791889D01*
X148307509Y-140964707D01*
X148349644Y-141145780D01*
X148398361Y-141340016D01*
X148454981Y-141552323D01*
X148520825Y-141787609D01*
X148597214Y-142050782D01*
X148685471Y-142346751D01*
X148718546Y-142456151D01*
X148769206Y-142624413D01*
X148817007Y-142785430D01*
X148860299Y-142933482D01*
X148897433Y-143062843D01*
X148926760Y-143167792D01*
X148946635Y-143242606D01*
X148954005Y-143273809D01*
X148968617Y-143381657D01*
X148970325Y-143504757D01*
X148958516Y-143646710D01*
X148932582Y-143811118D01*
X148891917Y-144001582D01*
X148835910Y-144221706D01*
X148763955Y-144475090D01*
X148734288Y-144574286D01*
X148691780Y-144717978D01*
X148651107Y-144861240D01*
X148614775Y-144994821D01*
X148585283Y-145109462D01*
X148565136Y-145195908D01*
X148561855Y-145212020D01*
X148531281Y-145439376D01*
X148527895Y-145660267D01*
X148551394Y-145865374D01*
X148587681Y-146006871D01*
X148617329Y-146090228D01*
X148645606Y-146159905D01*
X148668022Y-146205207D01*
X148674910Y-146214702D01*
X148712217Y-146225337D01*
X148785657Y-146220769D01*
X148892788Y-146201558D01*
X149031169Y-146168264D01*
X149198358Y-146121452D01*
X149391911Y-146061680D01*
X149513477Y-146021901D01*
X149595564Y-145994819D01*
X149661692Y-145973524D01*
X149702677Y-145960947D01*
X149711233Y-145958802D01*
X149723827Y-145977628D01*
X149744820Y-146030845D01*
X149772526Y-146112408D01*
X149805254Y-146216273D01*
X149841317Y-146336399D01*
X149879025Y-146466741D01*
X149916690Y-146601254D01*
X149952624Y-146733897D01*
X149985137Y-146858624D01*
X150012541Y-146969393D01*
X150033148Y-147060161D01*
X150045268Y-147124882D01*
X150047216Y-147157514D01*
X150046612Y-147159122D01*
X150023022Y-147168995D01*
X149966334Y-147182300D01*
X149884808Y-147197360D01*
X149786704Y-147212499D01*
X149777178Y-147213831D01*
X149331238Y-147282653D01*
X148916172Y-147362211D01*
X148521929Y-147455377D01*
X148138459Y-147565027D01*
X147755708Y-147694034D01*
X147363625Y-147845273D01*
X146952161Y-148021619D01*
X146951859Y-148021754D01*
X146844406Y-148069194D01*
X146749431Y-148109960D01*
X146673767Y-148141210D01*
X146624248Y-148160103D01*
X146608574Y-148164461D01*
X146587569Y-148145004D01*
X146555922Y-148088692D01*
X146514901Y-147998603D01*
X146465771Y-147877814D01*
X146409801Y-147729407D01*
X146348252Y-147556458D01*
X146298498Y-147410413D01*
X146169165Y-147024063D01*
X146288299Y-146914893D01*
X146351504Y-146854294D01*
X146385834Y-146813779D01*
X146395445Y-146788029D01*
X146393213Y-146780512D01*
X146375589Y-146755514D01*
X146337288Y-146704725D01*
X146283550Y-146634988D01*
X146219614Y-146553151D01*
X146203632Y-146532847D01*
X146082405Y-146374155D01*
X145984959Y-146233281D01*
X145905767Y-146099419D01*
X145896473Y-146080171D01*
X145839298Y-145961763D01*
X145780026Y-145809507D01*
X145722422Y-145631849D01*
X145694973Y-145538659D01*
X145657351Y-145415353D01*
X145613668Y-145283572D01*
X145569811Y-145160548D01*
X145537459Y-145077353D01*
X145468629Y-144906584D01*
X145468547Y-144906365D01*
X145774856Y-144906365D01*
X145793323Y-145081754D01*
X145828852Y-145212334D01*
X145896670Y-145373568D01*
X145989406Y-145526753D01*
X146112629Y-145680286D01*
X146202049Y-145774594D01*
X146421104Y-145968270D01*
X146660169Y-146131842D01*
X146914403Y-146263449D01*
X147178962Y-146361230D01*
X147449004Y-146423325D01*
X147719685Y-146447873D01*
X147932151Y-146439357D01*
X148021816Y-146425982D01*
X148121867Y-146404303D01*
X148221703Y-146377416D01*
X148310727Y-146348414D01*
X148378338Y-146320393D01*
X148411275Y-146299445D01*
X148419750Y-146266438D01*
X148415471Y-146204344D01*
X148401650Y-146133953D01*
X148310313Y-145830787D01*
X148188825Y-145540319D01*
X148040267Y-145266779D01*
X147867716Y-145014397D01*
X147674252Y-144787403D01*
X147462954Y-144590030D01*
X147236901Y-144426506D01*
X147103755Y-144350644D01*
X146894057Y-144259753D01*
X146694719Y-144208995D01*
X146504845Y-144198379D01*
X146323536Y-144227914D01*
X146149895Y-144297608D01*
X146045462Y-144361152D01*
X145928119Y-144466219D01*
X145843245Y-144594705D01*
X145791826Y-144742718D01*
X145774856Y-144906365D01*
X145468547Y-144906365D01*
X145415306Y-144764514D01*
X145374580Y-144642462D01*
X145343538Y-144531745D01*
X145320869Y-144431645D01*
X145285225Y-144177562D01*
X145281993Y-143932042D01*
X145310853Y-143701463D01*
X145366921Y-143504143D01*
X145403393Y-143416796D01*
X145442474Y-143351100D01*
X145496518Y-143288185D01*
X145530398Y-143254406D01*
X145694102Y-143118462D01*
X145865004Y-143022575D01*
X146046471Y-142965304D01*
X146241867Y-142945211D01*
X146253213Y-142945156D01*
X146444997Y-142961652D01*
X146636211Y-143012155D01*
X146830510Y-143098182D01*
X147031553Y-143221257D01*
X147176589Y-143328946D01*
X147281189Y-143418909D01*
X147399338Y-143532148D01*
X147520675Y-143657803D01*
X147634844Y-143785014D01*
X147731488Y-143902922D01*
X147758958Y-143939575D01*
X147800802Y-143994405D01*
X147825068Y-144016062D01*
X147836901Y-144006302D01*
X147841404Y-143967755D01*
X147848027Y-143936524D01*
X147865588Y-143871121D01*
X147892464Y-143777109D01*
X147927032Y-143660051D01*
X147967671Y-143525510D01*
X148012757Y-143379051D01*
X148018250Y-143361388D01*
X148109245Y-143058726D01*
X148182480Y-142791240D01*
X148238153Y-142556504D01*
X148276466Y-142352087D01*
X148297617Y-142175566D01*
X148301808Y-142024511D01*
X148289239Y-141896495D01*
X148260106Y-141789090D01*
X148214616Y-141699869D01*
X148160604Y-141633864D01*
X148123211Y-141599919D01*
X148084376Y-141575731D01*
X148033706Y-141557355D01*
X147960811Y-141540858D01*
X147874989Y-141525601D01*
X147483875Y-141473334D01*
X147060105Y-141442633D01*
X146606671Y-141433482D01*
X146126570Y-141445868D01*
X145622794Y-141479774D01*
X145098336Y-141535187D01*
X145063642Y-141539529D01*
X144647566Y-141592074D01*
X144636992Y-141528594D01*
X144633686Y-141491550D01*
X144629671Y-141418894D01*
X144625186Y-141316680D01*
X144620475Y-141190964D01*
X144615781Y-141047795D01*
X144611347Y-140893226D01*
X144611004Y-140880301D01*
X144595590Y-140295487D01*
X144683724Y-140303420D01*
X144796631Y-140303033D01*
X144888868Y-140281552D01*
X144947184Y-140245393D01*
X144964174Y-140222159D01*
X144968207Y-140192082D01*
X144958053Y-140145775D01*
X144932481Y-140073852D01*
X144920746Y-140043650D01*
X144863480Y-139886187D01*
X144851836Y-139854171D01*
X144798395Y-139672563D01*
X144758624Y-139488882D01*
X144730720Y-139293180D01*
X144712887Y-139075517D01*
X144703767Y-138844894D01*
X144698402Y-138717572D01*
X144688311Y-138561727D01*
X144674527Y-138390110D01*
X144658084Y-138215470D01*
X144644704Y-138093323D01*
X144929143Y-138093323D01*
X144946551Y-138321108D01*
X145005400Y-138552721D01*
X145105705Y-138788214D01*
X145247476Y-139027640D01*
X145257176Y-139041948D01*
X145346448Y-139157969D01*
X145462608Y-139287057D01*
X145596758Y-139420926D01*
X145739994Y-139551293D01*
X145883418Y-139669874D01*
X146018127Y-139768386D01*
X146080367Y-139808087D01*
X146314401Y-139940973D01*
X146524227Y-140043765D01*
X146713677Y-140117193D01*
X146886586Y-140161986D01*
X147046791Y-140178876D01*
X147198123Y-140168593D01*
X147344419Y-140131868D01*
X147479392Y-140074585D01*
X147589032Y-140003931D01*
X147703895Y-139903080D01*
X147815638Y-139781239D01*
X147915911Y-139647614D01*
X147996369Y-139511410D01*
X148003925Y-139496097D01*
X148088731Y-139287663D01*
X148145677Y-139075193D01*
X148174367Y-138865144D01*
X148174401Y-138663972D01*
X148145385Y-138478133D01*
X148086920Y-138314087D01*
X148077762Y-138295895D01*
X148044407Y-138229348D01*
X148003720Y-138144550D01*
X147969552Y-138070862D01*
X147875405Y-137893501D01*
X147753919Y-137710257D01*
X147613375Y-137531209D01*
X147462054Y-137366439D01*
X147308238Y-137226026D01*
X147220904Y-137159552D01*
X146993194Y-137022792D01*
X146756924Y-136923923D01*
X146515632Y-136863962D01*
X146272857Y-136843922D01*
X146142593Y-136850038D01*
X145905057Y-136890849D01*
X145686510Y-136965688D01*
X145489815Y-137072102D01*
X145317833Y-137207640D01*
X145173428Y-137369848D01*
X145059460Y-137556272D01*
X144978793Y-137764461D01*
X144953160Y-137869313D01*
X144929143Y-138093323D01*
X144644704Y-138093323D01*
X144640019Y-138050557D01*
X144637909Y-138032995D01*
X144610804Y-137782659D01*
X144595096Y-137564732D01*
X144591169Y-137371432D01*
X144599417Y-137194975D01*
X144620224Y-137027576D01*
X144653980Y-136861450D01*
X144701076Y-136688816D01*
X144705786Y-136673329D01*
X144779646Y-136466644D01*
X144868215Y-136288460D01*
X144978928Y-136126243D01*
X145119224Y-135967461D01*
X145132649Y-135953824D01*
X145248038Y-135843064D01*
X145353357Y-135756639D01*
X145462294Y-135685235D01*
X145588538Y-135619539D01*
X145692961Y-135572642D01*
X145940216Y-135488428D01*
X146195618Y-135444515D01*
X146457263Y-135440761D01*
X146723251Y-135477023D01*
G37*
G36*
X157028171Y-129558565D02*
G01*
X157282543Y-129589805D01*
X157540227Y-129662573D01*
X157801196Y-129776858D01*
X158065420Y-129932648D01*
X158192662Y-130021627D01*
X158288304Y-130097735D01*
X158402572Y-130197942D01*
X158527409Y-130314333D01*
X158654758Y-130438999D01*
X158776564Y-130564025D01*
X158884768Y-130681499D01*
X158971317Y-130783506D01*
X158981391Y-130796288D01*
X159224246Y-131129552D01*
X159447007Y-131478413D01*
X159644323Y-131833630D01*
X159810851Y-132185967D01*
X159871692Y-132334371D01*
X159905734Y-132421491D01*
X159934889Y-132495822D01*
X159955339Y-132547649D01*
X159962330Y-132565091D01*
X159979672Y-132560191D01*
X160020902Y-132528301D01*
X160082124Y-132473497D01*
X160159443Y-132399850D01*
X160248960Y-132311432D01*
X160346784Y-132212317D01*
X160449016Y-132106575D01*
X160551762Y-131998281D01*
X160651125Y-131891505D01*
X160743210Y-131790323D01*
X160824121Y-131698802D01*
X160889963Y-131621021D01*
X160936837Y-131561047D01*
X160960851Y-131522956D01*
X160961999Y-131520081D01*
X160977794Y-131423243D01*
X160967658Y-131298468D01*
X160932502Y-131149696D01*
X160873238Y-130980867D01*
X160797866Y-130810511D01*
X160734406Y-130679009D01*
X160809797Y-130621179D01*
X160891910Y-130564062D01*
X160950792Y-130536051D01*
X160984494Y-130537959D01*
X160990051Y-130546032D01*
X161000240Y-130571932D01*
X161023694Y-130631039D01*
X161058229Y-130717862D01*
X161101657Y-130826909D01*
X161151792Y-130952683D01*
X161197565Y-131067432D01*
X161308132Y-131349090D01*
X161401369Y-131597109D01*
X161478376Y-131815230D01*
X161540249Y-132007194D01*
X161588086Y-132176740D01*
X161622986Y-132327610D01*
X161646047Y-132463542D01*
X161658365Y-132588278D01*
X161660791Y-132645442D01*
X161661716Y-132737934D01*
X161657179Y-132812986D01*
X161643616Y-132877680D01*
X161617472Y-132939100D01*
X161575187Y-133004330D01*
X161513199Y-133080452D01*
X161427953Y-133174551D01*
X161356894Y-133250291D01*
X161171008Y-133449380D01*
X161012172Y-133624525D01*
X160876998Y-133780245D01*
X160762094Y-133921062D01*
X160664074Y-134051494D01*
X160579548Y-134176062D01*
X160505126Y-134299285D01*
X160437422Y-134425684D01*
X160373044Y-134559776D01*
X160369904Y-134566652D01*
X160332246Y-134646346D01*
X160299908Y-134709447D01*
X160277194Y-134747844D01*
X160269581Y-134755713D01*
X160259752Y-134736676D01*
X160239772Y-134683241D01*
X160211502Y-134600910D01*
X160176801Y-134495188D01*
X160137528Y-134371582D01*
X160110944Y-134285928D01*
X159975828Y-133869097D01*
X159838491Y-133490887D01*
X159697534Y-133148251D01*
X159551560Y-132838143D01*
X159399168Y-132557519D01*
X159238962Y-132303332D01*
X159131657Y-132153086D01*
X159053808Y-132057222D01*
X158957943Y-131951216D01*
X158852247Y-131843051D01*
X158744906Y-131740712D01*
X158644105Y-131652184D01*
X158558029Y-131585450D01*
X158532086Y-131568214D01*
X158321778Y-131455529D01*
X158092243Y-131365130D01*
X157985016Y-131333220D01*
X157899930Y-131313986D01*
X157801728Y-131297034D01*
X157699591Y-131283293D01*
X157602707Y-131273693D01*
X157520264Y-131269163D01*
X157461444Y-131270634D01*
X157436456Y-131277694D01*
X157433284Y-131302548D01*
X157433792Y-131362884D01*
X157437682Y-131452701D01*
X157444654Y-131565998D01*
X157454411Y-131696773D01*
X157461634Y-131782933D01*
X157475351Y-131945022D01*
X157489012Y-132115207D01*
X157501723Y-132281740D01*
X157512594Y-132432880D01*
X157520736Y-132556880D01*
X157522086Y-132579608D01*
X157534240Y-132893392D01*
X157533906Y-133191941D01*
X157521488Y-133471198D01*
X157497395Y-133727106D01*
X157462033Y-133955606D01*
X157415806Y-134152640D01*
X157359123Y-134314150D01*
X157345443Y-134344192D01*
X157309709Y-134410477D01*
X157260796Y-134486376D01*
X157196937Y-134573895D01*
X157116371Y-134675034D01*
X157017333Y-134791796D01*
X156898061Y-134926185D01*
X156756792Y-135080203D01*
X156591762Y-135255853D01*
X156401208Y-135455138D01*
X156183368Y-135680060D01*
X156040696Y-135826247D01*
X155826565Y-136045429D01*
X155639123Y-136238000D01*
X155475648Y-136406867D01*
X155333415Y-136554941D01*
X155209700Y-136685129D01*
X155101780Y-136800344D01*
X155006928Y-136903491D01*
X154922423Y-136997481D01*
X154845540Y-137085222D01*
X154773555Y-137169623D01*
X154703743Y-137253596D01*
X154701192Y-137256699D01*
X154573985Y-137417028D01*
X154473748Y-137557600D01*
X154396521Y-137686589D01*
X154338339Y-137812168D01*
X154295241Y-137942505D01*
X154263265Y-138085773D01*
X154245650Y-138196195D01*
X154232508Y-138309587D01*
X154225235Y-138426373D01*
X154224011Y-138553273D01*
X154229017Y-138697006D01*
X154240437Y-138864290D01*
X154258450Y-139061847D01*
X154272795Y-139200475D01*
X154300910Y-139497636D01*
X154317435Y-139755534D01*
X154322395Y-139974932D01*
X154315812Y-140156590D01*
X154306160Y-140249053D01*
X154281177Y-140376428D01*
X154241621Y-140516030D01*
X154192511Y-140653362D01*
X154138874Y-140773929D01*
X154101070Y-140840979D01*
X154071024Y-140881076D01*
X154017168Y-140946283D01*
X153944137Y-141031252D01*
X153856574Y-141130646D01*
X153759115Y-141239119D01*
X153683385Y-141322057D01*
X153458914Y-141569424D01*
X153263438Y-141792239D01*
X153094764Y-141993591D01*
X152950701Y-142176564D01*
X152829055Y-142344249D01*
X152727634Y-142499732D01*
X152644244Y-142646104D01*
X152576695Y-142786449D01*
X152522789Y-142923858D01*
X152502605Y-142984901D01*
X152477017Y-143101028D01*
X152461490Y-143246559D01*
X152456242Y-143410410D01*
X152461493Y-143581493D01*
X152477460Y-143748718D01*
X152486373Y-143808889D01*
X152516480Y-143956501D01*
X152558829Y-144115115D01*
X152610484Y-144277195D01*
X152668510Y-144435204D01*
X152729972Y-144581606D01*
X152791932Y-144708865D01*
X152851455Y-144809443D01*
X152899859Y-144870270D01*
X152917497Y-144883059D01*
X152925413Y-144871811D01*
X152924595Y-144830602D01*
X152917440Y-144764880D01*
X152901257Y-144477033D01*
X152920951Y-144184364D01*
X152974916Y-143895401D01*
X153061546Y-143618672D01*
X153179230Y-143362707D01*
X153182985Y-143355872D01*
X153198767Y-143328175D01*
X153216482Y-143299411D01*
X153237420Y-143268179D01*
X153262875Y-143233082D01*
X153294139Y-143192722D01*
X153332503Y-143145700D01*
X153379259Y-143090620D01*
X153435701Y-143026079D01*
X153503120Y-142950684D01*
X153582809Y-142863035D01*
X153676060Y-142761732D01*
X153784165Y-142645377D01*
X153908416Y-142512574D01*
X154050107Y-142361923D01*
X154210528Y-142192026D01*
X154390972Y-142001484D01*
X154592731Y-141788900D01*
X154817098Y-141552875D01*
X155065365Y-141292011D01*
X155338823Y-141004910D01*
X155638767Y-140690173D01*
X155893314Y-140423152D01*
X156052968Y-140255193D01*
X156185920Y-140114088D01*
X156294673Y-139996964D01*
X156381731Y-139900951D01*
X156449599Y-139823175D01*
X156500780Y-139760766D01*
X156537780Y-139710851D01*
X156563102Y-139670558D01*
X156579250Y-139637016D01*
X156579622Y-139636079D01*
X156594575Y-139580671D01*
X156609333Y-139496065D01*
X156622001Y-139394700D01*
X156629410Y-139309133D01*
X156639144Y-139193791D01*
X156650961Y-139112936D01*
X156666368Y-139059384D01*
X156686881Y-139025953D01*
X156689615Y-139023093D01*
X156721022Y-138999971D01*
X156748359Y-139000811D01*
X156773322Y-139028910D01*
X156797602Y-139087563D01*
X156822894Y-139180068D01*
X156850891Y-139309722D01*
X156859620Y-139354039D01*
X156902572Y-139592535D01*
X156932831Y-139803845D01*
X156951577Y-140000076D01*
X156959992Y-140193341D01*
X156959615Y-140379372D01*
X156954507Y-140519570D01*
X156944400Y-140631491D01*
X156927356Y-140728427D01*
X156901437Y-140823661D01*
X156889494Y-140860285D01*
X156825333Y-141050488D01*
X156509777Y-141388224D01*
X156293671Y-141619903D01*
X156072856Y-141857355D01*
X155849257Y-142098469D01*
X155624796Y-142341141D01*
X155401394Y-142583262D01*
X155180973Y-142822726D01*
X154965454Y-143057423D01*
X154756762Y-143285249D01*
X154556817Y-143504095D01*
X154367542Y-143711852D01*
X154190859Y-143906415D01*
X154028689Y-144085677D01*
X153882955Y-144247528D01*
X153755579Y-144389864D01*
X153648483Y-144510576D01*
X153563590Y-144607555D01*
X153502821Y-144678697D01*
X153468097Y-144721892D01*
X153464186Y-144727374D01*
X153378407Y-144885064D01*
X153310754Y-145078799D01*
X153261603Y-145306918D01*
X153231331Y-145567761D01*
X153220969Y-145798357D01*
X153216402Y-146061889D01*
X153118393Y-146159897D01*
X153067883Y-146208209D01*
X153029782Y-146240545D01*
X153012376Y-146249894D01*
X152994646Y-146220600D01*
X152964673Y-146158230D01*
X152924928Y-146068691D01*
X152877881Y-145957899D01*
X152826006Y-145831765D01*
X152771771Y-145696198D01*
X152717648Y-145557114D01*
X152669640Y-145429946D01*
X152567925Y-145150004D01*
X152465929Y-144858060D01*
X152364966Y-144558555D01*
X152266352Y-144255924D01*
X152171400Y-143954610D01*
X152081427Y-143659046D01*
X151997745Y-143373675D01*
X151921671Y-143102933D01*
X151854519Y-142851258D01*
X151797603Y-142623090D01*
X151752239Y-142422867D01*
X151719741Y-142255027D01*
X151709095Y-142187255D01*
X151695091Y-141940312D01*
X151722144Y-141690634D01*
X151789837Y-141439532D01*
X151897747Y-141188319D01*
X152045457Y-140938308D01*
X152157627Y-140783464D01*
X152205724Y-140726336D01*
X152280419Y-140643988D01*
X152378242Y-140540057D01*
X152495722Y-140418174D01*
X152629389Y-140281975D01*
X152775770Y-140135092D01*
X152801144Y-140109843D01*
X152976820Y-139934311D01*
X153124661Y-139784288D01*
X153247234Y-139656776D01*
X153347104Y-139548778D01*
X153426837Y-139457297D01*
X153489000Y-139379338D01*
X153536156Y-139311904D01*
X153570874Y-139251997D01*
X153595716Y-139196621D01*
X153604716Y-139171294D01*
X153649093Y-139016503D01*
X153687069Y-138841115D01*
X153718841Y-138642566D01*
X153744609Y-138418288D01*
X153764571Y-138165721D01*
X153778923Y-137882296D01*
X153787867Y-137565450D01*
X153791599Y-137212618D01*
X153790317Y-136821234D01*
X153789881Y-136775977D01*
X153781793Y-135983689D01*
X154738729Y-135010498D01*
X154971252Y-134773710D01*
X155176457Y-134563924D01*
X155356523Y-134378693D01*
X155513621Y-134215571D01*
X155649927Y-134072117D01*
X155767615Y-133945884D01*
X155868862Y-133834428D01*
X155955841Y-133735305D01*
X156030727Y-133646072D01*
X156095696Y-133564283D01*
X156152922Y-133487493D01*
X156204581Y-133413259D01*
X156252846Y-133339136D01*
X156299894Y-133262681D01*
X156312317Y-133241913D01*
X156380893Y-133122643D01*
X156451169Y-132993453D01*
X156515675Y-132868498D01*
X156566941Y-132761931D01*
X156574732Y-132744560D01*
X156727222Y-132349638D01*
X156846394Y-131933141D01*
X156931734Y-131499200D01*
X156982730Y-131051944D01*
X156998868Y-130595502D01*
X156979632Y-130134004D01*
X156942332Y-129791743D01*
X156909474Y-129553646D01*
X157028171Y-129558565D01*
G37*
G36*
X164970939Y-123055837D02*
G01*
X164991898Y-123074632D01*
X165021134Y-123111199D01*
X165062557Y-123170256D01*
X165120078Y-123256511D01*
X165168697Y-123330536D01*
X165322185Y-123568046D01*
X165452550Y-123777341D01*
X165562293Y-123963070D01*
X165653917Y-124129886D01*
X165729922Y-124282437D01*
X165792809Y-124425376D01*
X165845078Y-124563351D01*
X165867283Y-124629658D01*
X165927767Y-124861374D01*
X165953121Y-125072733D01*
X165943140Y-125266112D01*
X165897623Y-125443888D01*
X165816365Y-125608434D01*
X165778757Y-125664291D01*
X165743841Y-125706311D01*
X165680905Y-125774999D01*
X165592047Y-125868212D01*
X165479356Y-125983804D01*
X165344925Y-126119631D01*
X165190845Y-126273549D01*
X165019210Y-126443413D01*
X165002970Y-126459414D01*
X164709870Y-126749728D01*
X164436673Y-127023688D01*
X164185063Y-127279542D01*
X163956722Y-127515546D01*
X163753332Y-127729946D01*
X163576580Y-127920995D01*
X163428147Y-128086943D01*
X163355376Y-128171380D01*
X163210927Y-128345920D01*
X163080201Y-128511867D01*
X162965985Y-128665288D01*
X162871062Y-128802250D01*
X162798218Y-128918825D01*
X162750236Y-129011078D01*
X162737489Y-129043639D01*
X162722406Y-129130418D01*
X162722845Y-129246280D01*
X162738230Y-129381871D01*
X162767299Y-129525093D01*
X162806023Y-129666984D01*
X162853610Y-129811844D01*
X162912094Y-129964067D01*
X162983506Y-130128054D01*
X163069880Y-130308204D01*
X163173247Y-130508915D01*
X163295639Y-130734586D01*
X163439091Y-130989617D01*
X163464440Y-131033975D01*
X163702987Y-131430972D01*
X163958504Y-131819612D01*
X164226848Y-132194600D01*
X164503880Y-132550643D01*
X164785455Y-132882446D01*
X165067431Y-133184717D01*
X165345667Y-133452158D01*
X165381509Y-133484235D01*
X165587597Y-133662644D01*
X165792223Y-133830247D01*
X165999077Y-133989258D01*
X166211849Y-134141887D01*
X166434230Y-134290344D01*
X166669907Y-134436840D01*
X166922572Y-134583585D01*
X167195917Y-134732792D01*
X167493631Y-134886669D01*
X167819402Y-135047430D01*
X168176921Y-135217285D01*
X168569879Y-135398443D01*
X168597042Y-135410802D01*
X168846741Y-135524496D01*
X169063244Y-135623541D01*
X169251403Y-135710294D01*
X169416068Y-135787108D01*
X169562090Y-135856341D01*
X169694321Y-135920346D01*
X169817611Y-135981481D01*
X169936811Y-136042099D01*
X170056773Y-136104558D01*
X170182347Y-136171210D01*
X170318386Y-136244413D01*
X170357636Y-136265659D01*
X170831950Y-136525353D01*
X171271655Y-136772113D01*
X171680736Y-137008717D01*
X172063179Y-137237945D01*
X172422972Y-137462576D01*
X172764103Y-137685388D01*
X173090558Y-137909163D01*
X173406323Y-138136677D01*
X173715385Y-138370711D01*
X174021732Y-138614043D01*
X174329351Y-138869451D01*
X174642227Y-139139716D01*
X174964349Y-139427617D01*
X175189081Y-139633378D01*
X175332225Y-139767769D01*
X175494508Y-139923918D01*
X175670962Y-140096767D01*
X175856620Y-140281262D01*
X176046515Y-140472344D01*
X176235678Y-140664959D01*
X176419143Y-140854049D01*
X176591945Y-141034557D01*
X176749112Y-141201426D01*
X176885679Y-141349602D01*
X176992489Y-141469219D01*
X177538011Y-142109255D01*
X178045784Y-142736829D01*
X178517139Y-143353964D01*
X178953406Y-143962677D01*
X179355914Y-144564988D01*
X179725995Y-145162917D01*
X180064976Y-145758483D01*
X180374187Y-146353707D01*
X180654959Y-146950606D01*
X180759719Y-147190562D01*
X181095091Y-148020677D01*
X181399775Y-148867293D01*
X181672305Y-149725163D01*
X181911211Y-150589043D01*
X182115025Y-151453692D01*
X182282277Y-152313862D01*
X182391387Y-153014202D01*
X182409228Y-153141414D01*
X182421010Y-153235145D01*
X182424764Y-153303387D01*
X182418526Y-153354126D01*
X182400332Y-153395357D01*
X182368214Y-153435068D01*
X182320209Y-153481250D01*
X182263736Y-153533147D01*
X181524134Y-154194828D01*
X180771582Y-154817625D01*
X180004248Y-155402816D01*
X179220299Y-155951681D01*
X178417900Y-156465497D01*
X177595221Y-156945546D01*
X176750427Y-157393105D01*
X176683473Y-157426723D01*
X175838358Y-157826408D01*
X174972657Y-158190759D01*
X174089048Y-158519020D01*
X173190208Y-158810434D01*
X172278816Y-159064244D01*
X171357548Y-159279693D01*
X170429083Y-159456024D01*
X169496097Y-159592479D01*
X168736131Y-159673505D01*
X168127739Y-159718412D01*
X167501613Y-159747290D01*
X166866711Y-159760214D01*
X166231987Y-159757259D01*
X165606398Y-159738501D01*
X164998896Y-159704013D01*
X164418441Y-159653871D01*
X164252545Y-159635972D01*
X164159616Y-159624181D01*
X164036175Y-159606537D01*
X163885713Y-159583658D01*
X163711718Y-159556160D01*
X163517682Y-159524664D01*
X163307095Y-159489783D01*
X163083446Y-159452139D01*
X162850224Y-159412348D01*
X162610920Y-159371026D01*
X162369027Y-159328792D01*
X162128029Y-159286263D01*
X161891420Y-159244058D01*
X161662688Y-159202793D01*
X161445327Y-159163086D01*
X161242820Y-159125555D01*
X161108448Y-159100209D01*
X161058664Y-159090818D01*
X160896345Y-159059491D01*
X160759353Y-159032193D01*
X160651180Y-159009540D01*
X160575314Y-158992153D01*
X160535247Y-158980645D01*
X160529717Y-158977178D01*
X160534605Y-158954802D01*
X160548488Y-158896781D01*
X160570192Y-158807879D01*
X160598542Y-158692866D01*
X160626253Y-158581146D01*
X161604946Y-158581146D01*
X161610243Y-158598414D01*
X161630960Y-158614866D01*
X161672842Y-158632771D01*
X161741634Y-158654397D01*
X161843081Y-158682015D01*
X161893097Y-158694993D01*
X162338921Y-158799264D01*
X162818543Y-158891834D01*
X163325504Y-158971768D01*
X163853343Y-159038135D01*
X164395600Y-159090001D01*
X164842217Y-159120815D01*
X164960063Y-159125900D01*
X165113062Y-159129977D01*
X165294702Y-159133062D01*
X165498477Y-159135170D01*
X165717878Y-159136318D01*
X165946394Y-159136518D01*
X166177517Y-159135791D01*
X166404739Y-159134148D01*
X166621550Y-159131607D01*
X166821441Y-159128183D01*
X166997903Y-159123894D01*
X167144428Y-159118752D01*
X167218345Y-159115088D01*
X167954412Y-159061196D01*
X168677659Y-158985750D01*
X169385282Y-158889385D01*
X170074486Y-158772735D01*
X170742469Y-158636428D01*
X171386431Y-158481101D01*
X172003570Y-158307387D01*
X172591089Y-158115918D01*
X173146187Y-157907326D01*
X173666064Y-157682247D01*
X173767545Y-157634361D01*
X173863964Y-157588061D01*
X173946056Y-157548394D01*
X174006936Y-157518709D01*
X174039723Y-157502351D01*
X174043387Y-157500321D01*
X174029862Y-157485285D01*
X173988648Y-157443022D01*
X173921759Y-157375536D01*
X173831210Y-157284831D01*
X173719015Y-157172910D01*
X173587190Y-157041775D01*
X173437751Y-156893431D01*
X173272710Y-156729882D01*
X173094082Y-156553128D01*
X172903884Y-156365176D01*
X172704127Y-156168025D01*
X172622019Y-156087055D01*
X172412784Y-155880889D01*
X172207809Y-155679133D01*
X172009584Y-155484232D01*
X171820599Y-155298621D01*
X171643346Y-155124743D01*
X171480316Y-154965037D01*
X171333999Y-154821942D01*
X171206889Y-154697900D01*
X171101473Y-154595347D01*
X171020246Y-154516728D01*
X170965697Y-154464480D01*
X170958440Y-154457627D01*
X170889999Y-154393076D01*
X170796298Y-154304442D01*
X170682251Y-154196384D01*
X170552772Y-154073566D01*
X170412774Y-153940646D01*
X170267169Y-153802289D01*
X170120873Y-153663153D01*
X170096475Y-153639937D01*
X169892237Y-153445946D01*
X169681579Y-153246615D01*
X169461987Y-153039599D01*
X169230949Y-152822551D01*
X168985952Y-152593123D01*
X168724486Y-152348966D01*
X168444036Y-152087737D01*
X168142089Y-151807086D01*
X167816133Y-151504666D01*
X167463656Y-151178128D01*
X167201781Y-150935784D01*
X166924390Y-150679126D01*
X166674961Y-150448209D01*
X166450829Y-150240517D01*
X166249327Y-150053537D01*
X166067784Y-149884754D01*
X165903534Y-149731655D01*
X165753907Y-149591725D01*
X165616236Y-149462450D01*
X165487853Y-149341315D01*
X165366088Y-149225810D01*
X165248273Y-149113416D01*
X165131742Y-149001620D01*
X165013825Y-148887909D01*
X164891856Y-148769769D01*
X164763162Y-148644685D01*
X164625079Y-148510142D01*
X164558065Y-148444768D01*
X164407883Y-148298481D01*
X164266831Y-148161592D01*
X164220787Y-148117087D01*
X164137681Y-148036760D01*
X164023209Y-147926641D01*
X163926187Y-147833893D01*
X163849392Y-147761172D01*
X163795596Y-147711136D01*
X163767574Y-147686443D01*
X163764126Y-147684291D01*
X163756622Y-147707894D01*
X163741468Y-147770181D01*
X163719106Y-147868952D01*
X163689984Y-148002013D01*
X163654544Y-148167167D01*
X163613233Y-148362216D01*
X163566495Y-148584965D01*
X163514776Y-148833216D01*
X163458519Y-149104772D01*
X163398170Y-149397438D01*
X163334175Y-149709016D01*
X163266976Y-150037307D01*
X163197021Y-150380119D01*
X163124753Y-150735252D01*
X163050618Y-151100510D01*
X162975061Y-151473696D01*
X162898525Y-151852613D01*
X162821456Y-152235067D01*
X162744299Y-152618858D01*
X162667500Y-153001790D01*
X162591503Y-153381667D01*
X162516752Y-153756291D01*
X162443693Y-154123467D01*
X162372770Y-154480997D01*
X162304430Y-154826684D01*
X162239116Y-155158333D01*
X162177272Y-155473746D01*
X162119345Y-155770726D01*
X162065780Y-156047078D01*
X162017020Y-156300602D01*
X161983981Y-156473873D01*
X161938717Y-156713398D01*
X161893709Y-156953664D01*
X161849630Y-157190940D01*
X161807147Y-157421507D01*
X161766930Y-157641635D01*
X161729650Y-157847604D01*
X161695978Y-158035686D01*
X161666582Y-158202157D01*
X161642133Y-158343293D01*
X161623301Y-158455368D01*
X161610755Y-158534658D01*
X161605166Y-158577438D01*
X161604946Y-158581146D01*
X160626253Y-158581146D01*
X160632364Y-158556507D01*
X160670485Y-158403572D01*
X160700645Y-158283042D01*
X160812589Y-157832334D01*
X160918503Y-157397142D01*
X161019145Y-156973663D01*
X161115274Y-156558088D01*
X161207653Y-156146612D01*
X161297041Y-155735430D01*
X161384198Y-155320736D01*
X161469885Y-154898723D01*
X161554862Y-154465586D01*
X161639891Y-154017518D01*
X161725730Y-153550715D01*
X161813139Y-153061370D01*
X161902881Y-152545678D01*
X161995716Y-151999832D01*
X162092402Y-151420025D01*
X162187180Y-150842484D01*
X162202867Y-150745806D01*
X162223786Y-150616220D01*
X162249396Y-150457112D01*
X162279154Y-150271871D01*
X162312521Y-150063880D01*
X162348956Y-149836528D01*
X162387919Y-149593204D01*
X162428867Y-149337290D01*
X162471262Y-149072178D01*
X162514561Y-148801251D01*
X162558225Y-148527898D01*
X162601712Y-148255504D01*
X162640174Y-148014460D01*
X162644482Y-147987458D01*
X162685996Y-147727145D01*
X162725709Y-147477953D01*
X162738010Y-147400712D01*
X164905899Y-147400712D01*
X164920577Y-147417297D01*
X164961736Y-147458250D01*
X165025276Y-147519632D01*
X165107091Y-147597509D01*
X165203079Y-147687943D01*
X165287524Y-147766878D01*
X165367133Y-147841089D01*
X165473665Y-147940467D01*
X165603598Y-148061722D01*
X165753410Y-148201568D01*
X165919578Y-148356713D01*
X166098578Y-148523869D01*
X166286891Y-148699748D01*
X166480992Y-148881061D01*
X166677358Y-149064516D01*
X166811401Y-149189763D01*
X167342468Y-149685851D01*
X167863382Y-150172148D01*
X168373298Y-150647870D01*
X168871371Y-151112235D01*
X169356755Y-151564463D01*
X169828604Y-152003767D01*
X170286072Y-152429370D01*
X170728314Y-152840485D01*
X171154486Y-153236332D01*
X171563739Y-153616131D01*
X171955232Y-153979097D01*
X172328114Y-154324447D01*
X172681546Y-154651401D01*
X173014675Y-154959175D01*
X173326661Y-155246988D01*
X173616656Y-155514057D01*
X173883816Y-155759601D01*
X174127294Y-155982836D01*
X174346246Y-156182981D01*
X174539824Y-156359254D01*
X174707185Y-156510869D01*
X174847482Y-156637050D01*
X174959869Y-156737011D01*
X175043502Y-156809970D01*
X175094915Y-156853050D01*
X175179290Y-156920833D01*
X175435490Y-156788390D01*
X176254856Y-156345987D01*
X177050749Y-155878362D01*
X177820381Y-155387413D01*
X178560964Y-154875037D01*
X179269715Y-154343126D01*
X179943842Y-153793578D01*
X180314861Y-153470200D01*
X180430869Y-153366182D01*
X180534494Y-153272297D01*
X180630272Y-153184143D01*
X180722744Y-153097311D01*
X180816446Y-153007398D01*
X180915918Y-152909998D01*
X181025696Y-152800707D01*
X181150318Y-152675118D01*
X181294323Y-152528829D01*
X181462249Y-152357431D01*
X181481793Y-152337453D01*
X181700948Y-152113389D01*
X181669670Y-151847576D01*
X181598107Y-151361221D01*
X181495546Y-150851228D01*
X181363028Y-150320611D01*
X181201593Y-149772384D01*
X181012276Y-149209559D01*
X180796122Y-148635153D01*
X180554166Y-148052179D01*
X180287451Y-147463652D01*
X179997014Y-146872583D01*
X179869065Y-146625929D01*
X179761319Y-146425317D01*
X179647992Y-146221361D01*
X179531767Y-146018407D01*
X179415329Y-145820798D01*
X179301366Y-145632877D01*
X179192560Y-145458985D01*
X179091601Y-145303470D01*
X179001170Y-145170671D01*
X178923958Y-145064933D01*
X178862646Y-144990600D01*
X178849103Y-144976414D01*
X178843113Y-144973143D01*
X178831887Y-144971066D01*
X178814146Y-144970401D01*
X178788615Y-144971364D01*
X178754017Y-144974172D01*
X178709076Y-144979041D01*
X178652514Y-144986187D01*
X178583056Y-144995829D01*
X178499425Y-145008181D01*
X178400343Y-145023462D01*
X178284535Y-145041888D01*
X178150724Y-145063674D01*
X177997633Y-145089038D01*
X177823986Y-145118198D01*
X177628506Y-145151368D01*
X177409916Y-145188766D01*
X177166941Y-145230609D01*
X176898303Y-145277113D01*
X176602725Y-145328495D01*
X176278932Y-145384971D01*
X175925647Y-145446759D01*
X175541592Y-145514074D01*
X175125492Y-145587134D01*
X174676070Y-145666156D01*
X174192051Y-145751355D01*
X173672155Y-145842949D01*
X173115107Y-145941155D01*
X172519631Y-146046187D01*
X171884448Y-146158264D01*
X171857302Y-146163055D01*
X171325749Y-146256892D01*
X170804813Y-146348919D01*
X170295983Y-146438869D01*
X169800752Y-146526476D01*
X169320614Y-146611476D01*
X168857061Y-146693600D01*
X168411585Y-146772585D01*
X167985678Y-146848163D01*
X167580835Y-146920071D01*
X167198549Y-146988041D01*
X166840309Y-147051809D01*
X166507608Y-147111107D01*
X166201942Y-147165671D01*
X165924803Y-147215236D01*
X165677681Y-147259534D01*
X165462070Y-147298301D01*
X165279463Y-147331269D01*
X165131352Y-147358175D01*
X165019230Y-147378752D01*
X164944590Y-147392734D01*
X164908924Y-147399856D01*
X164905899Y-147400712D01*
X162738010Y-147400712D01*
X162763083Y-147243268D01*
X162797578Y-147026479D01*
X162828652Y-146830970D01*
X162855764Y-146660129D01*
X162878374Y-146517344D01*
X162879865Y-146507892D01*
X164140530Y-146507892D01*
X164141932Y-146512703D01*
X164145953Y-146513908D01*
X164151526Y-146513419D01*
X164154978Y-146513118D01*
X164180031Y-146509095D01*
X164243331Y-146497795D01*
X164342188Y-146479721D01*
X164473910Y-146455377D01*
X164635805Y-146425267D01*
X164825181Y-146389895D01*
X165039346Y-146349763D01*
X165275608Y-146305376D01*
X165531276Y-146257238D01*
X165803655Y-146205851D01*
X166090057Y-146151720D01*
X166387789Y-146095350D01*
X166408928Y-146091344D01*
X166753034Y-146026140D01*
X167117521Y-145957093D01*
X167496273Y-145885361D01*
X167883171Y-145812102D01*
X168272096Y-145738476D01*
X168656931Y-145665637D01*
X169031556Y-145594747D01*
X169389853Y-145526963D01*
X169725704Y-145463441D01*
X170032990Y-145405343D01*
X170305590Y-145353822D01*
X170311450Y-145352716D01*
X171073095Y-145208794D01*
X171794050Y-145072528D01*
X172474576Y-144943864D01*
X173114938Y-144822756D01*
X173715400Y-144709152D01*
X174276225Y-144603002D01*
X174797676Y-144504256D01*
X175280017Y-144412864D01*
X175723512Y-144328776D01*
X176128425Y-144251943D01*
X176495020Y-144182313D01*
X176823557Y-144119837D01*
X177114305Y-144064464D01*
X177367524Y-144016147D01*
X177583479Y-143974831D01*
X177762433Y-143940470D01*
X177904651Y-143913013D01*
X178010393Y-143892408D01*
X178079926Y-143878608D01*
X178113514Y-143871561D01*
X178116972Y-143870585D01*
X178105064Y-143852921D01*
X178072238Y-143807991D01*
X178022858Y-143741671D01*
X177961277Y-143659832D01*
X177926528Y-143613944D01*
X177785084Y-143430731D01*
X177622954Y-143226180D01*
X177447704Y-143009591D01*
X177266899Y-142790265D01*
X177088099Y-142577502D01*
X176995022Y-142468586D01*
X176910808Y-142373826D01*
X176800944Y-142255068D01*
X176669652Y-142116528D01*
X176521149Y-141962424D01*
X176359654Y-141796974D01*
X176189386Y-141624395D01*
X176014564Y-141448905D01*
X175839407Y-141274723D01*
X175668133Y-141106067D01*
X175504961Y-140947151D01*
X175354111Y-140802197D01*
X175219801Y-140675421D01*
X175106250Y-140571040D01*
X175027804Y-140501878D01*
X174352320Y-139947321D01*
X173669195Y-139432221D01*
X172975330Y-138954605D01*
X172267622Y-138512502D01*
X171542972Y-138103943D01*
X170798277Y-137726955D01*
X170298209Y-137496223D01*
X170112080Y-137413925D01*
X169960316Y-137347874D01*
X169839492Y-137296750D01*
X169746183Y-137259230D01*
X169676964Y-137233994D01*
X169628412Y-137219720D01*
X169597101Y-137215089D01*
X169579605Y-137218779D01*
X169579331Y-137218956D01*
X169560138Y-137242565D01*
X169521101Y-137300432D01*
X169463278Y-137390762D01*
X169387734Y-137511764D01*
X169295526Y-137661643D01*
X169187718Y-137838606D01*
X169065367Y-138040860D01*
X168929535Y-138266612D01*
X168781283Y-138514067D01*
X168621671Y-138781434D01*
X168451759Y-139066918D01*
X168272609Y-139368725D01*
X168085280Y-139685065D01*
X167890834Y-140014142D01*
X167690330Y-140354161D01*
X167484829Y-140703332D01*
X167275393Y-141059860D01*
X167063082Y-141421952D01*
X166848954Y-141787816D01*
X166634073Y-142155655D01*
X166419497Y-142523679D01*
X166206289Y-142890093D01*
X165995508Y-143253105D01*
X165788213Y-143610919D01*
X165585467Y-143961747D01*
X165388330Y-144303789D01*
X165344992Y-144379119D01*
X165159372Y-144701858D01*
X164993444Y-144990376D01*
X164846139Y-145246585D01*
X164716393Y-145472400D01*
X164603138Y-145669733D01*
X164505306Y-145840498D01*
X164421831Y-145986609D01*
X164351645Y-146109979D01*
X164293680Y-146212522D01*
X164246872Y-146296151D01*
X164210153Y-146362781D01*
X164182454Y-146414323D01*
X164162709Y-146452692D01*
X164149852Y-146479800D01*
X164142815Y-146497562D01*
X164140530Y-146507892D01*
X162879865Y-146507892D01*
X162895940Y-146405999D01*
X162907924Y-146329483D01*
X162913373Y-146293974D01*
X162925047Y-146271958D01*
X162957160Y-146218263D01*
X163007603Y-146136256D01*
X163074265Y-146029306D01*
X163155033Y-145900776D01*
X163247798Y-145754034D01*
X163350448Y-145592446D01*
X163460874Y-145419380D01*
X163503884Y-145352169D01*
X163857086Y-144799005D01*
X164188432Y-144276539D01*
X164499954Y-143781325D01*
X164793690Y-143309915D01*
X165071672Y-142858866D01*
X165335939Y-142424731D01*
X165588525Y-142004063D01*
X165831464Y-141593417D01*
X166066794Y-141189349D01*
X166296548Y-140788409D01*
X166522763Y-140387152D01*
X166747475Y-139982135D01*
X166972717Y-139569910D01*
X167200527Y-139147032D01*
X167432938Y-138710053D01*
X167481430Y-138618238D01*
X167556991Y-138474663D01*
X167639448Y-138317363D01*
X167726758Y-138150296D01*
X167816870Y-137977420D01*
X167907738Y-137802694D01*
X167997315Y-137630078D01*
X168083549Y-137463530D01*
X168164395Y-137307008D01*
X168237805Y-137164472D01*
X168301733Y-137039881D01*
X168354128Y-136937192D01*
X168392942Y-136860365D01*
X168416131Y-136813359D01*
X168422053Y-136799894D01*
X168404408Y-136789135D01*
X168356069Y-136763694D01*
X168283847Y-136727063D01*
X168194552Y-136682730D01*
X168166948Y-136669182D01*
X167736827Y-136437899D01*
X167308479Y-136166863D01*
X166883362Y-135857994D01*
X166462932Y-135513213D01*
X166048650Y-135134437D01*
X165641972Y-134723587D01*
X165244357Y-134282583D01*
X164857263Y-133813344D01*
X164482145Y-133317791D01*
X164120464Y-132797842D01*
X163773678Y-132255418D01*
X163443243Y-131692439D01*
X163130619Y-131110822D01*
X162837262Y-130512490D01*
X162564631Y-129899360D01*
X162314184Y-129273354D01*
X162104033Y-128685969D01*
X162051838Y-128530415D01*
X162011878Y-128408000D01*
X161982662Y-128312515D01*
X161962699Y-128237748D01*
X161950498Y-128177492D01*
X161944570Y-128125537D01*
X161943425Y-128075671D01*
X161945390Y-128024941D01*
X161964958Y-127880172D01*
X162006175Y-127716683D01*
X162064582Y-127548238D01*
X162135719Y-127388599D01*
X162175243Y-127315389D01*
X162204987Y-127267846D01*
X162243394Y-127213657D01*
X162292098Y-127151097D01*
X162352736Y-127078438D01*
X162426946Y-126993955D01*
X162516362Y-126895922D01*
X162622623Y-126782614D01*
X162747362Y-126652300D01*
X162892217Y-126503261D01*
X163058825Y-126333764D01*
X163248823Y-126142085D01*
X163463846Y-125926499D01*
X163705530Y-125685278D01*
X163967733Y-125424428D01*
X164180976Y-125212354D01*
X164366226Y-125027665D01*
X164525237Y-124868557D01*
X164659761Y-124733226D01*
X164771553Y-124619870D01*
X164862365Y-124526685D01*
X164933953Y-124451869D01*
X164988065Y-124393618D01*
X165026458Y-124350131D01*
X165050887Y-124319604D01*
X165063101Y-124300232D01*
X165064595Y-124296485D01*
X165082944Y-124174219D01*
X165067599Y-124029709D01*
X165019003Y-123864617D01*
X164937595Y-123680607D01*
X164867490Y-123551984D01*
X164820879Y-123470329D01*
X164781991Y-123399314D01*
X164755912Y-123348387D01*
X164748152Y-123330263D01*
X164751052Y-123280082D01*
X164778601Y-123215827D01*
X164822747Y-123149256D01*
X164875442Y-123092125D01*
X164928633Y-123056194D01*
X164938206Y-123052711D01*
X164954345Y-123050102D01*
X164970939Y-123055837D01*
G37*
%TO.C,T6*%
G36*
X348852656Y-298675313D02*
G01*
X347559499Y-299968469D01*
X344613975Y-297022946D01*
X345907132Y-295729788D01*
X348852656Y-298675313D01*
G37*
G36*
X350648707Y-296879262D02*
G01*
X349355550Y-298172418D01*
X346410026Y-295226895D01*
X347703183Y-293933737D01*
X350648707Y-296879262D01*
G37*
%TO.C,T3*%
G36*
X332058870Y-315469100D02*
G01*
X330765713Y-316762256D01*
X327820189Y-313816733D01*
X329113346Y-312523575D01*
X332058870Y-315469100D01*
G37*
G36*
X333854921Y-313673049D02*
G01*
X332561764Y-314966205D01*
X329616240Y-312020682D01*
X330909397Y-310727524D01*
X333854921Y-313673049D01*
G37*
%TD*%
D11*
%TO.C,D8*%
X231756790Y-298726513D03*
X232541292Y-300620467D03*
%TD*%
D12*
%TO.C,D39*%
X236631553Y-133111144D03*
X234737599Y-133895646D03*
%TD*%
D13*
%TO.C,R15*%
X173104779Y-265000481D03*
X171418699Y-265698879D03*
%TD*%
D14*
%TO.C,R68*%
X360310886Y-326677460D03*
X359020416Y-327967930D03*
%TD*%
D15*
%TO.C,R32*%
X177907213Y-175222696D03*
X176082213Y-175222696D03*
%TD*%
D16*
%TO.C,R17*%
X202799756Y-242533773D03*
X202101358Y-240847693D03*
%TD*%
D17*
%TO.C,D61*%
X319291114Y-144649165D03*
X317841544Y-146098735D03*
%TD*%
D18*
%TO.C,D67*%
X352339516Y-187932939D03*
X353789086Y-189382509D03*
%TD*%
D19*
%TO.C,R67*%
X357952176Y-193545600D03*
X356661706Y-192255130D03*
%TD*%
D20*
%TO.C,R21*%
X257666757Y-254480527D03*
X258957227Y-255770997D03*
%TD*%
D12*
%TO.C,D28*%
X183838414Y-199186931D03*
X181944460Y-199971433D03*
%TD*%
D21*
%TO.C,T7*%
X354477524Y-295295508D03*
X355375550Y-294397482D03*
X356273575Y-293499456D03*
X357171601Y-292601431D03*
D22*
X351819368Y-289045250D03*
D23*
X354127294Y-290455150D03*
D22*
X352717394Y-288147224D03*
X350023317Y-290841301D03*
D23*
X352331243Y-292251201D03*
D22*
X350921342Y-289943275D03*
%TD*%
D18*
%TO.C,D9*%
X242888226Y-311826883D03*
X244337796Y-313276453D03*
%TD*%
D16*
%TO.C,R46*%
X309897303Y-235953039D03*
X309198905Y-234266959D03*
%TD*%
D12*
%TO.C,D40*%
X254459483Y-125182709D03*
X252565529Y-125967211D03*
%TD*%
D24*
%TO.C,R4*%
X258664699Y-268585567D03*
X256978619Y-267887169D03*
%TD*%
D25*
%TO.C,D42*%
X253680140Y-170272948D03*
X251630138Y-170272948D03*
%TD*%
D26*
%TO.C,R52*%
X269263438Y-190860731D03*
X268565040Y-192546811D03*
%TD*%
D27*
%TO.C,R61*%
X313528193Y-150412086D03*
X314818663Y-149121616D03*
%TD*%
D17*
%TO.C,D49*%
X307827146Y-158941561D03*
X306377576Y-160391131D03*
%TD*%
D28*
%TO.C,R55*%
X268137466Y-149201167D03*
X269962466Y-149201167D03*
%TD*%
D29*
%TO.C,D5*%
X234854184Y-266634078D03*
X236904182Y-266634078D03*
%TD*%
D18*
%TO.C,D44*%
X331815741Y-273475181D03*
X333265311Y-274924751D03*
%TD*%
D21*
%TO.C,T2*%
X326487881Y-323285151D03*
X327385907Y-322387125D03*
X328283932Y-321489099D03*
X329181958Y-320591074D03*
D22*
X323829725Y-317034893D03*
D23*
X326137651Y-318444793D03*
D22*
X324727751Y-316136867D03*
X322033674Y-318830944D03*
D23*
X324341600Y-320240844D03*
D22*
X322931699Y-317932918D03*
%TD*%
D30*
%TO.C,U5*%
X336538509Y-322846086D03*
X336078889Y-322386466D03*
X335619271Y-321926844D03*
X335159650Y-321467227D03*
X334700031Y-321007605D03*
X334240411Y-320547988D03*
X333780794Y-320088368D03*
X328931453Y-324937706D03*
X329391073Y-325397326D03*
X329850690Y-325856945D03*
X330310312Y-326316565D03*
X330769931Y-326776187D03*
X331229551Y-327235804D03*
X331689168Y-327695424D03*
%TD*%
D19*
%TO.C,R1*%
X317293537Y-294308316D03*
X316003067Y-293017846D03*
%TD*%
D31*
%TO.C,D54*%
X289000427Y-159100661D03*
X287550857Y-157651091D03*
%TD*%
D32*
%TO.C,D52*%
X268565041Y-199582220D03*
X268565041Y-197532218D03*
%TD*%
D33*
%TO.C,R34*%
X198915023Y-160871740D03*
X198915023Y-159046740D03*
%TD*%
D34*
%TO.C,D25*%
X204257021Y-201145776D03*
X203472519Y-203039730D03*
%TD*%
D11*
%TO.C,D16*%
X205908696Y-251110487D03*
X206693198Y-253004441D03*
%TD*%
D35*
%TO.C,R42*%
X245448137Y-171329254D03*
X247134217Y-170630856D03*
%TD*%
D21*
%TO.C,T1*%
X320889953Y-328883080D03*
X321787979Y-327985054D03*
X322686004Y-327087028D03*
X323584030Y-326189003D03*
D22*
X318231797Y-322632822D03*
D23*
X320539723Y-324042722D03*
D22*
X319129823Y-321734796D03*
X316435746Y-324428873D03*
D23*
X318743672Y-325838773D03*
D22*
X317333771Y-323530847D03*
%TD*%
D36*
%TO.C,D33*%
X149177677Y-179857587D03*
X151071631Y-179073085D03*
%TD*%
D37*
%TO.C,D27*%
X211328089Y-248294564D03*
X210543587Y-246400610D03*
%TD*%
D32*
%TO.C,D18*%
X197500809Y-227866491D03*
X197500809Y-225816489D03*
%TD*%
D38*
%TO.C,D65*%
X331371358Y-169488447D03*
X333265312Y-170272949D03*
%TD*%
%TO.C,D3*%
X272193808Y-271402708D03*
X274087762Y-272187210D03*
%TD*%
D14*
%TO.C,R51*%
X277342005Y-175284567D03*
X276051535Y-176575037D03*
%TD*%
D21*
%TO.C,T4*%
X337683738Y-312089295D03*
X338581764Y-311191269D03*
X339479789Y-310293243D03*
X340377815Y-309395218D03*
D22*
X335025582Y-305839037D03*
D23*
X337333508Y-307248937D03*
D22*
X335923608Y-304941011D03*
X333229531Y-307635088D03*
D23*
X335537457Y-309044988D03*
D22*
X334127556Y-306737062D03*
%TD*%
D13*
%TO.C,R6*%
X225430679Y-270657335D03*
X223744599Y-271355733D03*
%TD*%
D35*
%TO.C,R50*%
X285046117Y-169915040D03*
X286732197Y-169216642D03*
%TD*%
D17*
%TO.C,D36*%
X205986091Y-119361260D03*
X204536521Y-120810830D03*
%TD*%
D39*
%TO.C,R70*%
X342033436Y-332822654D03*
X343829487Y-331026603D03*
X345625538Y-329230550D03*
%TD*%
D24*
%TO.C,R13*%
X201879383Y-270324203D03*
X200193303Y-269625805D03*
%TD*%
D37*
%TO.C,D23*%
X221012111Y-215704559D03*
X220227609Y-213810605D03*
%TD*%
D33*
%TO.C,R35*%
X197500810Y-141072749D03*
X197500810Y-139247749D03*
%TD*%
D40*
%TO.C,D11*%
X189330383Y-304863106D03*
X190114885Y-302969152D03*
%TD*%
D24*
%TO.C,R2*%
X301475754Y-284400890D03*
X299789674Y-283702492D03*
%TD*%
D18*
%TO.C,D66*%
X342422343Y-178015766D03*
X343871913Y-179465336D03*
%TD*%
D24*
%TO.C,R3*%
X278954023Y-273859737D03*
X277267943Y-273161339D03*
%TD*%
D41*
%TO.C,U1*%
X356296379Y-328494915D03*
X356968132Y-327823163D03*
X357639883Y-327151412D03*
X355709129Y-325220655D03*
X354365625Y-326564158D03*
%TD*%
D34*
%TO.C,D30*%
X150909156Y-225654643D03*
X150124654Y-227548597D03*
%TD*%
D33*
%TO.C,R30*%
X149417547Y-232410845D03*
X149417547Y-230585845D03*
%TD*%
D19*
%TO.C,R9*%
X248350626Y-317289286D03*
X247060156Y-315998816D03*
%TD*%
D13*
%TO.C,R33*%
X155971269Y-176940993D03*
X154285189Y-177639391D03*
%TD*%
D33*
%TO.C,R60*%
X292394539Y-123960766D03*
X292394539Y-122135766D03*
%TD*%
D21*
%TO.C,T5*%
X343281667Y-306491365D03*
X344179693Y-305593339D03*
X345077718Y-304695313D03*
X345975744Y-303797288D03*
D22*
X340623511Y-300241107D03*
D23*
X342931437Y-301651007D03*
D22*
X341521537Y-299343081D03*
X338827460Y-302037158D03*
D23*
X341135386Y-303447058D03*
D22*
X339725485Y-301139132D03*
%TD*%
D27*
%TO.C,R57*%
X234332233Y-158897367D03*
X235622703Y-157606897D03*
%TD*%
D29*
%TO.C,D4*%
X250842637Y-267853682D03*
X252892635Y-267853682D03*
%TD*%
D19*
%TO.C,R65*%
X338153188Y-173746611D03*
X336862718Y-172456141D03*
%TD*%
D42*
%TO.C,D46*%
X306627353Y-225659376D03*
X306627353Y-227709378D03*
%TD*%
D30*
%TO.C,U4*%
X355983946Y-303400650D03*
X355524326Y-302941030D03*
X355064707Y-302481408D03*
X354605087Y-302021791D03*
X354145469Y-301562170D03*
X353685848Y-301102552D03*
X353226231Y-300642932D03*
X348376890Y-305492270D03*
X348836510Y-305951890D03*
X349296127Y-306411509D03*
X349755749Y-306871129D03*
X350215367Y-307330750D03*
X350674988Y-307790368D03*
X351134605Y-308249988D03*
%TD*%
D43*
%TO.C,R18*%
X196793703Y-220979243D03*
X196793703Y-222804243D03*
%TD*%
D33*
%TO.C,R37*%
X213057159Y-173013875D03*
X213057159Y-171188875D03*
%TD*%
D44*
%TO.C,D43*%
X272454128Y-170272948D03*
X270560174Y-169488446D03*
%TD*%
D40*
%TO.C,D20*%
X232071647Y-247120221D03*
X232856149Y-245226267D03*
%TD*%
D42*
%TO.C,D47*%
X301445506Y-197850112D03*
X301445506Y-199900114D03*
%TD*%
D35*
%TO.C,R28*%
X176858779Y-201734846D03*
X178544859Y-201036448D03*
%TD*%
D18*
%TO.C,D22*%
X232661693Y-230889676D03*
X234111263Y-232339246D03*
%TD*%
D26*
%TO.C,R12*%
X183707873Y-316508118D03*
X183009475Y-318194198D03*
%TD*%
D34*
%TO.C,D60*%
X293525910Y-116108568D03*
X292741408Y-118002522D03*
%TD*%
D32*
%TO.C,D53*%
X268211487Y-213370803D03*
X268211487Y-211320801D03*
%TD*%
D16*
%TO.C,R24*%
X211992144Y-193743405D03*
X211293746Y-192057325D03*
%TD*%
D45*
%TO.C,S2*%
X360418212Y-333756035D03*
X362539532Y-331634715D03*
D46*
X358650445Y-333048929D03*
X360771765Y-330927608D03*
X361832425Y-329866948D03*
D47*
X358155470Y-334533853D03*
X359640394Y-336018777D03*
X364802274Y-330856897D03*
X363317350Y-329371973D03*
%TD*%
D21*
%TO.C,T6*%
X348879596Y-300893436D03*
X349777622Y-299995410D03*
X350675647Y-299097384D03*
X351573673Y-298199359D03*
D22*
X346221440Y-294643178D03*
D23*
X348529366Y-296053078D03*
D22*
X347119466Y-293745152D03*
X344425389Y-296439229D03*
D23*
X346733315Y-297849129D03*
D22*
X345323414Y-295541203D03*
%TD*%
D48*
%TO.C,D10*%
X200311558Y-287670352D03*
X201761128Y-286220782D03*
%TD*%
D49*
%TO.C,U3*%
X341987937Y-315821361D03*
X342341581Y-315467718D03*
X342695223Y-315114076D03*
X343048866Y-314760432D03*
X343402508Y-314406790D03*
X343756151Y-314053148D03*
X344109793Y-313699506D03*
X344463435Y-313345864D03*
X342281235Y-311163661D03*
X341927591Y-311517304D03*
X341573949Y-311870946D03*
X341220306Y-312224590D03*
X340866664Y-312578232D03*
X340513021Y-312931874D03*
X340159379Y-313285516D03*
X339805737Y-313639158D03*
%TD*%
D19*
%TO.C,R16*%
X210873967Y-257185211D03*
X209583497Y-255894741D03*
%TD*%
D33*
%TO.C,R48*%
X300738400Y-186327584D03*
X300738400Y-184502584D03*
%TD*%
D27*
%TO.C,R29*%
X157257595Y-216173017D03*
X158548065Y-214882547D03*
%TD*%
D24*
%TO.C,R64*%
X325406296Y-166703929D03*
X323720216Y-166005531D03*
%TD*%
D19*
%TO.C,R31*%
X196731830Y-180817678D03*
X195441360Y-179527208D03*
%TD*%
D25*
%TO.C,D56*%
X260574735Y-147645531D03*
X258524733Y-147645531D03*
%TD*%
D50*
%TO.C,R49*%
X305338948Y-166166241D03*
X306037346Y-164480161D03*
%TD*%
D51*
%TO.C,R23*%
X217480930Y-207790451D03*
X218179328Y-209476531D03*
%TD*%
D31*
%TO.C,D21*%
X263632972Y-259739634D03*
X262183402Y-258290064D03*
%TD*%
D50*
%TO.C,R38*%
X218040391Y-155342866D03*
X218738789Y-153656786D03*
%TD*%
D35*
%TO.C,R56*%
X250888218Y-149791626D03*
X252574298Y-149093228D03*
%TD*%
D43*
%TO.C,R26*%
X202450557Y-220565030D03*
X202450557Y-222390030D03*
%TD*%
D42*
%TO.C,D7*%
X223663760Y-283092140D03*
X223663760Y-285142138D03*
%TD*%
D17*
%TO.C,D29*%
X162180827Y-211249785D03*
X160731257Y-212699355D03*
%TD*%
D11*
%TO.C,D58*%
X295537822Y-143870127D03*
X296322324Y-145764081D03*
%TD*%
D17*
%TO.C,D57*%
X241341430Y-153302385D03*
X239891860Y-154751955D03*
%TD*%
D29*
%TO.C,D14*%
X182333673Y-263611043D03*
X184383675Y-263611043D03*
%TD*%
D40*
%TO.C,D19*%
X225000579Y-259848144D03*
X225785081Y-257954190D03*
%TD*%
D34*
%TO.C,D35*%
X198832267Y-133420639D03*
X198047765Y-135314593D03*
%TD*%
D12*
%TO.C,D62*%
X335159266Y-132718894D03*
X333265312Y-133503396D03*
%TD*%
D35*
%TO.C,R40*%
X246155244Y-128195740D03*
X247841324Y-127497342D03*
%TD*%
D29*
%TO.C,D64*%
X316444091Y-164930950D03*
X318494093Y-164930950D03*
%TD*%
D19*
%TO.C,R22*%
X237213694Y-235441676D03*
X235923224Y-234151206D03*
%TD*%
D36*
%TO.C,D6*%
X218773996Y-273414624D03*
X220667950Y-272630122D03*
%TD*%
D34*
%TO.C,D48*%
X302152613Y-177344016D03*
X301368111Y-179237970D03*
%TD*%
D21*
%TO.C,T3*%
X332085810Y-317687223D03*
X332983836Y-316789197D03*
X333881861Y-315891171D03*
X334779887Y-314993146D03*
D22*
X329427654Y-311436965D03*
D23*
X331735580Y-312846865D03*
D22*
X330325680Y-310538939D03*
X327631603Y-313233016D03*
D23*
X329939529Y-314642916D03*
D22*
X328529628Y-312334990D03*
%TD*%
D12*
%TO.C,D41*%
X232388912Y-175537551D03*
X230494958Y-176322053D03*
%TD*%
D26*
%TO.C,R19*%
X227435726Y-252981275D03*
X226737328Y-254667355D03*
%TD*%
D29*
%TO.C,D32*%
X169923645Y-175222695D03*
X171973647Y-175222695D03*
%TD*%
D50*
%TO.C,R36*%
X201718676Y-126077927D03*
X202417074Y-124391847D03*
%TD*%
D19*
%TO.C,R66*%
X347345575Y-182938998D03*
X346055105Y-181648528D03*
%TD*%
D15*
%TO.C,R5*%
X243168143Y-266939471D03*
X241343143Y-266939471D03*
%TD*%
D42*
%TO.C,D34*%
X198207916Y-153373704D03*
X198207916Y-155423706D03*
%TD*%
D14*
%TO.C,R20*%
X235207278Y-241107370D03*
X233916808Y-242397840D03*
%TD*%
D34*
%TO.C,D38*%
X221227584Y-147405661D03*
X220443082Y-149299615D03*
%TD*%
D16*
%TO.C,R58*%
X298359012Y-150826665D03*
X297660614Y-149140585D03*
%TD*%
D51*
%TO.C,R27*%
X207767052Y-242253068D03*
X208465450Y-243939148D03*
%TD*%
D16*
%TO.C,R59*%
X293550686Y-137815900D03*
X292852288Y-136129820D03*
%TD*%
D38*
%TO.C,D31*%
X189242894Y-177266621D03*
X191136848Y-178051123D03*
%TD*%
D12*
%TO.C,D63*%
X350942981Y-127139434D03*
X349049027Y-127923936D03*
%TD*%
D40*
%TO.C,D51*%
X271669627Y-182066397D03*
X272454129Y-180172443D03*
%TD*%
D52*
%TO.C,U2*%
X349065188Y-326758789D03*
X349963213Y-325860765D03*
X350861239Y-324962738D03*
X351759264Y-324064711D03*
X352657290Y-323166688D03*
X353555316Y-322268661D03*
X354453341Y-321370634D03*
X355351367Y-320472610D03*
X352010712Y-317131955D03*
X351112687Y-318029979D03*
X350214661Y-318928006D03*
X349316636Y-319826033D03*
X348418610Y-320724056D03*
X347520584Y-321622083D03*
X346622559Y-322520110D03*
X345724533Y-323418134D03*
%TD*%
D38*
%TO.C,D2*%
X294862124Y-280490717D03*
X296756078Y-281275219D03*
%TD*%
D11*
%TO.C,D45*%
X319720874Y-254320206D03*
X320505376Y-256214160D03*
%TD*%
D33*
%TO.C,R47*%
X301445506Y-207247894D03*
X301445506Y-205422894D03*
%TD*%
D27*
%TO.C,R41*%
X225846952Y-180110570D03*
X227137422Y-178820100D03*
%TD*%
D44*
%TO.C,D55*%
X275565398Y-151605330D03*
X273671444Y-150820828D03*
%TD*%
D12*
%TO.C,D50*%
X292213505Y-167179373D03*
X290319551Y-167963875D03*
%TD*%
D11*
%TO.C,D24*%
X209129374Y-187003641D03*
X209913876Y-188897595D03*
%TD*%
D19*
%TO.C,R8*%
X235622704Y-304561365D03*
X234332234Y-303270895D03*
%TD*%
D36*
%TO.C,D15*%
X166148241Y-267538828D03*
X168042195Y-266754326D03*
%TD*%
D34*
%TO.C,D37*%
X214471372Y-163201880D03*
X213686870Y-165095834D03*
%TD*%
D27*
%TO.C,R39*%
X230089593Y-137684164D03*
X231380063Y-136393694D03*
%TD*%
D28*
%TO.C,R43*%
X264484981Y-169258528D03*
X266309981Y-169258528D03*
%TD*%
D38*
%TO.C,D13*%
X195330912Y-267652725D03*
X197224866Y-268437227D03*
%TD*%
D35*
%TO.C,R62*%
X327962858Y-136356599D03*
X329648938Y-135658201D03*
%TD*%
D11*
%TO.C,D17*%
X199936985Y-235794008D03*
X200721487Y-237687962D03*
%TD*%
D50*
%TO.C,R25*%
X201830760Y-208322049D03*
X202529158Y-206635969D03*
%TD*%
D35*
%TO.C,R63*%
X344060404Y-129826726D03*
X345746484Y-129128328D03*
%TD*%
D18*
%TO.C,D1*%
X312538243Y-289553020D03*
X313987813Y-291002590D03*
%TD*%
D19*
%TO.C,R44*%
X338153187Y-279812627D03*
X336862717Y-278522157D03*
%TD*%
D26*
%TO.C,R11*%
X192193154Y-298123342D03*
X191494756Y-299809422D03*
%TD*%
D32*
%TO.C,D12*%
X182651567Y-323325905D03*
X182651567Y-321275907D03*
%TD*%
D24*
%TO.C,R14*%
X189858569Y-265374456D03*
X188172489Y-264676058D03*
%TD*%
D19*
%TO.C,R45*%
X324718158Y-260720743D03*
X323427688Y-259430273D03*
%TD*%
D16*
%TO.C,R7*%
X225751596Y-290400260D03*
X225053198Y-288714180D03*
%TD*%
D14*
%TO.C,R10*%
X205270938Y-282710973D03*
X203980468Y-284001443D03*
%TD*%
D43*
%TO.C,R53*%
X268034711Y-206808491D03*
X268034711Y-208633491D03*
%TD*%
D42*
%TO.C,D59*%
X292394540Y-130463444D03*
X292394540Y-132513446D03*
%TD*%
D53*
%TO.C,R54*%
X281859495Y-154691823D03*
X283545575Y-155390221D03*
%TD*%
D32*
%TO.C,D26*%
X203157664Y-227477279D03*
X203157664Y-225427277D03*
%TD*%
D54*
%TO.C,C1*%
X357072747Y-330198440D03*
X355852987Y-331418198D03*
%TD*%
D55*
%TO.C,TP2*%
X355468464Y-335877356D03*
%TD*%
D56*
%TO.C,TP1*%
X364307299Y-326755679D03*
%TD*%
D57*
X357731206Y-336160199D03*
X353205723Y-336443042D03*
X221895993Y-283056480D03*
X354337093Y-331069030D03*
X198915023Y-289066887D03*
X226845741Y-261136169D03*
X290485352Y-130321415D03*
X338073638Y-293592371D03*
X310991448Y-288006227D03*
X199622129Y-131382075D03*
X204925430Y-227902151D03*
X277757430Y-152241725D03*
X215178479Y-161080560D03*
X164973898Y-269267897D03*
X233916809Y-248408247D03*
X346700340Y-290056836D03*
X331673685Y-321530938D03*
X303390050Y-162671550D03*
X351296534Y-186182851D03*
X330790437Y-271742771D03*
X358112910Y-329000170D03*
X182651567Y-325129333D03*
X352922880Y-302643338D03*
X350059098Y-322477682D03*
X291899564Y-164969647D03*
X199268577Y-227902151D03*
X334538104Y-294016634D03*
X249119604Y-266439470D03*
X273868342Y-170980055D03*
X333265311Y-166030307D03*
X321244496Y-178051123D03*
X255837119Y-170626502D03*
X292606672Y-279520946D03*
X317708962Y-312401411D03*
X231265158Y-229493141D03*
X310637894Y-188657724D03*
X180530247Y-264318150D03*
X151892422Y-223659509D03*
X343447649Y-290763944D03*
X256190672Y-124311008D03*
X232856148Y-265732363D03*
X187601315Y-176636909D03*
X185833548Y-198910772D03*
X221719217Y-217472326D03*
X147649782Y-180525996D03*
X231088381Y-296491509D03*
X189015528Y-306744556D03*
X304627487Y-223659510D03*
X343871913Y-321240246D03*
X234270362Y-173808482D03*
X332204651Y-319118925D03*
X167448772Y-175576249D03*
X343235517Y-310067959D03*
X334679524Y-130674968D03*
X210935838Y-185122191D03*
X346205366Y-313179228D03*
X300031293Y-176636908D03*
X163559684Y-209870927D03*
X210228731Y-250176014D03*
X314526982Y-164969647D03*
X243816304Y-154363046D03*
X290838905Y-157545026D03*
X309223681Y-157545026D03*
X317355409Y-251943781D03*
X198207916Y-151181065D03*
X346607254Y-309762740D03*
X197854363Y-236387432D03*
X202804110Y-200324986D03*
X193965276Y-267146577D03*
X222249547Y-145524211D03*
X295788652Y-141988676D03*
X291546011Y-115118619D03*
X316860434Y-182435184D03*
X299821282Y-170420733D03*
X317708962Y-142695783D03*
X334962368Y-300946281D03*
X350589427Y-124664561D03*
X211112615Y-207219278D03*
X270686361Y-271035664D03*
X217653353Y-271742771D03*
X235331022Y-131028522D03*
X341750593Y-175929802D03*
X207753858Y-117593493D03*
X205278984Y-249468907D03*
X241694983Y-310633644D03*
X265383060Y-260782616D03*
X262554633Y-148352637D03*
X347831711Y-324280805D03*
X329186720Y-322097259D03*
X355256332Y-296067244D03*
X345851812Y-305471764D03*
X328773770Y-331742196D03*
X342477499Y-305932798D03*
X336305871Y-311906436D03*
X331002570Y-317916844D03*
X351437956Y-299885621D03*
X364201233Y-300557372D03*
X357024099Y-294299478D03*
X350343253Y-315467669D03*
X323798565Y-327485413D03*
X334608814Y-316714763D03*
X326672248Y-324611731D03*
X349740900Y-301724099D03*
X339632078Y-314666958D03*
X364201233Y-299673489D03*
X321284094Y-329999885D03*
X352215772Y-329230551D03*
X344402243Y-316113721D03*
X345143968Y-315351344D03*
X346063944Y-314452020D03*
X306748807Y-312259989D03*
X321244496Y-303154928D03*
X206551777Y-255691447D03*
X223946603Y-238296620D03*
X310496473Y-277894600D03*
X302859720Y-284824246D03*
X304556776Y-317351159D03*
X193116748Y-227548597D03*
X193116747Y-234619665D03*
X320395968Y-287794095D03*
X325133584Y-297764351D03*
X211289392Y-177061173D03*
X300172714Y-209305242D03*
X262130369Y-198415798D03*
X322234446Y-294158057D03*
X289707534Y-205345444D03*
X219597896Y-177061173D03*
X296920023Y-212557933D03*
X279171643Y-272449878D03*
X296920023Y-265025256D03*
X261140419Y-268560790D03*
X287869056Y-258661296D03*
X338932964Y-314063061D03*
X346700340Y-306391004D03*
X333972419Y-318765372D03*
X341326329Y-308441613D03*
X344154756Y-308955680D03*
X332710657Y-325800802D03*
X331659486Y-324779867D03*
X350235874Y-304411105D03*
X350341940Y-302607982D03*
X342280923Y-312931741D03*
X345136660Y-306859534D03*
X357036403Y-300817163D03*
X357872628Y-302077652D03*
X358102437Y-294370188D03*
X352121187Y-305457457D03*
X347619579Y-309926538D03*
X332734981Y-323184789D03*
X335740185Y-318411819D03*
X331497545Y-323087494D03*
X356034149Y-300804860D03*
X355503154Y-299708179D03*
X354549226Y-299461357D03*
X217865485Y-248337536D03*
X217865484Y-257954189D03*
X256049251Y-160373454D03*
X272100574Y-283056479D03*
X259726206Y-164050408D03*
X283414283Y-280228052D03*
X227104369Y-268983646D03*
X307102361Y-172394268D03*
X240987876Y-254772208D03*
X256766200Y-138806696D03*
X271039915Y-164616093D03*
X283767837Y-181763433D03*
X275565398Y-277753179D03*
X162004049Y-228114283D03*
X166034558Y-225992962D03*
X282353623Y-277753179D03*
X265736614Y-149413298D03*
X234128941Y-164757515D03*
X289990377Y-201385646D03*
X262059659Y-192688233D03*
X325769979Y-286379881D03*
X298758500Y-304057551D03*
X232856149Y-160373453D03*
X281505096Y-200537118D03*
X270863138Y-200537118D03*
X337987371Y-249751750D03*
X345286127Y-270682111D03*
X279383775Y-180596707D03*
X276979612Y-249751750D03*
X345286127Y-275471769D03*
X290697483Y-172959953D03*
X212350052Y-178758230D03*
X208460965Y-202446306D03*
X205986091Y-214820675D03*
X211289392Y-232144791D03*
X260786866Y-161434114D03*
X230558052Y-160196676D03*
X347761001Y-273029140D03*
X343080660Y-266355325D03*
X300738400Y-164616093D03*
X226492188Y-159666346D03*
X307102360Y-174515588D03*
X352176175Y-268574932D03*
X303566826Y-174515589D03*
X325310360Y-178404676D03*
X343195919Y-259594676D03*
X325406296Y-170626501D03*
X343518359Y-277231899D03*
X343518360Y-272449878D03*
X301091953Y-156484366D03*
X350235874Y-270478747D03*
X343231982Y-262971112D03*
X314880535Y-175929802D03*
X343181070Y-256556239D03*
X314173428Y-135624715D03*
X328315564Y-180879549D03*
X353687969Y-267063138D03*
X357091274Y-317566826D03*
X361245528Y-309834613D03*
X354404268Y-314879821D03*
X356193248Y-316668801D03*
X360347501Y-308936587D03*
X363034508Y-311623593D03*
X355295223Y-315770775D03*
X362143551Y-310732639D03*
M02*
