%TF.GenerationSoftware,KiCad,Pcbnew,9.0.7-9.0.7~ubuntu24.04.1*%
%TF.CreationDate,2026-04-09T13:44:23-04:00*%
%TF.ProjectId,grad-cap-pcb,67726164-2d63-4617-902d-7063622e6b69,rev?*%
%TF.SameCoordinates,Original*%
%TF.FileFunction,Soldermask,Top*%
%TF.FilePolarity,Negative*%
%FSLAX46Y46*%
G04 Gerber Fmt 4.6, Leading zero omitted, Abs format (unit mm)*
G04 Created by KiCad (PCBNEW 9.0.7-9.0.7~ubuntu24.04.1) date 2026-04-09 13:44:23*
%MOMM*%
%LPD*%
G01*
G04 APERTURE LIST*
G04 Aperture macros list*
%AMRoundRect*
0 Rectangle with rounded corners*
0 $1 Rounding radius*
0 $2 $3 $4 $5 $6 $7 $8 $9 X,Y pos of 4 corners*
0 Add a 4 corners polygon primitive as box body*
4,1,4,$2,$3,$4,$5,$6,$7,$8,$9,$2,$3,0*
0 Add four circle primitives for the rounded corners*
1,1,$1+$1,$2,$3*
1,1,$1+$1,$4,$5*
1,1,$1+$1,$6,$7*
1,1,$1+$1,$8,$9*
0 Add four rect primitives between the rounded corners*
20,1,$1+$1,$2,$3,$4,$5,0*
20,1,$1+$1,$4,$5,$6,$7,0*
20,1,$1+$1,$6,$7,$8,$9,0*
20,1,$1+$1,$8,$9,$2,$3,0*%
%AMRotRect*
0 Rectangle, with rotation*
0 The origin of the aperture is its center*
0 $1 length*
0 $2 width*
0 $3 Rotation angle, in degrees counterclockwise*
0 Add horizontal line*
21,1,$1,$2,0,0,$3*%
G04 Aperture macros list end*
%ADD10C,0.000000*%
%ADD11C,1.270000*%
%ADD12RoundRect,0.250000X0.128053X0.540118X-0.472468X0.291374X-0.128053X-0.540118X0.472468X-0.291374X0*%
%ADD13RoundRect,0.075500X0.599627X-0.279307X-0.279307X0.599627X-0.599627X0.279307X0.279307X-0.599627X0*%
%ADD14RoundRect,0.250000X-0.574524X-0.097227X-0.097227X-0.574524X0.574524X0.097227X0.097227X0.574524X0*%
%ADD15RoundRect,0.237500X-0.237500X0.250000X-0.237500X-0.250000X0.237500X-0.250000X0.237500X0.250000X0*%
%ADD16RoundRect,0.250000X-0.450000X0.325000X-0.450000X-0.325000X0.450000X-0.325000X0.450000X0.325000X0*%
%ADD17RoundRect,0.250000X-0.548008X-0.088388X-0.088388X-0.548008X0.548008X0.088388X0.088388X0.548008X0*%
%ADD18RoundRect,0.250000X-0.291374X0.472468X-0.540118X-0.128053X0.291374X-0.472468X0.540118X0.128053X0*%
%ADD19RoundRect,0.250000X0.291374X-0.472468X0.540118X0.128053X-0.291374X0.472468X-0.540118X-0.128053X0*%
%ADD20RoundRect,0.237500X-0.140083X-0.315092X0.321857X-0.123751X0.140083X0.315092X-0.321857X0.123751X0*%
%ADD21RoundRect,0.237500X-0.008839X-0.344715X0.344715X0.008839X0.008839X0.344715X-0.344715X-0.008839X0*%
%ADD22RoundRect,0.250000X0.548008X0.088388X0.088388X0.548008X-0.548008X-0.088388X-0.088388X-0.548008X0*%
%ADD23RoundRect,0.237500X0.123751X-0.321857X0.315092X0.140083X-0.123751X0.321857X-0.315092X-0.140083X0*%
%ADD24RoundRect,0.237500X0.237500X-0.250000X0.237500X0.250000X-0.237500X0.250000X-0.237500X-0.250000X0*%
%ADD25RoundRect,0.250000X0.472468X0.291374X-0.128053X0.540118X-0.472468X-0.291374X0.128053X-0.540118X0*%
%ADD26RoundRect,0.250000X0.450000X-0.325000X0.450000X0.325000X-0.450000X0.325000X-0.450000X-0.325000X0*%
%ADD27RoundRect,0.237500X0.315092X-0.140083X0.123751X0.321857X-0.315092X0.140083X-0.123751X-0.321857X0*%
%ADD28RoundRect,0.250000X0.097227X-0.574524X0.574524X-0.097227X-0.097227X0.574524X-0.574524X0.097227X0*%
%ADD29RoundRect,0.237500X0.044194X0.380070X-0.380070X-0.044194X-0.044194X-0.380070X0.380070X0.044194X0*%
%ADD30RoundRect,0.237500X0.321857X0.123751X-0.140083X0.315092X-0.321857X-0.123751X0.140083X-0.315092X0*%
%ADD31RoundRect,0.237500X-0.321857X-0.123751X0.140083X-0.315092X0.321857X0.123751X-0.140083X0.315092X0*%
%ADD32RoundRect,0.250000X0.540118X-0.128053X0.291374X0.472468X-0.540118X0.128053X-0.291374X-0.472468X0*%
%ADD33RoundRect,0.250000X-0.325000X-0.450000X0.325000X-0.450000X0.325000X0.450000X-0.325000X0.450000X0*%
%ADD34RoundRect,0.102000X-0.070711X-0.636396X0.636396X0.070711X0.070711X0.636396X-0.636396X-0.070711X0*%
%ADD35RoundRect,0.102000X0.282843X-0.777817X0.777817X-0.282843X-0.282843X0.777817X-0.777817X0.282843X0*%
%ADD36C,0.900000*%
%ADD37RotRect,0.558800X1.092200X45.000000*%
%ADD38RotRect,1.828800X4.165600X45.000000*%
%ADD39RotRect,0.558800X1.193800X45.000000*%
%ADD40RoundRect,0.250000X0.088388X-0.548008X0.548008X-0.088388X-0.088388X0.548008X-0.548008X0.088388X0*%
%ADD41RotRect,0.977900X0.304800X135.000000*%
%ADD42RoundRect,0.237500X0.344715X-0.008839X-0.008839X0.344715X-0.344715X0.008839X0.008839X-0.344715X0*%
%ADD43RoundRect,0.250000X-0.088388X0.548008X-0.548008X0.088388X0.088388X-0.548008X0.548008X-0.088388X0*%
%ADD44RoundRect,0.237500X-0.123751X0.321857X-0.315092X-0.140083X0.123751X-0.321857X0.315092X0.140083X0*%
%ADD45R,1.700000X1.700000*%
%ADD46RoundRect,0.250000X0.325000X0.450000X-0.325000X0.450000X-0.325000X-0.450000X0.325000X-0.450000X0*%
%ADD47RoundRect,0.237500X0.140083X0.315092X-0.321857X0.123751X-0.140083X-0.315092X0.321857X-0.123751X0*%
%ADD48RotRect,0.977900X0.508000X135.000000*%
%ADD49RoundRect,0.237500X0.008839X0.344715X-0.344715X-0.008839X-0.008839X-0.344715X0.344715X0.008839X0*%
%ADD50RotRect,2.057400X0.431800X225.000000*%
%ADD51RoundRect,0.237500X-0.315092X0.140083X-0.123751X-0.321857X0.315092X-0.140083X0.123751X0.321857X0*%
%ADD52C,2.500000*%
%ADD53RoundRect,0.250000X-0.540118X0.128053X-0.291374X-0.472468X0.540118X-0.128053X0.291374X0.472468X0*%
%ADD54RoundRect,0.250000X-0.128053X-0.540118X0.472468X-0.291374X0.128053X0.540118X-0.472468X0.291374X0*%
%ADD55RoundRect,0.237500X0.250000X0.237500X-0.250000X0.237500X-0.250000X-0.237500X0.250000X-0.237500X0*%
%ADD56RoundRect,0.250000X-0.472468X-0.291374X0.128053X-0.540118X0.472468X0.291374X-0.128053X0.540118X0*%
%ADD57RoundRect,0.237500X-0.250000X-0.237500X0.250000X-0.237500X0.250000X0.237500X-0.250000X0.237500X0*%
%ADD58RotRect,2.184400X0.558800X135.000000*%
%ADD59RoundRect,0.237500X-0.344715X0.008839X0.008839X-0.344715X0.344715X-0.008839X-0.008839X0.344715X0*%
%ADD60RoundRect,0.250000X0.337500X0.475000X-0.337500X0.475000X-0.337500X-0.475000X0.337500X-0.475000X0*%
%ADD61C,0.711200*%
%ADD62C,0.600000*%
G04 APERTURE END LIST*
D10*
%TO.C,T6*%
G36*
X252077320Y-209066399D02*
G01*
X250784163Y-210359555D01*
X247838639Y-207414032D01*
X249131796Y-206120874D01*
X252077320Y-209066399D01*
G37*
G36*
X250281269Y-210862451D02*
G01*
X248988112Y-212155606D01*
X246042588Y-209210083D01*
X247335747Y-207916926D01*
X250281269Y-210862451D01*
G37*
%TO.C,G\u002A\u002A\u002A*%
G36*
X70765697Y-40029087D02*
G01*
X70786655Y-40047883D01*
X70815892Y-40084449D01*
X70857315Y-40143506D01*
X70914836Y-40229762D01*
X70963455Y-40303786D01*
X71116944Y-40541296D01*
X71247308Y-40750592D01*
X71357051Y-40936320D01*
X71448674Y-41103136D01*
X71524680Y-41255687D01*
X71587567Y-41398626D01*
X71639835Y-41536601D01*
X71662041Y-41602908D01*
X71722525Y-41834624D01*
X71747879Y-42045983D01*
X71737897Y-42239362D01*
X71692381Y-42417138D01*
X71611123Y-42581684D01*
X71573515Y-42637541D01*
X71538600Y-42679562D01*
X71475663Y-42748249D01*
X71386805Y-42841462D01*
X71274114Y-42957054D01*
X71139683Y-43092881D01*
X70985603Y-43246799D01*
X70813967Y-43416662D01*
X70797728Y-43432665D01*
X70504630Y-43722980D01*
X70231431Y-43996938D01*
X69979821Y-44252792D01*
X69751480Y-44488796D01*
X69548091Y-44703197D01*
X69371337Y-44894245D01*
X69222904Y-45060193D01*
X69150134Y-45144630D01*
X69005685Y-45319170D01*
X68874959Y-45485118D01*
X68760744Y-45638539D01*
X68665820Y-45775499D01*
X68592976Y-45892075D01*
X68544995Y-45984328D01*
X68532246Y-46016890D01*
X68517164Y-46103669D01*
X68517604Y-46219531D01*
X68532988Y-46355121D01*
X68562057Y-46498343D01*
X68600780Y-46640234D01*
X68648367Y-46785094D01*
X68706852Y-46937317D01*
X68778263Y-47101304D01*
X68864638Y-47281454D01*
X68968005Y-47482165D01*
X69090397Y-47707836D01*
X69233849Y-47962866D01*
X69259199Y-48007226D01*
X69497745Y-48404222D01*
X69753262Y-48792862D01*
X70021606Y-49167850D01*
X70298638Y-49523893D01*
X70580214Y-49855697D01*
X70862189Y-50157967D01*
X71140425Y-50425408D01*
X71176267Y-50457485D01*
X71382355Y-50635894D01*
X71586982Y-50803498D01*
X71793835Y-50962507D01*
X72006607Y-51115137D01*
X72228988Y-51263594D01*
X72464665Y-51410090D01*
X72717330Y-51556836D01*
X72990675Y-51706041D01*
X73288389Y-51859919D01*
X73614160Y-52020680D01*
X73971678Y-52190535D01*
X74364637Y-52371693D01*
X74391800Y-52384052D01*
X74641499Y-52497746D01*
X74858003Y-52596790D01*
X75046160Y-52683544D01*
X75210825Y-52760357D01*
X75356848Y-52829591D01*
X75489079Y-52893596D01*
X75612368Y-52954731D01*
X75731567Y-53015349D01*
X75851531Y-53077808D01*
X75977105Y-53144460D01*
X76113144Y-53217663D01*
X76152393Y-53238907D01*
X76626708Y-53498603D01*
X77066414Y-53745363D01*
X77475493Y-53981968D01*
X77857939Y-54211194D01*
X78217731Y-54435825D01*
X78558861Y-54658637D01*
X78885316Y-54882413D01*
X79201081Y-55109927D01*
X79510143Y-55343961D01*
X79816490Y-55587293D01*
X80124109Y-55842701D01*
X80436985Y-56112966D01*
X80759106Y-56400867D01*
X80983839Y-56606628D01*
X81126983Y-56741019D01*
X81289266Y-56897168D01*
X81465720Y-57070017D01*
X81651377Y-57254513D01*
X81841273Y-57445594D01*
X82030436Y-57638209D01*
X82213901Y-57827299D01*
X82386703Y-58007808D01*
X82543870Y-58174676D01*
X82680437Y-58322853D01*
X82787248Y-58442469D01*
X83332769Y-59082505D01*
X83840542Y-59710079D01*
X84311896Y-60327214D01*
X84748164Y-60935927D01*
X85150672Y-61538238D01*
X85520753Y-62136167D01*
X85859734Y-62731733D01*
X86168945Y-63326957D01*
X86449717Y-63923856D01*
X86554477Y-64163812D01*
X86889851Y-64993925D01*
X87194532Y-65840544D01*
X87467063Y-66698413D01*
X87705969Y-67562293D01*
X87909783Y-68426942D01*
X88077035Y-69287112D01*
X88186145Y-69987452D01*
X88203986Y-70114665D01*
X88215769Y-70208394D01*
X88219524Y-70276637D01*
X88213283Y-70327376D01*
X88195090Y-70368607D01*
X88162972Y-70408318D01*
X88114967Y-70454500D01*
X88058494Y-70506397D01*
X87318892Y-71168078D01*
X86566339Y-71790874D01*
X85799006Y-72376066D01*
X85015057Y-72924931D01*
X84212657Y-73438747D01*
X83389979Y-73918796D01*
X82545185Y-74366355D01*
X82478232Y-74399974D01*
X81633116Y-74799658D01*
X80767415Y-75164010D01*
X79883806Y-75492270D01*
X78984964Y-75783685D01*
X78073574Y-76037494D01*
X77152307Y-76252943D01*
X76223841Y-76429275D01*
X75290855Y-76565729D01*
X74530889Y-76646755D01*
X73922496Y-76691662D01*
X73296371Y-76720540D01*
X72661469Y-76733464D01*
X72026745Y-76730509D01*
X71401156Y-76711751D01*
X70793654Y-76677263D01*
X70213199Y-76627121D01*
X70047303Y-76609222D01*
X69954374Y-76597430D01*
X69830933Y-76579787D01*
X69680472Y-76556908D01*
X69506475Y-76529409D01*
X69312440Y-76497914D01*
X69101853Y-76463034D01*
X68878204Y-76425389D01*
X68644982Y-76385598D01*
X68405678Y-76344278D01*
X68163785Y-76302042D01*
X67922787Y-76259513D01*
X67686178Y-76217308D01*
X67457444Y-76176044D01*
X67240085Y-76136336D01*
X67037578Y-76098805D01*
X66903206Y-76073459D01*
X66853420Y-76064070D01*
X66691103Y-76032742D01*
X66554111Y-76005443D01*
X66445938Y-75982790D01*
X66370072Y-75965403D01*
X66330005Y-75953896D01*
X66324474Y-75950428D01*
X66329361Y-75928054D01*
X66343246Y-75870031D01*
X66364950Y-75781129D01*
X66393300Y-75666116D01*
X66421010Y-75554398D01*
X67399705Y-75554398D01*
X67405001Y-75571664D01*
X67425718Y-75588116D01*
X67467602Y-75606020D01*
X67536394Y-75627645D01*
X67637839Y-75655265D01*
X67687855Y-75668244D01*
X68133678Y-75772513D01*
X68613301Y-75865083D01*
X69120262Y-75945018D01*
X69648101Y-76011385D01*
X70190358Y-76063250D01*
X70636977Y-76094066D01*
X70754824Y-76099149D01*
X70907820Y-76103227D01*
X71089460Y-76106312D01*
X71293235Y-76108420D01*
X71512636Y-76109568D01*
X71741152Y-76109768D01*
X71972275Y-76109040D01*
X72199497Y-76107398D01*
X72416308Y-76104857D01*
X72616199Y-76101433D01*
X72792661Y-76097143D01*
X72939186Y-76092002D01*
X73013103Y-76088339D01*
X73749170Y-76034447D01*
X74472417Y-75959000D01*
X75180038Y-75862634D01*
X75869244Y-75745985D01*
X76537227Y-75609678D01*
X77181189Y-75454351D01*
X77798328Y-75280637D01*
X78385847Y-75089168D01*
X78940943Y-74880576D01*
X79460822Y-74655497D01*
X79562303Y-74607611D01*
X79658721Y-74561311D01*
X79740815Y-74521643D01*
X79801693Y-74491959D01*
X79834481Y-74475601D01*
X79838146Y-74473570D01*
X79824620Y-74458537D01*
X79783405Y-74416272D01*
X79716517Y-74348786D01*
X79625968Y-74258082D01*
X79513773Y-74146159D01*
X79381950Y-74015025D01*
X79232509Y-73866681D01*
X79067468Y-73703132D01*
X78888840Y-73526378D01*
X78698642Y-73338426D01*
X78498885Y-73141274D01*
X78416777Y-73060305D01*
X78207542Y-72854139D01*
X78002566Y-72652384D01*
X77804341Y-72457482D01*
X77615357Y-72271871D01*
X77438104Y-72097993D01*
X77275074Y-71938287D01*
X77128757Y-71795193D01*
X77001648Y-71671150D01*
X76896231Y-71568597D01*
X76815004Y-71489978D01*
X76760455Y-71437730D01*
X76753198Y-71430877D01*
X76684757Y-71366325D01*
X76591056Y-71277692D01*
X76477009Y-71169634D01*
X76347530Y-71046816D01*
X76207532Y-70913896D01*
X76061927Y-70775539D01*
X75915631Y-70636403D01*
X75891233Y-70613188D01*
X75686995Y-70419195D01*
X75476337Y-70219865D01*
X75256745Y-70012849D01*
X75025707Y-69795801D01*
X74780710Y-69566373D01*
X74519244Y-69322215D01*
X74238794Y-69060987D01*
X73936847Y-68780336D01*
X73610891Y-68477917D01*
X73258414Y-68151379D01*
X72996539Y-67909034D01*
X72719149Y-67652376D01*
X72469719Y-67421459D01*
X72245587Y-67213767D01*
X72044083Y-67026785D01*
X71862542Y-66858003D01*
X71698292Y-66704906D01*
X71548665Y-66564975D01*
X71410994Y-66435700D01*
X71282611Y-66314565D01*
X71160846Y-66199060D01*
X71043031Y-66086666D01*
X70926500Y-65974870D01*
X70808583Y-65861159D01*
X70686614Y-65743018D01*
X70557920Y-65617935D01*
X70419838Y-65483392D01*
X70352823Y-65418018D01*
X70202641Y-65271731D01*
X70061589Y-65134842D01*
X70015545Y-65090337D01*
X69932439Y-65010010D01*
X69817967Y-64899891D01*
X69720945Y-64807143D01*
X69644150Y-64734422D01*
X69590354Y-64684386D01*
X69562332Y-64659693D01*
X69558884Y-64657541D01*
X69551380Y-64681144D01*
X69536226Y-64743431D01*
X69513864Y-64842202D01*
X69484742Y-64975263D01*
X69449302Y-65140417D01*
X69407991Y-65335466D01*
X69361253Y-65558215D01*
X69309534Y-65806466D01*
X69253277Y-66078022D01*
X69192928Y-66370688D01*
X69128933Y-66682266D01*
X69061735Y-67010557D01*
X68991779Y-67353369D01*
X68919513Y-67708502D01*
X68845377Y-68073760D01*
X68769819Y-68446945D01*
X68693283Y-68825863D01*
X68616214Y-69208317D01*
X68539057Y-69592108D01*
X68462258Y-69975040D01*
X68386261Y-70354917D01*
X68311510Y-70729541D01*
X68238451Y-71096717D01*
X68167529Y-71454247D01*
X68099189Y-71799935D01*
X68033874Y-72131583D01*
X67972030Y-72446996D01*
X67914103Y-72743976D01*
X67860537Y-73020328D01*
X67811777Y-73273852D01*
X67778739Y-73447123D01*
X67733476Y-73686648D01*
X67688468Y-73926915D01*
X67644390Y-74164193D01*
X67601905Y-74394757D01*
X67561689Y-74614885D01*
X67524409Y-74820854D01*
X67490736Y-75008936D01*
X67461340Y-75175407D01*
X67436891Y-75316543D01*
X67418058Y-75428618D01*
X67405513Y-75507908D01*
X67399924Y-75550688D01*
X67399705Y-75554398D01*
X66421010Y-75554398D01*
X66427122Y-75529757D01*
X66465243Y-75376822D01*
X66495403Y-75256292D01*
X66607347Y-74805583D01*
X66713261Y-74370391D01*
X66813903Y-73946913D01*
X66910032Y-73531338D01*
X67002411Y-73119862D01*
X67091798Y-72708680D01*
X67178957Y-72293986D01*
X67264643Y-71871971D01*
X67349620Y-71438836D01*
X67434649Y-70990768D01*
X67520488Y-70523965D01*
X67607897Y-70034620D01*
X67697639Y-69518927D01*
X67790474Y-68973082D01*
X67887160Y-68393275D01*
X67981938Y-67815734D01*
X67997625Y-67719055D01*
X68018544Y-67589470D01*
X68044154Y-67430363D01*
X68073914Y-67245123D01*
X68107279Y-67037130D01*
X68143714Y-66809778D01*
X68182677Y-66566454D01*
X68223625Y-66310540D01*
X68266019Y-66045427D01*
X68309319Y-65774501D01*
X68352984Y-65501148D01*
X68396470Y-65228753D01*
X68434932Y-64987710D01*
X68439241Y-64960710D01*
X68480752Y-64700395D01*
X68520467Y-64451203D01*
X68532768Y-64373962D01*
X70700657Y-64373962D01*
X70715335Y-64390546D01*
X70756494Y-64431500D01*
X70820034Y-64492882D01*
X70901850Y-64570758D01*
X70997837Y-64661193D01*
X71082282Y-64740128D01*
X71161891Y-64814339D01*
X71268424Y-64913716D01*
X71398356Y-65034969D01*
X71548169Y-65174816D01*
X71714336Y-65329963D01*
X71893336Y-65497119D01*
X72081650Y-65672999D01*
X72275750Y-65854311D01*
X72472116Y-66037767D01*
X72606159Y-66163013D01*
X73137226Y-66659101D01*
X73658139Y-67145399D01*
X74168056Y-67621120D01*
X74666129Y-68085485D01*
X75151513Y-68537713D01*
X75623362Y-68977017D01*
X76080830Y-69402621D01*
X76523072Y-69813736D01*
X76949244Y-70209581D01*
X77358497Y-70589381D01*
X77749990Y-70952348D01*
X78122872Y-71297697D01*
X78476304Y-71624650D01*
X78809434Y-71932424D01*
X79121419Y-72220238D01*
X79411415Y-72487307D01*
X79678574Y-72732851D01*
X79922052Y-72956086D01*
X80141004Y-73156231D01*
X80334582Y-73332505D01*
X80501944Y-73484119D01*
X80642240Y-73610300D01*
X80754626Y-73710260D01*
X80838260Y-73783220D01*
X80889675Y-73826298D01*
X80974048Y-73894083D01*
X81230247Y-73761640D01*
X82049614Y-73319237D01*
X82845507Y-72851612D01*
X83615138Y-72360662D01*
X84355722Y-71848287D01*
X85064473Y-71316375D01*
X85738599Y-70766827D01*
X86109618Y-70443450D01*
X86225627Y-70339432D01*
X86329252Y-70245547D01*
X86425030Y-70157393D01*
X86517501Y-70070562D01*
X86611204Y-69980648D01*
X86710676Y-69883248D01*
X86820456Y-69773957D01*
X86945076Y-69648368D01*
X87089081Y-69502079D01*
X87257006Y-69330681D01*
X87276551Y-69310703D01*
X87495706Y-69086639D01*
X87464428Y-68820827D01*
X87392865Y-68334471D01*
X87290304Y-67824477D01*
X87157784Y-67293862D01*
X86996353Y-66745636D01*
X86807034Y-66182809D01*
X86590880Y-65608403D01*
X86348924Y-65025429D01*
X86082209Y-64436902D01*
X85791772Y-63845833D01*
X85663823Y-63599179D01*
X85556078Y-63398567D01*
X85442750Y-63194613D01*
X85326525Y-62991657D01*
X85210087Y-62794048D01*
X85096124Y-62606127D01*
X84987317Y-62432235D01*
X84886359Y-62276720D01*
X84795927Y-62143921D01*
X84718716Y-62038183D01*
X84657404Y-61963850D01*
X84643861Y-61949663D01*
X84637871Y-61946393D01*
X84626645Y-61944316D01*
X84608904Y-61943651D01*
X84583373Y-61944614D01*
X84548775Y-61947422D01*
X84503834Y-61952291D01*
X84447272Y-61959436D01*
X84377814Y-61969079D01*
X84294183Y-61981431D01*
X84195101Y-61996711D01*
X84079294Y-62015139D01*
X83945482Y-62036924D01*
X83792392Y-62062288D01*
X83618744Y-62091448D01*
X83423264Y-62124618D01*
X83204674Y-62162016D01*
X82961699Y-62203859D01*
X82693061Y-62250362D01*
X82397483Y-62301745D01*
X82073691Y-62358221D01*
X81720405Y-62420009D01*
X81336350Y-62487324D01*
X80920250Y-62560383D01*
X80470827Y-62639408D01*
X79986807Y-62724605D01*
X79466913Y-62816199D01*
X78909865Y-62914405D01*
X78314388Y-63019437D01*
X77679206Y-63131513D01*
X77652060Y-63136305D01*
X77120508Y-63230141D01*
X76599571Y-63322169D01*
X76090741Y-63412120D01*
X75595508Y-63499727D01*
X75115372Y-63584726D01*
X74651819Y-63666850D01*
X74206343Y-63745835D01*
X73780436Y-63821412D01*
X73375593Y-63893320D01*
X72993307Y-63961291D01*
X72635067Y-64025059D01*
X72302367Y-64084358D01*
X71996700Y-64138920D01*
X71719562Y-64188484D01*
X71472439Y-64232784D01*
X71256830Y-64271551D01*
X71074221Y-64304519D01*
X70926110Y-64331425D01*
X70813988Y-64352002D01*
X70739348Y-64365984D01*
X70703681Y-64373106D01*
X70700657Y-64373962D01*
X68532768Y-64373962D01*
X68557841Y-64216518D01*
X68592335Y-63999729D01*
X68623410Y-63804220D01*
X68650522Y-63633379D01*
X68673132Y-63490594D01*
X68674623Y-63481142D01*
X69935288Y-63481142D01*
X69936689Y-63485953D01*
X69940711Y-63487158D01*
X69946286Y-63486669D01*
X69949736Y-63486369D01*
X69974789Y-63482345D01*
X70038089Y-63471044D01*
X70136946Y-63452971D01*
X70268668Y-63428627D01*
X70430563Y-63398517D01*
X70619939Y-63363145D01*
X70834104Y-63323013D01*
X71070366Y-63278625D01*
X71326034Y-63230488D01*
X71598413Y-63179101D01*
X71884815Y-63124970D01*
X72182547Y-63068599D01*
X72203686Y-63064594D01*
X72547792Y-62999390D01*
X72912279Y-62930343D01*
X73291032Y-62858611D01*
X73677929Y-62785352D01*
X74066854Y-62711726D01*
X74451689Y-62638889D01*
X74826314Y-62567997D01*
X75184611Y-62500213D01*
X75520462Y-62436691D01*
X75827748Y-62378593D01*
X76100348Y-62327072D01*
X76106209Y-62325966D01*
X76867853Y-62182044D01*
X77588807Y-62045778D01*
X78269334Y-61917115D01*
X78909696Y-61796006D01*
X79510158Y-61682402D01*
X80070983Y-61576252D01*
X80592434Y-61477506D01*
X81074775Y-61386114D01*
X81518270Y-61302025D01*
X81923184Y-61225194D01*
X82289779Y-61155562D01*
X82618316Y-61093088D01*
X82909063Y-61037713D01*
X83162281Y-60989396D01*
X83378237Y-60948081D01*
X83557191Y-60913720D01*
X83699409Y-60886263D01*
X83805151Y-60865658D01*
X83874683Y-60851858D01*
X83908271Y-60844811D01*
X83911730Y-60843835D01*
X83899822Y-60826171D01*
X83866996Y-60781241D01*
X83817616Y-60714920D01*
X83756035Y-60633082D01*
X83721285Y-60587194D01*
X83579841Y-60403979D01*
X83417711Y-60199430D01*
X83242462Y-59982841D01*
X83061657Y-59763515D01*
X82882858Y-59550750D01*
X82789780Y-59441837D01*
X82705566Y-59347077D01*
X82595701Y-59228319D01*
X82464410Y-59089778D01*
X82315906Y-58935675D01*
X82154413Y-58770223D01*
X81984144Y-58597645D01*
X81809322Y-58422157D01*
X81634165Y-58247973D01*
X81462891Y-58079317D01*
X81299719Y-57920401D01*
X81148869Y-57775447D01*
X81014559Y-57648671D01*
X80901008Y-57544290D01*
X80822562Y-57475128D01*
X80147078Y-56920571D01*
X79463953Y-56405471D01*
X78770087Y-55927857D01*
X78062379Y-55485750D01*
X77337730Y-55077193D01*
X76593035Y-54700204D01*
X76092967Y-54469474D01*
X75906838Y-54387175D01*
X75755073Y-54321124D01*
X75634250Y-54269999D01*
X75540942Y-54232480D01*
X75471722Y-54207244D01*
X75423170Y-54192970D01*
X75391859Y-54188339D01*
X75374363Y-54192029D01*
X75374089Y-54192206D01*
X75354895Y-54215816D01*
X75315859Y-54273683D01*
X75258036Y-54364012D01*
X75182492Y-54485014D01*
X75090284Y-54634893D01*
X74982476Y-54811856D01*
X74860125Y-55014110D01*
X74724293Y-55239862D01*
X74576041Y-55487317D01*
X74416428Y-55754684D01*
X74246517Y-56040168D01*
X74067367Y-56341975D01*
X73880038Y-56658315D01*
X73685592Y-56987392D01*
X73485087Y-57327412D01*
X73279587Y-57676582D01*
X73070152Y-58033110D01*
X72857840Y-58395202D01*
X72643712Y-58761066D01*
X72428831Y-59128905D01*
X72214255Y-59496929D01*
X72001047Y-59863343D01*
X71790267Y-60226356D01*
X71582971Y-60584169D01*
X71380224Y-60934996D01*
X71183088Y-61277039D01*
X71139750Y-61352369D01*
X70954130Y-61675109D01*
X70788202Y-61963627D01*
X70640897Y-62219835D01*
X70511151Y-62445650D01*
X70397896Y-62642983D01*
X70300064Y-62813748D01*
X70216590Y-62959858D01*
X70146403Y-63083229D01*
X70088438Y-63185772D01*
X70041627Y-63269399D01*
X70004911Y-63336031D01*
X69977212Y-63387574D01*
X69957467Y-63425942D01*
X69944609Y-63453051D01*
X69937572Y-63470811D01*
X69935288Y-63481142D01*
X68674623Y-63481142D01*
X68690698Y-63379249D01*
X68702682Y-63302733D01*
X68708131Y-63267225D01*
X68719806Y-63245209D01*
X68751918Y-63191513D01*
X68802359Y-63109506D01*
X68869023Y-63002555D01*
X68949792Y-62874026D01*
X69042556Y-62727284D01*
X69145206Y-62565696D01*
X69255631Y-62392630D01*
X69298642Y-62325418D01*
X69651845Y-61772255D01*
X69983190Y-61249789D01*
X70294712Y-60754575D01*
X70588448Y-60283166D01*
X70866430Y-59832116D01*
X71130698Y-59397981D01*
X71383283Y-58977313D01*
X71626222Y-58566667D01*
X71861552Y-58162599D01*
X72091306Y-57761659D01*
X72317521Y-57360402D01*
X72542233Y-56955385D01*
X72767475Y-56543159D01*
X72995283Y-56120281D01*
X73227696Y-55683303D01*
X73276188Y-55591488D01*
X73351749Y-55447911D01*
X73434206Y-55290613D01*
X73521515Y-55123546D01*
X73611629Y-54950670D01*
X73702496Y-54775944D01*
X73792074Y-54603326D01*
X73878307Y-54436780D01*
X73959153Y-54280257D01*
X74032563Y-54137721D01*
X74096491Y-54013131D01*
X74148886Y-53910442D01*
X74187701Y-53833617D01*
X74210889Y-53786609D01*
X74216811Y-53773144D01*
X74199166Y-53762385D01*
X74150827Y-53736944D01*
X74078605Y-53700313D01*
X73989310Y-53655980D01*
X73961706Y-53642432D01*
X73531585Y-53411149D01*
X73103237Y-53140113D01*
X72678121Y-52831244D01*
X72257688Y-52486463D01*
X71843408Y-52107687D01*
X71436730Y-51696837D01*
X71039115Y-51255833D01*
X70652021Y-50786593D01*
X70276904Y-50291040D01*
X69915222Y-49771091D01*
X69568436Y-49228668D01*
X69238000Y-48665689D01*
X68925377Y-48084072D01*
X68632020Y-47485740D01*
X68359389Y-46872610D01*
X68108942Y-46246604D01*
X67898790Y-45659218D01*
X67846596Y-45503665D01*
X67806636Y-45381250D01*
X67777422Y-45285765D01*
X67757456Y-45210999D01*
X67745256Y-45150742D01*
X67739328Y-45098787D01*
X67738183Y-45048921D01*
X67740148Y-44998191D01*
X67759716Y-44853421D01*
X67800933Y-44689933D01*
X67859340Y-44521488D01*
X67930477Y-44361849D01*
X67970001Y-44288638D01*
X67999746Y-44241095D01*
X68038152Y-44186907D01*
X68086856Y-44124347D01*
X68147494Y-44051688D01*
X68221704Y-43967205D01*
X68311120Y-43869172D01*
X68417380Y-43755865D01*
X68542120Y-43625550D01*
X68686975Y-43476511D01*
X68853583Y-43307014D01*
X69043580Y-43115335D01*
X69258602Y-42899748D01*
X69500287Y-42658528D01*
X69762491Y-42397678D01*
X69975733Y-42185603D01*
X70160984Y-42000915D01*
X70319995Y-41841807D01*
X70454519Y-41706476D01*
X70566311Y-41593120D01*
X70657123Y-41499936D01*
X70728711Y-41425118D01*
X70782822Y-41366868D01*
X70821215Y-41323381D01*
X70845645Y-41292854D01*
X70857861Y-41273481D01*
X70859353Y-41269735D01*
X70877702Y-41147469D01*
X70862358Y-41002959D01*
X70813761Y-40837867D01*
X70732353Y-40653857D01*
X70662248Y-40525234D01*
X70615638Y-40443578D01*
X70576748Y-40372564D01*
X70550670Y-40321637D01*
X70542910Y-40303513D01*
X70545810Y-40253330D01*
X70573359Y-40189077D01*
X70617505Y-40122505D01*
X70670200Y-40065375D01*
X70723391Y-40029445D01*
X70732964Y-40025961D01*
X70749103Y-40023352D01*
X70765697Y-40029087D01*
G37*
G36*
X62822929Y-46531815D02*
G01*
X63077301Y-46563055D01*
X63334985Y-46635823D01*
X63595953Y-46750108D01*
X63860178Y-46905898D01*
X63987421Y-46994878D01*
X64083062Y-47070985D01*
X64197330Y-47171192D01*
X64322167Y-47287583D01*
X64449516Y-47412249D01*
X64571322Y-47537275D01*
X64679526Y-47654749D01*
X64766075Y-47756756D01*
X64776149Y-47769538D01*
X65019004Y-48102802D01*
X65241765Y-48451663D01*
X65439081Y-48806880D01*
X65605608Y-49159215D01*
X65666450Y-49307621D01*
X65700492Y-49394741D01*
X65729647Y-49469072D01*
X65750097Y-49520899D01*
X65757088Y-49538341D01*
X65774430Y-49533441D01*
X65815660Y-49501551D01*
X65876882Y-49446747D01*
X65954202Y-49373100D01*
X66043718Y-49284682D01*
X66141542Y-49185567D01*
X66243775Y-49079825D01*
X66346522Y-48971531D01*
X66445883Y-48864755D01*
X66537967Y-48763574D01*
X66618879Y-48672052D01*
X66684721Y-48594271D01*
X66731595Y-48534296D01*
X66755610Y-48496206D01*
X66756756Y-48493331D01*
X66772552Y-48396493D01*
X66762417Y-48271718D01*
X66727260Y-48122946D01*
X66667996Y-47954117D01*
X66592624Y-47783760D01*
X66529164Y-47652259D01*
X66604555Y-47594429D01*
X66686669Y-47537313D01*
X66745549Y-47509300D01*
X66779252Y-47511209D01*
X66784808Y-47519282D01*
X66794997Y-47545182D01*
X66818452Y-47604289D01*
X66852987Y-47691112D01*
X66896415Y-47800159D01*
X66946550Y-47925933D01*
X66992322Y-48040682D01*
X67102890Y-48322340D01*
X67196127Y-48570359D01*
X67273134Y-48788480D01*
X67335007Y-48980444D01*
X67382844Y-49149989D01*
X67417743Y-49300859D01*
X67440805Y-49436792D01*
X67453123Y-49561528D01*
X67455549Y-49618691D01*
X67456474Y-49711184D01*
X67451937Y-49786236D01*
X67438374Y-49850930D01*
X67412230Y-49912350D01*
X67369945Y-49977580D01*
X67307958Y-50053702D01*
X67222714Y-50147802D01*
X67151652Y-50223541D01*
X66965767Y-50422630D01*
X66806930Y-50597775D01*
X66671757Y-50753495D01*
X66556852Y-50894312D01*
X66458832Y-51024744D01*
X66374306Y-51149312D01*
X66299883Y-51272535D01*
X66232180Y-51398934D01*
X66167802Y-51533026D01*
X66164662Y-51539902D01*
X66127004Y-51619596D01*
X66094666Y-51682697D01*
X66071952Y-51721094D01*
X66064338Y-51728962D01*
X66054510Y-51709926D01*
X66034530Y-51656491D01*
X66006260Y-51574160D01*
X65971559Y-51468438D01*
X65932285Y-51344831D01*
X65905701Y-51259177D01*
X65770586Y-50842347D01*
X65633248Y-50464137D01*
X65492294Y-50121501D01*
X65346318Y-49811393D01*
X65193926Y-49530770D01*
X65033720Y-49276582D01*
X64926416Y-49126337D01*
X64848569Y-49030474D01*
X64752701Y-48924466D01*
X64647006Y-48816300D01*
X64539664Y-48713962D01*
X64438863Y-48625434D01*
X64352787Y-48558700D01*
X64326844Y-48541464D01*
X64116536Y-48428779D01*
X63887001Y-48338380D01*
X63779774Y-48306470D01*
X63694688Y-48287236D01*
X63596486Y-48270284D01*
X63494349Y-48256543D01*
X63397465Y-48246943D01*
X63315022Y-48242412D01*
X63256202Y-48243884D01*
X63231214Y-48250945D01*
X63228042Y-48275798D01*
X63228550Y-48336134D01*
X63232439Y-48425950D01*
X63239412Y-48539248D01*
X63249170Y-48670022D01*
X63256392Y-48756183D01*
X63270109Y-48918271D01*
X63283770Y-49088457D01*
X63296481Y-49254990D01*
X63307352Y-49406130D01*
X63315494Y-49530130D01*
X63316844Y-49552858D01*
X63328998Y-49866642D01*
X63328665Y-50165192D01*
X63316246Y-50444448D01*
X63292153Y-50700356D01*
X63256791Y-50928855D01*
X63210565Y-51125889D01*
X63153880Y-51287400D01*
X63140201Y-51317442D01*
X63104467Y-51383727D01*
X63055554Y-51459626D01*
X62991695Y-51547145D01*
X62911129Y-51648284D01*
X62812091Y-51765046D01*
X62692819Y-51899435D01*
X62551550Y-52053452D01*
X62386521Y-52229103D01*
X62195967Y-52428389D01*
X61978128Y-52653310D01*
X61835453Y-52799497D01*
X61621323Y-53018679D01*
X61433881Y-53211250D01*
X61270406Y-53380117D01*
X61128172Y-53528191D01*
X61004458Y-53658379D01*
X60896538Y-53773594D01*
X60801686Y-53876741D01*
X60717181Y-53970731D01*
X60640298Y-54058472D01*
X60568313Y-54142873D01*
X60498501Y-54226846D01*
X60495952Y-54229950D01*
X60368744Y-54390278D01*
X60268506Y-54530851D01*
X60191279Y-54659839D01*
X60133097Y-54785418D01*
X60089999Y-54915755D01*
X60058022Y-55059023D01*
X60040408Y-55169445D01*
X60027266Y-55282836D01*
X60019993Y-55399623D01*
X60018769Y-55526523D01*
X60023775Y-55670256D01*
X60035196Y-55837540D01*
X60053208Y-56035096D01*
X60067553Y-56173725D01*
X60095668Y-56470886D01*
X60112193Y-56728784D01*
X60117153Y-56948182D01*
X60110570Y-57129841D01*
X60100918Y-57222305D01*
X60075937Y-57349679D01*
X60036379Y-57489280D01*
X59987269Y-57626612D01*
X59933632Y-57747179D01*
X59895828Y-57814227D01*
X59865782Y-57854326D01*
X59811926Y-57919533D01*
X59738895Y-58004502D01*
X59651332Y-58103896D01*
X59553873Y-58212369D01*
X59478143Y-58295307D01*
X59253672Y-58542675D01*
X59058196Y-58765489D01*
X58889522Y-58966841D01*
X58745459Y-59149814D01*
X58623813Y-59317499D01*
X58522392Y-59472982D01*
X58439002Y-59619354D01*
X58371454Y-59759699D01*
X58317547Y-59897108D01*
X58297364Y-59958151D01*
X58271775Y-60074278D01*
X58256248Y-60219809D01*
X58251000Y-60383660D01*
X58256251Y-60554743D01*
X58272218Y-60721968D01*
X58281131Y-60782139D01*
X58311239Y-60929751D01*
X58353587Y-61088365D01*
X58405241Y-61250444D01*
X58463268Y-61408454D01*
X58524730Y-61554856D01*
X58586689Y-61682115D01*
X58646213Y-61782693D01*
X58694617Y-61843520D01*
X58712258Y-61856309D01*
X58720171Y-61845061D01*
X58719353Y-61803852D01*
X58712198Y-61738130D01*
X58696015Y-61450283D01*
X58715710Y-61157613D01*
X58769674Y-60868651D01*
X58856304Y-60591922D01*
X58973988Y-60335957D01*
X58977743Y-60329122D01*
X58993525Y-60301425D01*
X59011240Y-60272661D01*
X59032178Y-60241429D01*
X59057633Y-60206332D01*
X59088897Y-60165972D01*
X59127261Y-60118952D01*
X59174017Y-60063870D01*
X59230459Y-59999329D01*
X59297878Y-59923933D01*
X59377565Y-59836284D01*
X59470818Y-59734982D01*
X59578923Y-59618627D01*
X59703175Y-59485823D01*
X59844865Y-59335173D01*
X60005286Y-59165276D01*
X60185730Y-58974734D01*
X60387489Y-58762150D01*
X60611856Y-58526126D01*
X60860123Y-58265262D01*
X61133581Y-57978158D01*
X61433525Y-57663423D01*
X61688071Y-57396402D01*
X61847726Y-57228443D01*
X61980678Y-57087338D01*
X62089431Y-56970214D01*
X62176489Y-56874201D01*
X62244356Y-56796423D01*
X62295538Y-56734017D01*
X62332538Y-56684101D01*
X62357860Y-56643809D01*
X62374008Y-56610266D01*
X62374381Y-56609329D01*
X62389333Y-56553923D01*
X62404091Y-56469315D01*
X62416759Y-56367950D01*
X62424168Y-56282383D01*
X62433902Y-56167041D01*
X62445720Y-56086187D01*
X62461126Y-56032634D01*
X62481639Y-55999204D01*
X62484373Y-55996342D01*
X62515780Y-55973221D01*
X62543117Y-55974061D01*
X62568080Y-56002159D01*
X62592360Y-56060813D01*
X62617652Y-56153318D01*
X62645649Y-56282972D01*
X62654378Y-56327288D01*
X62697330Y-56565785D01*
X62727588Y-56777095D01*
X62746335Y-56973326D01*
X62754750Y-57166591D01*
X62754374Y-57352622D01*
X62749264Y-57492821D01*
X62739157Y-57604740D01*
X62722114Y-57701677D01*
X62696195Y-57796911D01*
X62684252Y-57833535D01*
X62620091Y-58023737D01*
X62304535Y-58361474D01*
X62088429Y-58593153D01*
X61867614Y-58830605D01*
X61644015Y-59071719D01*
X61419554Y-59314391D01*
X61196152Y-59556510D01*
X60975731Y-59795976D01*
X60760212Y-60030673D01*
X60551520Y-60258500D01*
X60351575Y-60477346D01*
X60162300Y-60685102D01*
X59985617Y-60879665D01*
X59823447Y-61058927D01*
X59677713Y-61220779D01*
X59550337Y-61363114D01*
X59443240Y-61483826D01*
X59358348Y-61580805D01*
X59297578Y-61651947D01*
X59262854Y-61695144D01*
X59258944Y-61700624D01*
X59173165Y-61858314D01*
X59105512Y-62052049D01*
X59056361Y-62280168D01*
X59026089Y-62541011D01*
X59015726Y-62771607D01*
X59011160Y-63035139D01*
X58913151Y-63133147D01*
X58862641Y-63181459D01*
X58824540Y-63213795D01*
X58807134Y-63223143D01*
X58789404Y-63193850D01*
X58759430Y-63131479D01*
X58719687Y-63041942D01*
X58672639Y-62931149D01*
X58620765Y-62805014D01*
X58566529Y-62669448D01*
X58512406Y-62530364D01*
X58464398Y-62403196D01*
X58362684Y-62123255D01*
X58260687Y-61831310D01*
X58159725Y-61531805D01*
X58061108Y-61229173D01*
X57966158Y-60927860D01*
X57876185Y-60632296D01*
X57792503Y-60346925D01*
X57716432Y-60076184D01*
X57649277Y-59824508D01*
X57592361Y-59596340D01*
X57546997Y-59396117D01*
X57514500Y-59228278D01*
X57503853Y-59160505D01*
X57489849Y-58913562D01*
X57516902Y-58663884D01*
X57584595Y-58412783D01*
X57692506Y-58161569D01*
X57840215Y-57911558D01*
X57952385Y-57756714D01*
X58000481Y-57699585D01*
X58075177Y-57617239D01*
X58173000Y-57513307D01*
X58290480Y-57391423D01*
X58424146Y-57255226D01*
X58570529Y-57108342D01*
X58595902Y-57083094D01*
X58771578Y-56907561D01*
X58919419Y-56757536D01*
X59041992Y-56630026D01*
X59141862Y-56522028D01*
X59221596Y-56430548D01*
X59283759Y-56352587D01*
X59330914Y-56285153D01*
X59365632Y-56225247D01*
X59390475Y-56169871D01*
X59399474Y-56144544D01*
X59443851Y-55989753D01*
X59481827Y-55814365D01*
X59513599Y-55615816D01*
X59539369Y-55391540D01*
X59559329Y-55138971D01*
X59573681Y-54855546D01*
X59582625Y-54538699D01*
X59586357Y-54185869D01*
X59585075Y-53794483D01*
X59584638Y-53749228D01*
X59576551Y-52956941D01*
X60533487Y-51983748D01*
X60766010Y-51746960D01*
X60971215Y-51537175D01*
X61151281Y-51351943D01*
X61308379Y-51188821D01*
X61444685Y-51045366D01*
X61562373Y-50919134D01*
X61663620Y-50807678D01*
X61750599Y-50708556D01*
X61825486Y-50619321D01*
X61890453Y-50537532D01*
X61947680Y-50460743D01*
X61999339Y-50386509D01*
X62047604Y-50312386D01*
X62094652Y-50235931D01*
X62107076Y-50215163D01*
X62175651Y-50095893D01*
X62245926Y-49966702D01*
X62310432Y-49841748D01*
X62361699Y-49735182D01*
X62369490Y-49717810D01*
X62521979Y-49322888D01*
X62641152Y-48906391D01*
X62726492Y-48472450D01*
X62777488Y-48025194D01*
X62793627Y-47568752D01*
X62774390Y-47107254D01*
X62737090Y-46764994D01*
X62704232Y-46526896D01*
X62822929Y-46531815D01*
G37*
G36*
X52518010Y-52450272D02*
G01*
X52786437Y-52526408D01*
X53055402Y-52642275D01*
X53102876Y-52666887D01*
X53174414Y-52706356D01*
X53234404Y-52744035D01*
X53291486Y-52786768D01*
X53354306Y-52841396D01*
X53431506Y-52914758D01*
X53495220Y-52977443D01*
X53596708Y-53080144D01*
X53673496Y-53163506D01*
X53732357Y-53235508D01*
X53780068Y-53304123D01*
X53799690Y-53335996D01*
X53931200Y-53586130D01*
X54040175Y-53857771D01*
X54127265Y-54153766D01*
X54193103Y-54476951D01*
X54238336Y-54830179D01*
X54263605Y-55216286D01*
X54268819Y-55413153D01*
X54266470Y-55747408D01*
X54248313Y-56072921D01*
X54213145Y-56400298D01*
X54159762Y-56740138D01*
X54086969Y-57103047D01*
X54067743Y-57189180D01*
X54004684Y-57467000D01*
X54065392Y-57765139D01*
X54102267Y-57937957D01*
X54144402Y-58119030D01*
X54193119Y-58313266D01*
X54249739Y-58525571D01*
X54315583Y-58760859D01*
X54391972Y-59024032D01*
X54480229Y-59320001D01*
X54513304Y-59429401D01*
X54563964Y-59597663D01*
X54611765Y-59758680D01*
X54655058Y-59906732D01*
X54692191Y-60036093D01*
X54721518Y-60141042D01*
X54741393Y-60215856D01*
X54748763Y-60247059D01*
X54763374Y-60354909D01*
X54765083Y-60478008D01*
X54753274Y-60619960D01*
X54727340Y-60784368D01*
X54686676Y-60974832D01*
X54630668Y-61194956D01*
X54558714Y-61448341D01*
X54529047Y-61547536D01*
X54486540Y-61691228D01*
X54445865Y-61834490D01*
X54409533Y-61968072D01*
X54380041Y-62082712D01*
X54359894Y-62169159D01*
X54356613Y-62185270D01*
X54326038Y-62412626D01*
X54322654Y-62633517D01*
X54346151Y-62838624D01*
X54382439Y-62980121D01*
X54412087Y-63063478D01*
X54440363Y-63133153D01*
X54462780Y-63178457D01*
X54469668Y-63187952D01*
X54506974Y-63198587D01*
X54580415Y-63194018D01*
X54687545Y-63174808D01*
X54825927Y-63141514D01*
X54993117Y-63094703D01*
X55186670Y-63034930D01*
X55308235Y-62995151D01*
X55390322Y-62968069D01*
X55456449Y-62946774D01*
X55497435Y-62934198D01*
X55505991Y-62932052D01*
X55518585Y-62950878D01*
X55539578Y-63004095D01*
X55567284Y-63085658D01*
X55600012Y-63189523D01*
X55636075Y-63309649D01*
X55673783Y-63439990D01*
X55711448Y-63574504D01*
X55747382Y-63707147D01*
X55779895Y-63831874D01*
X55807299Y-63942643D01*
X55827905Y-64033412D01*
X55840025Y-64098132D01*
X55841974Y-64130764D01*
X55841370Y-64132372D01*
X55817780Y-64142245D01*
X55761092Y-64155550D01*
X55679566Y-64170610D01*
X55581462Y-64185749D01*
X55571937Y-64187081D01*
X55125996Y-64255903D01*
X54710930Y-64335461D01*
X54316686Y-64428625D01*
X53933217Y-64538278D01*
X53550465Y-64667283D01*
X53158383Y-64818523D01*
X52746918Y-64994869D01*
X52746616Y-64995003D01*
X52639164Y-65042444D01*
X52544189Y-65083210D01*
X52468525Y-65114460D01*
X52419006Y-65133353D01*
X52403332Y-65137711D01*
X52382327Y-65118254D01*
X52350681Y-65061942D01*
X52309659Y-64971853D01*
X52260529Y-64851064D01*
X52204559Y-64702657D01*
X52143010Y-64529708D01*
X52093256Y-64383663D01*
X51963923Y-63997313D01*
X52083058Y-63888143D01*
X52146262Y-63827544D01*
X52180593Y-63787030D01*
X52190203Y-63761279D01*
X52187971Y-63753763D01*
X52170347Y-63728764D01*
X52132047Y-63677974D01*
X52078308Y-63608238D01*
X52014372Y-63526401D01*
X51998391Y-63506096D01*
X51877163Y-63347405D01*
X51779716Y-63206530D01*
X51700525Y-63072669D01*
X51691231Y-63053421D01*
X51634056Y-62935013D01*
X51574784Y-62782756D01*
X51517180Y-62605100D01*
X51489731Y-62511909D01*
X51452109Y-62388603D01*
X51408426Y-62256821D01*
X51364569Y-62133798D01*
X51332218Y-62050603D01*
X51263386Y-61879835D01*
X51263304Y-61879616D01*
X51569615Y-61879616D01*
X51588080Y-62055005D01*
X51623612Y-62185584D01*
X51691428Y-62346818D01*
X51784164Y-62500003D01*
X51907387Y-62653536D01*
X51996807Y-62747844D01*
X52215860Y-62941520D01*
X52454927Y-63105092D01*
X52709161Y-63236701D01*
X52973720Y-63334480D01*
X53243762Y-63396575D01*
X53514443Y-63421123D01*
X53726909Y-63412607D01*
X53816574Y-63399232D01*
X53916625Y-63377553D01*
X54016461Y-63350666D01*
X54105485Y-63321664D01*
X54173095Y-63293643D01*
X54206033Y-63272695D01*
X54214508Y-63239688D01*
X54210228Y-63177595D01*
X54196407Y-63107205D01*
X54105072Y-62804038D01*
X53983583Y-62513569D01*
X53835026Y-62240029D01*
X53662475Y-61987647D01*
X53469010Y-61760653D01*
X53257712Y-61563281D01*
X53031659Y-61399756D01*
X52898514Y-61323895D01*
X52688815Y-61233003D01*
X52489476Y-61182245D01*
X52299603Y-61171629D01*
X52118294Y-61201164D01*
X51944653Y-61270858D01*
X51840219Y-61334402D01*
X51722877Y-61439468D01*
X51638003Y-61567955D01*
X51586584Y-61715968D01*
X51569615Y-61879616D01*
X51263304Y-61879616D01*
X51210064Y-61737764D01*
X51169338Y-61615712D01*
X51138296Y-61504995D01*
X51115627Y-61404895D01*
X51079983Y-61150812D01*
X51076752Y-60905292D01*
X51105612Y-60674713D01*
X51161679Y-60477394D01*
X51198152Y-60390046D01*
X51237232Y-60324350D01*
X51291276Y-60261435D01*
X51325156Y-60227655D01*
X51488860Y-60091712D01*
X51659761Y-59995825D01*
X51841229Y-59938553D01*
X52036625Y-59918461D01*
X52047973Y-59918405D01*
X52239754Y-59934902D01*
X52430969Y-59985405D01*
X52625268Y-60071432D01*
X52826312Y-60194508D01*
X52971347Y-60302196D01*
X53075947Y-60392159D01*
X53194096Y-60505398D01*
X53315433Y-60631053D01*
X53429602Y-60758264D01*
X53526245Y-60876172D01*
X53553716Y-60912825D01*
X53595561Y-60967655D01*
X53619825Y-60989312D01*
X53631659Y-60979552D01*
X53636162Y-60941005D01*
X53642785Y-60909774D01*
X53660346Y-60844371D01*
X53687222Y-60750360D01*
X53721790Y-60633301D01*
X53762429Y-60498760D01*
X53807515Y-60352301D01*
X53813008Y-60334638D01*
X53904003Y-60031976D01*
X53977238Y-59764490D01*
X54032910Y-59529753D01*
X54071224Y-59325337D01*
X54092374Y-59148815D01*
X54096566Y-58997761D01*
X54083997Y-58869744D01*
X54054864Y-58762340D01*
X54009374Y-58673120D01*
X53955362Y-58607114D01*
X53917970Y-58573169D01*
X53879133Y-58548981D01*
X53828464Y-58530604D01*
X53755569Y-58514108D01*
X53669747Y-58498851D01*
X53278633Y-58446584D01*
X52854863Y-58415883D01*
X52401429Y-58406733D01*
X51921329Y-58419117D01*
X51417552Y-58453024D01*
X50893095Y-58508436D01*
X50858401Y-58512780D01*
X50442324Y-58565324D01*
X50431749Y-58501845D01*
X50428444Y-58464799D01*
X50424429Y-58392142D01*
X50419944Y-58289930D01*
X50415232Y-58164214D01*
X50410539Y-58021045D01*
X50406105Y-57866476D01*
X50405762Y-57853551D01*
X50390349Y-57268737D01*
X50478482Y-57276670D01*
X50591389Y-57276283D01*
X50683626Y-57254802D01*
X50741943Y-57218643D01*
X50758932Y-57195409D01*
X50762964Y-57165333D01*
X50752811Y-57119025D01*
X50727239Y-57047102D01*
X50715504Y-57016900D01*
X50658238Y-56859437D01*
X50646594Y-56827422D01*
X50593152Y-56645814D01*
X50553382Y-56462132D01*
X50525478Y-56266428D01*
X50507645Y-56048767D01*
X50498525Y-55818145D01*
X50493160Y-55690822D01*
X50483069Y-55534977D01*
X50469286Y-55363361D01*
X50452844Y-55188719D01*
X50439462Y-55066573D01*
X50723901Y-55066573D01*
X50741309Y-55294358D01*
X50800158Y-55525971D01*
X50900463Y-55761464D01*
X51042234Y-56000890D01*
X51051932Y-56015197D01*
X51141206Y-56131219D01*
X51257366Y-56260307D01*
X51391516Y-56394176D01*
X51534752Y-56524543D01*
X51678176Y-56643123D01*
X51812885Y-56741636D01*
X51875125Y-56781337D01*
X52109159Y-56914221D01*
X52318985Y-57017015D01*
X52508435Y-57090443D01*
X52681344Y-57135236D01*
X52841549Y-57152126D01*
X52992881Y-57141843D01*
X53139177Y-57105118D01*
X53274150Y-57047835D01*
X53383790Y-56977181D01*
X53498653Y-56876330D01*
X53610395Y-56754488D01*
X53710668Y-56620865D01*
X53791127Y-56484660D01*
X53798681Y-56469346D01*
X53883489Y-56260913D01*
X53940435Y-56048444D01*
X53969125Y-55838394D01*
X53969159Y-55637222D01*
X53940143Y-55451383D01*
X53881678Y-55287337D01*
X53872520Y-55269145D01*
X53839165Y-55202598D01*
X53798476Y-55117800D01*
X53764310Y-55044111D01*
X53670164Y-54866752D01*
X53548677Y-54683507D01*
X53408133Y-54504459D01*
X53256813Y-54339689D01*
X53102995Y-54199278D01*
X53015663Y-54132803D01*
X52787952Y-53996042D01*
X52551682Y-53897174D01*
X52310390Y-53837212D01*
X52067614Y-53817173D01*
X51937350Y-53823287D01*
X51699814Y-53864099D01*
X51481268Y-53938938D01*
X51284573Y-54045352D01*
X51112591Y-54180890D01*
X50968186Y-54343098D01*
X50854218Y-54529522D01*
X50773552Y-54737711D01*
X50747918Y-54842563D01*
X50723901Y-55066573D01*
X50439462Y-55066573D01*
X50434777Y-55023807D01*
X50432669Y-55006245D01*
X50405562Y-54755909D01*
X50389854Y-54537982D01*
X50385927Y-54344683D01*
X50394174Y-54168224D01*
X50414982Y-54000827D01*
X50448738Y-53834700D01*
X50495834Y-53662066D01*
X50500544Y-53646579D01*
X50574404Y-53439894D01*
X50662973Y-53261710D01*
X50773686Y-53099493D01*
X50913982Y-52940711D01*
X50927407Y-52927074D01*
X51042796Y-52816314D01*
X51148115Y-52729889D01*
X51257054Y-52658487D01*
X51383297Y-52592787D01*
X51487721Y-52545893D01*
X51734974Y-52461678D01*
X51990376Y-52417764D01*
X52252021Y-52414011D01*
X52518010Y-52450272D01*
G37*
G36*
X92113955Y-59458474D02*
G01*
X92338190Y-59530837D01*
X92544389Y-59637528D01*
X92550343Y-59641328D01*
X92639928Y-59706385D01*
X92743948Y-59794051D01*
X92854609Y-59896500D01*
X92964110Y-60005911D01*
X93064652Y-60114459D01*
X93148437Y-60214321D01*
X93207669Y-60297672D01*
X93212301Y-60305413D01*
X93304108Y-60491829D01*
X93374123Y-60701084D01*
X93422991Y-60936503D01*
X93451349Y-61201419D01*
X93459834Y-61499151D01*
X93458772Y-61587103D01*
X93457026Y-61704213D01*
X93456666Y-61804465D01*
X93457623Y-61881465D01*
X93459821Y-61928828D01*
X93462731Y-61940909D01*
X93475518Y-61913484D01*
X93497691Y-61848919D01*
X93528308Y-61750447D01*
X93566425Y-61621303D01*
X93611098Y-61464718D01*
X93661385Y-61283923D01*
X93716342Y-61082159D01*
X93750618Y-60954423D01*
X93789299Y-60811282D01*
X93825065Y-60682307D01*
X93856397Y-60572697D01*
X93881780Y-60487657D01*
X93899696Y-60432390D01*
X93908626Y-60412101D01*
X93908726Y-60412086D01*
X93934273Y-60425876D01*
X93979794Y-60461859D01*
X94036620Y-60511960D01*
X94096085Y-60568102D01*
X94149521Y-60622206D01*
X94188258Y-60666196D01*
X94200752Y-60684214D01*
X94208276Y-60702985D01*
X94210852Y-60727183D01*
X94207219Y-60761262D01*
X94196109Y-60809679D01*
X94176255Y-60876891D01*
X94146396Y-60967352D01*
X94105263Y-61085520D01*
X94051591Y-61235851D01*
X94016265Y-61333868D01*
X93951750Y-61514015D01*
X93878277Y-61721684D01*
X93800040Y-61944871D01*
X93721231Y-62171552D01*
X93646044Y-62389714D01*
X93578674Y-62587341D01*
X93576201Y-62594648D01*
X93521501Y-62754414D01*
X93469556Y-62902467D01*
X93422177Y-63033922D01*
X93381173Y-63143898D01*
X93348355Y-63227513D01*
X93325533Y-63279884D01*
X93316436Y-63295376D01*
X93268955Y-63321639D01*
X93230760Y-63327165D01*
X93180383Y-63316438D01*
X93145314Y-63286238D01*
X93122855Y-63230719D01*
X93110309Y-63144030D01*
X93105820Y-63056310D01*
X93080241Y-62734687D01*
X93023641Y-62420289D01*
X92937963Y-62119194D01*
X92825148Y-61837479D01*
X92687141Y-61581223D01*
X92587759Y-61435086D01*
X92500508Y-61328603D01*
X92396504Y-61218280D01*
X92284215Y-61111770D01*
X92172108Y-61016726D01*
X92068654Y-60940798D01*
X91990631Y-60895463D01*
X91757183Y-60804239D01*
X91516993Y-60747579D01*
X91276640Y-60726109D01*
X91042707Y-60740440D01*
X90834974Y-60786975D01*
X90778083Y-60805627D01*
X90733348Y-60824333D01*
X90692563Y-60848965D01*
X90647523Y-60885401D01*
X90590021Y-60939518D01*
X90511852Y-61017193D01*
X90507768Y-61021286D01*
X90426629Y-61103676D01*
X90369198Y-61165831D01*
X90329014Y-61216263D01*
X90299620Y-61263488D01*
X90274551Y-61316020D01*
X90262695Y-61344313D01*
X90199929Y-61519990D01*
X90160734Y-61688985D01*
X90141597Y-61869220D01*
X90138355Y-61979646D01*
X90153404Y-62262949D01*
X90203945Y-62543124D01*
X90291153Y-62824111D01*
X90416200Y-63109857D01*
X90544561Y-63345021D01*
X90649376Y-63514115D01*
X90754296Y-63664429D01*
X90863570Y-63799222D01*
X90981433Y-63921752D01*
X91112134Y-64035278D01*
X91259911Y-64143060D01*
X91429008Y-64248353D01*
X91623669Y-64354420D01*
X91848135Y-64464516D01*
X92106650Y-64581903D01*
X92218596Y-64630788D01*
X92348852Y-64687936D01*
X92465723Y-64740708D01*
X92563953Y-64786599D01*
X92638277Y-64823116D01*
X92683435Y-64847759D01*
X92694995Y-64856948D01*
X92691981Y-64894771D01*
X92674879Y-64965931D01*
X92645331Y-65065188D01*
X92604978Y-65187289D01*
X92555462Y-65326985D01*
X92508406Y-65453006D01*
X92459998Y-65578990D01*
X92423131Y-65671641D01*
X92394820Y-65736673D01*
X92372075Y-65779810D01*
X92351910Y-65806774D01*
X92331340Y-65823286D01*
X92309354Y-65834218D01*
X92272513Y-65844461D01*
X92228566Y-65843297D01*
X92170540Y-65828840D01*
X92091460Y-65799203D01*
X91984351Y-65752493D01*
X91950373Y-65737007D01*
X91887441Y-65709245D01*
X91791058Y-65668178D01*
X91666470Y-65615972D01*
X91518921Y-65554799D01*
X91353652Y-65486825D01*
X91175911Y-65414223D01*
X90990936Y-65339160D01*
X90897737Y-65301529D01*
X90573319Y-65169942D01*
X90284296Y-65050827D01*
X90026886Y-64942455D01*
X89797310Y-64843090D01*
X89591786Y-64751002D01*
X89406530Y-64664456D01*
X89237765Y-64581719D01*
X89081706Y-64501059D01*
X88934573Y-64420742D01*
X88792583Y-64339037D01*
X88775960Y-64329206D01*
X88620754Y-64225283D01*
X88496299Y-64112890D01*
X88396091Y-63983709D01*
X88313621Y-63829426D01*
X88245414Y-63650917D01*
X88188364Y-63421498D01*
X88159057Y-63166028D01*
X88156681Y-62888818D01*
X88180428Y-62594169D01*
X88229486Y-62286389D01*
X88303049Y-61969783D01*
X88400302Y-61648655D01*
X88520433Y-61327316D01*
X88662638Y-61010062D01*
X88787774Y-60769273D01*
X88931187Y-60524693D01*
X89076989Y-60308223D01*
X89234853Y-60106942D01*
X89414453Y-59907928D01*
X89491951Y-59828663D01*
X89586711Y-59733882D01*
X89657947Y-59664113D01*
X89711452Y-59614762D01*
X89753016Y-59581222D01*
X89788436Y-59558895D01*
X89823505Y-59543179D01*
X89864013Y-59529477D01*
X89871774Y-59527041D01*
X89954097Y-59507910D01*
X90015560Y-59506747D01*
X90049583Y-59523001D01*
X90053895Y-59542416D01*
X90032688Y-59667917D01*
X90004333Y-59805933D01*
X89970636Y-59950201D01*
X89933413Y-60094456D01*
X89894470Y-60232430D01*
X89855619Y-60357857D01*
X89818670Y-60464475D01*
X89785427Y-60546014D01*
X89757709Y-60596210D01*
X89746146Y-60607806D01*
X89702765Y-60618434D01*
X89636821Y-60618623D01*
X89592440Y-60613214D01*
X89516500Y-60604314D01*
X89447580Y-60603207D01*
X89420004Y-60606330D01*
X89341483Y-60640203D01*
X89252446Y-60708606D01*
X89156287Y-60806789D01*
X89056402Y-60930001D01*
X88956193Y-61073487D01*
X88859048Y-61232500D01*
X88768369Y-61402284D01*
X88687554Y-61578089D01*
X88640748Y-61696518D01*
X88581466Y-61883819D01*
X88537232Y-62078481D01*
X88508813Y-62272193D01*
X88496979Y-62456639D01*
X88502498Y-62623502D01*
X88526140Y-62764469D01*
X88538325Y-62804685D01*
X88612543Y-62955974D01*
X88724026Y-63093931D01*
X88869588Y-63215279D01*
X89025870Y-63306973D01*
X89104659Y-63341977D01*
X89201719Y-63379147D01*
X89309528Y-63416288D01*
X89420563Y-63451209D01*
X89527297Y-63481715D01*
X89622211Y-63505617D01*
X89697779Y-63520716D01*
X89746478Y-63524826D01*
X89759872Y-63520896D01*
X89763551Y-63493223D01*
X89757916Y-63436309D01*
X89744199Y-63361232D01*
X89739891Y-63341967D01*
X89693029Y-63051839D01*
X89681634Y-62740253D01*
X89705669Y-62407570D01*
X89765098Y-62054150D01*
X89859880Y-61680355D01*
X89940495Y-61426444D01*
X90001541Y-61253655D01*
X90069115Y-61072923D01*
X90140584Y-60890475D01*
X90213313Y-60712537D01*
X90284674Y-60545330D01*
X90352026Y-60395079D01*
X90412739Y-60268013D01*
X90464179Y-60170356D01*
X90489843Y-60127941D01*
X90638146Y-59938248D01*
X90815293Y-59772318D01*
X91015163Y-59633885D01*
X91231643Y-59526685D01*
X91458615Y-59454443D01*
X91643257Y-59424365D01*
X91879654Y-59422348D01*
X92113955Y-59458474D01*
G37*
G36*
X89124835Y-39505471D02*
G01*
X89163777Y-39548486D01*
X89221044Y-39614364D01*
X89292667Y-39698351D01*
X89374687Y-39795695D01*
X89463146Y-39901637D01*
X89554080Y-40011430D01*
X89643527Y-40120314D01*
X89727530Y-40223535D01*
X89802126Y-40316340D01*
X89863353Y-40393973D01*
X89888980Y-40427278D01*
X89941722Y-40496699D01*
X89838405Y-40611003D01*
X89777020Y-40681651D01*
X89741915Y-40734824D01*
X89735189Y-40777395D01*
X89758944Y-40816235D01*
X89815275Y-40858221D01*
X89906285Y-40910229D01*
X89934393Y-40925436D01*
X90090050Y-41019298D01*
X90251655Y-41137076D01*
X90422847Y-41281849D01*
X90607261Y-41456693D01*
X90808537Y-41664689D01*
X90810764Y-41667071D01*
X91085759Y-41974249D01*
X91323160Y-42266800D01*
X91522929Y-42544533D01*
X91685025Y-42807259D01*
X91809408Y-43054790D01*
X91896039Y-43286936D01*
X91944878Y-43503511D01*
X91955884Y-43704320D01*
X91929014Y-43889179D01*
X91864232Y-44057897D01*
X91761497Y-44210288D01*
X91620770Y-44346156D01*
X91442008Y-44465318D01*
X91408278Y-44483666D01*
X91220263Y-44569053D01*
X91039622Y-44620707D01*
X90855927Y-44641919D01*
X90668934Y-44636440D01*
X90483591Y-44604233D01*
X90295552Y-44543513D01*
X90100478Y-44452497D01*
X89894019Y-44329400D01*
X89671832Y-44172437D01*
X89623842Y-44135833D01*
X89540018Y-44071418D01*
X89462875Y-44012595D01*
X89401425Y-43966211D01*
X89366661Y-43940517D01*
X89309089Y-43899200D01*
X89304756Y-44106588D01*
X89302362Y-44185334D01*
X89297923Y-44297295D01*
X89291819Y-44434082D01*
X89284442Y-44587309D01*
X89276177Y-44748587D01*
X89269480Y-44872388D01*
X89259168Y-45083510D01*
X89251068Y-45301161D01*
X89245211Y-45519435D01*
X89241631Y-45732424D01*
X89240364Y-45934212D01*
X89241438Y-46118901D01*
X89244882Y-46280577D01*
X89250736Y-46413337D01*
X89259027Y-46511272D01*
X89260449Y-46522348D01*
X89276533Y-46602342D01*
X89304719Y-46706163D01*
X89340771Y-46819297D01*
X89373487Y-46909494D01*
X89430820Y-47067508D01*
X89466825Y-47190171D01*
X89481595Y-47277883D01*
X89475212Y-47331053D01*
X89468083Y-47341492D01*
X89438334Y-47345775D01*
X89411421Y-47327535D01*
X89392059Y-47303132D01*
X89351663Y-47248359D01*
X89292986Y-47167068D01*
X89218768Y-47063113D01*
X89131762Y-46940346D01*
X89034712Y-46802622D01*
X88930366Y-46653793D01*
X88893258Y-46600692D01*
X88784877Y-46445509D01*
X88681162Y-46297081D01*
X88585173Y-46159783D01*
X88499976Y-46037996D01*
X88428634Y-45936097D01*
X88374209Y-45858463D01*
X88339765Y-45809475D01*
X88334407Y-45801894D01*
X88295237Y-45742410D01*
X88272269Y-45691197D01*
X88261150Y-45632810D01*
X88257529Y-45551812D01*
X88257299Y-45528286D01*
X88258517Y-45458618D01*
X88262550Y-45355961D01*
X88268941Y-45228867D01*
X88277253Y-45085893D01*
X88287032Y-44935595D01*
X88291843Y-44867178D01*
X88312411Y-44550969D01*
X88325607Y-44270744D01*
X88331284Y-44021449D01*
X88329299Y-43798030D01*
X88319501Y-43595430D01*
X88301753Y-43408591D01*
X88275902Y-43232459D01*
X88241803Y-43061980D01*
X88239513Y-43051906D01*
X88162458Y-42781806D01*
X88097122Y-42627368D01*
X88062082Y-42544543D01*
X87937168Y-42337619D01*
X87822206Y-42195987D01*
X87723781Y-42089045D01*
X87593449Y-42150255D01*
X87448233Y-42224516D01*
X87284032Y-42318726D01*
X87113257Y-42425436D01*
X86948314Y-42537188D01*
X86943078Y-42540901D01*
X86867763Y-42593051D01*
X86803885Y-42634798D01*
X86759695Y-42660889D01*
X86744953Y-42667021D01*
X86727836Y-42650770D01*
X86691632Y-42604468D01*
X86639712Y-42533159D01*
X86575447Y-42441889D01*
X86502213Y-42335710D01*
X86423383Y-42219669D01*
X86342330Y-42098813D01*
X86262425Y-41978188D01*
X86227882Y-41925335D01*
X88015336Y-41925335D01*
X88021742Y-41964354D01*
X88037647Y-42007360D01*
X88100051Y-42128620D01*
X88196081Y-42262029D01*
X88320983Y-42403506D01*
X88470001Y-42548965D01*
X88638385Y-42694313D01*
X88821379Y-42835473D01*
X89014230Y-42968356D01*
X89212182Y-43088873D01*
X89410482Y-43192943D01*
X89425216Y-43199959D01*
X89621884Y-43282701D01*
X89821640Y-43347800D01*
X90016999Y-43393809D01*
X90200477Y-43419273D01*
X90364584Y-43422740D01*
X90488534Y-43406093D01*
X90653889Y-43346774D01*
X90798450Y-43253913D01*
X90917418Y-43131810D01*
X91005988Y-42984764D01*
X91032142Y-42919029D01*
X91070205Y-42745387D01*
X91069135Y-42564181D01*
X91029593Y-42380223D01*
X90952232Y-42198325D01*
X90927521Y-42154514D01*
X90799850Y-41975326D01*
X90646429Y-41827345D01*
X90504112Y-41729481D01*
X90270810Y-41613602D01*
X90018245Y-41528588D01*
X89752211Y-41474120D01*
X89478523Y-41449894D01*
X89202977Y-41455595D01*
X88931380Y-41490913D01*
X88669533Y-41555533D01*
X88423243Y-41649144D01*
X88198307Y-41771438D01*
X88074013Y-41860027D01*
X88031371Y-41896189D01*
X88015336Y-41925335D01*
X86227882Y-41925335D01*
X86187043Y-41862849D01*
X86119555Y-41757836D01*
X86063338Y-41668199D01*
X86021762Y-41598985D01*
X85998197Y-41555247D01*
X85994109Y-41543333D01*
X86011638Y-41529404D01*
X86059934Y-41500329D01*
X86132569Y-41459755D01*
X86223114Y-41411323D01*
X86273031Y-41385332D01*
X86623425Y-41195533D01*
X86993615Y-40978306D01*
X87376688Y-40738218D01*
X87765736Y-40479834D01*
X88153846Y-40207718D01*
X88534108Y-39926437D01*
X88830395Y-39695991D01*
X88919625Y-39625855D01*
X88998008Y-39565976D01*
X89059563Y-39520783D01*
X89098318Y-39494707D01*
X89108171Y-39490078D01*
X89124835Y-39505471D01*
G37*
G36*
X84158462Y-35837056D02*
G01*
X84475534Y-35896238D01*
X84799440Y-35993340D01*
X85127828Y-36127300D01*
X85458342Y-36297058D01*
X85788631Y-36501552D01*
X86116342Y-36739720D01*
X86380015Y-36958109D01*
X86503491Y-37070818D01*
X86631694Y-37196020D01*
X86758780Y-37327301D01*
X86878900Y-37458254D01*
X86986206Y-37582468D01*
X87074852Y-37693534D01*
X87138992Y-37785043D01*
X87148389Y-37800471D01*
X87232482Y-37972773D01*
X87285983Y-38148319D01*
X87308937Y-38321428D01*
X87301403Y-38486414D01*
X87263431Y-38637599D01*
X87195072Y-38769302D01*
X87138834Y-38837278D01*
X87059746Y-38903165D01*
X86968343Y-38949984D01*
X86861262Y-38977647D01*
X86735144Y-38986064D01*
X86586624Y-38975146D01*
X86412346Y-38944802D01*
X86208948Y-38894941D01*
X85973062Y-38825479D01*
X85906368Y-38804313D01*
X85748517Y-38754798D01*
X85628343Y-38719937D01*
X85544596Y-38699517D01*
X85496021Y-38693322D01*
X85481366Y-38701139D01*
X85499377Y-38722756D01*
X85519796Y-38738355D01*
X85563087Y-38769280D01*
X85628958Y-38816395D01*
X85706117Y-38871619D01*
X85742080Y-38897370D01*
X85807283Y-38943023D01*
X85899906Y-39006433D01*
X86012481Y-39082562D01*
X86137541Y-39166372D01*
X86267617Y-39252826D01*
X86331219Y-39294821D01*
X86449125Y-39372543D01*
X86554836Y-39442326D01*
X86643581Y-39501014D01*
X86710591Y-39545451D01*
X86751098Y-39572481D01*
X86761207Y-39579421D01*
X86754245Y-39596201D01*
X86719059Y-39620520D01*
X86666621Y-39645773D01*
X86627536Y-39659856D01*
X86557629Y-39674896D01*
X86470305Y-39685067D01*
X86416977Y-39687542D01*
X86358643Y-39687238D01*
X86314310Y-39681599D01*
X86273347Y-39665980D01*
X86225116Y-39635738D01*
X86158984Y-39586226D01*
X86125379Y-39560170D01*
X86035622Y-39492007D01*
X85915446Y-39403196D01*
X85768857Y-39296575D01*
X85599867Y-39174980D01*
X85412482Y-39041246D01*
X85210708Y-38898210D01*
X84998555Y-38748709D01*
X84780032Y-38595577D01*
X84559143Y-38441652D01*
X84339900Y-38289772D01*
X84126311Y-38142768D01*
X84007350Y-38061373D01*
X83850137Y-37953997D01*
X83703722Y-37853865D01*
X83571663Y-37763426D01*
X83457510Y-37685116D01*
X83364817Y-37621374D01*
X83297140Y-37574643D01*
X83258031Y-37547359D01*
X83249610Y-37541205D01*
X83229674Y-37547265D01*
X83195194Y-37580885D01*
X83152466Y-37633546D01*
X83107787Y-37696723D01*
X83067456Y-37761889D01*
X83037767Y-37820523D01*
X83031608Y-37836326D01*
X82994771Y-37995213D01*
X82984814Y-38176505D01*
X82999969Y-38372344D01*
X83038469Y-38574871D01*
X83098543Y-38776229D01*
X83178425Y-38968556D01*
X83276347Y-39143997D01*
X83348549Y-39244899D01*
X83464637Y-39363280D01*
X83619931Y-39476812D01*
X83812160Y-39584645D01*
X84039047Y-39685930D01*
X84298322Y-39779821D01*
X84587705Y-39865476D01*
X84904930Y-39942042D01*
X85247718Y-40008672D01*
X85510138Y-40050175D01*
X85622593Y-40068311D01*
X85698635Y-40084991D01*
X85736369Y-40099732D01*
X85738689Y-40108932D01*
X85698173Y-40137323D01*
X85626689Y-40175280D01*
X85531260Y-40220052D01*
X85418906Y-40268893D01*
X85296651Y-40319054D01*
X85171515Y-40367787D01*
X85050521Y-40412342D01*
X84940687Y-40449971D01*
X84849038Y-40477925D01*
X84782596Y-40493458D01*
X84752207Y-40495072D01*
X84716067Y-40481573D01*
X84650346Y-40451104D01*
X84561759Y-40407169D01*
X84457022Y-40353278D01*
X84342846Y-40292938D01*
X84225949Y-40229656D01*
X84113044Y-40166939D01*
X84010845Y-40108295D01*
X84003572Y-40104025D01*
X83659363Y-39890790D01*
X83333489Y-39667426D01*
X83028987Y-39436674D01*
X82748900Y-39201277D01*
X82496269Y-38963980D01*
X82274141Y-38727522D01*
X82172546Y-38602070D01*
X82085554Y-38494649D01*
X81933552Y-38268103D01*
X81897412Y-38205179D01*
X81811146Y-38011354D01*
X81759467Y-37802884D01*
X81740947Y-37573797D01*
X81740860Y-37550216D01*
X81755972Y-37312091D01*
X83406412Y-37312091D01*
X83408537Y-37328268D01*
X83424956Y-37349659D01*
X83460245Y-37379955D01*
X83518989Y-37422841D01*
X83605765Y-37482016D01*
X83671673Y-37525871D01*
X83788917Y-37601278D01*
X83916747Y-37679889D01*
X84041147Y-37753289D01*
X84148098Y-37813065D01*
X84166148Y-37822639D01*
X84354934Y-37913417D01*
X84553513Y-37994170D01*
X84755728Y-38063440D01*
X84955419Y-38119762D01*
X85146428Y-38161674D01*
X85322596Y-38187716D01*
X85477767Y-38196421D01*
X85605775Y-38186336D01*
X85652282Y-38175454D01*
X85828215Y-38106982D01*
X85982064Y-38015580D01*
X86108868Y-37905423D01*
X86203669Y-37780687D01*
X86254607Y-37668725D01*
X86281931Y-37522215D01*
X86269676Y-37379273D01*
X86219913Y-37242050D01*
X86134711Y-37112698D01*
X86016143Y-36993367D01*
X85866276Y-36886210D01*
X85687185Y-36793376D01*
X85480935Y-36717018D01*
X85291336Y-36667851D01*
X84997653Y-36622841D01*
X84714736Y-36615405D01*
X84444766Y-36645090D01*
X84189919Y-36711445D01*
X83952373Y-36814020D01*
X83734306Y-36952363D01*
X83669456Y-37003727D01*
X83590543Y-37075229D01*
X83517295Y-37151739D01*
X83457116Y-37224577D01*
X83417399Y-37285077D01*
X83406412Y-37312091D01*
X81755972Y-37312091D01*
X81756075Y-37310474D01*
X81801722Y-37095172D01*
X81879862Y-36898230D01*
X81992547Y-36713562D01*
X82048627Y-36640704D01*
X82249368Y-36427132D01*
X82477752Y-36242622D01*
X82729939Y-36088929D01*
X83002095Y-35967805D01*
X83290380Y-35881010D01*
X83590957Y-35830292D01*
X83850576Y-35816858D01*
X84158462Y-35837056D01*
G37*
G36*
X92842099Y-46075425D02*
G01*
X93009858Y-46156192D01*
X93112069Y-46223643D01*
X93249426Y-46342713D01*
X93387529Y-46500903D01*
X93525105Y-46695712D01*
X93660879Y-46924635D01*
X93793577Y-47185170D01*
X93921922Y-47474808D01*
X94044642Y-47791055D01*
X94160461Y-48131399D01*
X94268102Y-48493344D01*
X94268231Y-48493804D01*
X94340434Y-48778239D01*
X94394526Y-49043941D01*
X94430197Y-49287670D01*
X94447141Y-49506181D01*
X94445048Y-49696231D01*
X94423610Y-49854581D01*
X94404320Y-49924481D01*
X94381648Y-49986964D01*
X94358031Y-50037653D01*
X94327079Y-50085926D01*
X94282409Y-50141166D01*
X94217633Y-50212760D01*
X94182407Y-50250478D01*
X94102901Y-50333646D01*
X94043818Y-50390853D01*
X93998461Y-50427773D01*
X93960122Y-50450084D01*
X93935703Y-50459470D01*
X93884884Y-50471510D01*
X93852769Y-50471310D01*
X93850136Y-50469671D01*
X93840255Y-50447213D01*
X93819010Y-50390491D01*
X93788253Y-50304755D01*
X93749851Y-50195263D01*
X93705662Y-50067267D01*
X93657546Y-49926019D01*
X93656243Y-49922168D01*
X93607744Y-49780195D01*
X93562723Y-49650967D01*
X93523106Y-49539825D01*
X93490830Y-49452113D01*
X93467821Y-49393167D01*
X93456015Y-49368333D01*
X93455924Y-49368239D01*
X93453198Y-49346044D01*
X93472856Y-49333602D01*
X93587011Y-49283479D01*
X93672059Y-49238579D01*
X93738758Y-49191961D01*
X93797853Y-49136675D01*
X93826483Y-49105243D01*
X93921575Y-48974396D01*
X93980351Y-48837355D01*
X94003407Y-48689762D01*
X93991333Y-48527261D01*
X93944728Y-48345493D01*
X93934212Y-48314632D01*
X93852809Y-48116900D01*
X93760777Y-47957951D01*
X93657044Y-47836003D01*
X93634815Y-47815909D01*
X93517210Y-47732495D01*
X93382227Y-47666122D01*
X93240986Y-47620372D01*
X93104612Y-47598828D01*
X92984220Y-47605074D01*
X92981912Y-47605537D01*
X92871757Y-47647538D01*
X92771428Y-47721898D01*
X92691267Y-47819302D01*
X92649575Y-47904767D01*
X92624726Y-48003835D01*
X92613998Y-48121554D01*
X92617818Y-48260451D01*
X92636618Y-48423049D01*
X92670822Y-48611872D01*
X92720866Y-48829447D01*
X92787173Y-49078296D01*
X92870176Y-49360944D01*
X92929575Y-49552259D01*
X92977192Y-49704985D01*
X93012964Y-49825633D01*
X93038513Y-49921553D01*
X93055469Y-50000108D01*
X93065459Y-50068649D01*
X93070113Y-50134529D01*
X93071087Y-50191641D01*
X93059432Y-50376214D01*
X93022227Y-50537916D01*
X92956397Y-50688959D01*
X92937644Y-50722182D01*
X92821095Y-50881364D01*
X92677400Y-51010967D01*
X92510052Y-51109653D01*
X92322538Y-51176099D01*
X92118355Y-51208965D01*
X91900993Y-51206926D01*
X91732511Y-51181907D01*
X91581518Y-51143749D01*
X91460706Y-51095271D01*
X91358782Y-51030190D01*
X91264450Y-50942225D01*
X91228232Y-50901476D01*
X91120983Y-50762696D01*
X91006359Y-50590820D01*
X90887988Y-50392940D01*
X90769500Y-50176160D01*
X90654526Y-49947575D01*
X90546691Y-49714281D01*
X90449626Y-49483377D01*
X90366959Y-49261960D01*
X90325605Y-49136055D01*
X90242651Y-48838360D01*
X90178297Y-48544832D01*
X90132764Y-48259835D01*
X90106268Y-47987727D01*
X90099030Y-47732877D01*
X90111267Y-47499643D01*
X90143200Y-47292388D01*
X90195045Y-47115478D01*
X90221245Y-47054527D01*
X90261601Y-46980733D01*
X90310669Y-46916204D01*
X90379891Y-46846499D01*
X90402322Y-46825999D01*
X90472968Y-46765234D01*
X90529789Y-46726190D01*
X90587719Y-46700426D01*
X90661394Y-46679574D01*
X90729692Y-46664910D01*
X90779654Y-46658126D01*
X90800096Y-46660524D01*
X90810431Y-46686952D01*
X90832752Y-46745618D01*
X90864880Y-46830709D01*
X90904642Y-46936411D01*
X90949864Y-47056908D01*
X90998371Y-47186383D01*
X91047988Y-47319027D01*
X91096542Y-47449018D01*
X91141854Y-47570546D01*
X91181753Y-47677795D01*
X91214064Y-47764950D01*
X91236610Y-47826196D01*
X91247218Y-47855718D01*
X91247750Y-47857466D01*
X91230445Y-47869196D01*
X91183407Y-47890595D01*
X91116182Y-47917383D01*
X91103917Y-47921985D01*
X90963263Y-47980708D01*
X90851651Y-48043753D01*
X90756626Y-48119239D01*
X90681121Y-48197497D01*
X90598984Y-48309513D01*
X90550312Y-48425548D01*
X90531366Y-48557116D01*
X90533036Y-48653545D01*
X90559090Y-48811667D01*
X90615565Y-48983395D01*
X90698241Y-49159178D01*
X90802894Y-49329460D01*
X90873527Y-49423838D01*
X90936584Y-49494592D01*
X91001803Y-49547924D01*
X91087656Y-49598868D01*
X91090288Y-49600274D01*
X91220699Y-49658544D01*
X91365292Y-49704788D01*
X91506753Y-49734171D01*
X91598492Y-49742202D01*
X91746501Y-49726022D01*
X91878278Y-49674000D01*
X91991561Y-49589554D01*
X92084089Y-49476104D01*
X92153599Y-49337076D01*
X92197827Y-49175883D01*
X92214511Y-48995951D01*
X92204742Y-48825875D01*
X92192671Y-48749783D01*
X92171837Y-48641709D01*
X92144043Y-48509978D01*
X92111079Y-48362923D01*
X92074746Y-48208871D01*
X92049917Y-48107904D01*
X91991851Y-47872382D01*
X91944476Y-47671456D01*
X91906844Y-47499705D01*
X91878001Y-47351716D01*
X91857000Y-47222070D01*
X91842888Y-47105344D01*
X91834718Y-46996125D01*
X91831537Y-46888991D01*
X91831411Y-46861847D01*
X91839860Y-46676750D01*
X91867075Y-46524490D01*
X91915744Y-46399456D01*
X91988552Y-46296036D01*
X92088191Y-46208622D01*
X92168746Y-46157655D01*
X92343151Y-46076702D01*
X92511606Y-46035878D01*
X92676969Y-46035386D01*
X92842099Y-46075425D01*
G37*
G36*
X56414781Y-40182333D02*
G01*
X56530997Y-40231070D01*
X56649785Y-40320005D01*
X56755892Y-40441598D01*
X56844829Y-40587642D01*
X56912109Y-40749930D01*
X56953242Y-40920262D01*
X56963441Y-41021511D01*
X56964380Y-41144391D01*
X56954507Y-41264433D01*
X56932039Y-41392234D01*
X56895195Y-41538388D01*
X56852378Y-41681355D01*
X56827040Y-41761461D01*
X56808433Y-41822370D01*
X56798568Y-41862383D01*
X56799460Y-41879815D01*
X56813127Y-41872964D01*
X56841578Y-41840142D01*
X56886828Y-41779652D01*
X56950894Y-41689803D01*
X57035790Y-41568897D01*
X57107085Y-41467162D01*
X57187443Y-41353853D01*
X57267667Y-41242973D01*
X57341703Y-41142728D01*
X57403499Y-41061326D01*
X57443131Y-41011576D01*
X57547041Y-40886958D01*
X57571717Y-40932953D01*
X57595251Y-40986638D01*
X57621018Y-41060376D01*
X57645734Y-41142430D01*
X57666112Y-41221058D01*
X57678873Y-41284526D01*
X57680727Y-41321088D01*
X57680517Y-41321859D01*
X57667050Y-41349385D01*
X57636439Y-41398136D01*
X57587690Y-41469467D01*
X57519814Y-41564732D01*
X57431808Y-41685287D01*
X57322691Y-41832483D01*
X57191459Y-42007676D01*
X57037122Y-42212219D01*
X56858688Y-42447468D01*
X56745207Y-42596620D01*
X56516755Y-42897166D01*
X56307526Y-43173605D01*
X56118540Y-43424566D01*
X55950821Y-43648684D01*
X55805391Y-43844590D01*
X55683275Y-44010914D01*
X55585489Y-44146293D01*
X55557273Y-44186010D01*
X55474926Y-44302567D01*
X55537343Y-44364985D01*
X55595989Y-44409355D01*
X55683823Y-44452155D01*
X55784517Y-44489168D01*
X55877265Y-44517093D01*
X55964833Y-44535321D01*
X56060511Y-44545582D01*
X56177591Y-44549603D01*
X56250340Y-44549809D01*
X56484973Y-44538508D01*
X56688423Y-44505348D01*
X56866094Y-44448426D01*
X57023388Y-44365837D01*
X57165711Y-44255685D01*
X57212273Y-44210982D01*
X57359127Y-44038890D01*
X57489662Y-43834891D01*
X57604272Y-43597828D01*
X57703355Y-43326559D01*
X57787304Y-43019928D01*
X57856509Y-42676789D01*
X57911367Y-42295986D01*
X57931607Y-42110732D01*
X57958925Y-41836007D01*
X58013180Y-41890262D01*
X58054837Y-41946695D01*
X58104552Y-42039005D01*
X58160346Y-42162622D01*
X58220241Y-42312966D01*
X58282258Y-42485473D01*
X58321353Y-42602916D01*
X58412860Y-42886007D01*
X58358884Y-42983380D01*
X58294690Y-43096700D01*
X58226099Y-43212472D01*
X58150779Y-43334153D01*
X58066399Y-43465203D01*
X57970628Y-43609083D01*
X57861129Y-43769252D01*
X57735575Y-43949168D01*
X57591631Y-44152292D01*
X57426964Y-44382081D01*
X57259611Y-44613871D01*
X57186324Y-44716240D01*
X57115355Y-44817402D01*
X57053324Y-44907787D01*
X57006845Y-44977821D01*
X56994607Y-44997156D01*
X56895106Y-45131585D01*
X56767512Y-45263664D01*
X56624201Y-45381086D01*
X56573498Y-45415874D01*
X56355734Y-45535073D01*
X56119043Y-45624021D01*
X55870968Y-45681598D01*
X55619051Y-45706693D01*
X55370834Y-45698186D01*
X55133859Y-45654968D01*
X55074121Y-45637624D01*
X54936484Y-45590780D01*
X54820745Y-45541852D01*
X54717588Y-45484871D01*
X54617694Y-45413870D01*
X54511745Y-45322885D01*
X54390424Y-45205950D01*
X54373505Y-45189001D01*
X54275999Y-45089781D01*
X54227459Y-45038005D01*
X54202433Y-45011309D01*
X54146362Y-44945807D01*
X54101339Y-44885506D01*
X54060921Y-44822633D01*
X54039544Y-44786272D01*
X53902173Y-44523913D01*
X53801120Y-44276132D01*
X53735388Y-44038934D01*
X53703989Y-43808322D01*
X53705930Y-43580301D01*
X53716507Y-43483946D01*
X53751525Y-43291293D01*
X53803922Y-43099253D01*
X53875783Y-42903491D01*
X53969203Y-42699670D01*
X54005796Y-42632086D01*
X54613557Y-42632086D01*
X54626266Y-42866503D01*
X54657579Y-43104082D01*
X54675495Y-43198870D01*
X54728849Y-43413674D01*
X54795582Y-43596966D01*
X54880366Y-43758003D01*
X54987869Y-43906027D01*
X55088938Y-44016821D01*
X55168533Y-44096929D01*
X55225355Y-44149101D01*
X55266624Y-44174338D01*
X55299561Y-44173638D01*
X55331383Y-44147997D01*
X55369312Y-44098417D01*
X55396725Y-44059414D01*
X55456780Y-43970748D01*
X55522802Y-43868211D01*
X55579495Y-43775674D01*
X55714474Y-43528699D01*
X55832927Y-43274728D01*
X55932611Y-43020452D01*
X56011279Y-42772567D01*
X56066687Y-42537766D01*
X56096590Y-42322741D01*
X56101323Y-42219759D01*
X56088627Y-42015681D01*
X56049154Y-41835254D01*
X55985922Y-41680289D01*
X55901955Y-41552593D01*
X55800272Y-41453970D01*
X55683893Y-41386233D01*
X55555839Y-41351187D01*
X55419129Y-41350640D01*
X55276784Y-41386402D01*
X55131826Y-41460277D01*
X55001180Y-41561248D01*
X54873879Y-41691318D01*
X54778812Y-41824629D01*
X54707591Y-41973755D01*
X54686250Y-42033514D01*
X54643626Y-42207020D01*
X54619368Y-42409400D01*
X54613557Y-42632086D01*
X54005796Y-42632086D01*
X54086271Y-42483457D01*
X54229073Y-42250518D01*
X54399704Y-41996517D01*
X54506025Y-41846466D01*
X54589709Y-41730101D01*
X54689393Y-41591299D01*
X54796847Y-41441529D01*
X54903842Y-41292261D01*
X55002151Y-41154965D01*
X55004957Y-41151045D01*
X55124951Y-40984594D01*
X55225644Y-40848104D01*
X55310924Y-40736902D01*
X55384672Y-40646314D01*
X55450762Y-40571663D01*
X55513073Y-40508277D01*
X55575486Y-40451480D01*
X55608761Y-40423416D01*
X55773932Y-40305755D01*
X55941097Y-40221986D01*
X56106278Y-40172941D01*
X56265496Y-40159446D01*
X56414781Y-40182333D01*
G37*
G36*
X65276149Y-70332028D02*
G01*
X65325718Y-70367775D01*
X65397471Y-70421360D01*
X65486186Y-70488743D01*
X65586638Y-70565881D01*
X65693599Y-70648735D01*
X65801850Y-70733268D01*
X65906166Y-70815435D01*
X66001319Y-70891197D01*
X66082092Y-70956515D01*
X66122092Y-70989525D01*
X66180724Y-71040850D01*
X66210052Y-71073749D01*
X66214714Y-71093975D01*
X66210867Y-71099658D01*
X66178902Y-71136982D01*
X66126052Y-71205194D01*
X66054840Y-71300705D01*
X65967785Y-71419921D01*
X65867407Y-71559256D01*
X65756228Y-71715114D01*
X65636768Y-71883908D01*
X65511549Y-72062045D01*
X65383091Y-72245934D01*
X65253915Y-72431985D01*
X65126541Y-72616605D01*
X65003491Y-72796206D01*
X64887286Y-72967197D01*
X64780446Y-73125985D01*
X64685491Y-73268977D01*
X64649610Y-73323693D01*
X64511541Y-73537363D01*
X64358479Y-73778079D01*
X64194910Y-74038534D01*
X64025320Y-74311428D01*
X63854189Y-74589455D01*
X63686012Y-74865315D01*
X63525265Y-75131700D01*
X63376440Y-75381311D01*
X63244017Y-75606844D01*
X63189395Y-75701276D01*
X63158619Y-75731553D01*
X63137815Y-75730469D01*
X63109710Y-75714918D01*
X63052420Y-75681258D01*
X62971336Y-75632783D01*
X62871840Y-75572786D01*
X62759332Y-75504561D01*
X62639191Y-75431408D01*
X62516817Y-75356613D01*
X62397592Y-75283475D01*
X62286908Y-75215286D01*
X62190154Y-75155343D01*
X62112721Y-75106938D01*
X62059997Y-75073364D01*
X62037371Y-75057918D01*
X62037191Y-75057746D01*
X62035246Y-75030592D01*
X62047232Y-74975540D01*
X62070674Y-74903003D01*
X62079646Y-74879195D01*
X62106719Y-74804270D01*
X62124297Y-74744760D01*
X62129564Y-74710652D01*
X62128259Y-74706800D01*
X62090265Y-74683186D01*
X62020510Y-74652797D01*
X61927721Y-74618697D01*
X61820626Y-74583957D01*
X61707961Y-74551647D01*
X61633109Y-74532746D01*
X61525193Y-74505299D01*
X61437402Y-74477089D01*
X61355541Y-74442197D01*
X61265427Y-74394699D01*
X61172539Y-74340461D01*
X61078986Y-74285489D01*
X60959483Y-74216717D01*
X60824708Y-74140210D01*
X60685342Y-74062037D01*
X60559883Y-73992555D01*
X60364761Y-73883951D01*
X60362422Y-73882649D01*
X60196219Y-73786842D01*
X60054992Y-73701136D01*
X59932460Y-73621526D01*
X59822341Y-73544014D01*
X59718357Y-73464599D01*
X59670563Y-73426093D01*
X59518900Y-73288556D01*
X59384841Y-73140463D01*
X59277709Y-72992446D01*
X59250788Y-72947105D01*
X59189984Y-72811928D01*
X59170711Y-72748431D01*
X60227385Y-72748431D01*
X60241550Y-73007743D01*
X60282874Y-73237226D01*
X60352112Y-73439298D01*
X60450012Y-73616360D01*
X60529447Y-73719264D01*
X60675052Y-73855549D01*
X60844419Y-73959669D01*
X61034897Y-74031688D01*
X61243834Y-74071682D01*
X61468587Y-74079715D01*
X61706499Y-74055856D01*
X61954924Y-74000176D01*
X62211208Y-73912743D01*
X62472703Y-73793624D01*
X62704901Y-73662723D01*
X62835059Y-73574213D01*
X62975502Y-73464288D01*
X63117778Y-73340802D01*
X63253427Y-73211605D01*
X63373991Y-73084545D01*
X63471013Y-72967477D01*
X63504590Y-72920373D01*
X63583870Y-72777391D01*
X63627282Y-72634683D01*
X63638544Y-72479492D01*
X63638026Y-72462283D01*
X63620716Y-72286746D01*
X63580344Y-72119939D01*
X63512869Y-71946560D01*
X63487614Y-71892781D01*
X63450414Y-71819796D01*
X63414024Y-71759664D01*
X63370735Y-71702207D01*
X63312837Y-71637255D01*
X63232620Y-71554633D01*
X63227172Y-71549136D01*
X63142098Y-71465134D01*
X63075585Y-71404735D01*
X63018309Y-71360582D01*
X62960943Y-71325308D01*
X62911111Y-71299702D01*
X62715665Y-71226606D01*
X62499914Y-71184771D01*
X62269122Y-71172553D01*
X62028547Y-71188302D01*
X61783460Y-71230376D01*
X61539122Y-71297128D01*
X61300797Y-71386911D01*
X61073747Y-71498081D01*
X60863240Y-71628987D01*
X60674535Y-71777991D01*
X60512897Y-71943441D01*
X60409616Y-72081903D01*
X60326098Y-72229525D01*
X60270069Y-72377868D01*
X60238266Y-72538860D01*
X60227435Y-72724423D01*
X60227385Y-72748431D01*
X59170711Y-72748431D01*
X59140736Y-72649671D01*
X59106431Y-72474112D01*
X59090463Y-72299035D01*
X59090344Y-72295298D01*
X59101521Y-72043815D01*
X59151156Y-71802436D01*
X59239860Y-71569865D01*
X59368243Y-71344816D01*
X59536921Y-71125994D01*
X59744942Y-70913545D01*
X59938959Y-70755618D01*
X60143075Y-70631792D01*
X60361796Y-70540532D01*
X60599630Y-70480295D01*
X60861082Y-70449540D01*
X61114253Y-70445643D01*
X61364904Y-70463213D01*
X61621345Y-70504638D01*
X61892163Y-70571630D01*
X62138007Y-70649236D01*
X62343533Y-70724098D01*
X62530243Y-70802576D01*
X62705987Y-70889180D01*
X62878614Y-70988420D01*
X63055976Y-71104807D01*
X63245922Y-71242850D01*
X63454933Y-71405965D01*
X63627809Y-71543921D01*
X63773423Y-71659086D01*
X63890724Y-71750646D01*
X63978667Y-71817790D01*
X64036204Y-71859707D01*
X64056440Y-71872838D01*
X64096549Y-71872003D01*
X64154958Y-71836009D01*
X64230389Y-71766479D01*
X64321555Y-71665037D01*
X64427179Y-71533314D01*
X64545975Y-71372926D01*
X64676661Y-71185503D01*
X64817953Y-70972668D01*
X64968571Y-70736046D01*
X65022780Y-70648677D01*
X65101819Y-70522806D01*
X65166337Y-70424923D01*
X65214695Y-70357379D01*
X65245247Y-70322520D01*
X65253988Y-70318158D01*
X65276149Y-70332028D01*
G37*
G36*
X70742659Y-32813741D02*
G01*
X70952127Y-32848492D01*
X71176993Y-32916491D01*
X71192726Y-32922224D01*
X71381850Y-33007062D01*
X71564590Y-33117674D01*
X71732431Y-33247372D01*
X71876865Y-33389470D01*
X71989380Y-33537282D01*
X72002172Y-33558171D01*
X72093261Y-33751806D01*
X72148824Y-33962808D01*
X72168722Y-34186524D01*
X72152817Y-34418298D01*
X72100961Y-34653478D01*
X72040728Y-34823659D01*
X71965812Y-34989054D01*
X71876795Y-35159421D01*
X71782189Y-35319391D01*
X71695765Y-35446552D01*
X71655765Y-35497172D01*
X71610706Y-35546454D01*
X71556043Y-35598119D01*
X71487230Y-35655886D01*
X71399721Y-35723472D01*
X71288974Y-35804601D01*
X71150439Y-35902986D01*
X71063072Y-35964182D01*
X70987821Y-36019552D01*
X70926753Y-36069835D01*
X70888194Y-36107943D01*
X70880040Y-36120026D01*
X70874243Y-36142336D01*
X70887359Y-36153158D01*
X70927496Y-36155005D01*
X70982560Y-36151851D01*
X71046349Y-36143434D01*
X71143866Y-36125469D01*
X71268641Y-36099429D01*
X71414206Y-36066786D01*
X71574098Y-36029017D01*
X71741850Y-35987592D01*
X71910995Y-35943986D01*
X72005587Y-35918711D01*
X72190794Y-35868527D01*
X72063021Y-36094015D01*
X72012190Y-36182359D01*
X71967119Y-36258189D01*
X71932574Y-36313657D01*
X71913320Y-36340912D01*
X71912890Y-36341345D01*
X71889003Y-36348100D01*
X71827310Y-36360462D01*
X71731227Y-36377865D01*
X71604162Y-36399746D01*
X71449529Y-36425539D01*
X71270738Y-36454681D01*
X71071199Y-36486605D01*
X70854324Y-36520748D01*
X70623524Y-36556545D01*
X70484486Y-36577862D01*
X70246784Y-36613960D01*
X70020661Y-36647926D01*
X69809567Y-36679264D01*
X69616958Y-36707478D01*
X69446285Y-36732075D01*
X69301003Y-36752559D01*
X69184560Y-36768439D01*
X69100420Y-36779213D01*
X69052027Y-36784390D01*
X69041742Y-36784642D01*
X69004903Y-36767006D01*
X69007764Y-36738970D01*
X69049836Y-36701157D01*
X69130632Y-36654195D01*
X69151622Y-36643647D01*
X69264721Y-36584529D01*
X69396329Y-36510258D01*
X69536445Y-36426990D01*
X69675054Y-36340883D01*
X69802148Y-36258095D01*
X69907721Y-36184779D01*
X69953240Y-36150526D01*
X70163635Y-35968008D01*
X70349163Y-35771880D01*
X70503871Y-35568953D01*
X70597828Y-35413139D01*
X70701417Y-35177903D01*
X70775352Y-34922363D01*
X70817397Y-34657600D01*
X70825314Y-34394699D01*
X70820194Y-34311838D01*
X70783122Y-34067597D01*
X70716492Y-33852323D01*
X70620525Y-33666294D01*
X70495439Y-33509798D01*
X70341451Y-33383105D01*
X70158778Y-33286502D01*
X69977184Y-33227272D01*
X69763733Y-33194306D01*
X69536322Y-33195266D01*
X69301428Y-33227759D01*
X69065531Y-33289396D01*
X68835119Y-33377790D01*
X68616677Y-33490549D01*
X68416683Y-33625290D01*
X68241620Y-33779617D01*
X68129525Y-33908160D01*
X68013754Y-34085272D01*
X67909281Y-34297041D01*
X67817036Y-34537770D01*
X67737946Y-34801756D01*
X67672934Y-35083299D01*
X67622929Y-35376697D01*
X67588861Y-35676247D01*
X67571654Y-35976248D01*
X67572234Y-36271000D01*
X67591531Y-36554800D01*
X67630470Y-36821950D01*
X67644582Y-36890992D01*
X67657782Y-36967372D01*
X67660982Y-37024521D01*
X67653693Y-37052425D01*
X67652467Y-37053178D01*
X67624845Y-37060463D01*
X67563419Y-37073645D01*
X67474305Y-37091594D01*
X67363607Y-37113176D01*
X67237438Y-37137265D01*
X67101907Y-37162730D01*
X66963126Y-37188440D01*
X66827203Y-37213267D01*
X66700248Y-37236079D01*
X66588371Y-37255743D01*
X66497682Y-37271134D01*
X66434293Y-37281121D01*
X66404310Y-37284571D01*
X66402787Y-37284325D01*
X66399982Y-37262211D01*
X66396494Y-37204412D01*
X66392575Y-37116910D01*
X66388476Y-37005684D01*
X66384451Y-36876714D01*
X66382448Y-36803713D01*
X66367215Y-36375894D01*
X66344656Y-35970244D01*
X66315083Y-35589021D01*
X66278818Y-35234487D01*
X66236165Y-34908903D01*
X66187447Y-34614529D01*
X66132977Y-34353628D01*
X66073067Y-34128460D01*
X66008036Y-33941284D01*
X65972813Y-33860792D01*
X65940953Y-33785613D01*
X65927523Y-33734011D01*
X65932331Y-33713170D01*
X65962257Y-33702856D01*
X66026649Y-33685533D01*
X66119164Y-33662613D01*
X66233456Y-33635500D01*
X66363177Y-33605602D01*
X66501976Y-33574331D01*
X66643513Y-33543086D01*
X66781438Y-33513283D01*
X66909404Y-33486325D01*
X67021067Y-33463621D01*
X67110076Y-33446578D01*
X67170088Y-33436603D01*
X67188176Y-33434654D01*
X67207548Y-33451013D01*
X67242082Y-33496101D01*
X67286368Y-33562416D01*
X67321557Y-33619606D01*
X67367957Y-33697163D01*
X67405977Y-33760053D01*
X67430907Y-33800523D01*
X67438135Y-33811454D01*
X67453681Y-33799864D01*
X67490087Y-33764001D01*
X67540505Y-33710715D01*
X67559629Y-33689839D01*
X67676659Y-33579132D01*
X67819630Y-33476951D01*
X67990467Y-33382639D01*
X68191102Y-33295529D01*
X68423458Y-33214967D01*
X68689466Y-33140286D01*
X68991051Y-33070825D01*
X69330145Y-33005928D01*
X69708676Y-32944928D01*
X69748275Y-32939090D01*
X69889451Y-32917833D01*
X70028485Y-32895809D01*
X70155679Y-32874639D01*
X70261332Y-32855941D01*
X70335743Y-32841319D01*
X70337633Y-32840908D01*
X70540515Y-32811468D01*
X70742659Y-32813741D01*
G37*
G36*
X56259465Y-64803371D02*
G01*
X56298029Y-64845648D01*
X56355745Y-64910610D01*
X56428699Y-64993725D01*
X56512973Y-65090460D01*
X56604645Y-65196276D01*
X56699805Y-65306641D01*
X56794531Y-65417023D01*
X56884908Y-65522885D01*
X56967018Y-65619693D01*
X57036946Y-65702914D01*
X57090772Y-65768013D01*
X57098214Y-65777166D01*
X57172538Y-65868901D01*
X57091962Y-65968723D01*
X57036075Y-66038418D01*
X56980196Y-66108823D01*
X56952187Y-66144502D01*
X56892990Y-66220457D01*
X57058703Y-66302811D01*
X57205222Y-66381527D01*
X57353623Y-66473678D01*
X57506720Y-66581701D01*
X57667326Y-66708037D01*
X57838251Y-66855122D01*
X58022307Y-67025397D01*
X58222310Y-67221297D01*
X58441070Y-67445264D01*
X58681400Y-67699736D01*
X58729592Y-67751582D01*
X58870169Y-67903313D01*
X58985349Y-68028178D01*
X59078163Y-68129786D01*
X59151643Y-68211743D01*
X59208819Y-68277656D01*
X59252724Y-68331133D01*
X59286388Y-68375780D01*
X59312842Y-68415204D01*
X59335118Y-68453012D01*
X59356248Y-68492811D01*
X59362027Y-68504127D01*
X59458323Y-68734243D01*
X59518146Y-68970773D01*
X59541424Y-69208637D01*
X59528087Y-69442739D01*
X59478060Y-69667993D01*
X59391274Y-69879308D01*
X59381658Y-69897466D01*
X59317274Y-69996505D01*
X59227656Y-70107165D01*
X59122798Y-70218806D01*
X59012700Y-70320783D01*
X58907356Y-70402466D01*
X58906777Y-70402860D01*
X58665862Y-70542251D01*
X58408944Y-70644364D01*
X58138929Y-70709048D01*
X57858717Y-70736157D01*
X57571218Y-70725550D01*
X57279336Y-70677073D01*
X56985975Y-70590591D01*
X56785218Y-70509134D01*
X56577797Y-70415361D01*
X56639346Y-70495635D01*
X56698839Y-70569716D01*
X56779769Y-70665608D01*
X56874774Y-70775013D01*
X56976479Y-70889628D01*
X57077517Y-71001149D01*
X57170517Y-71101281D01*
X57248116Y-71181719D01*
X57250598Y-71184213D01*
X57402104Y-71336155D01*
X57176937Y-71405211D01*
X57069710Y-71436187D01*
X56995397Y-71452673D01*
X56948185Y-71455579D01*
X56922270Y-71445822D01*
X56921760Y-71445342D01*
X56896191Y-71417050D01*
X56848452Y-71360612D01*
X56781222Y-71279385D01*
X56697187Y-71176719D01*
X56599024Y-71055967D01*
X56489413Y-70920485D01*
X56371034Y-70773624D01*
X56246570Y-70618739D01*
X56118698Y-70459181D01*
X55990103Y-70298308D01*
X55863459Y-70139470D01*
X55741451Y-69986017D01*
X55626759Y-69841308D01*
X55522060Y-69708692D01*
X55430038Y-69591527D01*
X55353371Y-69493163D01*
X55294741Y-69416955D01*
X55256829Y-69366255D01*
X55242312Y-69344417D01*
X55242247Y-69344130D01*
X55254220Y-69307478D01*
X55287613Y-69269295D01*
X55313661Y-69251021D01*
X55341067Y-69242660D01*
X55376418Y-69246054D01*
X55426298Y-69263044D01*
X55497291Y-69295475D01*
X55595985Y-69345187D01*
X55639934Y-69367861D01*
X55903215Y-69488194D01*
X56175911Y-69583149D01*
X56452947Y-69652392D01*
X56729245Y-69695594D01*
X56999736Y-69712421D01*
X57259339Y-69702542D01*
X57502979Y-69665624D01*
X57725583Y-69601338D01*
X57910115Y-69516224D01*
X58003316Y-69454128D01*
X58110672Y-69367998D01*
X58221908Y-69267510D01*
X58326745Y-69162342D01*
X58414911Y-69062167D01*
X58466414Y-68992317D01*
X58566476Y-68804140D01*
X58625031Y-68612747D01*
X58642060Y-68418693D01*
X58617560Y-68222524D01*
X58551520Y-68024793D01*
X58484867Y-67893172D01*
X58426762Y-67807834D01*
X58344802Y-67708013D01*
X58248373Y-67603375D01*
X58146861Y-67503589D01*
X58049654Y-67418325D01*
X57966140Y-67357252D01*
X57962309Y-67354896D01*
X57892814Y-67319932D01*
X57791595Y-67278537D01*
X57667557Y-67233554D01*
X57529603Y-67187825D01*
X57386642Y-67144194D01*
X57247571Y-67105506D01*
X57121298Y-67074599D01*
X57024981Y-67055630D01*
X56696555Y-67023093D01*
X56366117Y-67031382D01*
X56037124Y-67080008D01*
X55713033Y-67168486D01*
X55431396Y-67280406D01*
X55221165Y-67386600D01*
X55005244Y-67513225D01*
X54794096Y-67653183D01*
X54598181Y-67799381D01*
X54427963Y-67944722D01*
X54370430Y-68000013D01*
X54258964Y-68111480D01*
X54175812Y-68010459D01*
X54011283Y-67810360D01*
X53863437Y-67630099D01*
X53733646Y-67471374D01*
X53623282Y-67335871D01*
X53533721Y-67225284D01*
X53466338Y-67141309D01*
X53422510Y-67085637D01*
X53403603Y-67059959D01*
X53402925Y-67058485D01*
X53419935Y-67044920D01*
X53465556Y-67016580D01*
X53531669Y-66978385D01*
X53571469Y-66956256D01*
X53802156Y-66822025D01*
X54041128Y-66667774D01*
X54290697Y-66491664D01*
X54553180Y-66291861D01*
X54830896Y-66066526D01*
X55126157Y-65813828D01*
X55441278Y-65531925D01*
X55778581Y-65218984D01*
X55861958Y-65140126D01*
X55964814Y-65042940D01*
X56057636Y-64956032D01*
X56136185Y-64883308D01*
X56196222Y-64828669D01*
X56233509Y-64796021D01*
X56243968Y-64788314D01*
X56259465Y-64803371D01*
G37*
G36*
X63956467Y-34439650D02*
G01*
X63983775Y-34489918D01*
X64022824Y-34566855D01*
X64070793Y-34664857D01*
X64124851Y-34778325D01*
X64139492Y-34809537D01*
X64291540Y-35126428D01*
X64450709Y-35442754D01*
X64614487Y-35754221D01*
X64780371Y-36056541D01*
X64945845Y-36345415D01*
X65108402Y-36616551D01*
X65265532Y-36865656D01*
X65414726Y-37088436D01*
X65553475Y-37280598D01*
X65667837Y-37424401D01*
X65715056Y-37482681D01*
X65748606Y-37528606D01*
X65762007Y-37553218D01*
X65761944Y-37554344D01*
X65742821Y-37573430D01*
X65702568Y-37600419D01*
X65702162Y-37600658D01*
X65669735Y-37619776D01*
X65606767Y-37656927D01*
X65518599Y-37708956D01*
X65410582Y-37772709D01*
X65288053Y-37845033D01*
X65160127Y-37920549D01*
X64673739Y-38207688D01*
X64492297Y-38026246D01*
X64422492Y-37957626D01*
X64363833Y-37902197D01*
X64322179Y-37865341D01*
X64303397Y-37852436D01*
X64303067Y-37852590D01*
X64289229Y-37871958D01*
X64257055Y-37919231D01*
X64211177Y-37987546D01*
X64156228Y-38070037D01*
X64149744Y-38079809D01*
X64009887Y-38280075D01*
X63869784Y-38456945D01*
X63722268Y-38617404D01*
X63560170Y-38768435D01*
X63376322Y-38917016D01*
X63163557Y-39070129D01*
X63063890Y-39137440D01*
X62699963Y-39370951D01*
X62360524Y-39571176D01*
X62045159Y-39738238D01*
X61753453Y-39872264D01*
X61484988Y-39973379D01*
X61239352Y-40041709D01*
X61016131Y-40077382D01*
X60814902Y-40080520D01*
X60635257Y-40051252D01*
X60476777Y-39989702D01*
X60401280Y-39944073D01*
X60311671Y-39874090D01*
X60209564Y-39781566D01*
X60105446Y-39677212D01*
X60009811Y-39571738D01*
X59933147Y-39475856D01*
X59910172Y-39442633D01*
X59803636Y-39245882D01*
X59720639Y-39023803D01*
X59664083Y-38787270D01*
X59636875Y-38547163D01*
X59635569Y-38414162D01*
X59663227Y-38166847D01*
X59730532Y-37913767D01*
X59836294Y-37657474D01*
X59979324Y-37400516D01*
X60158434Y-37145445D01*
X60313871Y-36958997D01*
X60380585Y-36882472D01*
X60419411Y-36833515D01*
X60431781Y-36810088D01*
X60419141Y-36810144D01*
X60418610Y-36810386D01*
X60359370Y-36842795D01*
X60273940Y-36896536D01*
X60168796Y-36967065D01*
X60050412Y-37049838D01*
X59925265Y-37140310D01*
X59799834Y-37233940D01*
X59680590Y-37326184D01*
X59659135Y-37343206D01*
X59565853Y-37416900D01*
X59483712Y-37480574D01*
X59418264Y-37530022D01*
X59375065Y-37561041D01*
X59360053Y-37569772D01*
X59345244Y-37550992D01*
X59325970Y-37501674D01*
X59304837Y-37432347D01*
X59284449Y-37353537D01*
X59267410Y-37275782D01*
X59256323Y-37209608D01*
X59253793Y-37165545D01*
X59257291Y-37154256D01*
X59283555Y-37135848D01*
X59341284Y-37099104D01*
X59426897Y-37046145D01*
X59536808Y-36979096D01*
X59667434Y-36900078D01*
X59815194Y-36811216D01*
X59976508Y-36714624D01*
X60147789Y-36612435D01*
X60325456Y-36506765D01*
X60505926Y-36399739D01*
X60685617Y-36293479D01*
X60860946Y-36190106D01*
X61028330Y-36091744D01*
X61184187Y-36000514D01*
X61324934Y-35918541D01*
X61446989Y-35847943D01*
X61546767Y-35790846D01*
X61620687Y-35749372D01*
X61665168Y-35725640D01*
X61677060Y-35720768D01*
X61696595Y-35737916D01*
X61702966Y-35765384D01*
X61694500Y-35807312D01*
X61669517Y-35867834D01*
X61626341Y-35951092D01*
X61563299Y-36061218D01*
X61488422Y-36186340D01*
X61325210Y-36464299D01*
X61189000Y-36715732D01*
X61078343Y-36944567D01*
X60991784Y-37154729D01*
X60927871Y-37350139D01*
X60885156Y-37534724D01*
X60862186Y-37712410D01*
X60857511Y-37887119D01*
X60857636Y-37892279D01*
X60882171Y-38115941D01*
X60944784Y-38334090D01*
X61046502Y-38549186D01*
X61188352Y-38763695D01*
X61257109Y-38850550D01*
X61390331Y-38995280D01*
X61521267Y-39103412D01*
X61655563Y-39179254D01*
X61721024Y-39204831D01*
X61913812Y-39249024D01*
X62111482Y-39253773D01*
X62310789Y-39220512D01*
X62508484Y-39150673D01*
X62701324Y-39045684D01*
X62886057Y-38906975D01*
X63059439Y-38735980D01*
X63207189Y-38549888D01*
X63350310Y-38321683D01*
X63458854Y-38088540D01*
X63534647Y-37844147D01*
X63579523Y-37582183D01*
X63595305Y-37296337D01*
X63594773Y-37211845D01*
X63567507Y-36831199D01*
X63500122Y-36446100D01*
X63393496Y-36059605D01*
X63248505Y-35674766D01*
X63066022Y-35294636D01*
X63022216Y-35214251D01*
X62979799Y-35137634D01*
X62946170Y-35076113D01*
X62925706Y-35037738D01*
X62921540Y-35029037D01*
X62938392Y-35017035D01*
X62985714Y-34987259D01*
X63058004Y-34942980D01*
X63149759Y-34887466D01*
X63255481Y-34823985D01*
X63369668Y-34755809D01*
X63486814Y-34686205D01*
X63601424Y-34618442D01*
X63707991Y-34555789D01*
X63801019Y-34501517D01*
X63874999Y-34458889D01*
X63924435Y-34431181D01*
X63943730Y-34421649D01*
X63956467Y-34439650D01*
G37*
G36*
X52501072Y-45510942D02*
G01*
X52553980Y-45537533D01*
X52633066Y-45578518D01*
X52733100Y-45631168D01*
X52848846Y-45692757D01*
X52931262Y-45736954D01*
X53297632Y-45929962D01*
X53636306Y-46099434D01*
X53952514Y-46247375D01*
X54251490Y-46375796D01*
X54538465Y-46486700D01*
X54818669Y-46582100D01*
X55097334Y-46663998D01*
X55379689Y-46734404D01*
X55670972Y-46795326D01*
X55707068Y-46802150D01*
X55809177Y-46822433D01*
X55875996Y-46839144D01*
X55913522Y-46854390D01*
X55927742Y-46870268D01*
X55927895Y-46879601D01*
X55898973Y-47003150D01*
X55854540Y-47162393D01*
X55795382Y-47354680D01*
X55722289Y-47577358D01*
X55701477Y-47638793D01*
X55562793Y-48045842D01*
X55313210Y-48048864D01*
X55063626Y-48051886D01*
X55074090Y-48411469D01*
X55077567Y-48683417D01*
X55070231Y-48924790D01*
X55050800Y-49145578D01*
X55017989Y-49355775D01*
X54970511Y-49565374D01*
X54907083Y-49784369D01*
X54891297Y-49833469D01*
X54853854Y-49950742D01*
X54809707Y-50093079D01*
X54763451Y-50245432D01*
X54719685Y-50392758D01*
X54703501Y-50448303D01*
X54617203Y-50724141D01*
X54528095Y-50962250D01*
X54433911Y-51166567D01*
X54332388Y-51341031D01*
X54221260Y-51489579D01*
X54098262Y-51616154D01*
X53975313Y-51714698D01*
X53774963Y-51833069D01*
X53551176Y-51921289D01*
X53311109Y-51977500D01*
X53061921Y-51999848D01*
X52894772Y-51995051D01*
X52712111Y-51965409D01*
X52522470Y-51907039D01*
X52337650Y-51825210D01*
X52169453Y-51725211D01*
X52029675Y-51612320D01*
X52021361Y-51604169D01*
X51879766Y-51439268D01*
X51749565Y-51239595D01*
X51633332Y-51011112D01*
X51533643Y-50759780D01*
X51453071Y-50491555D01*
X51394193Y-50212400D01*
X51380102Y-50119902D01*
X51368271Y-50050043D01*
X51355866Y-50002352D01*
X51345315Y-49985774D01*
X51344025Y-49986538D01*
X51319747Y-50026480D01*
X51287029Y-50105478D01*
X51246434Y-50221894D01*
X51198523Y-50374094D01*
X51143864Y-50560442D01*
X51132170Y-50601676D01*
X51097162Y-50722678D01*
X51064348Y-50830461D01*
X51035898Y-50918327D01*
X51013981Y-50979583D01*
X51000769Y-51007535D01*
X51000513Y-51007805D01*
X50984704Y-51015177D01*
X50961343Y-51006082D01*
X50924096Y-50976143D01*
X50866627Y-50920974D01*
X50848055Y-50902425D01*
X50784146Y-50834081D01*
X50734071Y-50772457D01*
X50705501Y-50727167D01*
X50702880Y-50720415D01*
X50704314Y-50683477D01*
X50719028Y-50611239D01*
X50745786Y-50507462D01*
X50783356Y-50375903D01*
X50830505Y-50220331D01*
X50885997Y-50044505D01*
X50948598Y-49852187D01*
X51017079Y-49647140D01*
X51090202Y-49433127D01*
X51166732Y-49213909D01*
X51245438Y-48993248D01*
X51325085Y-48774909D01*
X51404440Y-48562654D01*
X51447456Y-48450012D01*
X51496812Y-48326574D01*
X51536976Y-48239510D01*
X51571004Y-48185362D01*
X51601957Y-48160669D01*
X51632896Y-48161978D01*
X51666877Y-48185829D01*
X51674606Y-48193293D01*
X51700643Y-48230600D01*
X51721310Y-48288801D01*
X51738928Y-48375813D01*
X51749385Y-48448038D01*
X51805657Y-48761201D01*
X51890617Y-49073037D01*
X52001324Y-49377347D01*
X52134835Y-49667938D01*
X52288205Y-49938614D01*
X52458490Y-50183177D01*
X52642746Y-50395435D01*
X52702418Y-50453872D01*
X52778291Y-50523753D01*
X52835872Y-50571476D01*
X52886415Y-50604266D01*
X52941177Y-50629352D01*
X53011412Y-50653961D01*
X53016765Y-50655712D01*
X53188951Y-50695356D01*
X53383619Y-50712343D01*
X53588710Y-50707330D01*
X53792164Y-50680970D01*
X53981916Y-50633919D01*
X54079267Y-50598112D01*
X54269153Y-50499114D01*
X54424589Y-50376820D01*
X54545790Y-50230898D01*
X54632968Y-50061019D01*
X54686340Y-49866851D01*
X54706120Y-49648063D01*
X54706249Y-49632761D01*
X54688541Y-49321900D01*
X54632695Y-49021411D01*
X54538114Y-48729983D01*
X54404203Y-48446306D01*
X54230368Y-48169069D01*
X54016007Y-47896960D01*
X53822429Y-47689572D01*
X53693920Y-47566784D01*
X53565624Y-47457957D01*
X53431678Y-47359681D01*
X53286221Y-47268548D01*
X53123393Y-47181152D01*
X52937329Y-47094082D01*
X52722168Y-47003932D01*
X52485630Y-46912392D01*
X52368223Y-46867951D01*
X52264636Y-46828133D01*
X52181041Y-46795358D01*
X52123607Y-46772052D01*
X52098500Y-46760629D01*
X52098034Y-46760265D01*
X52098492Y-46736474D01*
X52110828Y-46686578D01*
X52123872Y-46646131D01*
X52139667Y-46597695D01*
X52165067Y-46515987D01*
X52198027Y-46407749D01*
X52236510Y-46279723D01*
X52278473Y-46138650D01*
X52312885Y-46021920D01*
X52354396Y-45882273D01*
X52392678Y-45756785D01*
X52426048Y-45650713D01*
X52452822Y-45569319D01*
X52471312Y-45517860D01*
X52479576Y-45501472D01*
X52501072Y-45510942D01*
G37*
G36*
X64559743Y-58418036D02*
G01*
X64889051Y-58494387D01*
X65213013Y-58609386D01*
X65214357Y-58609950D01*
X65512320Y-58754721D01*
X65793117Y-58931940D01*
X66057501Y-59142541D01*
X66306225Y-59387455D01*
X66540043Y-59667614D01*
X66759711Y-59983954D01*
X66965977Y-60337403D01*
X67159602Y-60728898D01*
X67341331Y-61159368D01*
X67401039Y-61316104D01*
X67444888Y-61427751D01*
X67501651Y-61562836D01*
X67565361Y-61707646D01*
X67630046Y-61848462D01*
X67661311Y-61913963D01*
X67764787Y-62128739D01*
X67855453Y-62319708D01*
X67932374Y-62484785D01*
X67994613Y-62621887D01*
X68041228Y-62728934D01*
X68071284Y-62803840D01*
X68083837Y-62844527D01*
X68083671Y-62850899D01*
X68061157Y-62868912D01*
X68012247Y-62898755D01*
X67952532Y-62931307D01*
X67831469Y-62994185D01*
X67758629Y-62774594D01*
X67713703Y-62648132D01*
X67653961Y-62493274D01*
X67583180Y-62318934D01*
X67505136Y-62134017D01*
X67423605Y-61947428D01*
X67342367Y-61768073D01*
X67265198Y-61604859D01*
X67245172Y-61563947D01*
X67099875Y-61284236D01*
X66954292Y-61034413D01*
X66801801Y-60803176D01*
X66787433Y-60782778D01*
X66707288Y-60678722D01*
X66605792Y-60560641D01*
X66491025Y-60436777D01*
X66371057Y-60315364D01*
X66253963Y-60204645D01*
X66147819Y-60112855D01*
X66080638Y-60061660D01*
X65844335Y-59917131D01*
X65577990Y-59790808D01*
X65290207Y-59685318D01*
X64989587Y-59603279D01*
X64684743Y-59547313D01*
X64384272Y-59520044D01*
X64295729Y-59517846D01*
X63952992Y-59533807D01*
X63623600Y-59587124D01*
X63310014Y-59677032D01*
X63014705Y-59802774D01*
X62740140Y-59963590D01*
X62658257Y-60021452D01*
X62538925Y-60113329D01*
X62438409Y-60200760D01*
X62345003Y-60295135D01*
X62247005Y-60407839D01*
X62193274Y-60473815D01*
X61965797Y-60789253D01*
X61775804Y-61122153D01*
X61621784Y-61475273D01*
X61578760Y-61596221D01*
X61501540Y-61825404D01*
X61563076Y-62000206D01*
X61594468Y-62089036D01*
X61634787Y-62202647D01*
X61678901Y-62326592D01*
X61721673Y-62446424D01*
X61722759Y-62449460D01*
X61769978Y-62583842D01*
X61804457Y-62691129D01*
X61828365Y-62783139D01*
X61843870Y-62871694D01*
X61853143Y-62968614D01*
X61858350Y-63085718D01*
X61861076Y-63203444D01*
X61874124Y-63434527D01*
X61905356Y-63683204D01*
X61955775Y-63956133D01*
X62008013Y-64185853D01*
X62025354Y-64265687D01*
X62035387Y-64329636D01*
X62036638Y-64367386D01*
X62034637Y-64372593D01*
X62005078Y-64387168D01*
X61949106Y-64405736D01*
X61881233Y-64424456D01*
X61815972Y-64439491D01*
X61767841Y-64447004D01*
X61754476Y-64446679D01*
X61739649Y-64424470D01*
X61726066Y-64372596D01*
X61717865Y-64313238D01*
X61675121Y-64024447D01*
X61600431Y-63727628D01*
X61562914Y-63611590D01*
X61526719Y-63509579D01*
X61496984Y-63436726D01*
X61467860Y-63382370D01*
X61433505Y-63335855D01*
X61388069Y-63286517D01*
X61380268Y-63278553D01*
X61325137Y-63223868D01*
X61289950Y-63194904D01*
X61266127Y-63186993D01*
X61245091Y-63195470D01*
X61237530Y-63200894D01*
X61207560Y-63246647D01*
X61186822Y-63329659D01*
X61175255Y-63446571D01*
X61172805Y-63594013D01*
X61179417Y-63768623D01*
X61195034Y-63967035D01*
X61219601Y-64185886D01*
X61253064Y-64421808D01*
X61258376Y-64455516D01*
X61270325Y-64530438D01*
X61171027Y-64544971D01*
X61111300Y-64553716D01*
X61071313Y-64559580D01*
X61062973Y-64560807D01*
X61055807Y-64542109D01*
X61042242Y-64489935D01*
X61024054Y-64411678D01*
X61003017Y-64314726D01*
X60996942Y-64285651D01*
X60933556Y-64002790D01*
X60867052Y-63750030D01*
X60798762Y-63532295D01*
X60774758Y-63465463D01*
X60742031Y-63363077D01*
X60722834Y-63262384D01*
X60718076Y-63158178D01*
X60728669Y-63045257D01*
X60755522Y-62918417D01*
X60799548Y-62772454D01*
X60861660Y-62602165D01*
X60942764Y-62402345D01*
X60973767Y-62329240D01*
X61027611Y-62201367D01*
X61066653Y-62102383D01*
X61093550Y-62023337D01*
X61110963Y-61955280D01*
X61121551Y-61889261D01*
X61127974Y-61816332D01*
X61128473Y-61808565D01*
X61174272Y-61384508D01*
X61257990Y-60972624D01*
X61380448Y-60570465D01*
X61542465Y-60175571D01*
X61744859Y-59785498D01*
X61878006Y-59565317D01*
X62060865Y-59315634D01*
X62276348Y-59087965D01*
X62519637Y-58885995D01*
X62785927Y-58713427D01*
X63070405Y-58573946D01*
X63261825Y-58503089D01*
X63576129Y-58422858D01*
X63899642Y-58382072D01*
X64228727Y-58380530D01*
X64559743Y-58418036D01*
G37*
G36*
X77074277Y-33013630D02*
G01*
X77132080Y-33029861D01*
X77221064Y-33055192D01*
X77336813Y-33088345D01*
X77474914Y-33128042D01*
X77630950Y-33173003D01*
X77800510Y-33221950D01*
X77979171Y-33273601D01*
X78162531Y-33326683D01*
X78346162Y-33379911D01*
X78525658Y-33432010D01*
X78696602Y-33481700D01*
X78854580Y-33527702D01*
X78995175Y-33568736D01*
X79113975Y-33603526D01*
X79206565Y-33630789D01*
X79268529Y-33649250D01*
X79295453Y-33657627D01*
X79296048Y-33657860D01*
X79288882Y-33668543D01*
X79248722Y-33688216D01*
X79182486Y-33713865D01*
X79115350Y-33736666D01*
X78772118Y-33862361D01*
X78449338Y-34010806D01*
X78150618Y-34179612D01*
X77879578Y-34366392D01*
X77639834Y-34568761D01*
X77434997Y-34784329D01*
X77335125Y-34912360D01*
X77203722Y-35117668D01*
X77101020Y-35326757D01*
X77028327Y-35534686D01*
X76986957Y-35736508D01*
X76978218Y-35927287D01*
X77003420Y-36102076D01*
X77011851Y-36132080D01*
X77095183Y-36350282D01*
X77201972Y-36534074D01*
X77332631Y-36683770D01*
X77487581Y-36799690D01*
X77667240Y-36882147D01*
X77872025Y-36931462D01*
X78088806Y-36947887D01*
X78358546Y-36931094D01*
X78641057Y-36877121D01*
X78932654Y-36787084D01*
X79229654Y-36662094D01*
X79492197Y-36524280D01*
X79743352Y-36368264D01*
X79966839Y-36205177D01*
X80159863Y-36037648D01*
X80319629Y-35868311D01*
X80443343Y-35699802D01*
X80519411Y-35556065D01*
X80601158Y-35330081D01*
X80646196Y-35120535D01*
X80654867Y-34928406D01*
X80627502Y-34754690D01*
X80564444Y-34600373D01*
X80466034Y-34466442D01*
X80332603Y-34353887D01*
X80164498Y-34263694D01*
X80064060Y-34226147D01*
X80008246Y-34204485D01*
X79976185Y-34185249D01*
X79973134Y-34175844D01*
X80015776Y-34151828D01*
X80093249Y-34126509D01*
X80198780Y-34101066D01*
X80325600Y-34076671D01*
X80466939Y-34054506D01*
X80616026Y-34035744D01*
X80766090Y-34021567D01*
X80908363Y-34013224D01*
X81100692Y-34005983D01*
X81276911Y-34137219D01*
X81447234Y-34279765D01*
X81582547Y-34430115D01*
X81689511Y-34596945D01*
X81772619Y-34783114D01*
X81850077Y-35041667D01*
X81887081Y-35293025D01*
X81883732Y-35536280D01*
X81840121Y-35770529D01*
X81756344Y-35994857D01*
X81632498Y-36208361D01*
X81620964Y-36224802D01*
X81527535Y-36345719D01*
X81410774Y-36480657D01*
X81280795Y-36618779D01*
X81147717Y-36749252D01*
X81046129Y-36840572D01*
X80880831Y-36960392D01*
X80688165Y-37059486D01*
X80466246Y-37138351D01*
X80213208Y-37197480D01*
X79927172Y-37237370D01*
X79606265Y-37258518D01*
X79453056Y-37262018D01*
X79148787Y-37259778D01*
X78848059Y-37245605D01*
X78542264Y-37218592D01*
X78222799Y-37177824D01*
X77881053Y-37122396D01*
X77561002Y-37061954D01*
X77320688Y-37011497D01*
X77115592Y-36962061D01*
X76939411Y-36911069D01*
X76785845Y-36855952D01*
X76648592Y-36794130D01*
X76521350Y-36723039D01*
X76397822Y-36640099D01*
X76271701Y-36542739D01*
X76253929Y-36528183D01*
X76118588Y-36404664D01*
X75990844Y-36265726D01*
X75879923Y-36122427D01*
X75795045Y-35985837D01*
X75784206Y-35964753D01*
X75717659Y-35786523D01*
X75683178Y-35590304D01*
X75680041Y-35383837D01*
X75707527Y-35174856D01*
X75764909Y-34971097D01*
X75851468Y-34780298D01*
X75902529Y-34696546D01*
X76039300Y-34518620D01*
X76204895Y-34352206D01*
X76401434Y-34195933D01*
X76631054Y-34048423D01*
X76895891Y-33908304D01*
X77198073Y-33774199D01*
X77527543Y-33649041D01*
X77633981Y-33611172D01*
X77725531Y-33578255D01*
X77795465Y-33552735D01*
X77837060Y-33537057D01*
X77845691Y-33533333D01*
X77827310Y-33528811D01*
X77773082Y-33518465D01*
X77688274Y-33503234D01*
X77578160Y-33484047D01*
X77448012Y-33461833D01*
X77303101Y-33437526D01*
X77302732Y-33437462D01*
X77120702Y-33406327D01*
X76977883Y-33379922D01*
X76872135Y-33357772D01*
X76801321Y-33339403D01*
X76763305Y-33324334D01*
X76755030Y-33314935D01*
X76768779Y-33291377D01*
X76804829Y-33247690D01*
X76855377Y-33191939D01*
X76912618Y-33132193D01*
X76968752Y-33076520D01*
X77015976Y-33032988D01*
X77046486Y-33009666D01*
X77052066Y-33007780D01*
X77074277Y-33013630D01*
G37*
G36*
X94518064Y-54436679D02*
G01*
X94551491Y-54466044D01*
X94606454Y-54511527D01*
X94671543Y-54563697D01*
X94676950Y-54567959D01*
X94800609Y-54665307D01*
X94805119Y-55043876D01*
X94806888Y-55183746D01*
X94808873Y-55326394D01*
X94810885Y-55459633D01*
X94812750Y-55571274D01*
X94813790Y-55626262D01*
X94817952Y-55830080D01*
X94985058Y-55852808D01*
X95110645Y-55864694D01*
X95251527Y-55869744D01*
X95391438Y-55867953D01*
X95514117Y-55859320D01*
X95560997Y-55852932D01*
X95633576Y-55840787D01*
X95610002Y-56102412D01*
X95600206Y-56203853D01*
X95586483Y-56335800D01*
X95570021Y-56487403D01*
X95552002Y-56647807D01*
X95533605Y-56806162D01*
X95529481Y-56840866D01*
X95472534Y-57317697D01*
X95404937Y-57311473D01*
X95360935Y-57305725D01*
X95285030Y-57294068D01*
X95186330Y-57277966D01*
X95073946Y-57258886D01*
X95020260Y-57249532D01*
X94909760Y-57231459D01*
X94813565Y-57218261D01*
X94739190Y-57210773D01*
X94694148Y-57209826D01*
X94684642Y-57212349D01*
X94671369Y-57246375D01*
X94670452Y-57275673D01*
X94670513Y-57305015D01*
X94669009Y-57371250D01*
X94666111Y-57469631D01*
X94661990Y-57595412D01*
X94656821Y-57743852D01*
X94650778Y-57910195D01*
X94644031Y-58089709D01*
X94636755Y-58277638D01*
X94629121Y-58469244D01*
X94621304Y-58659776D01*
X94613475Y-58844492D01*
X94612447Y-58868231D01*
X94605642Y-58915559D01*
X94592952Y-58937509D01*
X94589875Y-58937622D01*
X94565500Y-58922515D01*
X94518920Y-58887389D01*
X94459546Y-58839380D01*
X94450306Y-58831667D01*
X94380045Y-58773521D01*
X94311990Y-58718427D01*
X94261476Y-58678780D01*
X94192879Y-58626668D01*
X94221562Y-58394843D01*
X94243384Y-58198004D01*
X94263305Y-57979717D01*
X94280125Y-57755910D01*
X94292631Y-57542524D01*
X94299326Y-57367735D01*
X94304869Y-57146992D01*
X94189953Y-57090097D01*
X94052407Y-57032896D01*
X93879861Y-56978721D01*
X93678943Y-56928688D01*
X93456288Y-56883913D01*
X93218518Y-56845516D01*
X92972268Y-56814612D01*
X92724167Y-56792322D01*
X92480844Y-56779759D01*
X92334156Y-56777344D01*
X92085500Y-56782643D01*
X91869789Y-56799873D01*
X91679792Y-56829883D01*
X91508278Y-56873522D01*
X91503563Y-56874983D01*
X91376765Y-56919123D01*
X91283106Y-56964066D01*
X91214285Y-57015041D01*
X91162013Y-57077272D01*
X91148397Y-57098783D01*
X91107156Y-57201600D01*
X91095719Y-57323391D01*
X91114470Y-57465313D01*
X91163793Y-57628525D01*
X91244069Y-57814185D01*
X91355684Y-58023451D01*
X91499018Y-58257483D01*
X91564942Y-58357722D01*
X91641733Y-58472471D01*
X91270061Y-58316027D01*
X91126786Y-58254113D01*
X91012757Y-58201438D01*
X90930830Y-58159422D01*
X90883865Y-58129478D01*
X90874577Y-58119813D01*
X90859704Y-58071271D01*
X90849595Y-57987768D01*
X90844074Y-57875721D01*
X90842955Y-57741556D01*
X90846066Y-57591690D01*
X90853221Y-57432537D01*
X90864241Y-57270522D01*
X90878947Y-57112061D01*
X90897159Y-56963577D01*
X90909228Y-56884733D01*
X90948398Y-56705602D01*
X91005562Y-56518584D01*
X91075162Y-56339478D01*
X91151637Y-56184071D01*
X91162375Y-56165449D01*
X91263630Y-56017170D01*
X91384603Y-55878210D01*
X91516089Y-55757611D01*
X91648901Y-55664404D01*
X91700219Y-55636873D01*
X91884159Y-55566541D01*
X92102224Y-55516272D01*
X92352022Y-55486048D01*
X92631167Y-55475847D01*
X92937268Y-55485651D01*
X93267933Y-55515440D01*
X93620780Y-55565193D01*
X93993411Y-55634889D01*
X94096512Y-55656994D01*
X94380537Y-55719496D01*
X94398589Y-55554693D01*
X94405768Y-55479723D01*
X94414544Y-55373471D01*
X94424130Y-55246259D01*
X94433748Y-55108410D01*
X94441497Y-54988455D01*
X94449797Y-54856497D01*
X94457830Y-54732649D01*
X94465028Y-54625342D01*
X94470830Y-54543002D01*
X94474592Y-54494883D01*
X94482835Y-54402745D01*
X94518064Y-54436679D01*
G37*
G36*
X81566425Y-43663365D02*
G01*
X81609424Y-43685989D01*
X81655875Y-43732395D01*
X81710191Y-43806462D01*
X81776788Y-43912074D01*
X81813015Y-43972741D01*
X81914028Y-44146834D01*
X81995835Y-44295754D01*
X82062837Y-44428656D01*
X82119445Y-44554701D01*
X82170075Y-44683048D01*
X82211474Y-44800120D01*
X82278700Y-45036827D01*
X82312127Y-45252023D01*
X82312048Y-45448163D01*
X82299148Y-45541923D01*
X82282112Y-45621894D01*
X82260946Y-45694471D01*
X82232804Y-45762689D01*
X82194847Y-45829584D01*
X82144244Y-45898188D01*
X82078146Y-45971539D01*
X81993720Y-46052666D01*
X81888122Y-46144609D01*
X81758518Y-46250403D01*
X81602065Y-46373080D01*
X81415925Y-46515676D01*
X81320095Y-46588380D01*
X80943296Y-46873547D01*
X80596818Y-47135470D01*
X80277878Y-47376217D01*
X79983691Y-47597851D01*
X79711475Y-47802442D01*
X79458446Y-47992058D01*
X79221818Y-48168764D01*
X78998810Y-48334628D01*
X78786638Y-48491716D01*
X78582517Y-48642098D01*
X78383660Y-48787836D01*
X78187286Y-48931003D01*
X77990614Y-49073659D01*
X77790857Y-49217877D01*
X77585230Y-49365721D01*
X77422091Y-49482657D01*
X77263831Y-49596084D01*
X77112665Y-49704644D01*
X76972720Y-49805363D01*
X76848113Y-49895265D01*
X76742965Y-49971377D01*
X76661397Y-50030720D01*
X76607533Y-50070320D01*
X76592142Y-50081892D01*
X76457136Y-50210812D01*
X76353234Y-50364950D01*
X76281698Y-50540425D01*
X76243795Y-50733360D01*
X76240793Y-50939876D01*
X76261172Y-51095960D01*
X76276151Y-51198656D01*
X76274610Y-51271910D01*
X76255523Y-51324957D01*
X76232604Y-51353608D01*
X76194383Y-51373665D01*
X76136380Y-51387251D01*
X76075849Y-51392213D01*
X76030046Y-51386410D01*
X76019262Y-51380157D01*
X76005685Y-51351960D01*
X75983387Y-51288125D01*
X75953750Y-51193444D01*
X75918152Y-51072709D01*
X75877978Y-50930710D01*
X75834603Y-50772248D01*
X75789410Y-50602106D01*
X75743783Y-50425079D01*
X75741390Y-50415641D01*
X75691015Y-50201387D01*
X75657754Y-50018708D01*
X75641926Y-49861034D01*
X75643857Y-49721804D01*
X75663869Y-49594450D01*
X75702284Y-49472403D01*
X75759422Y-49349097D01*
X75797041Y-49281616D01*
X75881264Y-49155475D01*
X75988069Y-49028369D01*
X76120942Y-48896998D01*
X76283366Y-48758075D01*
X76478825Y-48608297D01*
X76604724Y-48517954D01*
X76701153Y-48449766D01*
X76827907Y-48359575D01*
X76981579Y-48249833D01*
X77158752Y-48123004D01*
X77356017Y-47981541D01*
X77569962Y-47827902D01*
X77797173Y-47664544D01*
X78034243Y-47493926D01*
X78277756Y-47318504D01*
X78524301Y-47140734D01*
X78770470Y-46963077D01*
X79012846Y-46787987D01*
X79248019Y-46617923D01*
X79472578Y-46455339D01*
X79683113Y-46302701D01*
X79876207Y-46162453D01*
X79979322Y-46087430D01*
X80233808Y-45901929D01*
X80456413Y-45739222D01*
X80649108Y-45597816D01*
X80813884Y-45476230D01*
X80952717Y-45372971D01*
X81067597Y-45286559D01*
X81160503Y-45215499D01*
X81233418Y-45158308D01*
X81288323Y-45113497D01*
X81327203Y-45079581D01*
X81342953Y-45064554D01*
X81439612Y-44940864D01*
X81513229Y-44790836D01*
X81560437Y-44624870D01*
X81577855Y-44453366D01*
X81572996Y-44355647D01*
X81551947Y-44243296D01*
X81514403Y-44113598D01*
X81466376Y-43984278D01*
X81413877Y-43873067D01*
X81402814Y-43853621D01*
X81371838Y-43786817D01*
X81374037Y-43738665D01*
X81412386Y-43701550D01*
X81473114Y-43673935D01*
X81522461Y-43660640D01*
X81566425Y-43663365D01*
G37*
G36*
X84681036Y-47440836D02*
G01*
X84707483Y-47466837D01*
X84737804Y-47515457D01*
X84775418Y-47591545D01*
X84823750Y-47699942D01*
X84842847Y-47744124D01*
X84940533Y-47999454D01*
X85014374Y-48253453D01*
X85063611Y-48500549D01*
X85087486Y-48735170D01*
X85085242Y-48951743D01*
X85056117Y-49144695D01*
X85041020Y-49200478D01*
X84970578Y-49375313D01*
X84873407Y-49532407D01*
X84755278Y-49663810D01*
X84642980Y-49749191D01*
X84616604Y-49763765D01*
X84555662Y-49796450D01*
X84462497Y-49846006D01*
X84339451Y-49911200D01*
X84188869Y-49990795D01*
X84013099Y-50083556D01*
X83814479Y-50188247D01*
X83595360Y-50303633D01*
X83358080Y-50428476D01*
X83104985Y-50561541D01*
X82838421Y-50701594D01*
X82560728Y-50847398D01*
X82366128Y-50949518D01*
X82081368Y-51098939D01*
X81805577Y-51243696D01*
X81541154Y-51382522D01*
X81290495Y-51514160D01*
X81055996Y-51637349D01*
X80840049Y-51750836D01*
X80645058Y-51853354D01*
X80473411Y-51943643D01*
X80327511Y-52020450D01*
X80209748Y-52082509D01*
X80122523Y-52128564D01*
X80068228Y-52157354D01*
X80051613Y-52166277D01*
X79942939Y-52248840D01*
X79860795Y-52360336D01*
X79806952Y-52496180D01*
X79783173Y-52651790D01*
X79791223Y-52822582D01*
X79793265Y-52836564D01*
X79805488Y-52917798D01*
X79815259Y-52985353D01*
X79820765Y-53026665D01*
X79821176Y-53030473D01*
X79810100Y-53069407D01*
X79778174Y-53123105D01*
X79735230Y-53178144D01*
X79691111Y-53221087D01*
X79672555Y-53233384D01*
X79625542Y-53241992D01*
X79568329Y-53233486D01*
X79518126Y-53212596D01*
X79492144Y-53184048D01*
X79492080Y-53183796D01*
X79487798Y-53156128D01*
X79479440Y-53092792D01*
X79467714Y-52999529D01*
X79453332Y-52882068D01*
X79437005Y-52746142D01*
X79419881Y-52601210D01*
X79390665Y-52351896D01*
X79366036Y-52140454D01*
X79345740Y-51963359D01*
X79329522Y-51817093D01*
X79317128Y-51698131D01*
X79308307Y-51602952D01*
X79302804Y-51528039D01*
X79300369Y-51469865D01*
X79300747Y-51424911D01*
X79303684Y-51389654D01*
X79308930Y-51360574D01*
X79316230Y-51334149D01*
X79325331Y-51306857D01*
X79326626Y-51303083D01*
X79391822Y-51170762D01*
X79496427Y-51040080D01*
X79641256Y-50910153D01*
X79780799Y-50810000D01*
X79873418Y-50752482D01*
X79994920Y-50683340D01*
X80146207Y-50602131D01*
X80328210Y-50508410D01*
X80541837Y-50401733D01*
X80788005Y-50281646D01*
X81067632Y-50147715D01*
X81381633Y-49999488D01*
X81730923Y-49836524D01*
X82116422Y-49658375D01*
X82539043Y-49464597D01*
X82705771Y-49388499D01*
X82909497Y-49295430D01*
X83106100Y-49205254D01*
X83291521Y-49119854D01*
X83461702Y-49041116D01*
X83612582Y-48970929D01*
X83740101Y-48911174D01*
X83840205Y-48863742D01*
X83908831Y-48830518D01*
X83933059Y-48818263D01*
X84141985Y-48695940D01*
X84310153Y-48569537D01*
X84438363Y-48438163D01*
X84527408Y-48300921D01*
X84578085Y-48156918D01*
X84589404Y-48080700D01*
X84585017Y-47998889D01*
X84563785Y-47897930D01*
X84530384Y-47794357D01*
X84489499Y-47704705D01*
X84477112Y-47683982D01*
X84449533Y-47611890D01*
X84461910Y-47546490D01*
X84512742Y-47490281D01*
X84600523Y-47445750D01*
X84626064Y-47437334D01*
X84655036Y-47432618D01*
X84681036Y-47440836D01*
G37*
G36*
X86982920Y-52177911D02*
G01*
X86987798Y-52182413D01*
X87007084Y-52225204D01*
X87018439Y-52302977D01*
X87022138Y-52409856D01*
X87018453Y-52539960D01*
X87007661Y-52687414D01*
X86990034Y-52846339D01*
X86965847Y-53010864D01*
X86943284Y-53135843D01*
X86890736Y-53351546D01*
X86821567Y-53553822D01*
X86738681Y-53737077D01*
X86644981Y-53895718D01*
X86543374Y-54024150D01*
X86436766Y-54116777D01*
X86432344Y-54119719D01*
X86406622Y-54136748D01*
X86382713Y-54151959D01*
X86358073Y-54165739D01*
X86330164Y-54178481D01*
X86296440Y-54190573D01*
X86254360Y-54202402D01*
X86201385Y-54214356D01*
X86134971Y-54226826D01*
X86052575Y-54240203D01*
X85951656Y-54254873D01*
X85829672Y-54271223D01*
X85684081Y-54289647D01*
X85512342Y-54310533D01*
X85311911Y-54334263D01*
X85080249Y-54361236D01*
X84814812Y-54391832D01*
X84513061Y-54426447D01*
X84172901Y-54465412D01*
X83962735Y-54489469D01*
X83760271Y-54512592D01*
X83570252Y-54534246D01*
X83397413Y-54553894D01*
X83246496Y-54570997D01*
X83122237Y-54585018D01*
X83029375Y-54595418D01*
X82972651Y-54601660D01*
X82968786Y-54602073D01*
X82822217Y-54624190D01*
X82707750Y-54657558D01*
X82616574Y-54705555D01*
X82548110Y-54763062D01*
X82484621Y-54841370D01*
X82437770Y-54934967D01*
X82404444Y-55052224D01*
X82381523Y-55201525D01*
X82380078Y-55214801D01*
X82369726Y-55303917D01*
X82358795Y-55362419D01*
X82343038Y-55401203D01*
X82318210Y-55431166D01*
X82284720Y-55459502D01*
X82211681Y-55500440D01*
X82135128Y-55515591D01*
X82067959Y-55503702D01*
X82037910Y-55483456D01*
X82030119Y-55454711D01*
X82025397Y-55392190D01*
X82023953Y-55303697D01*
X82025991Y-55197032D01*
X82028674Y-55133356D01*
X82035732Y-54993154D01*
X82043407Y-54841019D01*
X82050849Y-54693872D01*
X82057203Y-54568640D01*
X82058084Y-54551313D01*
X82077614Y-54307031D01*
X82109506Y-54091810D01*
X82153024Y-53909803D01*
X82191255Y-53801383D01*
X82264323Y-53667617D01*
X82360944Y-53552524D01*
X82472854Y-53464712D01*
X82552107Y-53425488D01*
X82581508Y-53416638D01*
X82627104Y-53406584D01*
X82690887Y-53395078D01*
X82774846Y-53381872D01*
X82880974Y-53366716D01*
X83011259Y-53349363D01*
X83167692Y-53329564D01*
X83352263Y-53307072D01*
X83566961Y-53281636D01*
X83813781Y-53253013D01*
X84094709Y-53220948D01*
X84411737Y-53185199D01*
X84766857Y-53145510D01*
X85033449Y-53115889D01*
X85293461Y-53086365D01*
X85515895Y-53059350D01*
X85704705Y-53033983D01*
X85863853Y-53009405D01*
X85997295Y-52984763D01*
X86108986Y-52959194D01*
X86202887Y-52931841D01*
X86282955Y-52901845D01*
X86353148Y-52868349D01*
X86417421Y-52830492D01*
X86449985Y-52808684D01*
X86570691Y-52704464D01*
X86662732Y-52582200D01*
X86721625Y-52449231D01*
X86742480Y-52329187D01*
X86752542Y-52280054D01*
X86784895Y-52241603D01*
X86811480Y-52221925D01*
X86887609Y-52177091D01*
X86942801Y-52162857D01*
X86982920Y-52177911D01*
G37*
G36*
X77123255Y-42285694D02*
G01*
X77230576Y-42469052D01*
X77318196Y-42623128D01*
X77388994Y-42753667D01*
X77445850Y-42866411D01*
X77491643Y-42967105D01*
X77529251Y-43061491D01*
X77561553Y-43155314D01*
X77565703Y-43168365D01*
X77600406Y-43314404D01*
X77617762Y-43469021D01*
X77617297Y-43618600D01*
X77598534Y-43749524D01*
X77587341Y-43789076D01*
X77561955Y-43855947D01*
X77529640Y-43920064D01*
X77486625Y-43985953D01*
X77429135Y-44058138D01*
X77353399Y-44141149D01*
X77255650Y-44239510D01*
X77132111Y-44357748D01*
X77047707Y-44436706D01*
X76926905Y-44549112D01*
X76797690Y-44669434D01*
X76669514Y-44788849D01*
X76551849Y-44898542D01*
X76454158Y-44989691D01*
X76444648Y-44998571D01*
X75967354Y-45442833D01*
X75515670Y-45860216D01*
X75086225Y-46253785D01*
X74675644Y-46626605D01*
X74280553Y-46981742D01*
X73897581Y-47322258D01*
X73572948Y-47607846D01*
X73433574Y-47731159D01*
X73321868Y-47833467D01*
X73232996Y-47919852D01*
X73162129Y-47995396D01*
X73104436Y-48065182D01*
X73055083Y-48134292D01*
X73020421Y-48189097D01*
X72955920Y-48316904D01*
X72919111Y-48446038D01*
X72909347Y-48584646D01*
X72925985Y-48740879D01*
X72963681Y-48905811D01*
X72987700Y-48997717D01*
X73000030Y-49059319D01*
X73000929Y-49100242D01*
X72990638Y-49130109D01*
X72970214Y-49157610D01*
X72897534Y-49211175D01*
X72822825Y-49237105D01*
X72722396Y-49261782D01*
X72555656Y-48757651D01*
X72506240Y-48604717D01*
X72458486Y-48450440D01*
X72415000Y-48303734D01*
X72378387Y-48173505D01*
X72351253Y-48068666D01*
X72341002Y-48023566D01*
X72301014Y-47746589D01*
X72299719Y-47484225D01*
X72337194Y-47235407D01*
X72413520Y-46999073D01*
X72418085Y-46988206D01*
X72466480Y-46884672D01*
X72523487Y-46784326D01*
X72592091Y-46684038D01*
X72675276Y-46580665D01*
X72776022Y-46471070D01*
X72897311Y-46352114D01*
X73042133Y-46220663D01*
X73213465Y-46073575D01*
X73414289Y-45907716D01*
X73547737Y-45799845D01*
X73913013Y-45505015D01*
X74260901Y-45221375D01*
X74590152Y-44950023D01*
X74899520Y-44692053D01*
X75187752Y-44448566D01*
X75453599Y-44220660D01*
X75695813Y-44009428D01*
X75913140Y-43815969D01*
X76104334Y-43641380D01*
X76268148Y-43486760D01*
X76403326Y-43353201D01*
X76508623Y-43241804D01*
X76582790Y-43153665D01*
X76615398Y-43106586D01*
X76700162Y-42934825D01*
X76751876Y-42760572D01*
X76767103Y-42632077D01*
X76765468Y-42516126D01*
X76749741Y-42412136D01*
X76716396Y-42305134D01*
X76661905Y-42180147D01*
X76659485Y-42175084D01*
X76587837Y-42025485D01*
X76657284Y-41947246D01*
X76708379Y-41896495D01*
X76753572Y-41871809D01*
X76799123Y-41864341D01*
X76871514Y-41859675D01*
X77123255Y-42285694D01*
G37*
G36*
X94839220Y-51553264D02*
G01*
X94839806Y-51553654D01*
X94850443Y-51579753D01*
X94864787Y-51644682D01*
X94882419Y-51745796D01*
X94902932Y-51880457D01*
X94925909Y-52046024D01*
X94950938Y-52239854D01*
X94964917Y-52353325D01*
X94986474Y-52531679D01*
X95006577Y-52699284D01*
X95024628Y-52851093D01*
X95040040Y-52982051D01*
X95052212Y-53087106D01*
X95060553Y-53161213D01*
X95064469Y-53199315D01*
X95064552Y-53200378D01*
X95069656Y-53268290D01*
X94963097Y-53246347D01*
X94884746Y-53236024D01*
X94773233Y-53229325D01*
X94636908Y-53226215D01*
X94484119Y-53226657D01*
X94323216Y-53230619D01*
X94162548Y-53238061D01*
X94010466Y-53248951D01*
X93993565Y-53250454D01*
X93852899Y-53265000D01*
X93677728Y-53285951D01*
X93474554Y-53312366D01*
X93249892Y-53343302D01*
X93010250Y-53377813D01*
X92762142Y-53414956D01*
X92512077Y-53453789D01*
X92266565Y-53493366D01*
X92032116Y-53532744D01*
X91960345Y-53545174D01*
X91807595Y-53571750D01*
X91665850Y-53596225D01*
X91541011Y-53617595D01*
X91438979Y-53634860D01*
X91365657Y-53647012D01*
X91326935Y-53653048D01*
X91325324Y-53653261D01*
X91267307Y-53660596D01*
X91201788Y-53004156D01*
X91185445Y-52841287D01*
X91170113Y-52690242D01*
X91156359Y-52556425D01*
X91144744Y-52445241D01*
X91135828Y-52362093D01*
X91130174Y-52312383D01*
X91128773Y-52301911D01*
X91129384Y-52286724D01*
X91140235Y-52275409D01*
X91166355Y-52267487D01*
X91212781Y-52262477D01*
X91284543Y-52259904D01*
X91386677Y-52259288D01*
X91524214Y-52260150D01*
X91563719Y-52260529D01*
X91919238Y-52260340D01*
X92268152Y-52252884D01*
X92606297Y-52238550D01*
X92929509Y-52217728D01*
X93233626Y-52190805D01*
X93514485Y-52158168D01*
X93767921Y-52120213D01*
X93989768Y-52077325D01*
X94175872Y-52029888D01*
X94235841Y-52010924D01*
X94298604Y-51989858D01*
X94348058Y-51971815D01*
X94389680Y-51952424D01*
X94428953Y-51927316D01*
X94471352Y-51892117D01*
X94522356Y-51842457D01*
X94587445Y-51773966D01*
X94672097Y-51682272D01*
X94738924Y-51609550D01*
X94784572Y-51564125D01*
X94814885Y-51547091D01*
X94839220Y-51553264D01*
G37*
G36*
X73612376Y-32567798D02*
G01*
X73772930Y-32575862D01*
X73970285Y-32587213D01*
X74073085Y-32593283D01*
X74249714Y-32603868D01*
X74413225Y-32613969D01*
X74558960Y-32623272D01*
X74682254Y-32631472D01*
X74778450Y-32638252D01*
X74842886Y-32643304D01*
X74870898Y-32646319D01*
X74871563Y-32646515D01*
X74874033Y-32668455D01*
X74867617Y-32721371D01*
X74853657Y-32795839D01*
X74844453Y-32837409D01*
X74798154Y-33059444D01*
X74758093Y-33301014D01*
X74724040Y-33565029D01*
X74695769Y-33854404D01*
X74673056Y-34172046D01*
X74655677Y-34520864D01*
X74643406Y-34903773D01*
X74636018Y-35323680D01*
X74634029Y-35557970D01*
X74632814Y-35730450D01*
X74631252Y-35889402D01*
X74629422Y-36030106D01*
X74627405Y-36147833D01*
X74625280Y-36237866D01*
X74623128Y-36295476D01*
X74621115Y-36315891D01*
X74598940Y-36317903D01*
X74540127Y-36319550D01*
X74449717Y-36320791D01*
X74332746Y-36321587D01*
X74194252Y-36321893D01*
X74039272Y-36321674D01*
X73950924Y-36321323D01*
X73788658Y-36320284D01*
X73639725Y-36318851D01*
X73509249Y-36317109D01*
X73402362Y-36315147D01*
X73324186Y-36313050D01*
X73279855Y-36310905D01*
X73271844Y-36309784D01*
X73269556Y-36287698D01*
X73272454Y-36230059D01*
X73279998Y-36142595D01*
X73291650Y-36031040D01*
X73306873Y-35901116D01*
X73319727Y-35799524D01*
X73360607Y-35481041D01*
X73395245Y-35199819D01*
X73423962Y-34951974D01*
X73447072Y-34733616D01*
X73464890Y-34540854D01*
X73477735Y-34369799D01*
X73485917Y-34216565D01*
X73489760Y-34077255D01*
X73489573Y-33947986D01*
X73485674Y-33824865D01*
X73483506Y-33782797D01*
X73459180Y-33501794D01*
X73419599Y-33240731D01*
X73365987Y-33005757D01*
X73299565Y-32803020D01*
X73278518Y-32752132D01*
X73256486Y-32700889D01*
X73241528Y-32658877D01*
X73236948Y-32625437D01*
X73246049Y-32599907D01*
X73272133Y-32581627D01*
X73318505Y-32569935D01*
X73388468Y-32564174D01*
X73485324Y-32563681D01*
X73612376Y-32567798D01*
G37*
%TO.C,T4*%
G36*
X246479391Y-214664326D02*
G01*
X245186234Y-215957482D01*
X242240710Y-213011959D01*
X243533867Y-211718801D01*
X246479391Y-214664326D01*
G37*
G36*
X244683340Y-216460378D02*
G01*
X243390183Y-217753533D01*
X240444659Y-214808010D01*
X241737818Y-213514853D01*
X244683340Y-216460378D01*
G37*
%TO.C,T1*%
G36*
X224087678Y-237056042D02*
G01*
X222794521Y-238349198D01*
X219848997Y-235403675D01*
X221142154Y-234110517D01*
X224087678Y-237056042D01*
G37*
G36*
X222291627Y-238852094D02*
G01*
X220998470Y-240145249D01*
X218052946Y-237199726D01*
X219346105Y-235906569D01*
X222291627Y-238852094D01*
G37*
%TO.C,T5*%
G36*
X240881463Y-220262258D02*
G01*
X239588306Y-221555414D01*
X236642782Y-218609891D01*
X237935939Y-217316733D01*
X240881463Y-220262258D01*
G37*
G36*
X239085412Y-222058310D02*
G01*
X237792255Y-223351465D01*
X234846731Y-220405942D01*
X236139890Y-219112785D01*
X239085412Y-222058310D01*
G37*
%TO.C,T7*%
G36*
X257675248Y-203468472D02*
G01*
X256382091Y-204761628D01*
X253436567Y-201816105D01*
X254729724Y-200522947D01*
X257675248Y-203468472D01*
G37*
G36*
X255879197Y-205264524D02*
G01*
X254586040Y-206557679D01*
X251640516Y-203612156D01*
X252933675Y-202318999D01*
X255879197Y-205264524D01*
G37*
%TO.C,T2*%
G36*
X229685606Y-231458114D02*
G01*
X228392449Y-232751270D01*
X225446925Y-229805747D01*
X226740082Y-228512589D01*
X229685606Y-231458114D01*
G37*
G36*
X227889555Y-233254166D02*
G01*
X226596398Y-234547321D01*
X223650874Y-231601798D01*
X224944033Y-230308641D01*
X227889555Y-233254166D01*
G37*
%TO.C,T3*%
G36*
X235283534Y-225860184D02*
G01*
X233990377Y-227153340D01*
X231044853Y-224207817D01*
X232338010Y-222914659D01*
X235283534Y-225860184D01*
G37*
G36*
X233487483Y-227656236D02*
G01*
X232194326Y-228949391D01*
X229248802Y-226003868D01*
X230541961Y-224710711D01*
X233487483Y-227656236D01*
G37*
%TO.C,G\u002A\u002A\u002A*%
G36*
X268519777Y-238095823D02*
G01*
X268562454Y-238131628D01*
X268608088Y-238193333D01*
X268638913Y-238246315D01*
X268663930Y-238289794D01*
X268685895Y-238323133D01*
X268700323Y-238339564D01*
X268700968Y-238339920D01*
X268712131Y-238355612D01*
X268727757Y-238390489D01*
X268744827Y-238437646D01*
X268748204Y-238448123D01*
X268766362Y-238501368D01*
X268784755Y-238540779D01*
X268809348Y-238576136D01*
X268846104Y-238617224D01*
X268860402Y-238632137D01*
X268900990Y-238675652D01*
X268924860Y-238705901D01*
X268935368Y-238727901D01*
X268936092Y-238745340D01*
X268918484Y-238785617D01*
X268880259Y-238812857D01*
X268857236Y-238820773D01*
X268817133Y-238832261D01*
X268775983Y-238842974D01*
X268713256Y-238864365D01*
X268638794Y-238898965D01*
X268571831Y-238936402D01*
X268499473Y-238979425D01*
X268446057Y-239009054D01*
X268407918Y-239026935D01*
X268381387Y-239034707D01*
X268362798Y-239034013D01*
X268357836Y-239032229D01*
X268336697Y-239014055D01*
X268337204Y-238986786D01*
X268359926Y-238948844D01*
X268405428Y-238898653D01*
X268406136Y-238897949D01*
X268448900Y-238857695D01*
X268491131Y-238821617D01*
X268523863Y-238797367D01*
X268524521Y-238796953D01*
X268575300Y-238752007D01*
X268609242Y-238689519D01*
X268626002Y-238622085D01*
X268629289Y-238567457D01*
X268619469Y-238513927D01*
X268594474Y-238455259D01*
X268552238Y-238385219D01*
X268542818Y-238371179D01*
X268504105Y-238306924D01*
X268472240Y-238240271D01*
X268450081Y-238178393D01*
X268440493Y-238128459D01*
X268440632Y-238115183D01*
X268447251Y-238093979D01*
X268467911Y-238086211D01*
X268479469Y-238085326D01*
X268519777Y-238095823D01*
G37*
G36*
X263576560Y-230284362D02*
G01*
X263586456Y-230304793D01*
X263595154Y-230340479D01*
X263596970Y-230352160D01*
X263603575Y-230389037D01*
X263610929Y-230413248D01*
X263612953Y-230416489D01*
X263620121Y-230433883D01*
X263629335Y-230468956D01*
X263635216Y-230496868D01*
X263644700Y-230535743D01*
X263661289Y-230593319D01*
X263682901Y-230662752D01*
X263707449Y-230737193D01*
X263715873Y-230761791D01*
X263743756Y-230842680D01*
X263772562Y-230926748D01*
X263799200Y-231004944D01*
X263820579Y-231068211D01*
X263823688Y-231077489D01*
X263844131Y-231135533D01*
X263864242Y-231187439D01*
X263880828Y-231225154D01*
X263886327Y-231235407D01*
X263901601Y-231266356D01*
X263920670Y-231313093D01*
X263939204Y-231364918D01*
X263958753Y-231418462D01*
X263985933Y-231485928D01*
X264016441Y-231556846D01*
X264034387Y-231596347D01*
X264061130Y-231655277D01*
X264083799Y-231707988D01*
X264099649Y-231747936D01*
X264105552Y-231766188D01*
X264114337Y-231790725D01*
X264134262Y-231837052D01*
X264164182Y-231902745D01*
X264202955Y-231985381D01*
X264249435Y-232082537D01*
X264302477Y-232191789D01*
X264360937Y-232310715D01*
X264397747Y-232384917D01*
X264429559Y-232449701D01*
X264457342Y-232507897D01*
X264478606Y-232554172D01*
X264490862Y-232583191D01*
X264492433Y-232587813D01*
X264505519Y-232615255D01*
X264529696Y-232653000D01*
X264547348Y-232676888D01*
X264575450Y-232718617D01*
X264607227Y-232774600D01*
X264636482Y-232833801D01*
X264640536Y-232842884D01*
X264666468Y-232896641D01*
X264693587Y-232944235D01*
X264716968Y-232977217D01*
X264721839Y-232982368D01*
X264758202Y-233025446D01*
X264796982Y-233085071D01*
X264832749Y-233151795D01*
X264860078Y-233216173D01*
X264865429Y-233232326D01*
X264885750Y-233283779D01*
X264914444Y-233339439D01*
X264930220Y-233364843D01*
X264960700Y-233414578D01*
X264988597Y-233467666D01*
X264999435Y-233491924D01*
X265018147Y-233535589D01*
X265036048Y-233573347D01*
X265041737Y-233584016D01*
X265053692Y-233613738D01*
X265055299Y-233632123D01*
X265064228Y-233650000D01*
X265098979Y-233664017D01*
X265158482Y-233674041D01*
X265241668Y-233679936D01*
X265347462Y-233681567D01*
X265435248Y-233680074D01*
X265471733Y-233680918D01*
X265523760Y-233684355D01*
X265583030Y-233689575D01*
X265641251Y-233695758D01*
X265690126Y-233702090D01*
X265721363Y-233707754D01*
X265723871Y-233708453D01*
X265763724Y-233725395D01*
X265794329Y-233743590D01*
X265836470Y-233770509D01*
X265863549Y-233780989D01*
X265873286Y-233774271D01*
X265872723Y-233769718D01*
X265878412Y-233750537D01*
X265885547Y-233746817D01*
X265908116Y-233750307D01*
X265921617Y-233765741D01*
X265917619Y-233783268D01*
X265915483Y-233802031D01*
X265925093Y-233834369D01*
X265932354Y-233850127D01*
X265953171Y-233896170D01*
X265969851Y-233941968D01*
X265972358Y-233950650D01*
X265983180Y-233982681D01*
X265997530Y-233996947D01*
X266017312Y-234001690D01*
X266050968Y-234012253D01*
X266072001Y-234029601D01*
X266074272Y-234047986D01*
X266071160Y-234052101D01*
X266061896Y-234074515D01*
X266059990Y-234099914D01*
X266055933Y-234138465D01*
X266045267Y-234174562D01*
X266038469Y-234212629D01*
X266053014Y-234235723D01*
X266085914Y-234240922D01*
X266108070Y-234235977D01*
X266140170Y-234229004D01*
X266160073Y-234230577D01*
X266160978Y-234231288D01*
X266178571Y-234234162D01*
X266213024Y-234231148D01*
X266235264Y-234227261D01*
X266314779Y-234224154D01*
X266395364Y-234244009D01*
X266470887Y-234283608D01*
X266535214Y-234339734D01*
X266582209Y-234409172D01*
X266582243Y-234409241D01*
X266595492Y-234449298D01*
X266604266Y-234500344D01*
X266608118Y-234553919D01*
X266606606Y-234601555D01*
X266599290Y-234634788D01*
X266594446Y-234642348D01*
X266582558Y-234667919D01*
X266580540Y-234692851D01*
X266571632Y-234726439D01*
X266541532Y-234774530D01*
X266491196Y-234835930D01*
X266421582Y-234909443D01*
X266356008Y-234973023D01*
X266257324Y-235065865D01*
X266271246Y-235105807D01*
X266276733Y-235145353D01*
X266270480Y-235178460D01*
X266265553Y-235214172D01*
X266274081Y-235249035D01*
X266282636Y-235288416D01*
X266271085Y-235335857D01*
X266268135Y-235342923D01*
X266252363Y-235392612D01*
X266244189Y-235446114D01*
X266244065Y-235494745D01*
X266252441Y-235529819D01*
X266257997Y-235537834D01*
X266264767Y-235558081D01*
X266268196Y-235595130D01*
X266268360Y-235638847D01*
X266265336Y-235679098D01*
X266259203Y-235705750D01*
X266256674Y-235709676D01*
X266256232Y-235725534D01*
X266263407Y-235750939D01*
X266267166Y-235782780D01*
X266258555Y-235803789D01*
X266244400Y-235834280D01*
X266244978Y-235872733D01*
X266259949Y-235904531D01*
X266260915Y-235905531D01*
X266268740Y-235929494D01*
X266263680Y-235946692D01*
X266257721Y-235971935D01*
X266262781Y-235984191D01*
X266266750Y-236003613D01*
X266261423Y-236012107D01*
X266255344Y-236034213D01*
X266261152Y-236058733D01*
X266267302Y-236093078D01*
X266262036Y-236116738D01*
X266256923Y-236143343D01*
X266262632Y-236156831D01*
X266268410Y-236177862D01*
X266265485Y-236212933D01*
X266262933Y-236224329D01*
X266257095Y-236260933D01*
X266259462Y-236286552D01*
X266261814Y-236290405D01*
X266273753Y-236309604D01*
X266290400Y-236344811D01*
X266300693Y-236369623D01*
X266327496Y-236431194D01*
X266352233Y-236470675D01*
X266378933Y-236492434D01*
X266411626Y-236500838D01*
X266422287Y-236501391D01*
X266470286Y-236507717D01*
X266518288Y-236521552D01*
X266520028Y-236522254D01*
X266561240Y-236532909D01*
X266598801Y-236532977D01*
X266602800Y-236532012D01*
X266634251Y-236529439D01*
X266678521Y-236533100D01*
X266725266Y-236541251D01*
X266764138Y-236552150D01*
X266783423Y-236562429D01*
X266802314Y-236567628D01*
X266846060Y-236569913D01*
X266915230Y-236569283D01*
X267010400Y-236565733D01*
X267098067Y-236561216D01*
X267153065Y-236558507D01*
X267226275Y-236555415D01*
X267308764Y-236552294D01*
X267391601Y-236549498D01*
X267404325Y-236549104D01*
X267487053Y-236545842D01*
X267571500Y-236541258D01*
X267648490Y-236535927D01*
X267708850Y-236530423D01*
X267715735Y-236529637D01*
X267766327Y-236524832D01*
X267815791Y-236523202D01*
X267869483Y-236525133D01*
X267932762Y-236531010D01*
X268010985Y-236541217D01*
X268109512Y-236556140D01*
X268130435Y-236559455D01*
X268187626Y-236571468D01*
X268263002Y-236591436D01*
X268349583Y-236617115D01*
X268440391Y-236646263D01*
X268528444Y-236676635D01*
X268606764Y-236705992D01*
X268668373Y-236732087D01*
X268670064Y-236732877D01*
X268719895Y-236749376D01*
X268775326Y-236751803D01*
X268814428Y-236747272D01*
X268864817Y-236737198D01*
X268908104Y-236724559D01*
X268930387Y-236714585D01*
X269004283Y-236669655D01*
X269059459Y-236642122D01*
X269097709Y-236631595D01*
X269120824Y-236637684D01*
X269130597Y-236659997D01*
X269131201Y-236670815D01*
X269127853Y-236692316D01*
X269113549Y-236709803D01*
X269081904Y-236730602D01*
X269076210Y-236733916D01*
X269038622Y-236757327D01*
X269009117Y-236778621D01*
X269002157Y-236784761D01*
X268993554Y-236806939D01*
X269009068Y-236828466D01*
X269045732Y-236846785D01*
X269085929Y-236856989D01*
X269135075Y-236871837D01*
X269162547Y-236893419D01*
X269166050Y-236919501D01*
X269160796Y-236929868D01*
X269137483Y-236947880D01*
X269098556Y-236952433D01*
X269040034Y-236943905D01*
X269032208Y-236942181D01*
X268986440Y-236936900D01*
X268956089Y-236947051D01*
X268948871Y-236953240D01*
X268936782Y-236967223D01*
X268935394Y-236980060D01*
X268947495Y-236997612D01*
X268975868Y-237025747D01*
X268989309Y-237038383D01*
X269031199Y-237081631D01*
X269050866Y-237112954D01*
X269049236Y-237134623D01*
X269033295Y-237146501D01*
X269007122Y-237148269D01*
X268973388Y-237131510D01*
X268928952Y-237094439D01*
X268910968Y-237077011D01*
X268876097Y-237047432D01*
X268842865Y-237027318D01*
X268830458Y-237023128D01*
X268803611Y-237011371D01*
X268766015Y-236986559D01*
X268731796Y-236959128D01*
X268668116Y-236915149D01*
X268585194Y-236875274D01*
X268490917Y-236842545D01*
X268393175Y-236820007D01*
X268357699Y-236814856D01*
X268286099Y-236808647D01*
X268202452Y-236805184D01*
X268111816Y-236804276D01*
X268019253Y-236805735D01*
X267929825Y-236809372D01*
X267848589Y-236814998D01*
X267780605Y-236822423D01*
X267730937Y-236831460D01*
X267708936Y-236839080D01*
X267676014Y-236849882D01*
X267633558Y-236855924D01*
X267628420Y-236856159D01*
X267587280Y-236865184D01*
X267568734Y-236886222D01*
X267574459Y-236915321D01*
X267593595Y-236938174D01*
X267623313Y-236961642D01*
X267669158Y-236993595D01*
X267725129Y-237030298D01*
X267785227Y-237068017D01*
X267843452Y-237103020D01*
X267893806Y-237131570D01*
X267930285Y-237149934D01*
X267939823Y-237153648D01*
X267976894Y-237169592D01*
X268004510Y-237188354D01*
X268004609Y-237188452D01*
X268023898Y-237199555D01*
X268064302Y-237217272D01*
X268121142Y-237239743D01*
X268189742Y-237265099D01*
X268248932Y-237285864D01*
X268368809Y-237324586D01*
X268472602Y-237353258D01*
X268558335Y-237371478D01*
X268624035Y-237378847D01*
X268667730Y-237374966D01*
X268675022Y-237372172D01*
X268700943Y-237370151D01*
X268740173Y-237377989D01*
X268763046Y-237385755D01*
X268804532Y-237400924D01*
X268837913Y-237411167D01*
X268848495Y-237413367D01*
X268867034Y-237423612D01*
X268898785Y-237449013D01*
X268938285Y-237485026D01*
X268958548Y-237504903D01*
X269020001Y-237563904D01*
X269069723Y-237604309D01*
X269112599Y-237628990D01*
X269153515Y-237640823D01*
X269192999Y-237642856D01*
X269227131Y-237638193D01*
X269264147Y-237624935D01*
X269307659Y-237600904D01*
X269361275Y-237563922D01*
X269428609Y-237511810D01*
X269481224Y-237468971D01*
X269537445Y-237428261D01*
X269580725Y-237410841D01*
X269612840Y-237417181D01*
X269635562Y-237447749D01*
X269650668Y-237503018D01*
X269652528Y-237514390D01*
X269664878Y-237571085D01*
X269683545Y-237632052D01*
X269692568Y-237655723D01*
X269710374Y-237700285D01*
X269724347Y-237738404D01*
X269729274Y-237754005D01*
X269726061Y-237786428D01*
X269705096Y-237834000D01*
X269668392Y-237893255D01*
X269617963Y-237960727D01*
X269589126Y-237995417D01*
X269552651Y-238036885D01*
X269527558Y-238061399D01*
X269508176Y-238073129D01*
X269488829Y-238076243D01*
X269479466Y-238075991D01*
X269448747Y-238069762D01*
X269432001Y-238049484D01*
X269427596Y-238038757D01*
X269422148Y-238011178D01*
X269427418Y-237979682D01*
X269445282Y-237939458D01*
X269477616Y-237885699D01*
X269501243Y-237850104D01*
X269532978Y-237798627D01*
X269548896Y-237759210D01*
X269551997Y-237724337D01*
X269551911Y-237723120D01*
X269542266Y-237685031D01*
X269519504Y-237667965D01*
X269481907Y-237671581D01*
X269427749Y-237695534D01*
X269423785Y-237697693D01*
X269374079Y-237729439D01*
X269328693Y-237769667D01*
X269285649Y-237817627D01*
X269239797Y-237869809D01*
X269202084Y-237904316D01*
X269164873Y-237925576D01*
X269120529Y-237938011D01*
X269064670Y-237945700D01*
X269009221Y-237952462D01*
X268957442Y-237960098D01*
X268926000Y-237965852D01*
X268892355Y-237970456D01*
X268839894Y-237974530D01*
X268776948Y-237977518D01*
X268735291Y-237978599D01*
X268628977Y-237982227D01*
X268547973Y-237989030D01*
X268492676Y-237998927D01*
X268463480Y-238011842D01*
X268460783Y-238027696D01*
X268464728Y-238032547D01*
X268466743Y-238049172D01*
X268464728Y-238051747D01*
X268448326Y-238052780D01*
X268441938Y-238048156D01*
X268422083Y-238037488D01*
X268385376Y-238024349D01*
X268357238Y-238016253D01*
X268310608Y-238003952D01*
X268270540Y-237993218D01*
X268255248Y-237989028D01*
X268215037Y-237982699D01*
X268159670Y-237979856D01*
X268100121Y-237980442D01*
X268047365Y-237984400D01*
X268016403Y-237990267D01*
X267988714Y-238001535D01*
X267979803Y-238016115D01*
X267979966Y-238027846D01*
X267977437Y-238058830D01*
X267968489Y-238094792D01*
X267961669Y-238114183D01*
X267953867Y-238124574D01*
X267940463Y-238124867D01*
X267916842Y-238113967D01*
X267878385Y-238090777D01*
X267834346Y-238062966D01*
X267802629Y-238052342D01*
X267781214Y-238066130D01*
X267770818Y-238103338D01*
X267770996Y-238150313D01*
X267770220Y-238204148D01*
X267758828Y-238237738D01*
X267737940Y-238248754D01*
X267725239Y-238245507D01*
X267713184Y-238229072D01*
X267698357Y-238193157D01*
X267683576Y-238144852D01*
X267680726Y-238133730D01*
X267667344Y-238084751D01*
X267654809Y-238047575D01*
X267645406Y-238028772D01*
X267643889Y-238027726D01*
X267627026Y-238033617D01*
X267598359Y-238051563D01*
X267587255Y-238059719D01*
X267545368Y-238084098D01*
X267516171Y-238086120D01*
X267501380Y-238068262D01*
X267502715Y-238033000D01*
X267521893Y-237982816D01*
X267527076Y-237972934D01*
X267547859Y-237924286D01*
X267562205Y-237872206D01*
X267563604Y-237863697D01*
X267571499Y-237807113D01*
X267469349Y-237715040D01*
X267411704Y-237664147D01*
X267343977Y-237605950D01*
X267277354Y-237550016D01*
X267250789Y-237528190D01*
X267208589Y-237492264D01*
X267160367Y-237448027D01*
X267103937Y-237393294D01*
X267037117Y-237325882D01*
X266957723Y-237243606D01*
X266863572Y-237144284D01*
X266810993Y-237088308D01*
X266722620Y-236994181D01*
X266650098Y-236917490D01*
X266590853Y-236855729D01*
X266542312Y-236806389D01*
X266501904Y-236766964D01*
X266467054Y-236734943D01*
X266435191Y-236707822D01*
X266403741Y-236683092D01*
X266370132Y-236658246D01*
X266368609Y-236657145D01*
X266310074Y-236617406D01*
X266249890Y-236580856D01*
X266196968Y-236552723D01*
X266172871Y-236542233D01*
X266083360Y-236508315D01*
X266008416Y-236479205D01*
X265937038Y-236450567D01*
X265863055Y-236420075D01*
X265729597Y-236366569D01*
X265619375Y-236326722D01*
X265532443Y-236300554D01*
X265468861Y-236288081D01*
X265449571Y-236286929D01*
X265408360Y-236289817D01*
X265350273Y-236297563D01*
X265284859Y-236308788D01*
X265251047Y-236315558D01*
X265091305Y-236345375D01*
X264950182Y-236362493D01*
X264822245Y-236366822D01*
X264702063Y-236358262D01*
X264584205Y-236336721D01*
X264530928Y-236321475D01*
X264463240Y-236302104D01*
X264462270Y-236301784D01*
X264402114Y-236279977D01*
X264346708Y-236255162D01*
X264292363Y-236224757D01*
X264235388Y-236186185D01*
X264210377Y-236166695D01*
X264172096Y-236136866D01*
X264098794Y-236074218D01*
X264011795Y-235995660D01*
X263972195Y-235959076D01*
X263903365Y-235896000D01*
X263837251Y-235836898D01*
X263777748Y-235785139D01*
X263728747Y-235744087D01*
X263714087Y-235732660D01*
X263694140Y-235717112D01*
X263685844Y-235711424D01*
X263649077Y-235686456D01*
X263630066Y-235667597D01*
X263622812Y-235647809D01*
X263621762Y-235636314D01*
X263629252Y-235608510D01*
X263838237Y-235608510D01*
X263843647Y-235607071D01*
X263861050Y-235606890D01*
X263889363Y-235620194D01*
X263894840Y-235623774D01*
X263930019Y-235640719D01*
X263965401Y-235637801D01*
X263981812Y-235631815D01*
X264015517Y-235622341D01*
X264038967Y-235623497D01*
X264041573Y-235625270D01*
X264067425Y-235634989D01*
X264103599Y-235632558D01*
X264137008Y-235619584D01*
X264146048Y-235612435D01*
X264173420Y-235593305D01*
X264220917Y-235571536D01*
X264291165Y-235545997D01*
X264332684Y-235532406D01*
X264350618Y-235524336D01*
X264625937Y-235524336D01*
X264633929Y-235577845D01*
X264657925Y-235634578D01*
X264692419Y-235684652D01*
X264731904Y-235718185D01*
X264734796Y-235719700D01*
X264798389Y-235740331D01*
X264856600Y-235738576D01*
X264904935Y-235716096D01*
X264938895Y-235674555D01*
X264950765Y-235639935D01*
X264950547Y-235586448D01*
X264932466Y-235528283D01*
X264900940Y-235472218D01*
X264860383Y-235425026D01*
X264815210Y-235393483D01*
X264784261Y-235384445D01*
X264722679Y-235389900D01*
X264673004Y-235417720D01*
X264639365Y-235464261D01*
X264625937Y-235524336D01*
X264350618Y-235524336D01*
X264389030Y-235507051D01*
X264424279Y-235470995D01*
X264444044Y-235418419D01*
X264444464Y-235416486D01*
X264452456Y-235379168D01*
X264378369Y-235378286D01*
X264335168Y-235379695D01*
X264303392Y-235384256D01*
X264293172Y-235388516D01*
X264274040Y-235397550D01*
X264238492Y-235407567D01*
X264219551Y-235411596D01*
X264166637Y-235425291D01*
X264104639Y-235446840D01*
X264038879Y-235473710D01*
X263974678Y-235503361D01*
X263917357Y-235533258D01*
X263872237Y-235560868D01*
X263844639Y-235583649D01*
X263838901Y-235593033D01*
X263838237Y-235608510D01*
X263629252Y-235608510D01*
X263632995Y-235594614D01*
X263669809Y-235553939D01*
X263730636Y-235515952D01*
X263738715Y-235512015D01*
X263797748Y-235482124D01*
X263869636Y-235442924D01*
X263950223Y-235396963D01*
X264035354Y-235346788D01*
X264120870Y-235294946D01*
X264202618Y-235243987D01*
X264276439Y-235196457D01*
X264338178Y-235154905D01*
X264383678Y-235121877D01*
X264405777Y-235103122D01*
X264436345Y-235067992D01*
X264458525Y-235029396D01*
X264474694Y-234980861D01*
X264487225Y-234915917D01*
X264494651Y-234860983D01*
X264513258Y-234738048D01*
X264539940Y-234613185D01*
X264544207Y-234597510D01*
X266012917Y-234597510D01*
X266016934Y-234662700D01*
X266039365Y-234723546D01*
X266079192Y-234773210D01*
X266110884Y-234794730D01*
X266165631Y-234813898D01*
X266226327Y-234821558D01*
X266280152Y-234816420D01*
X266291370Y-234812854D01*
X266333640Y-234785117D01*
X266373550Y-234739839D01*
X266404360Y-234686269D01*
X266418833Y-234637912D01*
X266416616Y-234568780D01*
X266393105Y-234510151D01*
X266352791Y-234464006D01*
X266300158Y-234432325D01*
X266239695Y-234417087D01*
X266175887Y-234420271D01*
X266113222Y-234443859D01*
X266064202Y-234481434D01*
X266028333Y-234534808D01*
X266012917Y-234597510D01*
X264544207Y-234597510D01*
X264576512Y-234478838D01*
X264618203Y-234347116D01*
X264645177Y-234262719D01*
X264663042Y-234197410D01*
X264673053Y-234145180D01*
X264676457Y-234100020D01*
X264675702Y-234071259D01*
X264667746Y-234018077D01*
X264650122Y-233945259D01*
X264624471Y-233857854D01*
X264592438Y-233760908D01*
X264555672Y-233659466D01*
X264515814Y-233558576D01*
X264485436Y-233487555D01*
X264455559Y-233418448D01*
X264424548Y-233343802D01*
X264397694Y-233276428D01*
X264390096Y-233256515D01*
X264368839Y-233201994D01*
X264340337Y-233131873D01*
X264308388Y-233055365D01*
X264278050Y-232984584D01*
X264245933Y-232907894D01*
X264209369Y-232815947D01*
X264172439Y-232719266D01*
X264139225Y-232628373D01*
X264133145Y-232611120D01*
X264103765Y-232527152D01*
X264072962Y-232439176D01*
X264043871Y-232356149D01*
X264019630Y-232287030D01*
X264013611Y-232269882D01*
X263987618Y-232193741D01*
X263959206Y-232107007D01*
X263930555Y-232016669D01*
X263903841Y-231929724D01*
X263881243Y-231853162D01*
X263864936Y-231793975D01*
X263862785Y-231785498D01*
X263853865Y-231753149D01*
X263838623Y-231701499D01*
X263819035Y-231637104D01*
X263797072Y-231566513D01*
X263792077Y-231550673D01*
X263763359Y-231455170D01*
X263733358Y-231347156D01*
X263703307Y-231231846D01*
X263674439Y-231114457D01*
X263647983Y-231000202D01*
X263625170Y-230894299D01*
X263607231Y-230801961D01*
X263595400Y-230728405D01*
X263592735Y-230706216D01*
X263586311Y-230632062D01*
X263581041Y-230549539D01*
X263578000Y-230475724D01*
X263577903Y-230471464D01*
X263576038Y-230412365D01*
X263573318Y-230358707D01*
X263570258Y-230320161D01*
X263569516Y-230314124D01*
X263568931Y-230289056D01*
X263575287Y-230283333D01*
X263576560Y-230284362D01*
G37*
G36*
X267396592Y-233293126D02*
G01*
X267400563Y-233309228D01*
X267406537Y-233331206D01*
X267422535Y-233370292D01*
X267445672Y-233419714D01*
X267458425Y-233445041D01*
X267484293Y-233497716D01*
X267504721Y-233544001D01*
X267516673Y-233576792D01*
X267518491Y-233585422D01*
X267523459Y-233611651D01*
X267528026Y-233620856D01*
X267534576Y-233638213D01*
X267540363Y-233670147D01*
X267540564Y-233671792D01*
X267548947Y-233707327D01*
X267561725Y-233731350D01*
X267575949Y-233759823D01*
X267586783Y-233809705D01*
X267594251Y-233875463D01*
X267598374Y-233951568D01*
X267599177Y-234032493D01*
X267596682Y-234112707D01*
X267590915Y-234186681D01*
X267581896Y-234248885D01*
X267569650Y-234293793D01*
X267559279Y-234311857D01*
X267551932Y-234331315D01*
X267545699Y-234367173D01*
X267543937Y-234384796D01*
X267536880Y-234425678D01*
X267524586Y-234458363D01*
X267510309Y-234476289D01*
X267499124Y-234475102D01*
X267495338Y-234456775D01*
X267497257Y-234423254D01*
X267503669Y-234385601D01*
X267511890Y-234358274D01*
X267514821Y-234325065D01*
X267497730Y-234303174D01*
X267467210Y-234298550D01*
X267451192Y-234303532D01*
X267425576Y-234309708D01*
X267413598Y-234303203D01*
X267419222Y-234279350D01*
X267448266Y-234266361D01*
X267464251Y-234264643D01*
X267488176Y-234260796D01*
X267499622Y-234246366D01*
X267505584Y-234222868D01*
X267507755Y-234185124D01*
X267491711Y-234165401D01*
X267458265Y-234159017D01*
X267435254Y-234155487D01*
X267425751Y-234142186D01*
X267423215Y-234111937D01*
X267416967Y-234078506D01*
X267403693Y-234058564D01*
X267402444Y-234057917D01*
X267388486Y-234039300D01*
X267384854Y-234013957D01*
X267379946Y-233980515D01*
X267369342Y-233961342D01*
X267357454Y-233936568D01*
X267352093Y-233899937D01*
X267352068Y-233897405D01*
X267345029Y-233854724D01*
X267327652Y-233808890D01*
X267323204Y-233800604D01*
X267306316Y-233767733D01*
X267305151Y-233746147D01*
X267320771Y-233724273D01*
X267331202Y-233713604D01*
X267354593Y-233685815D01*
X267359272Y-233661834D01*
X267351061Y-233635692D01*
X267340392Y-233601697D01*
X267338282Y-233576738D01*
X267338357Y-233576402D01*
X267339147Y-233552503D01*
X267336072Y-233513863D01*
X267333886Y-233496798D01*
X267332159Y-233452800D01*
X267338308Y-233415792D01*
X267342294Y-233406751D01*
X267350770Y-233374788D01*
X267346380Y-233352801D01*
X267338992Y-233328041D01*
X267341042Y-233317386D01*
X267356338Y-233297507D01*
X267359273Y-233293713D01*
X267379545Y-233282601D01*
X267396592Y-233293126D01*
G37*
G36*
X267306305Y-233161665D02*
G01*
X267298573Y-233179791D01*
X267280543Y-233208251D01*
X267258575Y-233238255D01*
X267239033Y-233261012D01*
X267229274Y-233268098D01*
X267216744Y-233276845D01*
X267187316Y-233301170D01*
X267144097Y-233338294D01*
X267090196Y-233385432D01*
X267028717Y-233439807D01*
X266962768Y-233498636D01*
X266895455Y-233559139D01*
X266829884Y-233618532D01*
X266769162Y-233674038D01*
X266716396Y-233722874D01*
X266674692Y-233762260D01*
X266648679Y-233787846D01*
X266598196Y-233837008D01*
X266559056Y-233868478D01*
X266526171Y-233886179D01*
X266517168Y-233889270D01*
X266471652Y-233893348D01*
X266432949Y-233879986D01*
X266408831Y-233852757D01*
X266404879Y-233837654D01*
X266401633Y-233820182D01*
X266397395Y-233828263D01*
X266397176Y-233829127D01*
X266387994Y-233840969D01*
X266382787Y-233838735D01*
X266375657Y-233819519D01*
X266375980Y-233817529D01*
X266387773Y-233804120D01*
X266417971Y-233777448D01*
X266463047Y-233740247D01*
X266519469Y-233695257D01*
X266583708Y-233645210D01*
X266652233Y-233592845D01*
X266721514Y-233540893D01*
X266788020Y-233492096D01*
X266848222Y-233449184D01*
X266876244Y-233429847D01*
X266925237Y-233394833D01*
X266985175Y-233349513D01*
X267046397Y-233301271D01*
X267074965Y-233277953D01*
X267131919Y-233233970D01*
X267186678Y-233197355D01*
X267235359Y-233170063D01*
X267274081Y-233154045D01*
X267298959Y-233151253D01*
X267306305Y-233161665D01*
G37*
%TD*%
D11*
%TO.C,R68*%
X251420296Y-246203799D03*
X249624245Y-247999852D03*
X247828194Y-249795903D03*
%TD*%
D12*
%TO.C,D41*%
X239060068Y-50476646D03*
X240954022Y-49692144D03*
%TD*%
D13*
%TO.C,U1*%
X224852567Y-244129883D03*
X225771807Y-243210643D03*
X227129453Y-244568289D03*
X226669832Y-245027908D03*
X226210213Y-245487529D03*
%TD*%
D14*
%TO.C,C1*%
X237174640Y-249041211D03*
X235707394Y-247573965D03*
%TD*%
D15*
%TO.C,R15*%
X108245313Y-139363280D03*
X108245313Y-137538280D03*
%TD*%
D16*
%TO.C,D56*%
X129458516Y-202115388D03*
X129458516Y-200065390D03*
%TD*%
D17*
%TO.C,D61*%
X249666669Y-96438587D03*
X248217099Y-94989017D03*
%TD*%
D13*
%TO.C,U7*%
X245542784Y-226154958D03*
X246002403Y-225695337D03*
X246462024Y-225235718D03*
X245104378Y-223878072D03*
X244185138Y-224797312D03*
%TD*%
D18*
%TO.C,D5*%
X103842522Y-52287843D03*
X104627024Y-50393889D03*
%TD*%
D19*
%TO.C,D45*%
X131579839Y-174927441D03*
X130795337Y-176821395D03*
%TD*%
D20*
%TO.C,R14*%
X153636080Y-44470591D03*
X151950000Y-45168989D03*
%TD*%
D13*
%TO.C,U8*%
X238661546Y-230320904D03*
X239580786Y-229401664D03*
X240938432Y-230759310D03*
X240478811Y-231218929D03*
X240019192Y-231678550D03*
%TD*%
D21*
%TO.C,R11*%
X141417459Y-74580147D03*
X140126989Y-75870617D03*
%TD*%
D20*
%TO.C,R23*%
X158369054Y-66066478D03*
X156682974Y-66764876D03*
%TD*%
D22*
%TO.C,D58*%
X167978158Y-175263315D03*
X169427728Y-176712885D03*
%TD*%
D23*
%TO.C,R12*%
X124533544Y-70630037D03*
X123835146Y-72316117D03*
%TD*%
D19*
%TO.C,D48*%
X138650905Y-162199517D03*
X137866403Y-164093471D03*
%TD*%
D24*
%TO.C,R9*%
X118851915Y-88162125D03*
X118851915Y-89987125D03*
%TD*%
D25*
%TO.C,D34*%
X176354931Y-86461695D03*
X178248885Y-87246197D03*
%TD*%
D26*
%TO.C,D49*%
X174006245Y-128294052D03*
X174006245Y-130344054D03*
%TD*%
D27*
%TO.C,R19*%
X117088502Y-109030575D03*
X117786900Y-110716655D03*
%TD*%
D28*
%TO.C,C5*%
X258383640Y-228523966D03*
X256916394Y-229991212D03*
%TD*%
D24*
%TO.C,R26*%
X198189296Y-39109015D03*
X198189296Y-40934015D03*
%TD*%
D29*
%TO.C,C6*%
X261647744Y-248391448D03*
X262867504Y-247171690D03*
%TD*%
D30*
%TO.C,R64*%
X205584430Y-200675741D03*
X207270510Y-201374139D03*
%TD*%
D19*
%TO.C,D43*%
X95909644Y-219942402D03*
X95125142Y-221836356D03*
%TD*%
D18*
%TO.C,D25*%
X198536165Y-34975773D03*
X199320667Y-33081819D03*
%TD*%
D31*
%TO.C,R39*%
X189340332Y-72363471D03*
X187654252Y-71665073D03*
%TD*%
D17*
%TO.C,D32*%
X139906020Y-149312495D03*
X138456450Y-147862925D03*
%TD*%
D20*
%TO.C,R8*%
X84339616Y-118009698D03*
X82653536Y-118708096D03*
%TD*%
D16*
%TO.C,D50*%
X207240263Y-116873364D03*
X207240263Y-114823362D03*
%TD*%
D24*
%TO.C,R5*%
X103295567Y-56220999D03*
X103295567Y-58045999D03*
%TD*%
D32*
%TO.C,D18*%
X126022366Y-130783856D03*
X126806868Y-132677810D03*
%TD*%
D26*
%TO.C,D20*%
X108952422Y-142400526D03*
X108952422Y-144450528D03*
%TD*%
D28*
%TO.C,C2*%
X266130640Y-240588966D03*
X264663394Y-242056212D03*
%TD*%
D33*
%TO.C,D3*%
X77768405Y-92195945D03*
X75718403Y-92195945D03*
%TD*%
D34*
%TO.C,S1*%
X269112106Y-246345224D03*
X270597030Y-247830148D03*
X265435150Y-252992028D03*
X263950226Y-251507104D03*
D35*
X267627181Y-246840199D03*
X266566522Y-247900860D03*
X264445202Y-250022180D03*
D36*
X268334288Y-248607966D03*
X266212968Y-250729286D03*
%TD*%
D30*
%TO.C,R27*%
X105988061Y-186599054D03*
X107674141Y-187297452D03*
%TD*%
D37*
%TO.C,T6*%
X246752028Y-207728340D03*
D38*
X248161928Y-210036266D03*
D37*
X245854002Y-208626366D03*
X248548079Y-205932289D03*
D38*
X249957979Y-208240215D03*
D37*
X247650053Y-206830315D03*
D39*
X253002286Y-210386496D03*
X252104260Y-211284520D03*
X251206235Y-212182547D03*
X250308209Y-213080573D03*
%TD*%
D13*
%TO.C,U6*%
X251066376Y-220631367D03*
X251525995Y-220171746D03*
X251985616Y-219712127D03*
X250627970Y-218354481D03*
X249708730Y-219273721D03*
%TD*%
D40*
%TO.C,D44*%
X107555884Y-203194034D03*
X106106314Y-204643604D03*
%TD*%
D41*
%TO.C,U18*%
X247542498Y-232575331D03*
X247896140Y-232221689D03*
X248249782Y-231868047D03*
X248603426Y-231514404D03*
X248957067Y-231160763D03*
X249310710Y-230807119D03*
X249664352Y-230453477D03*
X250017996Y-230099834D03*
X252200196Y-232282037D03*
X251846554Y-232635679D03*
X251492912Y-232989321D03*
X251139268Y-233342964D03*
X250785627Y-233696605D03*
X250431984Y-234050249D03*
X250078342Y-234403891D03*
X249724698Y-234757534D03*
%TD*%
D42*
%TO.C,R30*%
X115378254Y-172867990D03*
X116668724Y-174158460D03*
%TD*%
D43*
%TO.C,D7*%
X66526015Y-129672606D03*
X67975585Y-128223036D03*
%TD*%
D21*
%TO.C,R7*%
X64342821Y-131855797D03*
X63052351Y-133146267D03*
%TD*%
D13*
%TO.C,U5*%
X248304580Y-223393162D03*
X248764199Y-222933541D03*
X249223820Y-222473922D03*
X247866174Y-221116276D03*
X246946934Y-222035516D03*
%TD*%
%TO.C,U2*%
X227614363Y-241368088D03*
X228533603Y-240448848D03*
X229891249Y-241806494D03*
X229431628Y-242266113D03*
X228972009Y-242725734D03*
%TD*%
D42*
%TO.C,R59*%
X242657475Y-89429392D03*
X243947945Y-90719862D03*
%TD*%
D43*
%TO.C,D14*%
X145686617Y-71725206D03*
X147136187Y-70275636D03*
%TD*%
D13*
%TO.C,U12*%
X256589968Y-215107774D03*
X257049587Y-214648153D03*
X257509208Y-214188534D03*
X256151562Y-212830888D03*
X255232322Y-213750128D03*
%TD*%
D23*
%TO.C,R38*%
X211832102Y-81453412D03*
X211133704Y-83139492D03*
%TD*%
D44*
%TO.C,R42*%
X88804232Y-235167449D03*
X89502630Y-233481369D03*
%TD*%
D18*
%TO.C,D6*%
X55919413Y-144521847D03*
X56703915Y-142627893D03*
%TD*%
D15*
%TO.C,R48*%
X173829469Y-125606741D03*
X173829469Y-123781741D03*
%TD*%
D45*
%TO.C,TP1*%
X261263221Y-252850606D03*
%TD*%
D16*
%TO.C,D59*%
X212422110Y-144682629D03*
X212422110Y-142632627D03*
%TD*%
D24*
%TO.C,R6*%
X55212302Y-147559095D03*
X55212302Y-149384095D03*
%TD*%
D46*
%TO.C,D23*%
X164319489Y-64618780D03*
X166369491Y-64618780D03*
%TD*%
D47*
%TO.C,R3*%
X60079948Y-94612641D03*
X61766028Y-93914243D03*
%TD*%
D42*
%TO.C,R60*%
X152854913Y-232972066D03*
X154145383Y-234262536D03*
%TD*%
D30*
%TO.C,R29*%
X93967246Y-181649308D03*
X95653326Y-182347706D03*
%TD*%
D24*
%TO.C,R49*%
X206533156Y-101475835D03*
X206533156Y-103300835D03*
%TD*%
D48*
%TO.C,U17*%
X260160383Y-243537407D03*
X261503885Y-242193905D03*
X263434641Y-244124663D03*
X262762890Y-244796413D03*
X262091139Y-245468165D03*
%TD*%
D27*
%TO.C,R53*%
X130847954Y-205687431D03*
X131546352Y-207373511D03*
%TD*%
D49*
%TO.C,R44*%
X109775225Y-200974692D03*
X111065695Y-199684222D03*
%TD*%
D33*
%TO.C,D57*%
X158687391Y-184826932D03*
X156637393Y-184826932D03*
%TD*%
D42*
%TO.C,R10*%
X101236118Y-96500458D03*
X102526588Y-97790928D03*
%TD*%
D30*
%TO.C,R50*%
X229514973Y-82978780D03*
X231201053Y-83677178D03*
%TD*%
D50*
%TO.C,U19*%
X257450459Y-225758978D03*
X256990842Y-225299358D03*
X256531219Y-224839740D03*
X256071603Y-224380119D03*
X255611982Y-223920498D03*
X255152364Y-223460880D03*
X254692743Y-223001260D03*
X259542085Y-218151922D03*
X260001702Y-218611542D03*
X260461325Y-219071160D03*
X260920941Y-219530781D03*
X261380561Y-219990398D03*
X261840180Y-220450020D03*
X262299801Y-220909640D03*
%TD*%
D15*
%TO.C,R17*%
X102588459Y-139777493D03*
X102588459Y-137952493D03*
%TD*%
D33*
%TO.C,D28*%
X90178431Y-180584293D03*
X88128429Y-180584293D03*
%TD*%
D51*
%TO.C,R16*%
X123974085Y-126449780D03*
X123275687Y-124763700D03*
%TD*%
D52*
%TO.C,TP2*%
X270102055Y-243728929D03*
%TD*%
D37*
%TO.C,T4*%
X241154099Y-213326267D03*
D38*
X242563999Y-215634193D03*
D37*
X240256073Y-214224293D03*
X242950150Y-211530216D03*
D38*
X244360050Y-213838142D03*
D37*
X242052124Y-212428242D03*
D39*
X247404357Y-215984423D03*
X246506331Y-216882447D03*
X245608306Y-217780474D03*
X244710280Y-218678500D03*
%TD*%
D53*
%TO.C,D36*%
X202117080Y-62737331D03*
X201332578Y-60843377D03*
%TD*%
D26*
%TO.C,D42*%
X88446322Y-238249156D03*
X88446322Y-240299154D03*
%TD*%
D42*
%TO.C,R33*%
X141717980Y-151124456D03*
X143008450Y-152414926D03*
%TD*%
D30*
%TO.C,R61*%
X183062699Y-190134589D03*
X184748779Y-190832987D03*
%TD*%
D33*
%TO.C,D51*%
X224288849Y-81904200D03*
X222238847Y-81904200D03*
%TD*%
D23*
%TO.C,R1*%
X108211829Y-41365097D03*
X107513431Y-43051177D03*
%TD*%
D54*
%TO.C,D47*%
X126462707Y-189603372D03*
X124568753Y-190387874D03*
%TD*%
D12*
%TO.C,D21*%
X136289714Y-93295302D03*
X138183668Y-92510800D03*
%TD*%
D42*
%TO.C,R65*%
X221797823Y-209991097D03*
X223088293Y-211281567D03*
%TD*%
D53*
%TO.C,D55*%
X138336049Y-217593718D03*
X137551547Y-215699764D03*
%TD*%
D55*
%TO.C,R56*%
X147137900Y-183912720D03*
X148962900Y-183912720D03*
%TD*%
D16*
%TO.C,D4*%
X104002673Y-72396958D03*
X104002673Y-70346956D03*
%TD*%
D18*
%TO.C,D52*%
X207162868Y-96211220D03*
X207947370Y-94317266D03*
%TD*%
D44*
%TO.C,R46*%
X132532085Y-171640607D03*
X133230483Y-169954527D03*
%TD*%
D42*
%TO.C,R66*%
X229222445Y-176403524D03*
X230512915Y-177693994D03*
%TD*%
D12*
%TO.C,D13*%
X140532356Y-50868896D03*
X142426310Y-50084394D03*
%TD*%
D47*
%TO.C,R28*%
X77213455Y-182672129D03*
X78899535Y-181973731D03*
%TD*%
D27*
%TO.C,R25*%
X198647044Y-53103070D03*
X199345442Y-54789150D03*
%TD*%
D55*
%TO.C,R2*%
X81876971Y-92195947D03*
X83701971Y-92195947D03*
%TD*%
D56*
%TO.C,D9*%
X96931604Y-95024373D03*
X95037650Y-94239871D03*
%TD*%
D49*
%TO.C,R47*%
X139711565Y-159371090D03*
X141002035Y-158080620D03*
%TD*%
D42*
%TO.C,R58*%
X251849861Y-98621777D03*
X253140331Y-99912247D03*
%TD*%
D54*
%TO.C,D16*%
X73836952Y-183727577D03*
X71942998Y-184512079D03*
%TD*%
D13*
%TO.C,U11*%
X253828171Y-217869571D03*
X254287790Y-217409950D03*
X254747411Y-216950331D03*
X253389765Y-215592685D03*
X252470525Y-216511925D03*
%TD*%
D18*
%TO.C,D11*%
X126237839Y-66272864D03*
X127022341Y-64378910D03*
%TD*%
%TO.C,D12*%
X119481626Y-82069084D03*
X120266128Y-80175130D03*
%TD*%
D27*
%TO.C,R31*%
X107896114Y-157820942D03*
X108594512Y-159507022D03*
%TD*%
D21*
%TO.C,R13*%
X137174820Y-53366944D03*
X135884350Y-54657414D03*
%TD*%
D57*
%TO.C,R22*%
X172104738Y-86231779D03*
X170279738Y-86231779D03*
%TD*%
D12*
%TO.C,D54*%
X254843783Y-44897187D03*
X256737737Y-44112685D03*
%TD*%
D56*
%TO.C,D27*%
X103019622Y-185410478D03*
X101125668Y-184625976D03*
%TD*%
D19*
%TO.C,D35*%
X178248885Y-97145693D03*
X177464383Y-99039647D03*
%TD*%
D43*
%TO.C,D40*%
X223636301Y-63071985D03*
X225085871Y-61622415D03*
%TD*%
D17*
%TO.C,D60*%
X259583843Y-106355759D03*
X258134273Y-104906189D03*
%TD*%
D20*
%TO.C,R41*%
X235443695Y-52631451D03*
X233757615Y-53329849D03*
%TD*%
D13*
%TO.C,U13*%
X259351764Y-212345978D03*
X259811383Y-211886357D03*
X260271004Y-211426738D03*
X258913358Y-210069092D03*
X257994118Y-210988332D03*
%TD*%
D53*
%TO.C,D31*%
X106516244Y-154661212D03*
X105731742Y-152767258D03*
%TD*%
D27*
%TO.C,R37*%
X203455370Y-66113835D03*
X204153768Y-67799915D03*
%TD*%
D23*
%TO.C,R18*%
X108323916Y-123609219D03*
X107625518Y-125295299D03*
%TD*%
D58*
%TO.C,U16*%
X251519289Y-240391384D03*
X252417315Y-239493361D03*
X253315340Y-238595333D03*
X254213366Y-237697306D03*
X255111394Y-236799284D03*
X256009417Y-235901256D03*
X256907441Y-235003228D03*
X257805468Y-234105205D03*
X261146123Y-237445860D03*
X260248097Y-238343883D03*
X259350072Y-239241911D03*
X258452046Y-240139938D03*
X257554018Y-241037960D03*
X256655995Y-241935988D03*
X255757971Y-242834016D03*
X254859944Y-243732039D03*
%TD*%
D20*
%TO.C,R51*%
X251541241Y-46101577D03*
X249855161Y-46799975D03*
%TD*%
D49*
%TO.C,R69*%
X264815172Y-244941179D03*
X266105642Y-243650709D03*
%TD*%
D51*
%TO.C,R32*%
X114260206Y-160912399D03*
X113561808Y-159226319D03*
%TD*%
D17*
%TO.C,D66*%
X219782571Y-207975841D03*
X218333001Y-206526271D03*
%TD*%
D13*
%TO.C,U14*%
X262113559Y-209584183D03*
X262573178Y-209124562D03*
X263032799Y-208664943D03*
X261675153Y-207307297D03*
X260755913Y-208226537D03*
%TD*%
D22*
%TO.C,D39*%
X193345613Y-74624341D03*
X194795183Y-76073911D03*
%TD*%
D26*
%TO.C,D33*%
X174359798Y-114505469D03*
X174359798Y-116555471D03*
%TD*%
D24*
%TO.C,R4*%
X104709781Y-76019992D03*
X104709781Y-77844992D03*
%TD*%
D18*
%TO.C,D19*%
X109267276Y-120012981D03*
X110051778Y-118119027D03*
%TD*%
D53*
%TO.C,D30*%
X112487954Y-169977690D03*
X111703452Y-168083736D03*
%TD*%
D20*
%TO.C,R21*%
X152928973Y-87604105D03*
X151242893Y-88302503D03*
%TD*%
D13*
%TO.C,U4*%
X230376158Y-238606292D03*
X231295398Y-237687052D03*
X232653044Y-239044698D03*
X232193423Y-239504317D03*
X231733804Y-239963938D03*
%TD*%
D37*
%TO.C,T1*%
X218762386Y-235717983D03*
D38*
X220172286Y-238025909D03*
D37*
X217864360Y-236616009D03*
X220558437Y-233921932D03*
D38*
X221968337Y-236229858D03*
D37*
X219660411Y-234819958D03*
D39*
X225012644Y-238376139D03*
X224114618Y-239274163D03*
X223216593Y-240172190D03*
X222318567Y-241070216D03*
%TD*%
D54*
%TO.C,D2*%
X56866388Y-96046336D03*
X54972434Y-96830838D03*
%TD*%
D32*
%TO.C,D29*%
X116338343Y-163373859D03*
X117122845Y-165267813D03*
%TD*%
D26*
%TO.C,D17*%
X103295566Y-142789739D03*
X103295566Y-144839741D03*
%TD*%
D13*
%TO.C,U3*%
X233137955Y-235844496D03*
X234057195Y-234925256D03*
X235414841Y-236282902D03*
X234955220Y-236742521D03*
X234495601Y-237202142D03*
%TD*%
D56*
%TO.C,D53*%
X239060068Y-87246200D03*
X237166114Y-86461698D03*
%TD*%
%TO.C,D63*%
X179882521Y-189160461D03*
X177988567Y-188375959D03*
%TD*%
D49*
%TO.C,R35*%
X181846291Y-93548286D03*
X183136761Y-92257816D03*
%TD*%
D37*
%TO.C,T5*%
X235556171Y-218924199D03*
D38*
X236966071Y-221232125D03*
D37*
X234658145Y-219822225D03*
X237352222Y-217128148D03*
D38*
X238762122Y-219436074D03*
D37*
X236454196Y-218026174D03*
D39*
X241806429Y-221582355D03*
X240908403Y-222480379D03*
X240010378Y-223378406D03*
X239112352Y-224276432D03*
%TD*%
D47*
%TO.C,R45*%
X129539355Y-188328985D03*
X131225435Y-187630587D03*
%TD*%
D20*
%TO.C,R36*%
X192526954Y-86189892D03*
X190840874Y-86888290D03*
%TD*%
D44*
%TO.C,R43*%
X97289514Y-216782673D03*
X97987912Y-215096593D03*
%TD*%
D43*
%TO.C,D1*%
X110331276Y-37784081D03*
X111780846Y-36334511D03*
%TD*%
D42*
%TO.C,R67*%
X242657475Y-195495408D03*
X243947945Y-196785878D03*
%TD*%
D56*
%TO.C,D64*%
X202550837Y-198248469D03*
X200656883Y-197463967D03*
%TD*%
D53*
%TO.C,D65*%
X226300131Y-173187411D03*
X225515629Y-171293457D03*
%TD*%
D24*
%TO.C,R57*%
X207240263Y-122396143D03*
X207240263Y-124221143D03*
%TD*%
D21*
%TO.C,R20*%
X132932179Y-95793350D03*
X131641709Y-97083820D03*
%TD*%
D25*
%TO.C,D24*%
X179466200Y-67794079D03*
X181360154Y-68578581D03*
%TD*%
D12*
%TO.C,D37*%
X196114307Y-84937125D03*
X198008261Y-84152623D03*
%TD*%
D53*
%TO.C,D10*%
X115708633Y-105870847D03*
X114924131Y-103976893D03*
%TD*%
D42*
%TO.C,R52*%
X140126991Y-220244146D03*
X141417461Y-221534616D03*
%TD*%
%TO.C,R63*%
X262456462Y-109228381D03*
X263746932Y-110518851D03*
%TD*%
D59*
%TO.C,R54*%
X164751982Y-172744248D03*
X163461512Y-171453778D03*
%TD*%
D13*
%TO.C,U10*%
X235899750Y-233082699D03*
X236818990Y-232163459D03*
X238176636Y-233521105D03*
X237717015Y-233980724D03*
X237257396Y-234440345D03*
%TD*%
%TO.C,U9*%
X242780988Y-228916755D03*
X243240607Y-228457134D03*
X243700228Y-227997515D03*
X242342582Y-226639869D03*
X241423342Y-227559109D03*
%TD*%
D12*
%TO.C,D8*%
X87739218Y-116944684D03*
X89633172Y-116160182D03*
%TD*%
D37*
%TO.C,T7*%
X252349956Y-202130413D03*
D38*
X253759856Y-204438339D03*
D37*
X251451930Y-203028439D03*
X254146007Y-200334362D03*
D38*
X255555907Y-202642288D03*
D37*
X253247981Y-201232388D03*
D39*
X258600214Y-204788569D03*
X257702188Y-205686593D03*
X256804163Y-206584620D03*
X255906137Y-207482646D03*
%TD*%
D17*
%TO.C,D62*%
X150132554Y-230249702D03*
X148682984Y-228800132D03*
%TD*%
D27*
%TO.C,R62*%
X214993661Y-151240209D03*
X215692059Y-152926289D03*
%TD*%
D12*
%TO.C,D15*%
X158360285Y-42940460D03*
X160254239Y-42155958D03*
%TD*%
D30*
%TO.C,R55*%
X162773376Y-184860419D03*
X164459456Y-185558817D03*
%TD*%
D46*
%TO.C,D22*%
X157424894Y-87246198D03*
X159474896Y-87246198D03*
%TD*%
D44*
%TO.C,R34*%
X174359799Y-109520063D03*
X175058197Y-107833983D03*
%TD*%
D21*
%TO.C,R40*%
X220613419Y-66094866D03*
X219322949Y-67385336D03*
%TD*%
D43*
%TO.C,D38*%
X212172333Y-77364381D03*
X213621903Y-75914811D03*
%TD*%
D57*
%TO.C,R24*%
X175757223Y-66174418D03*
X173932223Y-66174418D03*
%TD*%
D33*
%TO.C,D46*%
X142698938Y-183607328D03*
X140648940Y-183607328D03*
%TD*%
D17*
%TO.C,D67*%
X239060069Y-191898000D03*
X237610499Y-190448430D03*
%TD*%
D37*
%TO.C,T2*%
X224360314Y-230120055D03*
D38*
X225770214Y-232427981D03*
D37*
X223462288Y-231018081D03*
X226156365Y-228324004D03*
D38*
X227566265Y-230631930D03*
D37*
X225258339Y-229222030D03*
D39*
X230610572Y-232778211D03*
X229712546Y-233676235D03*
X228814521Y-234574262D03*
X227916495Y-235472288D03*
%TD*%
D50*
%TO.C,U15*%
X238005022Y-245204414D03*
X237545405Y-244744794D03*
X237085787Y-244285176D03*
X236626166Y-243825555D03*
X236166545Y-243365934D03*
X235706927Y-242906316D03*
X235247306Y-242446696D03*
X240096648Y-237597358D03*
X240556265Y-238056978D03*
X241015883Y-238516596D03*
X241475504Y-238976217D03*
X241935125Y-239435833D03*
X242394743Y-239895456D03*
X242854364Y-240355076D03*
%TD*%
D37*
%TO.C,T3*%
X229958242Y-224522125D03*
D38*
X231368142Y-226830051D03*
D37*
X229060216Y-225420151D03*
X231754293Y-222726074D03*
D38*
X233164193Y-225034000D03*
D37*
X230856267Y-223624100D03*
D39*
X236208500Y-227180281D03*
X235310474Y-228078305D03*
X234412449Y-228976332D03*
X233514423Y-229874358D03*
%TD*%
D16*
%TO.C,D26*%
X198189297Y-49486697D03*
X198189297Y-47436695D03*
%TD*%
D14*
%TO.C,C4*%
X247391394Y-235889966D03*
X248858640Y-237357212D03*
%TD*%
D60*
%TO.C,C3*%
X254453516Y-248688590D03*
X256528516Y-248688590D03*
%TD*%
D61*
X259482725Y-184036388D03*
X201583410Y-58961926D03*
D62*
X252765879Y-219059140D03*
X245959977Y-222859840D03*
D61*
X70768655Y-186241148D03*
D62*
X259740955Y-221548735D03*
D61*
X216291230Y-194867851D03*
D62*
X253137110Y-223779079D03*
D61*
X73243528Y-92549499D03*
X125392654Y-94034423D03*
X139711566Y-165381497D03*
X113548615Y-34566744D03*
X181360154Y-194726431D03*
D62*
X240426866Y-228357595D03*
D61*
X123660242Y-165310786D03*
X247545351Y-92903052D03*
D62*
X248753047Y-220102124D03*
D61*
X93396071Y-93610160D03*
X129741359Y-155269870D03*
X219968185Y-52597964D03*
D62*
X239235017Y-235734589D03*
X254188921Y-220409166D03*
D61*
X205616039Y-87393985D03*
D62*
X254331909Y-222074738D03*
X231446610Y-241934045D03*
D61*
X171531371Y-66386546D03*
X110720187Y-144875401D03*
D62*
X236060017Y-238274589D03*
D61*
X183552187Y-69214975D03*
X116023488Y-167149264D03*
D62*
X242918018Y-225320589D03*
D61*
X105416888Y-48355324D03*
X111780848Y-131793925D03*
X216786204Y-204979477D03*
X136352808Y-77169925D03*
X222655189Y-99408434D03*
X197340767Y-32091868D03*
D62*
X233585608Y-238274767D03*
X205432152Y-216435774D03*
D61*
X223503718Y-59669033D03*
D62*
X244740938Y-228932466D03*
D61*
X220675292Y-92903052D03*
X249026738Y-179944363D03*
X249313116Y-189423128D03*
X231105116Y-95377925D03*
X256030630Y-187451998D03*
X206886709Y-73457616D03*
X206533157Y-81589344D03*
D62*
X259023775Y-217644927D03*
X253586018Y-231416590D03*
D61*
X253555759Y-190002389D03*
X141125779Y-48001771D03*
X123448110Y-188716021D03*
X248990677Y-176567925D03*
X116907373Y-124192527D03*
D62*
X245023061Y-230797114D03*
D61*
X177895330Y-200029731D03*
X117084148Y-149118041D03*
X166581621Y-78407362D03*
X132286944Y-76639597D03*
X256384185Y-41637810D03*
D62*
X264450819Y-209566232D03*
X261799168Y-212182528D03*
D61*
X249313116Y-194205149D03*
X212897118Y-91488837D03*
X231201054Y-87599750D03*
X248875417Y-183328575D03*
X176481117Y-188008915D03*
X209361583Y-91488839D03*
X257970933Y-185548182D03*
X258010528Y-246203802D03*
X195785134Y-118358897D03*
X140065119Y-90781733D03*
X205826049Y-93610159D03*
D62*
X247993041Y-225152496D03*
X253579052Y-228534372D03*
X263513901Y-219624827D03*
X237058686Y-229736453D03*
D61*
X146782632Y-171745458D03*
X179663098Y-87953306D03*
X98911505Y-144521847D03*
X263525963Y-253133448D03*
X208654477Y-201797496D03*
X94810284Y-223717807D03*
X136883136Y-213464760D03*
D62*
X254798811Y-226572150D03*
X260826897Y-216548912D03*
X266978726Y-216407490D03*
X263973521Y-218316678D03*
D61*
X212897117Y-89367518D03*
D62*
X260498305Y-221806464D03*
D61*
X187299851Y-117510368D03*
X196280108Y-47294666D03*
X132640498Y-178109419D03*
X212543565Y-229233240D03*
D62*
X257485817Y-209849075D03*
X244704862Y-238539932D03*
D61*
X162560958Y-55779946D03*
D62*
X251554017Y-222399589D03*
X258422733Y-213331575D03*
D61*
X104709779Y-206040138D03*
X230928341Y-214030445D03*
D62*
X253331566Y-233095210D03*
D61*
X57687178Y-140632760D03*
X260131850Y-248042280D03*
D62*
X228688894Y-245045315D03*
D61*
X132899126Y-185956895D03*
X127690751Y-200029731D03*
X161985431Y-41284258D03*
X138650904Y-182705614D03*
X227450410Y-220128178D03*
D62*
X256407478Y-217750992D03*
X252677491Y-233996772D03*
X268322228Y-245292802D03*
D61*
X149611061Y-71336294D03*
X248975826Y-173529490D03*
X259000480Y-253416293D03*
X112346533Y-172664696D03*
X189209039Y-197201303D03*
X195502290Y-122318692D03*
D62*
X236626168Y-237603017D03*
D61*
X236585194Y-188716022D03*
X196633661Y-74518275D03*
D62*
X263902811Y-207992919D03*
D61*
X240474281Y-47648218D03*
X86325004Y-181291401D03*
D62*
X224198766Y-243030060D03*
X257379751Y-222859840D03*
D61*
X210422243Y-140632760D03*
X116730594Y-102095441D03*
X117084148Y-94034423D03*
X139923697Y-81730765D03*
D62*
X261092062Y-210874380D03*
X239012653Y-232812368D03*
D61*
X138650906Y-77346704D03*
X198401428Y-196494194D03*
D62*
X251457731Y-228392950D03*
D61*
X227039253Y-95024373D03*
X120973236Y-78053810D03*
X234110320Y-97852799D03*
D62*
X234053964Y-248200882D03*
X228052497Y-243984655D03*
D61*
X215018439Y-74518276D03*
D62*
X235247309Y-232052228D03*
X233244508Y-240555402D03*
D61*
X188148379Y-194726430D03*
D62*
X265758966Y-218511133D03*
X261381096Y-213461510D03*
X238346017Y-236115589D03*
X244365452Y-227332290D03*
X259695526Y-207533300D03*
D61*
X167854416Y-109661483D03*
D62*
X261993624Y-222276477D03*
X231107017Y-243153805D03*
X236131193Y-235552407D03*
D61*
X239060068Y-83003555D03*
D62*
X247250446Y-224397798D03*
X234823047Y-233819996D03*
X257521172Y-232016872D03*
X249884421Y-225935754D03*
D61*
X98911503Y-151592916D03*
D62*
X250591526Y-229400578D03*
X257662594Y-237709081D03*
X246808238Y-229011937D03*
X246401919Y-220879941D03*
X248275752Y-227544422D03*
X252017281Y-226677625D03*
D61*
X210351533Y-234324410D03*
X231564736Y-203353131D03*
D62*
X238941943Y-241474426D03*
X240197057Y-236118092D03*
X245588746Y-236701455D03*
D61*
X161844008Y-77346704D03*
D62*
X237121142Y-241244616D03*
D61*
X176834673Y-81589344D03*
X226190724Y-204767345D03*
X154914360Y-183412720D03*
X165520962Y-81023659D03*
X197694320Y-81942895D03*
X176657895Y-117510368D03*
D62*
X240851130Y-225925146D03*
X258458089Y-221922924D03*
X226267052Y-241050161D03*
X251828963Y-234880655D03*
D61*
X216432652Y-105630973D03*
D62*
X234830327Y-244716721D03*
X230792536Y-241173905D03*
X254813873Y-225491197D03*
X252447682Y-223054295D03*
X243078517Y-224132632D03*
X229908653Y-237426240D03*
D61*
X189562592Y-98736684D03*
X105063334Y-144875400D03*
D62*
X259907658Y-224327087D03*
D61*
X209184806Y-79644801D03*
X114255721Y-119419557D03*
D62*
X252395356Y-229702771D03*
D61*
X171177817Y-177755866D03*
D62*
X258314010Y-243637580D03*
X241699658Y-229948586D03*
X258072259Y-236168046D03*
X245818555Y-249553119D03*
D61*
X253626466Y-241254055D03*
D62*
X255576629Y-216319102D03*
X255110017Y-240306589D03*
D61*
X161631876Y-87599753D03*
X127513972Y-134445577D03*
D62*
X248558594Y-234474069D03*
X231994617Y-235269564D03*
D61*
X137059914Y-146466390D03*
D62*
X251988063Y-215364509D03*
D61*
X123660241Y-174927439D03*
X204553258Y-221030802D03*
X168349389Y-65325888D03*
D62*
X243343682Y-232476492D03*
X256533768Y-227706066D03*
X239596015Y-237037331D03*
D61*
X257091290Y-103156101D03*
D62*
X241681981Y-234138193D03*
X259624816Y-215028632D03*
X247374190Y-239158651D03*
D61*
X71829315Y-142966212D03*
X251080882Y-192445019D03*
D62*
X242664017Y-230443560D03*
D61*
X182774369Y-166725000D03*
D62*
X250043518Y-221852213D03*
D61*
X53444538Y-97499245D03*
X128044304Y-62497460D03*
D62*
X242459798Y-233183597D03*
D61*
X185178532Y-97569957D03*
D62*
X236184226Y-246070620D03*
D61*
X91628306Y-115884023D03*
D62*
X241160696Y-234868912D03*
D61*
X69354442Y-126844177D03*
X205967470Y-126278490D03*
X167925125Y-115389049D03*
D62*
X259783914Y-220597098D03*
D61*
X88446323Y-242102583D03*
D62*
X245765522Y-233837672D03*
X239843503Y-244320531D03*
X228059017Y-249577589D03*
D61*
X263907666Y-245973419D03*
X220321738Y-81942897D03*
X111073740Y-166442157D03*
X228029203Y-211131306D03*
X99760035Y-184119826D03*
X147489740Y-227606894D03*
D62*
X238712132Y-238628321D03*
D61*
X118144809Y-95731481D03*
X108598869Y-117298238D03*
X67798806Y-145087533D03*
D62*
X243184583Y-237797471D03*
D61*
X193663814Y-175634548D03*
X166935175Y-185534041D03*
D62*
X254162416Y-213048733D03*
D61*
X184966399Y-189423126D03*
X104002674Y-68154315D03*
D62*
X208020163Y-213805337D03*
X228821017Y-246159010D03*
X248646982Y-218475777D03*
D61*
X251080884Y-187655362D03*
X202714781Y-181998507D03*
D62*
X234275038Y-239777370D03*
D61*
X243782129Y-166725001D03*
X202714780Y-129531182D03*
D62*
X254816489Y-229382900D03*
D61*
X223150167Y-168917031D03*
X196492238Y-89933204D03*
D62*
X237722183Y-231203699D03*
D61*
X103649120Y-153360682D03*
M02*
